solid rail_models_v6
facet normal 1.9414172579088315e-16 -1.0 6.2970679231870225e-15
  outer loop
    vertex 5.602762729564123 -5.288580165132718 2.972105162623913
    vertex 5.565812101962764 -5.288580165132718 2.9715914589646655
    vertex 5.5843212309483246 -5.288580165132718 2.9694159895887187
  endloop
endfacet
facet normal 1.9414172579088315e-16 -1.0 6.2970679231870225e-15
  outer loop
    vertex 5.565812101962764 -5.288580165132718 2.9715914589646655
    vertex 5.602762729564123 -5.288580165132718 2.972105162623913
    vertex 5.548496709160031 -5.288580165132718 2.9784833161089135
  endloop
endfacet
facet normal 1.9414172579088315e-16 -1.0 6.2970679231870225e-15
  outer loop
    vertex 5.548496709160031 -5.288580165132718 2.9784833161089135
    vertex 5.602762729564123 -5.288580165132718 2.972105162623913
    vertex 5.619879840155516 -5.288580165132718 2.979475715371967
  endloop
endfacet
facet normal 1.9414172579088315e-16 -1.0 6.2970679231870225e-15
  outer loop
    vertex 5.548496709160031 -5.288580165132718 2.9784833161089135
    vertex 5.619879840155516 -5.288580165132718 2.979475715371967
    vertex 5.533555067944585 -5.288580165132718 2.989621892346419
  endloop
endfacet
facet normal 1.9414172579088315e-16 -1.0 6.2970679231870225e-15
  outer loop
    vertex 5.533555067944585 -5.288580165132718 2.989621892346419
    vertex 5.619879840155516 -5.288580165132718 2.979475715371967
    vertex 5.634506059923055 -5.288580165132718 2.991025356843515
  endloop
endfacet
facet normal 1.9414172579088315e-16 -1.0 6.2970679231870225e-15
  outer loop
    vertex 5.533555067944585 -5.288580165132718 2.989621892346419
    vertex 5.634506059923055 -5.288580165132718 2.991025356843515
    vertex 5.522005426473037 -5.288580165132717 3.0042481121139666
  endloop
endfacet
facet normal 1.9414172579088315e-16 -1.0 6.2970679231870225e-15
  outer loop
    vertex 5.522005426473037 -5.288580165132717 3.0042481121139666
    vertex 5.634506059923055 -5.288580165132718 2.991025356843515
    vertex 5.64564463616056 -5.288580165132717 3.0059669980589643
  endloop
endfacet
facet normal 1.9414172579088315e-16 -1.0 6.2970679231870225e-15
  outer loop
    vertex 5.522005426473037 -5.288580165132717 3.0042481121139666
    vertex 5.64564463616056 -5.288580165132717 3.0059669980589643
    vertex 5.514634873724984 -5.288580165132717 3.0213652227053545
  endloop
endfacet
facet normal 1.9414172579088315e-16 -1.0 6.2970679231870225e-15
  outer loop
    vertex 5.514634873724984 -5.288580165132717 3.0213652227053545
    vertex 5.64564463616056 -5.288580165132717 3.0059669980589643
    vertex 5.6525364933048134 -5.288580165132717 3.023282390861698
  endloop
endfacet
facet normal 1.9414172579088315e-16 -1.0 6.2970679231870225e-15
  outer loop
    vertex 5.514634873724984 -5.288580165132717 3.0213652227053545
    vertex 5.6525364933048134 -5.288580165132717 3.023282390861698
    vertex 5.51194570068979 -5.288580165132717 3.039806721321154
  endloop
endfacet
facet normal 1.9414172579088315e-16 -1.0 6.2970679231870225e-15
  outer loop
    vertex 5.51194570068979 -5.288580165132717 3.039806721321154
    vertex 5.6525364933048134 -5.288580165132717 3.023282390861698
    vertex 5.654711962680759 -5.288580165132717 3.039806721321154
  endloop
endfacet
facet normal 1.9414172579088315e-16 -1.0 6.2970679231870225e-15
  outer loop
    vertex 5.51194570068979 -5.288580165132717 3.039806721321154
    vertex 5.654711962680759 -5.288580165132717 3.039806721321154
    vertex 5.654711962680759 -5.288580165132717 3.0417915198472585
  endloop
endfacet
facet normal 1.9414172579088315e-16 -1.0 6.2970679231870225e-15
  outer loop
    vertex 5.51194570068979 -5.288580165132717 3.039806721321154
    vertex 5.654711962680759 -5.288580165132717 3.0417915198472585
    vertex 5.514121170065736 -5.288580165132717 3.058315850306716
  endloop
endfacet
facet normal 1.9414172579088315e-16 -1.0 6.2970679231870225e-15
  outer loop
    vertex 5.514121170065736 -5.288580165132717 3.058315850306716
    vertex 5.654711962680759 -5.288580165132717 3.0417915198472585
    vertex 5.652022789645566 -5.288580165132717 3.0602330184630566
  endloop
endfacet
facet normal 1.9414172579088315e-16 -1.0 6.2970679231870225e-15
  outer loop
    vertex 5.514121170065736 -5.288580165132717 3.058315850306716
    vertex 5.652022789645566 -5.288580165132717 3.0602330184630566
    vertex 5.5210130272099835 -5.288580165132717 3.07563124310945
  endloop
endfacet
facet normal 1.9414172579088315e-16 -1.0 6.2970679231870225e-15
  outer loop
    vertex 5.5210130272099835 -5.288580165132717 3.07563124310945
    vertex 5.652022789645566 -5.288580165132717 3.0602330184630566
    vertex 5.644652236897507 -5.288580165132717 3.0773501290544485
  endloop
endfacet
facet normal 1.9414172579088315e-16 -1.0 6.2970679231870225e-15
  outer loop
    vertex 5.5210130272099835 -5.288580165132717 3.07563124310945
    vertex 5.644652236897507 -5.288580165132717 3.0773501290544485
    vertex 5.532151603447487 -5.288580165132717 3.090572884324896
  endloop
endfacet
facet normal 1.9414172579088315e-16 -1.0 6.2970679231870225e-15
  outer loop
    vertex 5.532151603447487 -5.288580165132717 3.090572884324896
    vertex 5.644652236897507 -5.288580165132717 3.0773501290544485
    vertex 5.633102595425956 -5.288580165132717 3.09197634882199
  endloop
endfacet
facet normal 1.9414172579088315e-16 -1.0 6.2970679231870225e-15
  outer loop
    vertex 5.532151603447487 -5.288580165132717 3.090572884324896
    vertex 5.633102595425956 -5.288580165132717 3.09197634882199
    vertex 5.546777823215032 -5.288580165132717 3.1021225257964433
  endloop
endfacet
facet normal 1.9414172579088315e-16 -1.0 6.2970679231870225e-15
  outer loop
    vertex 5.546777823215032 -5.288580165132717 3.1021225257964433
    vertex 5.633102595425956 -5.288580165132717 3.09197634882199
    vertex 5.618160954210516 -5.288580165132717 3.103114925059493
  endloop
endfacet
facet normal 1.9414172579088315e-16 -1.0 6.2970679231870225e-15
  outer loop
    vertex 5.546777823215032 -5.288580165132717 3.1021225257964433
    vertex 5.618160954210516 -5.288580165132717 3.103114925059493
    vertex 5.563894933806421 -5.288580165132717 3.1094930785444994
  endloop
endfacet
facet normal 1.9414172579088315e-16 -1.0 6.2970679231870225e-15
  outer loop
    vertex 5.563894933806421 -5.288580165132717 3.1094930785444994
    vertex 5.618160954210516 -5.288580165132717 3.103114925059493
    vertex 5.600845561407782 -5.288580165132717 3.1100067822037456
  endloop
endfacet
facet normal 1.9414172579088315e-16 -1.0 6.2970679231870225e-15
  outer loop
    vertex 5.563894933806421 -5.288580165132717 3.1094930785444994
    vertex 5.600845561407782 -5.288580165132717 3.1100067822037456
    vertex 5.582336432422222 -5.288580165132717 3.1121822515796915
  endloop
endfacet
facet normal -5.901496481109253e-16 -1.0 -1.569840446377059e-15
  outer loop
    vertex 5.377699826095348 -5.188580165132717 2.9412903462857782
    vertex 5.260890606561009 -5.188580165132717 2.8829069551405517
    vertex 6.027699826095347 -5.188580165132717 2.9412903462857782
  endloop
endfacet
facet normal -5.901496481109253e-16 -1.0 -1.569840446377059e-15
  outer loop
    vertex 6.144890606561015 -5.188580165132718 2.8829069551405517
    vertex 6.027699826095347 -5.188580165132717 2.9412903462857782
    vertex 5.702890606561011 -5.188580165132718 2.8829069551405517
  endloop
endfacet
facet normal -5.901496481109253e-16 -1.0 -1.569840446377059e-15
  outer loop
    vertex 6.027699826095347 -5.188580165132717 2.9412903462857782
    vertex 6.144890606561015 -5.188580165132718 2.8829069551405517
    vertex 5.985746330799888 -5.188580165132718 3.0787768330003944
  endloop
endfacet
facet normal -5.901496481109253e-16 -1.0 -1.569840446377059e-15
  outer loop
    vertex 5.702890606561011 -5.188580165132718 2.8829069551405517
    vertex 6.027699826095347 -5.188580165132717 2.9412903462857782
    vertex 5.260890606561009 -5.188580165132717 2.8829069551405517
  endloop
endfacet
facet normal -5.901496481109253e-16 -1.0 -1.569840446377059e-15
  outer loop
    vertex 6.027699826095347 -5.188580165132717 2.9412903462857782
    vertex 5.985746330799888 -5.188580165132718 3.0787768330003944
    vertex 5.702699826095346 -5.188580165132718 3.3412903462857786
  endloop
endfacet
facet normal -5.901496481109253e-16 -1.0 -1.569840446377059e-15
  outer loop
    vertex 5.702699826095346 -5.188580165132718 3.3412903462857786
    vertex 5.985746330799888 -5.188580165132718 3.0787768330003944
    vertex 5.702890606561004 -5.188580165132718 3.4269069551405487
  endloop
endfacet
facet normal -5.901496481109253e-16 -1.0 -1.569840446377059e-15
  outer loop
    vertex 5.702699826095346 -5.188580165132718 3.3412903462857786
    vertex 5.529500109832702 -5.188580165132718 3.2135032668595604
    vertex 5.377699826095348 -5.188580165132717 2.9412903462857782
  endloop
endfacet
facet normal -5.901496481109253e-16 -1.0 -1.569840446377059e-15
  outer loop
    vertex 5.529500109832702 -5.188580165132718 3.2135032668595604
    vertex 5.702699826095346 -5.188580165132718 3.3412903462857786
    vertex 5.702890606561004 -5.188580165132718 3.4269069551405487
  endloop
endfacet
facet normal 2.261011873256546e-15 -1.0 -4.52366721241003e-15
  outer loop
    vertex 5.529500109832702 -5.188580165132718 3.2135032668595604
    vertex 5.260890606561009 -5.188580165132717 2.8829069551405517
    vertex 5.377699826095348 -5.188580165132717 2.9412903462857782
  endloop
endfacet
facet normal 0.0 -1.0 0.0
  outer loop
    vertex 5.844819047128707 -5.288580165132717 2.9721624283083288
    vertex 5.807899222862052 -5.288580165132717 2.9716491528904077
    vertex 5.826392921990736 -5.288580165132717 2.969475497061772
  endloop
endfacet
facet normal 0.0 -1.0 0.0
  outer loop
    vertex 5.807899222862052 -5.288580165132717 2.9716491528904077
    vertex 5.844819047128707 -5.288580165132717 2.9721624283083288
    vertex 5.790598264775981 -5.288580165132717 2.9785352647416508
  endloop
endfacet
facet normal 0.0 -1.0 0.0
  outer loop
    vertex 5.790598264775981 -5.288580165132717 2.9785352647416508
    vertex 5.844819047128707 -5.288580165132717 2.9721624283083288
    vertex 5.861921888298415 -5.288580165132717 2.979526836705992
  endloop
endfacet
facet normal 0.0 -1.0 0.0
  outer loop
    vertex 5.790598264775981 -5.288580165132717 2.9785352647416508
    vertex 5.861921888298415 -5.288580165132717 2.979526836705992
    vertex 5.775669079434908 -5.288580165132717 2.9896645554726793
  endloop
endfacet
facet normal 0.0 -1.0 0.0
  outer loop
    vertex 5.775669079434908 -5.288580165132717 2.9896645554726793
    vertex 5.861921888298415 -5.288580165132717 2.979526836705992
    vertex 5.876535915137932 -5.288580165132717 2.991066849992714
  endloop
endfacet
facet normal 0.0 -1.0 0.0
  outer loop
    vertex 5.775669079434908 -5.288580165132717 2.9896645554726793
    vertex 5.876535915137932 -5.288580165132717 2.991066849992714
    vertex 5.764129066148189 -5.288580165132717 3.00427858231219
  endloop
endfacet
facet normal 0.0 -1.0 0.0
  outer loop
    vertex 5.764129066148189 -5.288580165132717 3.00427858231219
    vertex 5.876535915137932 -5.288580165132717 2.991066849992714
    vertex 5.887665205868954 -5.288580165132717 3.005996035333785
  endloop
endfacet
facet normal 0.0 -1.0 0.0
  outer loop
    vertex 5.764129066148189 -5.288580165132717 3.00427858231219
    vertex 5.887665205868954 -5.288580165132717 3.005996035333785
    vertex 5.756764657750524 -5.288580165132717 3.0213814234818974
  endloop
endfacet
facet normal 0.0 -1.0 0.0
  outer loop
    vertex 5.756764657750524 -5.288580165132717 3.0213814234818974
    vertex 5.887665205868954 -5.288580165132717 3.005996035333785
    vertex 5.8945513177201985 -5.288580165132717 3.0232969934198564
  endloop
endfacet
facet normal 0.0 -1.0 0.0
  outer loop
    vertex 5.756764657750524 -5.288580165132717 3.0213814234818974
    vertex 5.8945513177201985 -5.288580165132717 3.0232969934198564
    vertex 5.7540777265039695 -5.288580165132717 3.0398075486198666
  endloop
endfacet
facet normal 0.0 -1.0 0.0
  outer loop
    vertex 5.7540777265039695 -5.288580165132717 3.0398075486198666
    vertex 5.8945513177201985 -5.288580165132717 3.0232969934198564
    vertex 5.896724973548833 -5.288580165132717 3.0398075486198666
  endloop
endfacet
facet normal 0.0 -1.0 0.0
  outer loop
    vertex 5.7540777265039695 -5.288580165132717 3.0398075486198666
    vertex 5.896724973548833 -5.288580165132717 3.0398075486198666
    vertex 5.896724973548833 -5.288580165132717 3.0417906925485436
  endloop
endfacet
facet normal 0.0 -1.0 0.0
  outer loop
    vertex 5.7540777265039695 -5.288580165132717 3.0398075486198666
    vertex 5.896724973548833 -5.288580165132717 3.0417906925485436
    vertex 5.756251382332603 -5.288580165132717 3.0583012477485547
  endloop
endfacet
facet normal 0.0 -1.0 0.0
  outer loop
    vertex 5.756251382332603 -5.288580165132717 3.0583012477485547
    vertex 5.896724973548833 -5.288580165132717 3.0417906925485436
    vertex 5.894038042302282 -5.288580165132717 3.060216817686513
  endloop
endfacet
facet normal 0.0 -1.0 0.0
  outer loop
    vertex 5.756251382332603 -5.288580165132717 3.0583012477485547
    vertex 5.894038042302282 -5.288580165132717 3.060216817686513
    vertex 5.763137494183847 -5.288580165132717 3.0756022058346235
  endloop
endfacet
facet normal 0.0 -1.0 0.0
  outer loop
    vertex 5.763137494183847 -5.288580165132717 3.0756022058346235
    vertex 5.894038042302282 -5.288580165132717 3.060216817686513
    vertex 5.886673633904617 -5.288580165132717 3.0773196588562186
  endloop
endfacet
facet normal 0.0 -1.0 0.0
  outer loop
    vertex 5.763137494183847 -5.288580165132717 3.0756022058346235
    vertex 5.886673633904617 -5.288580165132717 3.0773196588562186
    vertex 5.77426678491487 -5.288580165132717 3.0905313911756958
  endloop
endfacet
facet normal 0.0 -1.0 0.0
  outer loop
    vertex 5.77426678491487 -5.288580165132717 3.0905313911756958
    vertex 5.886673633904617 -5.288580165132717 3.0773196588562186
    vertex 5.87513362061789 -5.288580165132717 3.091933685695733
  endloop
endfacet
facet normal 0.0 -1.0 0.0
  outer loop
    vertex 5.77426678491487 -5.288580165132717 3.0905313911756958
    vertex 5.87513362061789 -5.288580165132717 3.091933685695733
    vertex 5.78888081175439 -5.288580165132717 3.102071404462419
  endloop
endfacet
facet normal 0.0 -1.0 0.0
  outer loop
    vertex 5.78888081175439 -5.288580165132717 3.102071404462419
    vertex 5.87513362061789 -5.288580165132717 3.091933685695733
    vertex 5.860204435276819 -5.288580165132717 3.1030629764267577
  endloop
endfacet
facet normal 0.0 -1.0 0.0
  outer loop
    vertex 5.78888081175439 -5.288580165132717 3.102071404462419
    vertex 5.860204435276819 -5.288580165132717 3.1030629764267577
    vertex 5.80598365292409 -5.288580165132717 3.109435812860081
  endloop
endfacet
facet normal 0.0 -1.0 0.0
  outer loop
    vertex 5.80598365292409 -5.288580165132717 3.109435812860081
    vertex 5.860204435276819 -5.288580165132717 3.1030629764267577
    vertex 5.84290347719075 -5.288580165132717 3.109949088278003
  endloop
endfacet
facet normal 0.0 -1.0 0.0
  outer loop
    vertex 5.80598365292409 -5.288580165132717 3.109435812860081
    vertex 5.84290347719075 -5.288580165132717 3.109949088278003
    vertex 5.824409778062067 -5.288580165132717 3.112122744106638
  endloop
endfacet
facet normal 0.7761140001162682 5.25915303155031e-17 -0.6305926250944626
  outer loop
    vertex 5.377699826095348 -5.188580165132717 2.9412903462857782
    vertex 5.702699826095346 -5.168580165132719 3.3412903462857786
    vertex 5.702699826095346 -5.188580165132718 3.3412903462857786
  endloop
endfacet
facet normal 0.7761140001162682 5.25915303155031e-17 -0.6305926250944626
  outer loop
    vertex 5.702699826095346 -5.168580165132719 3.3412903462857786
    vertex 5.377699826095348 -5.188580165132717 2.9412903462857782
    vertex 5.377699826095348 -5.168580165132718 2.9412903462857782
  endloop
endfacet
facet normal 0.0 0.0 1.0
  outer loop
    vertex 6.027699826095347 -5.188580165132717 2.9412903462857782
    vertex 5.377699826095348 -5.168580165132718 2.9412903462857782
    vertex 5.377699826095348 -5.188580165132717 2.9412903462857782
  endloop
endfacet
facet normal 0.0 0.0 1.0
  outer loop
    vertex 5.377699826095348 -5.168580165132718 2.9412903462857782
    vertex 6.027699826095347 -5.188580165132717 2.9412903462857782
    vertex 6.027699826095347 -5.168580165132718 2.9412903462857782
  endloop
endfacet
facet normal -0.5286656364235951 -1.406597547262797e-15 -0.8488301625559941
  outer loop
    vertex 5.702890606561011 -5.188580165132719 2.6076219551405484
    vertex 5.260890606561009 -5.188580165132717 2.8829069551405517
    vertex 5.260890606561009 -4.5297691651327145 2.8829069551405504
  endloop
endfacet
facet normal -0.9180082733096357 1.4005610343046113e-15 0.3965612312557308
  outer loop
    vertex 5.260890606561009 -4.5297691651327145 2.8829069551405504
    vertex 5.260890606561009 -5.188580165132717 2.8829069551405517
    vertex 5.436383889258877 -5.188580165132719 3.2891601960757924
  endloop
endfacet
facet normal 0.0 1.0 0.0
  outer loop
    vertex 6.027699826095347 -4.529769165132716 2.9412903462857773
    vertex 6.0031897135779335 -4.529769165132716 3.0573080541966458
    vertex 6.144890606561015 -4.529769165132716 2.8829069551405504
  endloop
endfacet
facet normal 0.0 1.0 0.0
  outer loop
    vertex 6.0031897135779335 -4.529769165132716 3.0573080541966458
    vertex 6.027699826095347 -4.529769165132716 2.9412903462857773
    vertex 5.702699826095348 -4.529769165132716 3.341290346285777
  endloop
endfacet
facet normal 0.0 1.0 0.0
  outer loop
    vertex 6.0031897135779335 -4.529769165132716 3.0573080541966458
    vertex 5.702699826095348 -4.529769165132716 3.341290346285777
    vertex 5.702890606561006 -4.529769165132716 3.4269069551405478
  endloop
endfacet
facet normal 0.5286656364235925 -2.0838482181670865e-15 -0.8488301625559957
  outer loop
    vertex 6.144890606561015 -5.188580165132718 2.8829069551405517
    vertex 5.702890606561011 -5.188580165132719 2.6076219551405484
    vertex 6.144890606561015 -4.529769165132716 2.8829069551405504
  endloop
endfacet
facet normal 0.9765261223364482 -2.309725638542686e-16 0.21539900741308116
  outer loop
    vertex 6.144890606561015 -4.529769165132716 2.8829069551405504
    vertex 6.0840656075692845 -5.188580165132719 3.158661245375532
    vertex 6.144890606561015 -5.188580165132718 2.8829069551405517
  endloop
endfacet
facet normal 0.7621517265416909 0.18882880117317963 0.619248277815142
  outer loop
    vertex 6.0031897135779335 -4.529769165132716 3.0573080541966458
    vertex 6.0840656075692845 -5.188580165132719 3.158661245375532
    vertex 6.144890606561015 -4.529769165132716 2.8829069551405504
  endloop
endfacet
facet normal 0.5755098353468828 1.248524619036285e-15 0.8177948577846426
  outer loop
    vertex 6.0840656075692845 -5.188580165132719 3.158661245375532
    vertex 5.702890606561006 -4.529769165132716 3.4269069551405478
    vertex 5.702890606561004 -5.188580165132718 3.4269069551405487
  endloop
endfacet
facet normal -0.4591558635491884 2.1183068407132435e-15 0.8883557243404238
  outer loop
    vertex 5.702890606561006 -4.529769165132716 3.4269069551405478
    vertex 5.436383889258877 -5.188580165132719 3.2891601960757924
    vertex 5.702890606561004 -5.188580165132718 3.4269069551405487
  endloop
endfacet
facet normal 1.1193238812885245e-15 0.38554650374546795 -0.9226884053946088
  outer loop
    vertex 6.144890606561015 -4.529769165132716 2.8829069551405504
    vertex 5.702890606561011 -5.188580165132719 2.6076219551405484
    vertex 5.759846757840684 -4.529769165132715 2.8829069551405504
  endloop
endfacet
facet normal 0.7621517265416909 0.18882880117317963 0.6192482778151421
  outer loop
    vertex 5.702890606561006 -4.529769165132716 3.4269069551405478
    vertex 6.0840656075692845 -5.188580165132719 3.158661245375532
    vertex 6.0031897135779335 -4.529769165132716 3.0573080541966458
  endloop
endfacet
facet normal -0.7635556721150352 0.17916541132937974 0.6203889835934638
  outer loop
    vertex 5.461746387300035 -4.529769165132715 3.130114069896275
    vertex 5.436383889258877 -5.188580165132719 3.2891601960757924
    vertex 5.702890606561006 -4.529769165132716 3.4269069551405478
  endloop
endfacet
facet normal -0.7635556721150351 0.1791654113293798 0.620388983593464
  outer loop
    vertex 5.260890606561009 -4.5297691651327145 2.8829069551405504
    vertex 5.436383889258877 -5.188580165132719 3.2891601960757924
    vertex 5.461746387300035 -4.529769165132715 3.130114069896275
  endloop
endfacet
facet normal 9.332100831067583e-16 0.385546503745468 -0.9226884053946088
  outer loop
    vertex 5.759846757840684 -4.529769165132715 2.8829069551405504
    vertex 5.702890606561011 -5.188580165132719 2.6076219551405484
    vertex 5.260890606561009 -4.5297691651327145 2.8829069551405504
  endloop
endfacet
facet normal -1.5610330480179285e-31 -1.0 3.226395988521403e-15
  outer loop
    vertex 5.702890606561011 -5.188580165132718 2.8829069551405517
    vertex 5.702890606561011 -5.188580165132719 2.6076219551405484
    vertex 6.144890606561015 -5.188580165132718 2.8829069551405517
  endloop
endfacet
facet normal -2.009453438235565e-15 -1.0 3.226395988521409e-15
  outer loop
    vertex 5.260890606561009 -5.188580165132717 2.8829069551405517
    vertex 5.702890606561011 -5.188580165132719 2.6076219551405484
    vertex 5.702890606561011 -5.188580165132718 2.8829069551405517
  endloop
endfacet
facet normal 5.74547463480529e-15 -1.0 -4.668198140779284e-15
  outer loop
    vertex 5.702890606561004 -5.188580165132718 3.4269069551405487
    vertex 5.436383889258877 -5.188580165132719 3.2891601960757924
    vertex 5.529500109832702 -5.188580165132718 3.2135032668595604
  endloop
endfacet
facet normal 4.430623402803104e-15 -1.0 -6.2864765801665926e-15
  outer loop
    vertex 5.436383889258877 -5.188580165132719 3.2891601960757924
    vertex 5.260890606561009 -5.188580165132717 2.8829069551405517
    vertex 5.529500109832702 -5.188580165132718 3.2135032668595604
  endloop
endfacet
facet normal 0.0 -1.0 -2.220446049250311e-15
  outer loop
    vertex 6.027699826095347 -5.188580165132717 2.9412903462857782
    vertex 5.826392921990736 -5.188580165132717 2.969475497061772
    vertex 5.377699826095348 -5.188580165132717 2.9412903462857782
  endloop
endfacet
facet normal 0.0 -1.0 -2.220446049250311e-15
  outer loop
    vertex 5.826392921990736 -5.188580165132717 2.969475497061772
    vertex 6.027699826095347 -5.188580165132717 2.9412903462857782
    vertex 5.844819047128707 -5.188580165132717 2.9721624283083288
  endloop
endfacet
facet normal 0.0 -1.0 -2.220446049250311e-15
  outer loop
    vertex 5.844819047128707 -5.188580165132717 2.9721624283083288
    vertex 6.027699826095347 -5.188580165132717 2.9412903462857782
    vertex 5.861921888298415 -5.188580165132717 2.979526836705992
  endloop
endfacet
facet normal 0.0 -1.0 -2.220446049250311e-15
  outer loop
    vertex 5.861921888298415 -5.188580165132717 2.979526836705992
    vertex 6.027699826095347 -5.188580165132717 2.9412903462857782
    vertex 5.876535915137932 -5.188580165132717 2.991066849992714
  endloop
endfacet
facet normal 0.0 -1.0 -2.220446049250311e-15
  outer loop
    vertex 5.876535915137932 -5.188580165132717 2.991066849992714
    vertex 6.027699826095347 -5.188580165132717 2.9412903462857782
    vertex 5.887665205868954 -5.188580165132717 3.005996035333785
  endloop
endfacet
facet normal 0.0 -1.0 -2.220446049250311e-15
  outer loop
    vertex 5.887665205868954 -5.188580165132717 3.005996035333785
    vertex 6.027699826095347 -5.188580165132717 2.9412903462857782
    vertex 5.8945513177201985 -5.188580165132717 3.0232969934198564
  endloop
endfacet
facet normal 0.0 -1.0 -2.220446049250311e-15
  outer loop
    vertex 5.8945513177201985 -5.188580165132717 3.0232969934198564
    vertex 6.027699826095347 -5.188580165132717 2.9412903462857782
    vertex 5.896724973548833 -5.188580165132717 3.0398075486198666
  endloop
endfacet
facet normal 0.0 -1.0 -2.220446049250311e-15
  outer loop
    vertex 5.896724973548833 -5.188580165132717 3.0398075486198666
    vertex 6.027699826095347 -5.188580165132717 2.9412903462857782
    vertex 5.896724973548833 -5.188580165132717 3.0417906925485436
  endloop
endfacet
facet normal 0.0 -1.0 -2.220446049250311e-15
  outer loop
    vertex 5.896724973548833 -5.188580165132717 3.0417906925485436
    vertex 6.027699826095347 -5.188580165132717 2.9412903462857782
    vertex 5.894038042302282 -5.188580165132717 3.060216817686513
  endloop
endfacet
facet normal 0.0 -1.0 -2.220446049250311e-15
  outer loop
    vertex 5.894038042302282 -5.188580165132717 3.060216817686513
    vertex 6.027699826095347 -5.188580165132717 2.9412903462857782
    vertex 5.886673633904617 -5.188580165132717 3.0773196588562186
  endloop
endfacet
facet normal 0.0 -1.0 -2.220446049250311e-15
  outer loop
    vertex 5.886673633904617 -5.188580165132717 3.0773196588562186
    vertex 6.027699826095347 -5.188580165132717 2.9412903462857782
    vertex 5.702699826095346 -5.188580165132718 3.3412903462857786
  endloop
endfacet
facet normal 0.0 -1.0 -2.220446049250311e-15
  outer loop
    vertex 5.377699826095348 -5.188580165132717 2.9412903462857782
    vertex 5.826392921990736 -5.188580165132717 2.969475497061772
    vertex 5.5843212309483246 -5.188580165132718 2.969415989588718
  endloop
endfacet
facet normal 0.0 -1.0 -2.220446049250311e-15
  outer loop
    vertex 5.886673633904617 -5.188580165132717 3.0773196588562186
    vertex 5.702699826095346 -5.188580165132718 3.3412903462857786
    vertex 5.87513362061789 -5.188580165132717 3.091933685695733
  endloop
endfacet
facet normal 0.0 -1.0 -2.220446049250311e-15
  outer loop
    vertex 5.87513362061789 -5.188580165132717 3.091933685695733
    vertex 5.702699826095346 -5.188580165132718 3.3412903462857786
    vertex 5.860204435276819 -5.188580165132717 3.1030629764267577
  endloop
endfacet
facet normal 0.0 -1.0 -2.220446049250311e-15
  outer loop
    vertex 5.860204435276819 -5.188580165132717 3.1030629764267577
    vertex 5.702699826095346 -5.188580165132718 3.3412903462857786
    vertex 5.84290347719075 -5.188580165132717 3.109949088278003
  endloop
endfacet
facet normal 0.0 -1.0 -2.220446049250311e-15
  outer loop
    vertex 5.84290347719075 -5.188580165132717 3.109949088278003
    vertex 5.702699826095346 -5.188580165132718 3.3412903462857786
    vertex 5.824409778062067 -5.188580165132717 3.112122744106638
  endloop
endfacet
facet normal 0.0 -1.0 -2.220446049250311e-15
  outer loop
    vertex 5.824409778062067 -5.188580165132717 3.112122744106638
    vertex 5.702699826095346 -5.188580165132718 3.3412903462857786
    vertex 5.582336432422222 -5.188580165132717 3.112182251579691
  endloop
endfacet
facet normal 0.0 -1.0 -2.220446049250311e-15
  outer loop
    vertex 5.377699826095348 -5.188580165132717 2.9412903462857782
    vertex 5.5210130272099835 -5.188580165132717 3.0756312431094495
    vertex 5.702699826095346 -5.188580165132718 3.3412903462857786
  endloop
endfacet
facet normal 0.0 -1.0 -2.220446049250311e-15
  outer loop
    vertex 5.5210130272099835 -5.188580165132717 3.0756312431094495
    vertex 5.377699826095348 -5.188580165132717 2.9412903462857782
    vertex 5.514121170065736 -5.188580165132717 3.0583158503067156
  endloop
endfacet
facet normal 0.0 -1.0 -2.220446049250311e-15
  outer loop
    vertex 5.514121170065736 -5.188580165132717 3.0583158503067156
    vertex 5.377699826095348 -5.188580165132717 2.9412903462857782
    vertex 5.51194570068979 -5.188580165132717 3.0398067213211535
  endloop
endfacet
facet normal 0.0 -1.0 -2.220446049250311e-15
  outer loop
    vertex 5.51194570068979 -5.188580165132717 3.0398067213211535
    vertex 5.377699826095348 -5.188580165132717 2.9412903462857782
    vertex 5.514634873724984 -5.188580165132717 3.021365222705354
  endloop
endfacet
facet normal 0.0 -1.0 -2.220446049250311e-15
  outer loop
    vertex 5.514634873724984 -5.188580165132717 3.021365222705354
    vertex 5.377699826095348 -5.188580165132717 2.9412903462857782
    vertex 5.522005426473037 -5.188580165132717 3.004248112113966
  endloop
endfacet
facet normal 0.0 -1.0 -2.220446049250311e-15
  outer loop
    vertex 5.522005426473037 -5.188580165132717 3.004248112113966
    vertex 5.377699826095348 -5.188580165132717 2.9412903462857782
    vertex 5.533555067944585 -5.188580165132718 2.9896218923464186
  endloop
endfacet
facet normal 0.0 -1.0 -2.220446049250311e-15
  outer loop
    vertex 5.533555067944585 -5.188580165132718 2.9896218923464186
    vertex 5.377699826095348 -5.188580165132717 2.9412903462857782
    vertex 5.548496709160031 -5.188580165132718 2.978483316108913
  endloop
endfacet
facet normal 0.0 -1.0 -2.220446049250311e-15
  outer loop
    vertex 5.548496709160031 -5.188580165132718 2.978483316108913
    vertex 5.377699826095348 -5.188580165132717 2.9412903462857782
    vertex 5.565812101962764 -5.188580165132718 2.971591458964665
  endloop
endfacet
facet normal 0.0 -1.0 -2.220446049250311e-15
  outer loop
    vertex 5.565812101962764 -5.188580165132718 2.971591458964665
    vertex 5.377699826095348 -5.188580165132717 2.9412903462857782
    vertex 5.5843212309483246 -5.188580165132718 2.969415989588718
  endloop
endfacet
facet normal 0.0 -1.0 -2.220446049250311e-15
  outer loop
    vertex 5.702699826095346 -5.188580165132718 3.3412903462857786
    vertex 5.5210130272099835 -5.188580165132717 3.0756312431094495
    vertex 5.532151603447487 -5.188580165132717 3.0905728843248954
  endloop
endfacet
facet normal 0.0 -1.0 -2.220446049250311e-15
  outer loop
    vertex 5.702699826095346 -5.188580165132718 3.3412903462857786
    vertex 5.532151603447487 -5.188580165132717 3.0905728843248954
    vertex 5.546777823215032 -5.188580165132717 3.102122525796443
  endloop
endfacet
facet normal 0.0 -1.0 -2.220446049250311e-15
  outer loop
    vertex 5.702699826095346 -5.188580165132718 3.3412903462857786
    vertex 5.546777823215032 -5.188580165132717 3.102122525796443
    vertex 5.563894933806421 -5.188580165132717 3.109493078544499
  endloop
endfacet
facet normal 0.0 -1.0 -2.220446049250311e-15
  outer loop
    vertex 5.702699826095346 -5.188580165132718 3.3412903462857786
    vertex 5.563894933806421 -5.188580165132717 3.109493078544499
    vertex 5.582336432422222 -5.188580165132717 3.112182251579691
  endloop
endfacet
facet normal 0.0 -1.0 -2.220446049250311e-15
  outer loop
    vertex 5.826392921990736 -5.188580165132717 2.969475497061772
    vertex 5.602762729564123 -5.188580165132718 2.9721051626239126
    vertex 5.5843212309483246 -5.188580165132718 2.969415989588718
  endloop
endfacet
facet normal 0.0 -1.0 -2.220446049250311e-15
  outer loop
    vertex 5.602762729564123 -5.188580165132718 2.9721051626239126
    vertex 5.826392921990736 -5.188580165132717 2.969475497061772
    vertex 5.807899222862052 -5.188580165132717 2.9716491528904077
  endloop
endfacet
facet normal 0.0 -1.0 -2.220446049250311e-15
  outer loop
    vertex 5.602762729564123 -5.188580165132718 2.9721051626239126
    vertex 5.807899222862052 -5.188580165132717 2.9716491528904077
    vertex 5.790598264775981 -5.188580165132717 2.9785352647416508
  endloop
endfacet
facet normal 0.0 -1.0 -2.220446049250311e-15
  outer loop
    vertex 5.602762729564123 -5.188580165132718 2.9721051626239126
    vertex 5.790598264775981 -5.188580165132717 2.9785352647416508
    vertex 5.619879840155516 -5.188580165132718 2.9794757153719664
  endloop
endfacet
facet normal 0.0 -1.0 -2.220446049250311e-15
  outer loop
    vertex 5.619879840155516 -5.188580165132718 2.9794757153719664
    vertex 5.790598264775981 -5.188580165132717 2.9785352647416508
    vertex 5.775669079434908 -5.188580165132717 2.9896645554726793
  endloop
endfacet
facet normal 0.0 -1.0 -2.220446049250311e-15
  outer loop
    vertex 5.619879840155516 -5.188580165132718 2.9794757153719664
    vertex 5.775669079434908 -5.188580165132717 2.9896645554726793
    vertex 5.634506059923055 -5.188580165132718 2.9910253568435143
  endloop
endfacet
facet normal 0.0 -1.0 -2.220446049250311e-15
  outer loop
    vertex 5.634506059923055 -5.188580165132718 2.9910253568435143
    vertex 5.775669079434908 -5.188580165132717 2.9896645554726793
    vertex 5.764129066148189 -5.188580165132717 3.00427858231219
  endloop
endfacet
facet normal 0.0 -1.0 -2.220446049250311e-15
  outer loop
    vertex 5.634506059923055 -5.188580165132718 2.9910253568435143
    vertex 5.764129066148189 -5.188580165132717 3.00427858231219
    vertex 5.64564463616056 -5.188580165132717 3.005966998058964
  endloop
endfacet
facet normal 0.0 -1.0 -2.220446049250311e-15
  outer loop
    vertex 5.64564463616056 -5.188580165132717 3.005966998058964
    vertex 5.764129066148189 -5.188580165132717 3.00427858231219
    vertex 5.756764657750524 -5.188580165132717 3.0213814234818974
  endloop
endfacet
facet normal 0.0 -1.0 -2.220446049250311e-15
  outer loop
    vertex 5.64564463616056 -5.188580165132717 3.005966998058964
    vertex 5.756764657750524 -5.188580165132717 3.0213814234818974
    vertex 5.6525364933048134 -5.188580165132717 3.0232823908616977
  endloop
endfacet
facet normal 0.0 -1.0 -2.220446049250311e-15
  outer loop
    vertex 5.6525364933048134 -5.188580165132717 3.0232823908616977
    vertex 5.756764657750524 -5.188580165132717 3.0213814234818974
    vertex 5.7540777265039695 -5.188580165132717 3.0398075486198666
  endloop
endfacet
facet normal 0.0 -1.0 -2.220446049250311e-15
  outer loop
    vertex 5.6525364933048134 -5.188580165132717 3.0232823908616977
    vertex 5.7540777265039695 -5.188580165132717 3.0398075486198666
    vertex 5.654711962680759 -5.188580165132717 3.0398067213211535
  endloop
endfacet
facet normal 0.0 -1.0 -2.220446049250311e-15
  outer loop
    vertex 5.654711962680759 -5.188580165132717 3.0398067213211535
    vertex 5.7540777265039695 -5.188580165132717 3.0398075486198666
    vertex 5.654711962680759 -5.188580165132717 3.041791519847258
  endloop
endfacet
facet normal 0.0 -1.0 -2.220446049250311e-15
  outer loop
    vertex 5.654711962680759 -5.188580165132717 3.041791519847258
    vertex 5.7540777265039695 -5.188580165132717 3.0398075486198666
    vertex 5.756251382332603 -5.188580165132717 3.0583012477485547
  endloop
endfacet
facet normal 0.0 -1.0 -2.220446049250311e-15
  outer loop
    vertex 5.654711962680759 -5.188580165132717 3.041791519847258
    vertex 5.756251382332603 -5.188580165132717 3.0583012477485547
    vertex 5.652022789645566 -5.188580165132717 3.060233018463056
  endloop
endfacet
facet normal 0.0 -1.0 -2.220446049250311e-15
  outer loop
    vertex 5.652022789645566 -5.188580165132717 3.060233018463056
    vertex 5.756251382332603 -5.188580165132717 3.0583012477485547
    vertex 5.763137494183847 -5.188580165132717 3.0756022058346235
  endloop
endfacet
facet normal 0.0 -1.0 -2.220446049250311e-15
  outer loop
    vertex 5.652022789645566 -5.188580165132717 3.060233018463056
    vertex 5.763137494183847 -5.188580165132717 3.0756022058346235
    vertex 5.644652236897507 -5.188580165132717 3.077350129054448
  endloop
endfacet
facet normal 0.0 -1.0 -2.220446049250311e-15
  outer loop
    vertex 5.644652236897507 -5.188580165132717 3.077350129054448
    vertex 5.763137494183847 -5.188580165132717 3.0756022058346235
    vertex 5.77426678491487 -5.188580165132717 3.0905313911756958
  endloop
endfacet
facet normal 0.0 -1.0 -2.220446049250311e-15
  outer loop
    vertex 5.644652236897507 -5.188580165132717 3.077350129054448
    vertex 5.77426678491487 -5.188580165132717 3.0905313911756958
    vertex 5.633102595425956 -5.188580165132717 3.0919763488219894
  endloop
endfacet
facet normal 0.0 -1.0 -2.220446049250311e-15
  outer loop
    vertex 5.633102595425956 -5.188580165132717 3.0919763488219894
    vertex 5.77426678491487 -5.188580165132717 3.0905313911756958
    vertex 5.78888081175439 -5.188580165132717 3.102071404462419
  endloop
endfacet
facet normal 0.0 -1.0 -2.220446049250311e-15
  outer loop
    vertex 5.633102595425956 -5.188580165132717 3.0919763488219894
    vertex 5.78888081175439 -5.188580165132717 3.102071404462419
    vertex 5.618160954210516 -5.188580165132717 3.1031149250594927
  endloop
endfacet
facet normal 0.0 -1.0 -2.220446049250311e-15
  outer loop
    vertex 5.618160954210516 -5.188580165132717 3.1031149250594927
    vertex 5.78888081175439 -5.188580165132717 3.102071404462419
    vertex 5.80598365292409 -5.188580165132717 3.109435812860081
  endloop
endfacet
facet normal 0.0 -1.0 -2.220446049250311e-15
  outer loop
    vertex 5.618160954210516 -5.188580165132717 3.1031149250594927
    vertex 5.80598365292409 -5.188580165132717 3.109435812860081
    vertex 5.600845561407782 -5.188580165132717 3.110006782203745
  endloop
endfacet
facet normal 0.0 -1.0 -2.220446049250311e-15
  outer loop
    vertex 5.600845561407782 -5.188580165132717 3.110006782203745
    vertex 5.80598365292409 -5.188580165132717 3.109435812860081
    vertex 5.824409778062067 -5.188580165132717 3.112122744106638
  endloop
endfacet
facet normal 0.0 -1.0 -2.220446049250311e-15
  outer loop
    vertex 5.600845561407782 -5.188580165132717 3.110006782203745
    vertex 5.824409778062067 -5.188580165132717 3.112122744106638
    vertex 5.582336432422222 -5.188580165132717 3.112182251579691
  endloop
endfacet
facet normal -0.7761140001162649 5.259153031258812e-17 -0.6305926250944667
  outer loop
    vertex 5.702699826095346 -5.168580165132719 3.3412903462857786
    vertex 6.027699826095347 -5.188580165132717 2.9412903462857782
    vertex 5.702699826095346 -5.188580165132718 3.3412903462857786
  endloop
endfacet
facet normal -0.7761140001162649 5.259153031258812e-17 -0.6305926250944667
  outer loop
    vertex 6.027699826095347 -5.188580165132717 2.9412903462857782
    vertex 5.702699826095346 -5.168580165132719 3.3412903462857786
    vertex 6.027699826095347 -5.168580165132718 2.9412903462857782
  endloop
endfacet
facet normal -1.9449233363437348e-32 1.0 2.2204460492503107e-15
  outer loop
    vertex 5.702699826095346 -5.168580165132719 3.3412903462857786
    vertex 6.027699826095347 -5.168580165132718 2.9412903462857782
    vertex 5.377699826095348 -5.168580165132718 2.9412903462857782
  endloop
endfacet
facet normal -5.441424113102831e-15 -1.0 -4.421157091896191e-15
  outer loop
    vertex 6.0840656075692845 -5.188580165132719 3.158661245375532
    vertex 5.985746330799888 -5.188580165132718 3.0787768330003944
    vertex 6.144890606561015 -5.188580165132718 2.8829069551405517
  endloop
endfacet
facet normal -5.441424113102836e-15 -1.0 -4.421157091896184e-15
  outer loop
    vertex 5.702890606561004 -5.188580165132718 3.4269069551405487
    vertex 5.985746330799888 -5.188580165132718 3.0787768330003944
    vertex 6.0840656075692845 -5.188580165132719 3.158661245375532
  endloop
endfacet
facet normal 0.39548938874661044 -5.706890419497555e-15 -0.9184705457383119
  outer loop
    vertex 5.619879840155516 -5.188580165132718 2.9794757153719664
    vertex 5.602762729564123 -5.288580165132718 2.972105162623913
    vertex 5.602762729564123 -5.188580165132718 2.9721051626239126
  endloop
endfacet
facet normal 0.39548938874661044 -5.706890419497555e-15 -0.9184705457383119
  outer loop
    vertex 5.602762729564123 -5.288580165132718 2.972105162623913
    vertex 5.619879840155516 -5.188580165132718 2.9794757153719664
    vertex 5.619879840155516 -5.288580165132718 2.979475715371967
  endloop
endfacet
facet normal 0.1442957450109617 -6.203152806138646e-15 -0.9895346067580111
  outer loop
    vertex 5.602762729564123 -5.188580165132718 2.9721051626239126
    vertex 5.5843212309483246 -5.288580165132718 2.9694159895887187
    vertex 5.5843212309483246 -5.188580165132718 2.969415989588718
  endloop
endfacet
facet normal 0.1442957450109617 -6.203152806138646e-15 -0.9895346067580111
  outer loop
    vertex 5.5843212309483246 -5.288580165132718 2.9694159895887187
    vertex 5.602762729564123 -5.188580165132718 2.9721051626239126
    vertex 5.602762729564123 -5.288580165132718 2.972105162623913
  endloop
endfacet
facet normal -0.11673141528732121 -6.276680580236391e-15 -0.9931635196104512
  outer loop
    vertex 5.5843212309483246 -5.188580165132718 2.969415989588718
    vertex 5.565812101962764 -5.288580165132718 2.9715914589646655
    vertex 5.565812101962764 -5.188580165132718 2.971591458964665
  endloop
endfacet
facet normal -0.11673141528732121 -6.276680580236391e-15 -0.9931635196104512
  outer loop
    vertex 5.565812101962764 -5.288580165132718 2.9715914589646655
    vertex 5.5843212309483246 -5.188580165132718 2.969415989588718
    vertex 5.5843212309483246 -5.288580165132718 2.9694159895887187
  endloop
endfacet
facet normal -0.36980352254150256 -5.9224629454961666e-15 -0.9291099798817665
  outer loop
    vertex 5.565812101962764 -5.188580165132718 2.971591458964665
    vertex 5.548496709160031 -5.288580165132718 2.9784833161089135
    vertex 5.548496709160031 -5.188580165132718 2.978483316108913
  endloop
endfacet
facet normal -0.36980352254150256 -5.9224629454961666e-15 -0.9291099798817665
  outer loop
    vertex 5.548496709160031 -5.288580165132718 2.9784833161089135
    vertex 5.565812101962764 -5.188580165132718 2.971591458964665
    vertex 5.565812101962764 -5.288580165132718 2.9715914589646655
  endloop
endfacet
facet normal -0.5976741308637303 -5.164639248353138e-15 -0.8017391304509746
  outer loop
    vertex 5.548496709160031 -5.188580165132718 2.978483316108913
    vertex 5.533555067944585 -5.288580165132718 2.989621892346419
    vertex 5.533555067944585 -5.188580165132718 2.9896218923464186
  endloop
endfacet
facet normal -0.5976741308637303 -5.164639248353138e-15 -0.8017391304509746
  outer loop
    vertex 5.533555067944585 -5.288580165132718 2.989621892346419
    vertex 5.548496709160031 -5.188580165132718 2.978483316108913
    vertex 5.548496709160031 -5.288580165132718 2.9784833161089135
  endloop
endfacet
facet normal -0.7848142348710152 -4.054853921403043e-15 -0.6197310842162294
  outer loop
    vertex 5.522005426473037 -5.288580165132717 3.0042481121139666
    vertex 5.533555067944585 -5.188580165132718 2.9896218923464186
    vertex 5.533555067944585 -5.288580165132718 2.989621892346419
  endloop
endfacet
facet normal -0.7848142348710152 -4.054853921403043e-15 -0.6197310842162294
  outer loop
    vertex 5.533555067944585 -5.188580165132718 2.9896218923464186
    vertex 5.522005426473037 -5.288580165132717 3.0042481121139666
    vertex 5.522005426473037 -5.188580165132717 3.004248112113966
  endloop
endfacet
facet normal -0.9184705457382797 -2.6687370006753204e-15 -0.3954893887466856
  outer loop
    vertex 5.514634873724984 -5.188580165132717 3.021365222705354
    vertex 5.522005426473037 -5.288580165132717 3.0042481121139666
    vertex 5.514634873724984 -5.288580165132717 3.0213652227053545
  endloop
endfacet
facet normal -0.9184705457382797 -2.6687370006753204e-15 -0.3954893887466856
  outer loop
    vertex 5.522005426473037 -5.288580165132717 3.0042481121139666
    vertex 5.514634873724984 -5.188580165132717 3.021365222705354
    vertex 5.522005426473037 -5.188580165132717 3.004248112113966
  endloop
endfacet
facet normal -0.989534606758012 -1.1007500636466612e-15 -0.14429574501095488
  outer loop
    vertex 5.51194570068979 -5.188580165132717 3.0398067213211535
    vertex 5.514634873724984 -5.288580165132717 3.0213652227053545
    vertex 5.51194570068979 -5.288580165132717 3.039806721321154
  endloop
endfacet
facet normal -0.989534606758012 -1.1007500636466612e-15 -0.14429574501095488
  outer loop
    vertex 5.514634873724984 -5.288580165132717 3.0213652227053545
    vertex 5.51194570068979 -5.188580165132717 3.0398067213211535
    vertex 5.514634873724984 -5.188580165132717 3.021365222705354
  endloop
endfacet
facet normal -0.993163519610455 5.42251171144092e-16 0.11673141528728943
  outer loop
    vertex 5.514121170065736 -5.188580165132717 3.0583158503067156
    vertex 5.51194570068979 -5.288580165132717 3.039806721321154
    vertex 5.514121170065736 -5.288580165132717 3.058315850306716
  endloop
endfacet
facet normal -0.993163519610455 5.42251171144092e-16 0.11673141528728943
  outer loop
    vertex 5.51194570068979 -5.288580165132717 3.039806721321154
    vertex 5.514121170065736 -5.188580165132717 3.0583158503067156
    vertex 5.51194570068979 -5.188580165132717 3.0398067213211535
  endloop
endfacet
facet normal -0.9291099798817843 2.148298884733598e-15 0.3698035225414574
  outer loop
    vertex 5.5210130272099835 -5.188580165132717 3.0756312431094495
    vertex 5.514121170065736 -5.288580165132717 3.058315850306716
    vertex 5.5210130272099835 -5.288580165132717 3.07563124310945
  endloop
endfacet
facet normal -0.9291099798817843 2.148298884733598e-15 0.3698035225414574
  outer loop
    vertex 5.514121170065736 -5.288580165132717 3.058315850306716
    vertex 5.5210130272099835 -5.188580165132717 3.0756312431094495
    vertex 5.514121170065736 -5.188580165132717 3.0583158503067156
  endloop
endfacet
facet normal -0.8017391304510115 3.607943579560523e-15 0.5976741308636805
  outer loop
    vertex 5.532151603447487 -5.188580165132717 3.0905728843248954
    vertex 5.5210130272099835 -5.288580165132717 3.07563124310945
    vertex 5.532151603447487 -5.288580165132717 3.090572884324896
  endloop
endfacet
facet normal -0.8017391304510115 3.607943579560523e-15 0.5976741308636805
  outer loop
    vertex 5.5210130272099835 -5.288580165132717 3.07563124310945
    vertex 5.532151603447487 -5.188580165132717 3.0905728843248954
    vertex 5.5210130272099835 -5.188580165132717 3.0756312431094495
  endloop
endfacet
facet normal -0.6197310842163104 4.821712881850422e-15 0.784814234870951
  outer loop
    vertex 5.546777823215032 -5.288580165132717 3.1021225257964433
    vertex 5.532151603447487 -5.188580165132717 3.0905728843248954
    vertex 5.532151603447487 -5.288580165132717 3.090572884324896
  endloop
endfacet
facet normal -0.6197310842163104 4.821712881850422e-15 0.784814234870951
  outer loop
    vertex 5.532151603447487 -5.188580165132717 3.0905728843248954
    vertex 5.546777823215032 -5.288580165132717 3.1021225257964433
    vertex 5.546777823215032 -5.188580165132717 3.102122525796443
  endloop
endfacet
facet normal -0.3954893887467802 5.706890419497061e-15 0.9184705457382388
  outer loop
    vertex 5.563894933806421 -5.288580165132717 3.1094930785444994
    vertex 5.546777823215032 -5.188580165132717 3.102122525796443
    vertex 5.546777823215032 -5.288580165132717 3.1021225257964433
  endloop
endfacet
facet normal -0.3954893887467802 5.706890419497061e-15 0.9184705457382388
  outer loop
    vertex 5.546777823215032 -5.188580165132717 3.102122525796443
    vertex 5.563894933806421 -5.288580165132717 3.1094930785444994
    vertex 5.563894933806421 -5.188580165132717 3.109493078544499
  endloop
endfacet
facet normal -0.14429574501082462 6.2031528061388e-15 0.9895346067580311
  outer loop
    vertex 5.582336432422222 -5.288580165132717 3.1121822515796915
    vertex 5.563894933806421 -5.188580165132717 3.109493078544499
    vertex 5.563894933806421 -5.288580165132717 3.1094930785444994
  endloop
endfacet
facet normal -0.14429574501082462 6.2031528061388e-15 0.9895346067580311
  outer loop
    vertex 5.563894933806421 -5.188580165132717 3.109493078544499
    vertex 5.582336432422222 -5.288580165132717 3.1121822515796915
    vertex 5.582336432422222 -5.188580165132717 3.112182251579691
  endloop
endfacet
facet normal 0.11673141528727973 6.276680580236413e-15 0.9931635196104561
  outer loop
    vertex 5.600845561407782 -5.288580165132717 3.1100067822037456
    vertex 5.582336432422222 -5.188580165132717 3.112182251579691
    vertex 5.582336432422222 -5.288580165132717 3.1121822515796915
  endloop
endfacet
facet normal 0.11673141528727973 6.276680580236413e-15 0.9931635196104561
  outer loop
    vertex 5.582336432422222 -5.188580165132717 3.112182251579691
    vertex 5.600845561407782 -5.288580165132717 3.1100067822037456
    vertex 5.600845561407782 -5.188580165132717 3.110006782203745
  endloop
endfacet
facet normal 0.3698035225416755 5.9224629454957666e-15 0.9291099798816975
  outer loop
    vertex 5.618160954210516 -5.288580165132717 3.103114925059493
    vertex 5.600845561407782 -5.188580165132717 3.110006782203745
    vertex 5.600845561407782 -5.288580165132717 3.1100067822037456
  endloop
endfacet
facet normal 0.3698035225416755 5.9224629454957666e-15 0.9291099798816975
  outer loop
    vertex 5.600845561407782 -5.188580165132717 3.110006782203745
    vertex 5.618160954210516 -5.288580165132717 3.103114925059493
    vertex 5.618160954210516 -5.188580165132717 3.1031149250594927
  endloop
endfacet
facet normal 0.5976741308638365 5.16463924835266e-15 0.8017391304508953
  outer loop
    vertex 5.633102595425956 -5.288580165132717 3.09197634882199
    vertex 5.618160954210516 -5.188580165132717 3.1031149250594927
    vertex 5.618160954210516 -5.288580165132717 3.103114925059493
  endloop
endfacet
facet normal 0.5976741308638365 5.16463924835266e-15 0.8017391304508953
  outer loop
    vertex 5.618160954210516 -5.188580165132717 3.1031149250594927
    vertex 5.633102595425956 -5.288580165132717 3.09197634882199
    vertex 5.633102595425956 -5.188580165132717 3.0919763488219894
  endloop
endfacet
facet normal 0.7848142348707943 4.054853921404761e-15 0.619731084216509
  outer loop
    vertex 5.644652236897507 -5.188580165132717 3.077350129054448
    vertex 5.633102595425956 -5.288580165132717 3.09197634882199
    vertex 5.644652236897507 -5.288580165132717 3.0773501290544485
  endloop
endfacet
facet normal 0.7848142348707943 4.054853921404761e-15 0.619731084216509
  outer loop
    vertex 5.633102595425956 -5.288580165132717 3.09197634882199
    vertex 5.644652236897507 -5.188580165132717 3.077350129054448
    vertex 5.633102595425956 -5.188580165132717 3.0919763488219894
  endloop
endfacet
facet normal 0.9184705457381919 2.6687370006765845e-15 0.39548938874688905
  outer loop
    vertex 5.652022789645566 -5.188580165132717 3.060233018463056
    vertex 5.644652236897507 -5.288580165132717 3.0773501290544485
    vertex 5.652022789645566 -5.288580165132717 3.0602330184630566
  endloop
endfacet
facet normal 0.9184705457381919 2.6687370006765845e-15 0.39548938874688905
  outer loop
    vertex 5.644652236897507 -5.288580165132717 3.0773501290544485
    vertex 5.652022789645566 -5.188580165132717 3.060233018463056
    vertex 5.644652236897507 -5.188580165132717 3.077350129054448
  endloop
endfacet
facet normal 1.0 1.9414172579088315e-16 0.0
  outer loop
    vertex 5.654711962680759 -5.188580165132717 3.0398067213211535
    vertex 5.654711962680759 -5.288580165132717 3.0417915198472585
    vertex 5.654711962680759 -5.288580165132717 3.039806721321154
  endloop
endfacet
facet normal 1.0 1.9414172579088315e-16 0.0
  outer loop
    vertex 5.654711962680759 -5.288580165132717 3.0417915198472585
    vertex 5.654711962680759 -5.188580165132717 3.0398067213211535
    vertex 5.654711962680759 -5.188580165132717 3.041791519847258
  endloop
endfacet
facet normal 0.9291099798816699 -2.1482988847354342e-15 -0.3698035225417454
  outer loop
    vertex 5.64564463616056 -5.188580165132717 3.005966998058964
    vertex 5.6525364933048134 -5.288580165132717 3.023282390861698
    vertex 5.64564463616056 -5.288580165132717 3.0059669980589643
  endloop
endfacet
facet normal 0.9291099798816699 -2.1482988847354342e-15 -0.3698035225417454
  outer loop
    vertex 5.6525364933048134 -5.288580165132717 3.023282390861698
    vertex 5.64564463616056 -5.188580165132717 3.005966998058964
    vertex 5.6525364933048134 -5.188580165132717 3.0232823908616977
  endloop
endfacet
facet normal 0.9895346067580241 1.1007500636461401e-15 0.14429574501087175
  outer loop
    vertex 5.654711962680759 -5.188580165132717 3.041791519847258
    vertex 5.652022789645566 -5.288580165132717 3.0602330184630566
    vertex 5.654711962680759 -5.288580165132717 3.0417915198472585
  endloop
endfacet
facet normal 0.9895346067580241 1.1007500636461401e-15 0.14429574501087175
  outer loop
    vertex 5.652022789645566 -5.288580165132717 3.0602330184630566
    vertex 5.654711962680759 -5.188580165132717 3.041791519847258
    vertex 5.652022789645566 -5.188580165132717 3.060233018463056
  endloop
endfacet
facet normal 0.9914448613738209 -6.294514817505118e-16 -0.13052619221997186
  outer loop
    vertex 5.6525364933048134 -5.188580165132717 3.0232823908616977
    vertex 5.654711962680759 -5.288580165132717 3.039806721321154
    vertex 5.6525364933048134 -5.288580165132717 3.023282390861698
  endloop
endfacet
facet normal 0.9914448613738209 -6.294514817505118e-16 -0.13052619221997186
  outer loop
    vertex 5.654711962680759 -5.288580165132717 3.039806721321154
    vertex 5.6525364933048134 -5.188580165132717 3.0232823908616977
    vertex 5.654711962680759 -5.188580165132717 3.0398067213211535
  endloop
endfacet
facet normal 0.8017391304510568 -3.607943579560133e-15 -0.5976741308636198
  outer loop
    vertex 5.634506059923055 -5.188580165132718 2.9910253568435143
    vertex 5.64564463616056 -5.288580165132717 3.0059669980589643
    vertex 5.634506059923055 -5.288580165132718 2.991025356843515
  endloop
endfacet
facet normal 0.8017391304510568 -3.607943579560133e-15 -0.5976741308636198
  outer loop
    vertex 5.64564463616056 -5.288580165132717 3.0059669980589643
    vertex 5.634506059923055 -5.188580165132718 2.9910253568435143
    vertex 5.64564463616056 -5.188580165132717 3.005966998058964
  endloop
endfacet
facet normal 0.6197310842164643 -4.821712881849629e-15 -0.7848142348708298
  outer loop
    vertex 5.634506059923055 -5.188580165132718 2.9910253568435143
    vertex 5.619879840155516 -5.288580165132718 2.979475715371967
    vertex 5.619879840155516 -5.188580165132718 2.9794757153719664
  endloop
endfacet
facet normal 0.6197310842164643 -4.821712881849629e-15 -0.7848142348708298
  outer loop
    vertex 5.619879840155516 -5.288580165132718 2.979475715371967
    vertex 5.634506059923055 -5.188580165132718 2.9910253568435143
    vertex 5.634506059923055 -5.288580165132718 2.991025356843515
  endloop
endfacet
facet normal -0.8017391304510585 0.0 0.5976741308636175
  outer loop
    vertex 5.77426678491487 -5.188580165132717 3.0905313911756958
    vertex 5.763137494183847 -5.288580165132717 3.0756022058346235
    vertex 5.77426678491487 -5.288580165132717 3.0905313911756958
  endloop
endfacet
facet normal -0.8017391304510585 0.0 0.5976741308636175
  outer loop
    vertex 5.763137494183847 -5.288580165132717 3.0756022058346235
    vertex 5.77426678491487 -5.188580165132717 3.0905313911756958
    vertex 5.763137494183847 -5.188580165132717 3.0756022058346235
  endloop
endfacet
facet normal -0.5976741308638054 -0.0 -0.8017391304509185
  outer loop
    vertex 5.790598264775981 -5.188580165132717 2.9785352647416508
    vertex 5.775669079434908 -5.288580165132717 2.9896645554726793
    vertex 5.775669079434908 -5.188580165132717 2.9896645554726793
  endloop
endfacet
facet normal -0.5976741308638054 -0.0 -0.8017391304509185
  outer loop
    vertex 5.775669079434908 -5.288580165132717 2.9896645554726793
    vertex 5.790598264775981 -5.188580165132717 2.9785352647416508
    vertex 5.790598264775981 -5.288580165132717 2.9785352647416508
  endloop
endfacet
facet normal -0.9184705457382035 -0.0 -0.395489388746862
  outer loop
    vertex 5.756764657750524 -5.188580165132717 3.0213814234818974
    vertex 5.764129066148189 -5.288580165132717 3.00427858231219
    vertex 5.756764657750524 -5.288580165132717 3.0213814234818974
  endloop
endfacet
facet normal -0.9184705457382035 -0.0 -0.395489388746862
  outer loop
    vertex 5.764129066148189 -5.288580165132717 3.00427858231219
    vertex 5.756764657750524 -5.188580165132717 3.0213814234818974
    vertex 5.764129066148189 -5.188580165132717 3.00427858231219
  endloop
endfacet
facet normal 0.36980352254165244 0.0 0.9291099798817068
  outer loop
    vertex 5.860204435276819 -5.288580165132717 3.1030629764267577
    vertex 5.84290347719075 -5.188580165132717 3.109949088278003
    vertex 5.84290347719075 -5.288580165132717 3.109949088278003
  endloop
endfacet
facet normal 0.36980352254165244 0.0 0.9291099798817068
  outer loop
    vertex 5.84290347719075 -5.188580165132717 3.109949088278003
    vertex 5.860204435276819 -5.288580165132717 3.1030629764267577
    vertex 5.860204435276819 -5.188580165132717 3.1030629764267577
  endloop
endfacet
facet normal -0.3954893887468598 0.0 0.9184705457382045
  outer loop
    vertex 5.80598365292409 -5.288580165132717 3.109435812860081
    vertex 5.78888081175439 -5.188580165132717 3.102071404462419
    vertex 5.78888081175439 -5.288580165132717 3.102071404462419
  endloop
endfacet
facet normal -0.3954893887468598 0.0 0.9184705457382045
  outer loop
    vertex 5.78888081175439 -5.188580165132717 3.102071404462419
    vertex 5.80598365292409 -5.288580165132717 3.109435812860081
    vertex 5.80598365292409 -5.188580165132717 3.109435812860081
  endloop
endfacet
facet normal -0.7848142348709123 -0.0 -0.6197310842163598
  outer loop
    vertex 5.764129066148189 -5.188580165132717 3.00427858231219
    vertex 5.775669079434908 -5.288580165132717 2.9896645554726793
    vertex 5.764129066148189 -5.288580165132717 3.00427858231219
  endloop
endfacet
facet normal -0.7848142348709123 -0.0 -0.6197310842163598
  outer loop
    vertex 5.775669079434908 -5.288580165132717 2.9896645554726793
    vertex 5.764129066148189 -5.188580165132717 3.00427858231219
    vertex 5.775669079434908 -5.188580165132717 2.9896645554726793
  endloop
endfacet
facet normal 0.9291099798817427 0.0 -0.36980352254156207
  outer loop
    vertex 5.887665205868954 -5.188580165132717 3.005996035333785
    vertex 5.8945513177201985 -5.288580165132717 3.0232969934198564
    vertex 5.887665205868954 -5.288580165132717 3.005996035333785
  endloop
endfacet
facet normal 0.9291099798817427 0.0 -0.36980352254156207
  outer loop
    vertex 5.8945513177201985 -5.288580165132717 3.0232969934198564
    vertex 5.887665205868954 -5.188580165132717 3.005996035333785
    vertex 5.8945513177201985 -5.188580165132717 3.0232969934198564
  endloop
endfacet
facet normal -0.14429574501085105 0.0 0.9895346067580273
  outer loop
    vertex 5.824409778062067 -5.288580165132717 3.112122744106638
    vertex 5.80598365292409 -5.188580165132717 3.109435812860081
    vertex 5.80598365292409 -5.288580165132717 3.109435812860081
  endloop
endfacet
facet normal -0.14429574501085105 0.0 0.9895346067580273
  outer loop
    vertex 5.80598365292409 -5.188580165132717 3.109435812860081
    vertex 5.824409778062067 -5.288580165132717 3.112122744106638
    vertex 5.824409778062067 -5.188580165132717 3.112122744106638
  endloop
endfacet
facet normal 0.5976741308636904 0.0 0.8017391304510043
  outer loop
    vertex 5.87513362061789 -5.288580165132717 3.091933685695733
    vertex 5.860204435276819 -5.188580165132717 3.1030629764267577
    vertex 5.860204435276819 -5.288580165132717 3.1030629764267577
  endloop
endfacet
facet normal 0.5976741308636904 0.0 0.8017391304510043
  outer loop
    vertex 5.860204435276819 -5.188580165132717 3.1030629764267577
    vertex 5.87513362061789 -5.288580165132717 3.091933685695733
    vertex 5.87513362061789 -5.188580165132717 3.091933685695733
  endloop
endfacet
facet normal 0.8017391304510558 0.0 -0.5976741308636212
  outer loop
    vertex 5.876535915137932 -5.188580165132717 2.991066849992714
    vertex 5.887665205868954 -5.288580165132717 3.005996035333785
    vertex 5.876535915137932 -5.288580165132717 2.991066849992714
  endloop
endfacet
facet normal 0.8017391304510558 0.0 -0.5976741308636212
  outer loop
    vertex 5.887665205868954 -5.288580165132717 3.005996035333785
    vertex 5.876535915137932 -5.188580165132717 2.991066849992714
    vertex 5.887665205868954 -5.188580165132717 3.005996035333785
  endloop
endfacet
facet normal 2.8325084958197976e-16 1.0 3.441145734621548e-15
  outer loop
    vertex 5.461746387300035 -4.529769165132715 3.130114069896275
    vertex 5.377699826095348 -4.5297691651327145 2.941290346285777
    vertex 5.260890606561009 -4.5297691651327145 2.8829069551405504
  endloop
endfacet
facet normal 2.8325084958197976e-16 1.0 3.441145734621548e-15
  outer loop
    vertex 5.377699826095348 -4.5297691651327145 2.941290346285777
    vertex 5.461746387300035 -4.529769165132715 3.130114069896275
    vertex 5.702699826095348 -4.529769165132716 3.341290346285777
  endloop
endfacet
facet normal 2.8325084958197976e-16 1.0 3.441145734621548e-15
  outer loop
    vertex 5.702699826095348 -4.529769165132716 3.341290346285777
    vertex 5.461746387300035 -4.529769165132715 3.130114069896275
    vertex 5.702890606561006 -4.529769165132716 3.4269069551405478
  endloop
endfacet
facet normal -0.7761140001162652 -2.4909095250988344e-16 -0.6305926250944661
  outer loop
    vertex 5.702699826095348 -4.529769165132716 3.341290346285777
    vertex 6.027699826095347 -5.168580165132718 2.9412903462857782
    vertex 5.702699826095346 -5.168580165132719 3.3412903462857786
  endloop
endfacet
facet normal -0.7761140001162652 -2.4909095250988344e-16 -0.6305926250944661
  outer loop
    vertex 6.027699826095347 -5.168580165132718 2.9412903462857782
    vertex 5.702699826095348 -4.529769165132716 3.341290346285777
    vertex 6.027699826095347 -4.529769165132716 2.9412903462857773
  endloop
endfacet
facet normal 0.7848142348708089 0.0 0.6197310842164904
  outer loop
    vertex 5.886673633904617 -5.188580165132717 3.0773196588562186
    vertex 5.87513362061789 -5.288580165132717 3.091933685695733
    vertex 5.886673633904617 -5.288580165132717 3.0773196588562186
  endloop
endfacet
facet normal 0.7848142348708089 0.0 0.6197310842164904
  outer loop
    vertex 5.87513362061789 -5.288580165132717 3.091933685695733
    vertex 5.886673633904617 -5.188580165132717 3.0773196588562186
    vertex 5.87513362061789 -5.188580165132717 3.091933685695733
  endloop
endfacet
facet normal 0.6197310842162739 0.0 -0.7848142348709799
  outer loop
    vertex 5.876535915137932 -5.188580165132717 2.991066849992714
    vertex 5.861921888298415 -5.288580165132717 2.979526836705992
    vertex 5.861921888298415 -5.188580165132717 2.979526836705992
  endloop
endfacet
facet normal 0.6197310842162739 0.0 -0.7848142348709799
  outer loop
    vertex 5.861921888298415 -5.288580165132717 2.979526836705992
    vertex 5.876535915137932 -5.188580165132717 2.991066849992714
    vertex 5.876535915137932 -5.288580165132717 2.991066849992714
  endloop
endfacet
facet normal 2.2552126784867184e-15 1.0 7.407299890929875e-16
  outer loop
    vertex 5.377699826095348 -4.5297691651327145 2.941290346285777
    vertex 5.759846757840684 -4.529769165132715 2.8829069551405504
    vertex 5.260890606561009 -4.5297691651327145 2.8829069551405504
  endloop
endfacet
facet normal 2.2552126784867184e-15 1.0 7.407299890929875e-16
  outer loop
    vertex 5.759846757840684 -4.529769165132715 2.8829069551405504
    vertex 5.377699826095348 -4.5297691651327145 2.941290346285777
    vertex 6.144890606561015 -4.529769165132716 2.8829069551405504
  endloop
endfacet
facet normal 2.2552126784867184e-15 1.0 7.407299890929875e-16
  outer loop
    vertex 6.144890606561015 -4.529769165132716 2.8829069551405504
    vertex 5.377699826095348 -4.5297691651327145 2.941290346285777
    vertex 6.027699826095347 -4.529769165132716 2.9412903462857773
  endloop
endfacet
facet normal 0.918470545738185 0.0 0.3954893887469053
  outer loop
    vertex 5.894038042302282 -5.188580165132717 3.060216817686513
    vertex 5.886673633904617 -5.288580165132717 3.0773196588562186
    vertex 5.894038042302282 -5.288580165132717 3.060216817686513
  endloop
endfacet
facet normal 0.918470545738185 0.0 0.3954893887469053
  outer loop
    vertex 5.886673633904617 -5.288580165132717 3.0773196588562186
    vertex 5.894038042302282 -5.188580165132717 3.060216817686513
    vertex 5.886673633904617 -5.188580165132717 3.0773196588562186
  endloop
endfacet
facet normal 0.1442957450108987 0.0 -0.9895346067580202
  outer loop
    vertex 5.844819047128707 -5.188580165132717 2.9721624283083288
    vertex 5.826392921990736 -5.288580165132717 2.969475497061772
    vertex 5.826392921990736 -5.188580165132717 2.969475497061772
  endloop
endfacet
facet normal 0.1442957450108987 0.0 -0.9895346067580202
  outer loop
    vertex 5.826392921990736 -5.288580165132717 2.969475497061772
    vertex 5.844819047128707 -5.188580165132717 2.9721624283083288
    vertex 5.844819047128707 -5.288580165132717 2.9721624283083288
  endloop
endfacet
facet normal -0.11673141528734926 -0.0 -0.9931635196104478
  outer loop
    vertex 5.826392921990736 -5.188580165132717 2.969475497061772
    vertex 5.807899222862052 -5.288580165132717 2.9716491528904077
    vertex 5.807899222862052 -5.188580165132717 2.9716491528904077
  endloop
endfacet
facet normal -0.11673141528734926 -0.0 -0.9931635196104478
  outer loop
    vertex 5.807899222862052 -5.288580165132717 2.9716491528904077
    vertex 5.826392921990736 -5.188580165132717 2.969475497061772
    vertex 5.826392921990736 -5.288580165132717 2.969475497061772
  endloop
endfacet
facet normal 1.0 0.0 0.0
  outer loop
    vertex 5.896724973548833 -5.188580165132717 3.0398075486198666
    vertex 5.896724973548833 -5.288580165132717 3.0417906925485436
    vertex 5.896724973548833 -5.288580165132717 3.0398075486198666
  endloop
endfacet
facet normal 1.0 0.0 0.0
  outer loop
    vertex 5.896724973548833 -5.288580165132717 3.0417906925485436
    vertex 5.896724973548833 -5.188580165132717 3.0398075486198666
    vertex 5.896724973548833 -5.188580165132717 3.0417906925485436
  endloop
endfacet
facet normal 0.9895346067580596 0.0 0.1442957450106287
  outer loop
    vertex 5.896724973548833 -5.188580165132717 3.0417906925485436
    vertex 5.894038042302282 -5.288580165132717 3.060216817686513
    vertex 5.896724973548833 -5.288580165132717 3.0417906925485436
  endloop
endfacet
facet normal 0.9895346067580596 0.0 0.1442957450106287
  outer loop
    vertex 5.894038042302282 -5.288580165132717 3.060216817686513
    vertex 5.896724973548833 -5.188580165132717 3.0417906925485436
    vertex 5.894038042302282 -5.188580165132717 3.060216817686513
  endloop
endfacet
facet normal 0.991444861373818 0.0 -0.130526192219994
  outer loop
    vertex 5.8945513177201985 -5.188580165132717 3.0232969934198564
    vertex 5.896724973548833 -5.288580165132717 3.0398075486198666
    vertex 5.8945513177201985 -5.288580165132717 3.0232969934198564
  endloop
endfacet
facet normal 0.991444861373818 0.0 -0.130526192219994
  outer loop
    vertex 5.896724973548833 -5.288580165132717 3.0398075486198666
    vertex 5.8945513177201985 -5.188580165132717 3.0232969934198564
    vertex 5.896724973548833 -5.188580165132717 3.0398075486198666
  endloop
endfacet
facet normal -0.36980352254150034 -0.0 -0.9291099798817674
  outer loop
    vertex 5.807899222862052 -5.188580165132717 2.9716491528904077
    vertex 5.790598264775981 -5.288580165132717 2.9785352647416508
    vertex 5.790598264775981 -5.188580165132717 2.9785352647416508
  endloop
endfacet
facet normal -0.36980352254150034 -0.0 -0.9291099798817674
  outer loop
    vertex 5.790598264775981 -5.288580165132717 2.9785352647416508
    vertex 5.807899222862052 -5.188580165132717 2.9716491528904077
    vertex 5.807899222862052 -5.288580165132717 2.9716491528904077
  endloop
endfacet
facet normal 0.3954893887467815 0.0 -0.9184705457382382
  outer loop
    vertex 5.861921888298415 -5.188580165132717 2.979526836705992
    vertex 5.844819047128707 -5.288580165132717 2.9721624283083288
    vertex 5.844819047128707 -5.188580165132717 2.9721624283083288
  endloop
endfacet
facet normal 0.3954893887467815 0.0 -0.9184705457382382
  outer loop
    vertex 5.844819047128707 -5.288580165132717 2.9721624283083288
    vertex 5.861921888298415 -5.188580165132717 2.979526836705992
    vertex 5.861921888298415 -5.288580165132717 2.979526836705992
  endloop
endfacet
facet normal 0.11673141528731328 0.0 0.9931635196104521
  outer loop
    vertex 5.84290347719075 -5.288580165132717 3.109949088278003
    vertex 5.824409778062067 -5.188580165132717 3.112122744106638
    vertex 5.824409778062067 -5.288580165132717 3.112122744106638
  endloop
endfacet
facet normal 0.11673141528731328 0.0 0.9931635196104521
  outer loop
    vertex 5.824409778062067 -5.188580165132717 3.112122744106638
    vertex 5.84290347719075 -5.288580165132717 3.109949088278003
    vertex 5.84290347719075 -5.188580165132717 3.109949088278003
  endloop
endfacet
facet normal -0.9895346067580386 -0.0 -0.14429574501077222
  outer loop
    vertex 5.7540777265039695 -5.188580165132717 3.0398075486198666
    vertex 5.756764657750524 -5.288580165132717 3.0213814234818974
    vertex 5.7540777265039695 -5.288580165132717 3.0398075486198666
  endloop
endfacet
facet normal -0.9895346067580386 -0.0 -0.14429574501077222
  outer loop
    vertex 5.756764657750524 -5.288580165132717 3.0213814234818974
    vertex 5.7540777265039695 -5.188580165132717 3.0398075486198666
    vertex 5.756764657750524 -5.188580165132717 3.0213814234818974
  endloop
endfacet
facet normal -0.9931635196104674 0.0 0.11673141528718325
  outer loop
    vertex 5.756251382332603 -5.188580165132717 3.0583012477485547
    vertex 5.7540777265039695 -5.288580165132717 3.0398075486198666
    vertex 5.756251382332603 -5.288580165132717 3.0583012477485547
  endloop
endfacet
facet normal -0.9931635196104674 0.0 0.11673141528718325
  outer loop
    vertex 5.7540777265039695 -5.288580165132717 3.0398075486198666
    vertex 5.756251382332603 -5.188580165132717 3.0583012477485547
    vertex 5.7540777265039695 -5.188580165132717 3.0398075486198666
  endloop
endfacet
facet normal -0.9291099798817233 0.0 0.3698035225416113
  outer loop
    vertex 5.763137494183847 -5.188580165132717 3.0756022058346235
    vertex 5.756251382332603 -5.288580165132717 3.0583012477485547
    vertex 5.763137494183847 -5.288580165132717 3.0756022058346235
  endloop
endfacet
facet normal -0.9291099798817233 0.0 0.3698035225416113
  outer loop
    vertex 5.756251382332603 -5.288580165132717 3.0583012477485547
    vertex 5.763137494183847 -5.188580165132717 3.0756022058346235
    vertex 5.756251382332603 -5.188580165132717 3.0583012477485547
  endloop
endfacet
facet normal -0.6197310842162485 0.0 0.7848142348710001
  outer loop
    vertex 5.78888081175439 -5.288580165132717 3.102071404462419
    vertex 5.77426678491487 -5.188580165132717 3.0905313911756958
    vertex 5.77426678491487 -5.288580165132717 3.0905313911756958
  endloop
endfacet
facet normal -0.6197310842162485 0.0 0.7848142348710001
  outer loop
    vertex 5.77426678491487 -5.188580165132717 3.0905313911756958
    vertex 5.78888081175439 -5.288580165132717 3.102071404462419
    vertex 5.78888081175439 -5.188580165132717 3.102071404462419
  endloop
endfacet
facet normal 0.7761140001162673 -2.6311262864454177e-15 -0.6305926250944638
  outer loop
    vertex 5.377699826095348 -5.168580165132718 2.9412903462857782
    vertex 5.702699826095348 -4.529769165132716 3.341290346285777
    vertex 5.702699826095346 -5.168580165132719 3.3412903462857786
  endloop
endfacet
facet normal 0.7761140001162673 -2.6311262864454177e-15 -0.6305926250944638
  outer loop
    vertex 5.702699826095348 -4.529769165132716 3.341290346285777
    vertex 5.377699826095348 -5.168580165132718 2.9412903462857782
    vertex 5.377699826095348 -4.5297691651327145 2.941290346285777
  endloop
endfacet
facet normal -3.416070845000465e-16 1.737952265419902e-15 1.0
  outer loop
    vertex 6.027699826095347 -5.168580165132718 2.9412903462857782
    vertex 5.377699826095348 -4.5297691651327145 2.941290346285777
    vertex 5.377699826095348 -5.168580165132718 2.9412903462857782
  endloop
endfacet
facet normal -3.416070845000465e-16 1.737952265419902e-15 1.0
  outer loop
    vertex 5.377699826095348 -4.5297691651327145 2.941290346285777
    vertex 6.027699826095347 -5.168580165132718 2.9412903462857782
    vertex 6.027699826095347 -4.529769165132716 2.9412903462857773
  endloop
endfacet
endsolid rail_models_v6
