solid rail_models_v6
facet normal -0.9914448613738126 0.0 -0.13052619222003478
  outer loop
    vertex 6.605846194133816 9.309879312532265 0.6626415924957161
    vertex 6.607930732821843 9.223884312532265 0.6468079491830017
    vertex 6.605846194133816 9.223884312532265 0.6626415924957161
  endloop
endfacet
facet normal -0.9914448613738126 0.0 -0.13052619222003478
  outer loop
    vertex 6.607930732821843 9.223884312532265 0.6468079491830017
    vertex 6.605846194133816 9.309879312532265 0.6626415924957161
    vertex 6.607930732821843 9.309879312532265 0.6468079491830017
  endloop
endfacet
facet normal -0.9914448613738126 0.0 0.13052619222003567
  outer loop
    vertex 6.607930732821843 9.309879312532265 0.6784752358084303
    vertex 6.605846194133816 9.223884312532265 0.6626415924957161
    vertex 6.607930732821843 9.223884312532265 0.6784752358084303
  endloop
endfacet
facet normal -0.9914448613738126 0.0 0.13052619222003567
  outer loop
    vertex 6.605846194133816 9.223884312532265 0.6626415924957161
    vertex 6.607930732821843 9.309879312532265 0.6784752358084303
    vertex 6.605846194133816 9.309879312532265 0.6626415924957161
  endloop
endfacet
facet normal -0.9238795325112799 0.0 0.3826834323651067
  outer loop
    vertex 6.6140422910191985 9.309879312532265 0.6932298424957164
    vertex 6.607930732821843 9.223884312532265 0.6784752358084303
    vertex 6.6140422910191985 9.223884312532265 0.6932298424957164
  endloop
endfacet
facet normal -0.9238795325112799 0.0 0.3826834323651067
  outer loop
    vertex 6.607930732821843 9.223884312532265 0.6784752358084303
    vertex 6.6140422910191985 9.309879312532265 0.6932298424957164
    vertex 6.607930732821843 9.309879312532265 0.6784752358084303
  endloop
endfacet
facet normal -0.7933533402912389 0.0 0.6087614290087159
  outer loop
    vertex 6.623764376134558 9.309879312532265 0.7058999104949748
    vertex 6.6140422910191985 9.223884312532265 0.6932298424957164
    vertex 6.623764376134558 9.223884312532265 0.7058999104949748
  endloop
endfacet
facet normal -0.7933533402912389 0.0 0.6087614290087159
  outer loop
    vertex 6.6140422910191985 9.223884312532265 0.6932298424957164
    vertex 6.623764376134558 9.309879312532265 0.7058999104949748
    vertex 6.6140422910191985 9.309879312532265 0.6932298424957164
  endloop
endfacet
facet normal -0.6087614290087199 0.0 0.7933533402912358
  outer loop
    vertex 6.636434444133817 9.223884312532265 0.7156219956103349
    vertex 6.623764376134558 9.309879312532265 0.7058999104949748
    vertex 6.623764376134558 9.223884312532265 0.7058999104949748
  endloop
endfacet
facet normal -0.6087614290087199 0.0 0.7933533402912358
  outer loop
    vertex 6.623764376134558 9.309879312532265 0.7058999104949748
    vertex 6.636434444133817 9.223884312532265 0.7156219956103349
    vertex 6.636434444133817 9.309879312532265 0.7156219956103349
  endloop
endfacet
facet normal -0.382683432365093 0.0 0.9238795325112854
  outer loop
    vertex 6.6511890508211025 9.223884312532265 0.7217335538076894
    vertex 6.636434444133817 9.309879312532265 0.7156219956103349
    vertex 6.636434444133817 9.223884312532265 0.7156219956103349
  endloop
endfacet
facet normal -0.382683432365093 0.0 0.9238795325112854
  outer loop
    vertex 6.636434444133817 9.309879312532265 0.7156219956103349
    vertex 6.6511890508211025 9.223884312532265 0.7217335538076894
    vertex 6.6511890508211025 9.309879312532265 0.7217335538076894
  endloop
endfacet
facet normal 0.42404296279067766 1.6420418743504439e-15 0.9056420737287463
  outer loop
    vertex 6.834836566428495 9.223006812532264 0.8944436097036084
    vertex 6.56820882934466 9.223006812532264 1.0192849999999993
    vertex 6.56820882934466 8.564195812532262 1.0192850000000007
  endloop
endfacet
facet normal 0.9225111192133364 1.5739272792554466e-16 0.38597051043798386
  outer loop
    vertex 6.834836566428495 9.223006812532264 0.8944436097036084
    vertex 7.01020882934467 8.564195812532262 0.47528500000000373
    vertex 7.010208829344671 9.223006812532264 0.4752850000000024
  endloop
endfacet
facet normal -0.7933533402912439 0.0 -0.6087614290087093
  outer loop
    vertex 6.6140422910191985 9.309879312532265 0.6320533424957162
    vertex 6.623764376134558 9.223884312532265 0.6193832744964574
    vertex 6.6140422910191985 9.223884312532265 0.6320533424957162
  endloop
endfacet
facet normal -0.7933533402912439 0.0 -0.6087614290087093
  outer loop
    vertex 6.623764376134558 9.223884312532265 0.6193832744964574
    vertex 6.6140422910191985 9.309879312532265 0.6320533424957162
    vertex 6.623764376134558 9.309879312532265 0.6193832744964574
  endloop
endfacet
facet normal -0.9238795325112767 0.0 -0.3826834323651138
  outer loop
    vertex 6.607930732821843 9.309879312532265 0.6468079491830017
    vertex 6.6140422910191985 9.223884312532265 0.6320533424957162
    vertex 6.607930732821843 9.223884312532265 0.6468079491830017
  endloop
endfacet
facet normal -0.9238795325112767 0.0 -0.3826834323651138
  outer loop
    vertex 6.6140422910191985 9.223884312532265 0.6320533424957162
    vertex 6.607930732821843 9.309879312532265 0.6468079491830017
    vertex 6.6140422910191985 9.309879312532265 0.6320533424957162
  endloop
endfacet
facet normal -0.6087614290087288 0.0 -0.7933533402912291
  outer loop
    vertex 6.636434444133816 9.309879312532265 0.6096611893810973
    vertex 6.623764376134558 9.223884312532265 0.6193832744964574
    vertex 6.623764376134558 9.309879312532265 0.6193832744964574
  endloop
endfacet
facet normal -0.6087614290087288 0.0 -0.7933533402912291
  outer loop
    vertex 6.623764376134558 9.223884312532265 0.6193832744964574
    vertex 6.636434444133816 9.309879312532265 0.6096611893810973
    vertex 6.636434444133816 9.223884312532265 0.6096611893810973
  endloop
endfacet
facet normal -0.3826834323650775 0.0 -0.9238795325112918
  outer loop
    vertex 6.6511890508211025 9.309879312532265 0.6035496311837429
    vertex 6.636434444133816 9.223884312532265 0.6096611893810973
    vertex 6.636434444133816 9.309879312532265 0.6096611893810973
  endloop
endfacet
facet normal -0.3826834323650775 0.0 -0.9238795325112918
  outer loop
    vertex 6.636434444133816 9.223884312532265 0.6096611893810973
    vertex 6.6511890508211025 9.309879312532265 0.6035496311837429
    vertex 6.6511890508211025 9.223884312532265 0.6035496311837429
  endloop
endfacet
facet normal -0.13052619222005313 0.0 -0.9914448613738104
  outer loop
    vertex 6.667022694133816 9.309879312532265 0.6014650924957161
    vertex 6.6511890508211025 9.223884312532265 0.6035496311837429
    vertex 6.6511890508211025 9.309879312532265 0.6035496311837429
  endloop
endfacet
facet normal -0.13052619222005313 0.0 -0.9914448613738104
  outer loop
    vertex 6.6511890508211025 9.223884312532265 0.6035496311837429
    vertex 6.667022694133816 9.309879312532265 0.6014650924957161
    vertex 6.667022694133816 9.223884312532265 0.6014650924957161
  endloop
endfacet
facet normal 0.13052619222004996 0.0 -0.9914448613738106
  outer loop
    vertex 6.682856337446531 9.309879312532265 0.6035496311837427
    vertex 6.667022694133816 9.223884312532265 0.6014650924957161
    vertex 6.667022694133816 9.309879312532265 0.6014650924957161
  endloop
endfacet
facet normal 0.13052619222004996 0.0 -0.9914448613738106
  outer loop
    vertex 6.667022694133816 9.223884312532265 0.6014650924957161
    vertex 6.682856337446531 9.309879312532265 0.6035496311837427
    vertex 6.682856337446531 9.223884312532265 0.6035496311837427
  endloop
endfacet
facet normal 0.382683432365093 0.0 -0.9238795325112854
  outer loop
    vertex 6.6976109441338165 9.309879312532265 0.6096611893810973
    vertex 6.682856337446531 9.223884312532265 0.6035496311837427
    vertex 6.682856337446531 9.309879312532265 0.6035496311837427
  endloop
endfacet
facet normal 0.382683432365093 0.0 -0.9238795325112854
  outer loop
    vertex 6.682856337446531 9.223884312532265 0.6035496311837427
    vertex 6.6976109441338165 9.309879312532265 0.6096611893810973
    vertex 6.6976109441338165 9.223884312532265 0.6096611893810973
  endloop
endfacet
facet normal 0.6087614290087288 0.0 -0.7933533402912291
  outer loop
    vertex 6.710281012133075 9.309879312532265 0.6193832744964574
    vertex 6.6976109441338165 9.223884312532265 0.6096611893810973
    vertex 6.6976109441338165 9.309879312532265 0.6096611893810973
  endloop
endfacet
facet normal 0.6087614290087288 0.0 -0.7933533402912291
  outer loop
    vertex 6.6976109441338165 9.223884312532265 0.6096611893810973
    vertex 6.710281012133075 9.309879312532265 0.6193832744964574
    vertex 6.710281012133075 9.223884312532265 0.6193832744964574
  endloop
endfacet
facet normal 0.7933533402912177 0.0 -0.6087614290087436
  outer loop
    vertex 6.710281012133075 9.309879312532265 0.6193832744964574
    vertex 6.720003097248435 9.223884312532265 0.6320533424957162
    vertex 6.710281012133075 9.223884312532265 0.6193832744964574
  endloop
endfacet
facet normal 0.7933533402912177 0.0 -0.6087614290087436
  outer loop
    vertex 6.720003097248435 9.223884312532265 0.6320533424957162
    vertex 6.710281012133075 9.309879312532265 0.6193832744964574
    vertex 6.720003097248435 9.309879312532265 0.6320533424957162
  endloop
endfacet
facet normal 0.9238795325112951 0.0 -0.38268343236506974
  outer loop
    vertex 6.720003097248435 9.309879312532265 0.6320533424957162
    vertex 6.726114655445789 9.223884312532265 0.6468079491830017
    vertex 6.720003097248435 9.223884312532265 0.6320533424957162
  endloop
endfacet
facet normal 0.9238795325112951 0.0 -0.38268343236506974
  outer loop
    vertex 6.726114655445789 9.223884312532265 0.6468079491830017
    vertex 6.720003097248435 9.309879312532265 0.6320533424957162
    vertex 6.726114655445789 9.309879312532265 0.6468079491830017
  endloop
endfacet
facet normal 0.9914448613738093 0.0 -0.1305261922200607
  outer loop
    vertex 6.726114655445789 9.309879312532265 0.6468079491830017
    vertex 6.728199194133817 9.223884312532265 0.6626415924957161
    vertex 6.726114655445789 9.223884312532265 0.6468079491830017
  endloop
endfacet
facet normal 0.9914448613738093 0.0 -0.1305261922200607
  outer loop
    vertex 6.728199194133817 9.223884312532265 0.6626415924957161
    vertex 6.726114655445789 9.309879312532265 0.6468079491830017
    vertex 6.728199194133817 9.309879312532265 0.6626415924957161
  endloop
endfacet
facet normal 0.991444861373809 0.0 0.13052619222006245
  outer loop
    vertex 6.728199194133817 9.309879312532265 0.6626415924957161
    vertex 6.726114655445789 9.223884312532265 0.6784752358084303
    vertex 6.728199194133817 9.223884312532265 0.6626415924957161
  endloop
endfacet
facet normal 0.991444861373809 0.0 0.13052619222006245
  outer loop
    vertex 6.726114655445789 9.223884312532265 0.6784752358084303
    vertex 6.728199194133817 9.309879312532265 0.6626415924957161
    vertex 6.726114655445789 9.309879312532265 0.6784752358084303
  endloop
endfacet
facet normal 0.9238795325112951 0.0 0.38268343236506974
  outer loop
    vertex 6.726114655445789 9.309879312532265 0.6784752358084303
    vertex 6.720003097248435 9.223884312532265 0.693229842495716
    vertex 6.726114655445789 9.223884312532265 0.6784752358084303
  endloop
endfacet
facet normal 0.9238795325112951 0.0 0.38268343236506974
  outer loop
    vertex 6.720003097248435 9.223884312532265 0.693229842495716
    vertex 6.726114655445789 9.309879312532265 0.6784752358084303
    vertex 6.720003097248435 9.309879312532265 0.693229842495716
  endloop
endfacet
facet normal 0.7933533402912358 0.0 0.6087614290087199
  outer loop
    vertex 6.720003097248435 9.309879312532265 0.693229842495716
    vertex 6.710281012133076 9.223884312532265 0.7058999104949748
    vertex 6.720003097248435 9.223884312532265 0.693229842495716
  endloop
endfacet
facet normal 0.7933533402912358 0.0 0.6087614290087199
  outer loop
    vertex 6.710281012133076 9.223884312532265 0.7058999104949748
    vertex 6.720003097248435 9.309879312532265 0.693229842495716
    vertex 6.710281012133076 9.309879312532265 0.7058999104949748
  endloop
endfacet
facet normal 0.6087614290087199 0.0 0.7933533402912358
  outer loop
    vertex 6.710281012133076 9.223884312532265 0.7058999104949748
    vertex 6.6976109441338165 9.309879312532265 0.7156219956103349
    vertex 6.6976109441338165 9.223884312532265 0.7156219956103349
  endloop
endfacet
facet normal 0.6087614290087199 0.0 0.7933533402912358
  outer loop
    vertex 6.6976109441338165 9.309879312532265 0.7156219956103349
    vertex 6.710281012133076 9.223884312532265 0.7058999104949748
    vertex 6.710281012133076 9.309879312532265 0.7058999104949748
  endloop
endfacet
facet normal 0.382683432365093 0.0 0.9238795325112854
  outer loop
    vertex 6.6976109441338165 9.223884312532265 0.7156219956103349
    vertex 6.682856337446531 9.309879312532265 0.7217335538076894
    vertex 6.682856337446531 9.223884312532265 0.7217335538076894
  endloop
endfacet
facet normal 0.382683432365093 0.0 0.9238795325112854
  outer loop
    vertex 6.682856337446531 9.309879312532265 0.7217335538076894
    vertex 6.6976109441338165 9.223884312532265 0.7156219956103349
    vertex 6.6976109441338165 9.309879312532265 0.7156219956103349
  endloop
endfacet
facet normal 0.13052619222003653 0.0 0.9914448613738124
  outer loop
    vertex 6.682856337446531 9.223884312532265 0.7217335538076894
    vertex 6.667022694133816 9.309879312532265 0.723818092495716
    vertex 6.667022694133816 9.223884312532265 0.723818092495716
  endloop
endfacet
facet normal 0.13052619222003653 0.0 0.9914448613738124
  outer loop
    vertex 6.667022694133816 9.309879312532265 0.723818092495716
    vertex 6.682856337446531 9.223884312532265 0.7217335538076894
    vertex 6.682856337446531 9.309879312532265 0.7217335538076894
  endloop
endfacet
facet normal -0.13052619222003303 0.0 0.991444861373813
  outer loop
    vertex 6.667022694133816 9.223884312532265 0.723818092495716
    vertex 6.6511890508211025 9.309879312532265 0.7217335538076894
    vertex 6.6511890508211025 9.223884312532265 0.7217335538076894
  endloop
endfacet
facet normal -0.13052619222003303 0.0 0.991444861373813
  outer loop
    vertex 6.6511890508211025 9.309879312532265 0.7217335538076894
    vertex 6.667022694133816 9.223884312532265 0.723818092495716
    vertex 6.667022694133816 9.309879312532265 0.723818092495716
  endloop
endfacet
facet normal 0.0 -1.0 0.0
  outer loop
    vertex 6.243018048879003 8.564195812532262 0.53366839114523
    vertex 6.56820882934466 8.564195812532262 1.0192850000000007
    vertex 6.126208829344664 8.564195812532262 0.4752850000000035
  endloop
endfacet
facet normal 0.0 -1.0 0.0
  outer loop
    vertex 6.56820882934466 8.564195812532262 1.0192850000000007
    vertex 6.243018048879003 8.564195812532262 0.53366839114523
    vertex 6.568018048879002 8.564195812532262 0.9336683911452301
  endloop
endfacet
facet normal 4.795158401179722e-16 -1.0 7.607997469699065e-15
  outer loop
    vertex 6.52826701995887 8.564195812532262 0.4752850000000036
    vertex 6.243018048879003 8.564195812532262 0.53366839114523
    vertex 6.126208829344664 8.564195812532262 0.4752850000000035
  endloop
endfacet
facet normal 4.795158401179722e-16 -1.0 7.607997469699065e-15
  outer loop
    vertex 6.243018048879003 8.564195812532262 0.53366839114523
    vertex 6.52826701995887 8.564195812532262 0.4752850000000036
    vertex 7.01020882934467 8.564195812532262 0.47528500000000373
  endloop
endfacet
facet normal 4.795158401179722e-16 -1.0 7.607997469699065e-15
  outer loop
    vertex 6.243018048879003 8.564195812532262 0.53366839114523
    vertex 7.01020882934467 8.564195812532262 0.47528500000000373
    vertex 6.893018048879002 8.564195812532262 0.5336683911452302
  endloop
endfacet
facet normal -6.214371333493515e-15 -1.0 -5.8283899486553014e-15
  outer loop
    vertex 6.809711318549484 8.564195812532262 0.7220511671325334
    vertex 6.893018048879002 8.564195812532262 0.5336683911452302
    vertex 7.01020882934467 8.564195812532262 0.47528500000000373
  endloop
endfacet
facet normal -6.214371333493515e-15 -1.0 -5.8283899486553014e-15
  outer loop
    vertex 6.893018048879002 8.564195812532262 0.5336683911452302
    vertex 6.809711318549484 8.564195812532262 0.7220511671325334
    vertex 6.568018048879002 8.564195812532262 0.9336683911452301
  endloop
endfacet
facet normal -6.214371333493515e-15 -1.0 -5.8283899486553014e-15
  outer loop
    vertex 6.568018048879002 8.564195812532262 0.9336683911452301
    vertex 6.809711318549484 8.564195812532262 0.7220511671325334
    vertex 6.56820882934466 8.564195812532262 1.0192850000000007
  endloop
endfacet
facet normal -0.7505765408259197 -0.2544127271912553 0.609843439421057
  outer loop
    vertex 6.378506961825198 8.899515861991294 0.9256936295650251
    vertex 6.126208829344664 8.564195812532262 0.4752850000000035
    vertex 6.56820882934466 8.564195812532262 1.0192850000000007
  endloop
endfacet
facet normal -0.7505765408259203 -0.2544127271912547 0.6098434394210569
  outer loop
    vertex 6.1954972147424625 9.223006812532264 0.8354038856821699
    vertex 6.126208829344664 8.564195812532262 0.4752850000000035
    vertex 6.378506961825198 8.899515861991294 0.9256936295650251
  endloop
endfacet
facet normal 4.1063722153314847e-16 -0.3855465037454707 -0.9226884053946077
  outer loop
    vertex 6.568208829344661 9.223006812532264 0.19999999999999996
    vertex 6.52826701995887 8.564195812532262 0.4752850000000036
    vertex 6.126208829344664 8.564195812532262 0.4752850000000035
  endloop
endfacet
facet normal 1.9052662471230191e-16 -0.3855465037454706 -0.9226884053946077
  outer loop
    vertex 7.01020882934467 8.564195812532262 0.47528500000000373
    vertex 6.52826701995887 8.564195812532262 0.4752850000000036
    vertex 6.568208829344661 9.223006812532264 0.19999999999999996
  endloop
endfacet
facet normal 0.7618221855865114 -0.19102373214365717 0.6189805257890587
  outer loop
    vertex 6.834836566428495 9.223006812532264 0.8944436097036084
    vertex 6.56820882934466 8.564195812532262 1.0192850000000007
    vertex 6.809711318549484 8.564195812532262 0.7220511671325334
  endloop
endfacet
facet normal 0.7618221855865114 -0.19102373214365734 0.6189805257890586
  outer loop
    vertex 6.834836566428495 9.223006812532264 0.8944436097036084
    vertex 6.809711318549484 8.564195812532262 0.7220511671325334
    vertex 7.01020882934467 8.564195812532262 0.47528500000000373
  endloop
endfacet
facet normal -0.4424436869390063 2.0975104181823157e-15 0.8967962889574302
  outer loop
    vertex 6.378506961825198 8.899515861991294 0.9256936295650251
    vertex 6.392294733650401 9.223006812532264 0.9324959688210313
    vertex 6.1954972147424625 9.223006812532264 0.8354038856821699
  endloop
endfacet
facet normal -0.4424436869390063 2.0975104181823157e-15 0.8967962889574302
  outer loop
    vertex 6.392294733650401 9.223006812532264 0.9324959688210313
    vertex 6.378506961825198 8.899515861991294 0.9256936295650251
    vertex 6.56820882934466 8.564195812532262 1.0192850000000007
  endloop
endfacet
facet normal -0.4424436869390064 1.954541408737127e-15 0.8967962889574302
  outer loop
    vertex 6.56820882934466 9.223006812532264 1.0192849999999993
    vertex 6.392294733650401 9.223006812532264 0.9324959688210313
    vertex 6.56820882934466 8.564195812532262 1.0192850000000007
  endloop
endfacet
facet normal -0.9819888681465292 1.032751897332928e-15 0.18893878065738245
  outer loop
    vertex 6.126208829344664 9.223006812532265 0.4752850000000022
    vertex 6.126208829344664 8.564195812532262 0.4752850000000035
    vertex 6.1954972147424625 9.223006812532264 0.8354038856821699
  endloop
endfacet
facet normal -0.5286656364235977 -1.4854980724470236e-15 -0.8488301625559925
  outer loop
    vertex 6.568208829344661 9.223006812532264 0.19999999999999996
    vertex 6.126208829344664 8.564195812532262 0.4752850000000035
    vertex 6.334091122094084 9.223006812532265 0.3458124276933848
  endloop
endfacet
facet normal -0.5286656364235977 -1.3542020874930113e-15 -0.8488301625559925
  outer loop
    vertex 6.334091122094084 9.223006812532265 0.3458124276933848
    vertex 6.126208829344664 8.564195812532262 0.4752850000000035
    vertex 6.126208829344664 9.223006812532265 0.4752850000000022
  endloop
endfacet
facet normal 0.5286656364235869 -2.031752012712871e-15 -0.8488301625559993
  outer loop
    vertex 7.010208829344671 9.223006812532264 0.4752850000000024
    vertex 7.01020882934467 8.564195812532262 0.47528500000000373
    vertex 6.568208829344661 9.223006812532264 0.19999999999999996
  endloop
endfacet
facet normal -3.4160708450004587e-16 2.085542718503879e-15 1.0
  outer loop
    vertex 6.893018048879002 8.564195812532262 0.5336683911452302
    vertex 6.243018048879003 9.203006812532266 0.5336683911452287
    vertex 6.243018048879003 8.564195812532262 0.53366839114523
  endloop
endfacet
facet normal -3.4160708450004587e-16 2.085542718503879e-15 1.0
  outer loop
    vertex 6.243018048879003 9.203006812532266 0.5336683911452287
    vertex 6.893018048879002 8.564195812532262 0.5336683911452302
    vertex 6.893018048879003 9.203006812532264 0.5336683911452289
  endloop
endfacet
facet normal -0.7761140001162649 -7.885130814551224e-16 -0.6305926250944666
  outer loop
    vertex 6.568018048879002 9.203006812532264 0.9336683911452288
    vertex 6.893018048879002 8.564195812532262 0.5336683911452302
    vertex 6.568018048879002 8.564195812532262 0.9336683911452301
  endloop
endfacet
facet normal -0.7761140001162649 -7.885130814551224e-16 -0.6305926250944666
  outer loop
    vertex 6.893018048879002 8.564195812532262 0.5336683911452302
    vertex 6.568018048879002 9.203006812532264 0.9336683911452288
    vertex 6.893018048879003 9.203006812532264 0.5336683911452289
  endloop
endfacet
facet normal 0.0 -1.0 0.0
  outer loop
    vertex 6.682856337446531 9.223884312532265 0.6035496311837427
    vertex 6.6511890508211025 9.223884312532265 0.6035496311837429
    vertex 6.667022694133816 9.223884312532265 0.6014650924957161
  endloop
endfacet
facet normal 0.0 -1.0 0.0
  outer loop
    vertex 6.6511890508211025 9.223884312532265 0.6035496311837429
    vertex 6.682856337446531 9.223884312532265 0.6035496311837427
    vertex 6.6976109441338165 9.223884312532265 0.6096611893810973
  endloop
endfacet
facet normal 0.0 -1.0 0.0
  outer loop
    vertex 6.6511890508211025 9.223884312532265 0.6035496311837429
    vertex 6.6976109441338165 9.223884312532265 0.6096611893810973
    vertex 6.636434444133816 9.223884312532265 0.6096611893810973
  endloop
endfacet
facet normal 0.0 -1.0 0.0
  outer loop
    vertex 6.636434444133816 9.223884312532265 0.6096611893810973
    vertex 6.6976109441338165 9.223884312532265 0.6096611893810973
    vertex 6.710281012133075 9.223884312532265 0.6193832744964574
  endloop
endfacet
facet normal 0.0 -1.0 0.0
  outer loop
    vertex 6.636434444133816 9.223884312532265 0.6096611893810973
    vertex 6.710281012133075 9.223884312532265 0.6193832744964574
    vertex 6.623764376134558 9.223884312532265 0.6193832744964574
  endloop
endfacet
facet normal 0.0 -1.0 0.0
  outer loop
    vertex 6.623764376134558 9.223884312532265 0.6193832744964574
    vertex 6.710281012133075 9.223884312532265 0.6193832744964574
    vertex 6.720003097248435 9.223884312532265 0.6320533424957162
  endloop
endfacet
facet normal 0.0 -1.0 0.0
  outer loop
    vertex 6.623764376134558 9.223884312532265 0.6193832744964574
    vertex 6.720003097248435 9.223884312532265 0.6320533424957162
    vertex 6.6140422910191985 9.223884312532265 0.6320533424957162
  endloop
endfacet
facet normal 0.0 -1.0 0.0
  outer loop
    vertex 6.6140422910191985 9.223884312532265 0.6320533424957162
    vertex 6.720003097248435 9.223884312532265 0.6320533424957162
    vertex 6.726114655445789 9.223884312532265 0.6468079491830017
  endloop
endfacet
facet normal 0.0 -1.0 0.0
  outer loop
    vertex 6.6140422910191985 9.223884312532265 0.6320533424957162
    vertex 6.726114655445789 9.223884312532265 0.6468079491830017
    vertex 6.607930732821843 9.223884312532265 0.6468079491830017
  endloop
endfacet
facet normal 0.0 -1.0 0.0
  outer loop
    vertex 6.607930732821843 9.223884312532265 0.6468079491830017
    vertex 6.726114655445789 9.223884312532265 0.6468079491830017
    vertex 6.728199194133817 9.223884312532265 0.6626415924957161
  endloop
endfacet
facet normal 0.0 -1.0 0.0
  outer loop
    vertex 6.607930732821843 9.223884312532265 0.6468079491830017
    vertex 6.728199194133817 9.223884312532265 0.6626415924957161
    vertex 6.605846194133816 9.223884312532265 0.6626415924957161
  endloop
endfacet
facet normal 0.0 -1.0 0.0
  outer loop
    vertex 6.605846194133816 9.223884312532265 0.6626415924957161
    vertex 6.728199194133817 9.223884312532265 0.6626415924957161
    vertex 6.726114655445789 9.223884312532265 0.6784752358084303
  endloop
endfacet
facet normal 0.0 -1.0 0.0
  outer loop
    vertex 6.605846194133816 9.223884312532265 0.6626415924957161
    vertex 6.726114655445789 9.223884312532265 0.6784752358084303
    vertex 6.607930732821843 9.223884312532265 0.6784752358084303
  endloop
endfacet
facet normal 0.0 -1.0 0.0
  outer loop
    vertex 6.607930732821843 9.223884312532265 0.6784752358084303
    vertex 6.726114655445789 9.223884312532265 0.6784752358084303
    vertex 6.720003097248435 9.223884312532265 0.693229842495716
  endloop
endfacet
facet normal 0.0 -1.0 0.0
  outer loop
    vertex 6.607930732821843 9.223884312532265 0.6784752358084303
    vertex 6.720003097248435 9.223884312532265 0.693229842495716
    vertex 6.6140422910191985 9.223884312532265 0.6932298424957164
  endloop
endfacet
facet normal 0.0 -1.0 0.0
  outer loop
    vertex 6.6140422910191985 9.223884312532265 0.6932298424957164
    vertex 6.720003097248435 9.223884312532265 0.693229842495716
    vertex 6.710281012133076 9.223884312532265 0.7058999104949748
  endloop
endfacet
facet normal 0.0 -1.0 0.0
  outer loop
    vertex 6.6140422910191985 9.223884312532265 0.6932298424957164
    vertex 6.710281012133076 9.223884312532265 0.7058999104949748
    vertex 6.623764376134558 9.223884312532265 0.7058999104949748
  endloop
endfacet
facet normal 0.0 -1.0 0.0
  outer loop
    vertex 6.623764376134558 9.223884312532265 0.7058999104949748
    vertex 6.710281012133076 9.223884312532265 0.7058999104949748
    vertex 6.6976109441338165 9.223884312532265 0.7156219956103349
  endloop
endfacet
facet normal 0.0 -1.0 0.0
  outer loop
    vertex 6.623764376134558 9.223884312532265 0.7058999104949748
    vertex 6.6976109441338165 9.223884312532265 0.7156219956103349
    vertex 6.636434444133817 9.223884312532265 0.7156219956103349
  endloop
endfacet
facet normal 0.0 -1.0 0.0
  outer loop
    vertex 6.636434444133817 9.223884312532265 0.7156219956103349
    vertex 6.6976109441338165 9.223884312532265 0.7156219956103349
    vertex 6.682856337446531 9.223884312532265 0.7217335538076894
  endloop
endfacet
facet normal 0.0 -1.0 0.0
  outer loop
    vertex 6.636434444133817 9.223884312532265 0.7156219956103349
    vertex 6.682856337446531 9.223884312532265 0.7217335538076894
    vertex 6.6511890508211025 9.223884312532265 0.7217335538076894
  endloop
endfacet
facet normal 0.0 -1.0 0.0
  outer loop
    vertex 6.6511890508211025 9.223884312532265 0.7217335538076894
    vertex 6.682856337446531 9.223884312532265 0.7217335538076894
    vertex 6.667022694133816 9.223884312532265 0.723818092495716
  endloop
endfacet
facet normal 0.7761140001162672 -1.3328840372714038e-15 -0.6305926250944638
  outer loop
    vertex 6.243018048879003 9.203006812532266 0.5336683911452287
    vertex 6.568018048879002 8.564195812532262 0.9336683911452301
    vertex 6.243018048879003 8.564195812532262 0.53366839114523
  endloop
endfacet
facet normal 0.7761140001162672 -1.3328840372714038e-15 -0.6305926250944638
  outer loop
    vertex 6.568018048879002 8.564195812532262 0.9336683911452301
    vertex 6.243018048879003 9.203006812532266 0.5336683911452287
    vertex 6.568018048879002 9.203006812532264 0.9336683911452288
  endloop
endfacet
facet normal -2.7328566760003867e-15 -1.0 -2.220446049250322e-15
  outer loop
    vertex 6.568018048879002 9.203006812532264 0.9336683911452288
    vertex 6.243018048879003 9.203006812532266 0.5336683911452287
    vertex 6.893018048879003 9.203006812532264 0.5336683911452289
  endloop
endfacet
facet normal 4.0189068764711296e-15 1.0 -6.452791977042933e-15
  outer loop
    vertex 7.010208829344671 9.223006812532264 0.4752850000000024
    vertex 6.568208829344661 9.223006812532264 0.19999999999999996
    vertex 6.568208829344668 9.223006812532265 0.4752850000000023
  endloop
endfacet
facet normal 6.666750107386906e-16 1.0 -5.502324777892082e-15
  outer loop
    vertex 6.334091122094084 9.223006812532265 0.3458124276933848
    vertex 6.568208829344668 9.223006812532265 0.4752850000000023
    vertex 6.568208829344661 9.223006812532264 0.19999999999999996
  endloop
endfacet
facet normal 6.666750107386906e-16 1.0 -5.502324777892082e-15
  outer loop
    vertex 6.568208829344668 9.223006812532265 0.4752850000000023
    vertex 6.334091122094084 9.223006812532265 0.3458124276933848
    vertex 6.126208829344664 9.223006812532265 0.4752850000000022
  endloop
endfacet
facet normal 0.0 1.0 0.0
  outer loop
    vertex 6.56820882934466 9.223006812532264 1.0192849999999993
    vertex 6.834836566428495 9.223006812532264 0.8944436097036084
    vertex 6.735331409930116 9.223006812532264 0.8135956700486748
  endloop
endfacet
facet normal 0.0 1.0 0.0
  outer loop
    vertex 6.834836566428495 9.223006812532264 0.8944436097036084
    vertex 7.010208829344671 9.223006812532264 0.4752850000000024
    vertex 6.735331409930116 9.223006812532264 0.8135956700486748
  endloop
endfacet
facet normal 0.0 1.0 0.0
  outer loop
    vertex 6.1954972147424625 9.223006812532264 0.8354038856821699
    vertex 6.56820882934466 9.223006812532264 1.0192849999999993
    vertex 6.3886155426438895 9.223006812532264 0.798247108675973
  endloop
endfacet
facet normal 0.0 1.0 0.0
  outer loop
    vertex 6.56820882934466 9.223006812532264 1.0192849999999993
    vertex 6.1954972147424625 9.223006812532264 0.8354038856821699
    vertex 6.392294733650401 9.223006812532264 0.9324959688210313
  endloop
endfacet
facet normal 9.151915207313566e-16 1.0 4.75660889973658e-15
  outer loop
    vertex 6.1954972147424625 9.223006812532264 0.8354038856821699
    vertex 6.3886155426438895 9.223006812532264 0.798247108675973
    vertex 6.126208829344664 9.223006812532265 0.4752850000000022
  endloop
endfacet
facet normal 0.44591776960409096 1.2197302097922708e-15 0.8950739314443878
  outer loop
    vertex 7.01020882934467 8.564195812532262 0.47528500000000373
    vertex 6.893018048879003 9.203006812532264 0.5336683911452289
    vertex 6.893018048879002 8.564195812532262 0.5336683911452302
  endloop
endfacet
facet normal 0.44591776960409096 1.2197302097922708e-15 0.8950739314443878
  outer loop
    vertex 6.893018048879003 9.203006812532264 0.5336683911452289
    vertex 7.01020882934467 8.564195812532262 0.47528500000000373
    vertex 6.893018048879003 9.223006812532264 0.5336683911452289
  endloop
endfacet
facet normal 0.44591776960409096 1.2197302097922708e-15 0.8950739314443878
  outer loop
    vertex 6.893018048879003 9.223006812532264 0.5336683911452289
    vertex 7.01020882934467 8.564195812532262 0.47528500000000373
    vertex 7.010208829344671 9.223006812532264 0.4752850000000024
  endloop
endfacet
facet normal 4.018906876471128e-15 1.0 8.067000292959157e-15
  outer loop
    vertex 6.893018048879003 9.223006812532264 0.5336683911452289
    vertex 7.010208829344671 9.223006812532264 0.4752850000000024
    vertex 6.568208829344668 9.223006812532265 0.4752850000000023
  endloop
endfacet
facet normal 2.1894701669985566e-15 1.0 2.669220279961436e-15
  outer loop
    vertex 6.126208829344664 9.223006812532265 0.4752850000000022
    vertex 6.243018048879003 9.223006812532265 0.5336683911452287
    vertex 6.568208829344668 9.223006812532265 0.4752850000000023
  endloop
endfacet
facet normal 2.1894701669985566e-15 1.0 2.669220279961436e-15
  outer loop
    vertex 6.243018048879003 9.223006812532265 0.5336683911452287
    vertex 6.126208829344664 9.223006812532265 0.4752850000000022
    vertex 6.3886155426438895 9.223006812532264 0.798247108675973
  endloop
endfacet
facet normal 2.1894701669985566e-15 1.0 2.669220279961436e-15
  outer loop
    vertex 6.243018048879003 9.223006812532265 0.5336683911452287
    vertex 6.3886155426438895 9.223006812532264 0.798247108675973
    vertex 6.568018048879002 9.223006812532264 0.9336683911452288
  endloop
endfacet
facet normal 2.1894701669985566e-15 1.0 2.669220279961436e-15
  outer loop
    vertex 6.568018048879002 9.223006812532264 0.9336683911452288
    vertex 6.3886155426438895 9.223006812532264 0.798247108675973
    vertex 6.56820882934466 9.223006812532264 1.0192849999999993
  endloop
endfacet
facet normal 2.1894701669985566e-15 1.0 2.669220279961436e-15
  outer loop
    vertex 6.893018048879003 9.223006812532264 0.5336683911452289
    vertex 6.735331409930116 9.223006812532264 0.8135956700486748
    vertex 7.010208829344671 9.223006812532264 0.4752850000000024
  endloop
endfacet
facet normal 2.1894701669985566e-15 1.0 2.669220279961436e-15
  outer loop
    vertex 6.735331409930116 9.223006812532264 0.8135956700486748
    vertex 6.893018048879003 9.223006812532264 0.5336683911452289
    vertex 6.568018048879002 9.223006812532264 0.9336683911452288
  endloop
endfacet
facet normal 2.1894701669985566e-15 1.0 2.669220279961436e-15
  outer loop
    vertex 6.735331409930116 9.223006812532264 0.8135956700486748
    vertex 6.568018048879002 9.223006812532264 0.9336683911452288
    vertex 6.56820882934466 9.223006812532264 1.0192849999999993
  endloop
endfacet
facet normal 2.1894701669985566e-15 1.0 2.669220279961436e-15
  outer loop
    vertex 6.893018048879003 9.223006812532264 0.5336683911452289
    vertex 6.568208829344668 9.223006812532265 0.4752850000000023
    vertex 6.243018048879003 9.223006812532265 0.5336683911452287
  endloop
endfacet
facet normal 0.0 1.0 0.0
  outer loop
    vertex 6.4585094055662875 9.309879312532264 0.6035496311837429
    vertex 6.490176692191716 9.309879312532264 0.6035496311837427
    vertex 6.4743430488790015 9.309879312532264 0.6014650924957161
  endloop
endfacet
facet normal 0.0 1.0 0.0
  outer loop
    vertex 6.490176692191716 9.309879312532264 0.6035496311837427
    vertex 6.4585094055662875 9.309879312532264 0.6035496311837429
    vertex 6.504931298879002 9.309879312532264 0.6096611893810975
  endloop
endfacet
facet normal 0.0 1.0 0.0
  outer loop
    vertex 6.504931298879002 9.309879312532264 0.6096611893810975
    vertex 6.4585094055662875 9.309879312532264 0.6035496311837429
    vertex 6.443754798879002 9.309879312532264 0.6096611893810975
  endloop
endfacet
facet normal 0.0 1.0 0.0
  outer loop
    vertex 6.504931298879002 9.309879312532264 0.6096611893810975
    vertex 6.443754798879002 9.309879312532264 0.6096611893810975
    vertex 6.431084730879744 9.309879312532264 0.6193832744964574
  endloop
endfacet
facet normal 0.0 1.0 0.0
  outer loop
    vertex 6.504931298879002 9.309879312532264 0.6096611893810975
    vertex 6.431084730879744 9.309879312532264 0.6193832744964574
    vertex 6.51760136687826 9.309879312532264 0.6193832744964574
  endloop
endfacet
facet normal 0.0 1.0 0.0
  outer loop
    vertex 6.51760136687826 9.309879312532264 0.6193832744964574
    vertex 6.431084730879744 9.309879312532264 0.6193832744964574
    vertex 6.4213626457643835 9.309879312532264 0.6320533424957162
  endloop
endfacet
facet normal 0.0 1.0 0.0
  outer loop
    vertex 6.51760136687826 9.309879312532264 0.6193832744964574
    vertex 6.4213626457643835 9.309879312532264 0.6320533424957162
    vertex 6.527323451993623 9.309879312532264 0.6320533424957162
  endloop
endfacet
facet normal 0.0 1.0 0.0
  outer loop
    vertex 6.527323451993623 9.309879312532264 0.6320533424957162
    vertex 6.4213626457643835 9.309879312532264 0.6320533424957162
    vertex 6.415251087567029 9.309879312532264 0.6468079491830017
  endloop
endfacet
facet normal 0.0 1.0 0.0
  outer loop
    vertex 6.527323451993623 9.309879312532264 0.6320533424957162
    vertex 6.415251087567029 9.309879312532264 0.6468079491830017
    vertex 6.533435010190976 9.309879312532264 0.6468079491830017
  endloop
endfacet
facet normal 0.0 1.0 0.0
  outer loop
    vertex 6.533435010190976 9.309879312532264 0.6468079491830017
    vertex 6.415251087567029 9.309879312532264 0.6468079491830017
    vertex 6.413166548879004 9.309879312532264 0.6626415924957161
  endloop
endfacet
facet normal 0.0 1.0 0.0
  outer loop
    vertex 6.533435010190976 9.309879312532264 0.6468079491830017
    vertex 6.413166548879004 9.309879312532264 0.6626415924957161
    vertex 6.535519548879004 9.309879312532264 0.6626415924957161
  endloop
endfacet
facet normal 0.0 1.0 0.0
  outer loop
    vertex 6.535519548879004 9.309879312532264 0.6626415924957161
    vertex 6.413166548879004 9.309879312532264 0.6626415924957161
    vertex 6.415251087567029 9.309879312532264 0.6784752358084303
  endloop
endfacet
facet normal 0.0 1.0 0.0
  outer loop
    vertex 6.535519548879004 9.309879312532264 0.6626415924957161
    vertex 6.415251087567029 9.309879312532264 0.6784752358084303
    vertex 6.533435010190976 9.309879312532264 0.6784752358084303
  endloop
endfacet
facet normal 0.0 1.0 0.0
  outer loop
    vertex 6.533435010190976 9.309879312532264 0.6784752358084303
    vertex 6.415251087567029 9.309879312532264 0.6784752358084303
    vertex 6.4213626457643835 9.309879312532264 0.6932298424957164
  endloop
endfacet
facet normal 0.0 1.0 0.0
  outer loop
    vertex 6.533435010190976 9.309879312532264 0.6784752358084303
    vertex 6.4213626457643835 9.309879312532264 0.6932298424957164
    vertex 6.527323451993623 9.309879312532264 0.693229842495716
  endloop
endfacet
facet normal 0.0 1.0 0.0
  outer loop
    vertex 6.527323451993623 9.309879312532264 0.693229842495716
    vertex 6.4213626457643835 9.309879312532264 0.6932298424957164
    vertex 6.517601366878262 9.309879312532264 0.7058999104949748
  endloop
endfacet
facet normal 0.0 1.0 0.0
  outer loop
    vertex 6.517601366878262 9.309879312532264 0.7058999104949748
    vertex 6.4213626457643835 9.309879312532264 0.6932298424957164
    vertex 6.431084730879744 9.309879312532264 0.7058999104949748
  endloop
endfacet
facet normal 0.0 1.0 0.0
  outer loop
    vertex 6.517601366878262 9.309879312532264 0.7058999104949748
    vertex 6.431084730879744 9.309879312532264 0.7058999104949748
    vertex 6.443754798879002 9.309879312532264 0.7156219956103349
  endloop
endfacet
facet normal 0.0 1.0 0.0
  outer loop
    vertex 6.517601366878262 9.309879312532264 0.7058999104949748
    vertex 6.443754798879002 9.309879312532264 0.7156219956103349
    vertex 6.504931298879002 9.309879312532264 0.7156219956103349
  endloop
endfacet
facet normal 0.0 1.0 0.0
  outer loop
    vertex 6.504931298879002 9.309879312532264 0.7156219956103349
    vertex 6.443754798879002 9.309879312532264 0.7156219956103349
    vertex 6.4585094055662875 9.309879312532264 0.7217335538076894
  endloop
endfacet
facet normal 0.0 1.0 0.0
  outer loop
    vertex 6.504931298879002 9.309879312532264 0.7156219956103349
    vertex 6.4585094055662875 9.309879312532264 0.7217335538076894
    vertex 6.490176692191716 9.309879312532264 0.7217335538076894
  endloop
endfacet
facet normal 0.0 1.0 0.0
  outer loop
    vertex 6.490176692191716 9.309879312532264 0.7217335538076894
    vertex 6.4585094055662875 9.309879312532264 0.7217335538076894
    vertex 6.4743430488790015 9.309879312532264 0.723818092495716
  endloop
endfacet
facet normal 0.6087614290087068 0.0 0.793353340291246
  outer loop
    vertex 6.517601366878262 9.223884312532265 0.7058999104949748
    vertex 6.504931298879002 9.309879312532264 0.7156219956103349
    vertex 6.504931298879002 9.223884312532265 0.7156219956103349
  endloop
endfacet
facet normal 0.6087614290087068 0.0 0.793353340291246
  outer loop
    vertex 6.504931298879002 9.309879312532264 0.7156219956103349
    vertex 6.517601366878262 9.223884312532265 0.7058999104949748
    vertex 6.517601366878262 9.309879312532264 0.7058999104949748
  endloop
endfacet
facet normal 0.3826834323651026 0.0 0.9238795325112816
  outer loop
    vertex 6.504931298879002 9.223884312532265 0.7156219956103349
    vertex 6.490176692191716 9.309879312532264 0.7217335538076894
    vertex 6.490176692191716 9.223884312532265 0.7217335538076894
  endloop
endfacet
facet normal 0.3826834323651026 0.0 0.9238795325112816
  outer loop
    vertex 6.490176692191716 9.309879312532264 0.7217335538076894
    vertex 6.504931298879002 9.223884312532265 0.7156219956103349
    vertex 6.504931298879002 9.309879312532264 0.7156219956103349
  endloop
endfacet
facet normal 0.13052619222003298 0.0 0.991444861373813
  outer loop
    vertex 6.490176692191716 9.223884312532265 0.7217335538076894
    vertex 6.4743430488790015 9.309879312532264 0.723818092495716
    vertex 6.4743430488790015 9.223884312532265 0.723818092495716
  endloop
endfacet
facet normal 0.13052619222003298 0.0 0.991444861373813
  outer loop
    vertex 6.4743430488790015 9.309879312532264 0.723818092495716
    vertex 6.490176692191716 9.223884312532265 0.7217335538076894
    vertex 6.490176692191716 9.309879312532264 0.7217335538076894
  endloop
endfacet
facet normal -0.13052619222003298 0.0 0.991444861373813
  outer loop
    vertex 6.4743430488790015 9.223884312532265 0.723818092495716
    vertex 6.4585094055662875 9.309879312532264 0.7217335538076894
    vertex 6.4585094055662875 9.223884312532265 0.7217335538076894
  endloop
endfacet
facet normal -0.13052619222003298 0.0 0.991444861373813
  outer loop
    vertex 6.4585094055662875 9.309879312532264 0.7217335538076894
    vertex 6.4743430488790015 9.223884312532265 0.723818092495716
    vertex 6.4743430488790015 9.309879312532264 0.723818092495716
  endloop
endfacet
facet normal -0.3826834323651026 0.0 0.9238795325112816
  outer loop
    vertex 6.4585094055662875 9.223884312532265 0.7217335538076894
    vertex 6.443754798879002 9.309879312532264 0.7156219956103349
    vertex 6.443754798879002 9.223884312532265 0.7156219956103349
  endloop
endfacet
facet normal -0.3826834323651026 0.0 0.9238795325112816
  outer loop
    vertex 6.443754798879002 9.309879312532264 0.7156219956103349
    vertex 6.4585094055662875 9.223884312532265 0.7217335538076894
    vertex 6.4585094055662875 9.309879312532264 0.7217335538076894
  endloop
endfacet
facet normal -0.6087614290087068 0.0 0.793353340291246
  outer loop
    vertex 6.443754798879002 9.223884312532265 0.7156219956103349
    vertex 6.431084730879744 9.309879312532264 0.7058999104949748
    vertex 6.431084730879744 9.223884312532265 0.7058999104949748
  endloop
endfacet
facet normal -0.6087614290087068 0.0 0.793353340291246
  outer loop
    vertex 6.431084730879744 9.309879312532264 0.7058999104949748
    vertex 6.443754798879002 9.223884312532265 0.7156219956103349
    vertex 6.443754798879002 9.309879312532264 0.7156219956103349
  endloop
endfacet
facet normal -0.7933533402912389 0.0 0.6087614290087159
  outer loop
    vertex 6.431084730879744 9.309879312532264 0.7058999104949748
    vertex 6.4213626457643835 9.223884312532265 0.6932298424957164
    vertex 6.431084730879744 9.223884312532265 0.7058999104949748
  endloop
endfacet
facet normal -0.7933533402912389 0.0 0.6087614290087159
  outer loop
    vertex 6.4213626457643835 9.223884312532265 0.6932298424957164
    vertex 6.431084730879744 9.309879312532264 0.7058999104949748
    vertex 6.4213626457643835 9.309879312532264 0.6932298424957164
  endloop
endfacet
facet normal -0.9238795325112797 0.0 0.3826834323651067
  outer loop
    vertex 6.4213626457643835 9.309879312532264 0.6932298424957164
    vertex 6.415251087567029 9.223884312532265 0.6784752358084303
    vertex 6.4213626457643835 9.223884312532265 0.6932298424957164
  endloop
endfacet
facet normal -0.9238795325112797 0.0 0.3826834323651067
  outer loop
    vertex 6.415251087567029 9.223884312532265 0.6784752358084303
    vertex 6.4213626457643835 9.309879312532264 0.6932298424957164
    vertex 6.415251087567029 9.309879312532264 0.6784752358084303
  endloop
endfacet
facet normal -0.9914448613738126 0.0 0.13052619222003486
  outer loop
    vertex 6.415251087567029 9.309879312532264 0.6784752358084303
    vertex 6.413166548879004 9.223884312532265 0.6626415924957161
    vertex 6.415251087567029 9.223884312532265 0.6784752358084303
  endloop
endfacet
facet normal -0.9914448613738126 0.0 0.13052619222003486
  outer loop
    vertex 6.413166548879004 9.223884312532265 0.6626415924957161
    vertex 6.415251087567029 9.309879312532264 0.6784752358084303
    vertex 6.413166548879004 9.309879312532264 0.6626415924957161
  endloop
endfacet
facet normal -0.9914448613738126 0.0 -0.13052619222003486
  outer loop
    vertex 6.413166548879004 9.309879312532264 0.6626415924957161
    vertex 6.415251087567029 9.223884312532265 0.6468079491830017
    vertex 6.413166548879004 9.223884312532265 0.6626415924957161
  endloop
endfacet
facet normal -0.9914448613738126 0.0 -0.13052619222003486
  outer loop
    vertex 6.415251087567029 9.223884312532265 0.6468079491830017
    vertex 6.413166548879004 9.309879312532264 0.6626415924957161
    vertex 6.415251087567029 9.309879312532264 0.6468079491830017
  endloop
endfacet
facet normal -0.923879532511276 0.0 -0.38268343236511637
  outer loop
    vertex 6.415251087567029 9.309879312532264 0.6468079491830017
    vertex 6.4213626457643835 9.223884312532265 0.6320533424957162
    vertex 6.415251087567029 9.223884312532265 0.6468079491830017
  endloop
endfacet
facet normal -0.923879532511276 0.0 -0.38268343236511637
  outer loop
    vertex 6.4213626457643835 9.223884312532265 0.6320533424957162
    vertex 6.415251087567029 9.309879312532264 0.6468079491830017
    vertex 6.4213626457643835 9.309879312532264 0.6320533424957162
  endloop
endfacet
facet normal -0.7933533402912438 0.0 -0.6087614290087093
  outer loop
    vertex 6.4213626457643835 9.309879312532264 0.6320533424957162
    vertex 6.431084730879744 9.223884312532265 0.6193832744964574
    vertex 6.4213626457643835 9.223884312532265 0.6320533424957162
  endloop
endfacet
facet normal -0.7933533402912438 0.0 -0.6087614290087093
  outer loop
    vertex 6.431084730879744 9.223884312532265 0.6193832744964574
    vertex 6.4213626457643835 9.309879312532264 0.6320533424957162
    vertex 6.431084730879744 9.309879312532264 0.6193832744964574
  endloop
endfacet
facet normal -0.6087614290087329 0.0 -0.793353340291226
  outer loop
    vertex 6.443754798879002 9.309879312532264 0.6096611893810975
    vertex 6.431084730879744 9.223884312532265 0.6193832744964574
    vertex 6.431084730879744 9.309879312532264 0.6193832744964574
  endloop
endfacet
facet normal -0.6087614290087329 0.0 -0.793353340291226
  outer loop
    vertex 6.431084730879744 9.223884312532265 0.6193832744964574
    vertex 6.443754798879002 9.309879312532264 0.6096611893810975
    vertex 6.443754798879002 9.223884312532265 0.6096611893810975
  endloop
endfacet
facet normal -0.3826834323650716 0.0 -0.9238795325112943
  outer loop
    vertex 6.4585094055662875 9.309879312532264 0.6035496311837429
    vertex 6.443754798879002 9.223884312532265 0.6096611893810975
    vertex 6.443754798879002 9.309879312532264 0.6096611893810975
  endloop
endfacet
facet normal -0.3826834323650716 0.0 -0.9238795325112943
  outer loop
    vertex 6.443754798879002 9.223884312532265 0.6096611893810975
    vertex 6.4585094055662875 9.309879312532264 0.6035496311837429
    vertex 6.4585094055662875 9.223884312532265 0.6035496311837429
  endloop
endfacet
facet normal -0.13052619222006237 -2.644007037649321e-29 -0.9914448613738089
  outer loop
    vertex 6.4743430488790015 9.309879312532264 0.6014650924957161
    vertex 6.4585094055662875 9.223884312532265 0.6035496311837429
    vertex 6.4585094055662875 9.309879312532264 0.6035496311837429
  endloop
endfacet
facet normal -0.13052619222006237 -2.644007037649321e-29 -0.9914448613738089
  outer loop
    vertex 6.4585094055662875 9.223884312532265 0.6035496311837429
    vertex 6.4743430488790015 9.309879312532264 0.6014650924957161
    vertex 6.4743430488790015 9.223884312532265 0.6014650924957161
  endloop
endfacet
facet normal 0.1305261922200415 9.568228640202499e-19 -0.9914448613738118
  outer loop
    vertex 6.490176692191716 9.309879312532264 0.6035496311837427
    vertex 6.4743430488790015 9.223884312532265 0.6014650924957161
    vertex 6.4743430488790015 9.309879312532264 0.6014650924957161
  endloop
endfacet
facet normal 0.1305261922200415 9.568228640202499e-19 -0.9914448613738118
  outer loop
    vertex 6.4743430488790015 9.223884312532265 0.6014650924957161
    vertex 6.490176692191716 9.309879312532264 0.6035496311837427
    vertex 6.490176692191716 9.223884312532265 0.6035496311837427
  endloop
endfacet
facet normal 0.3826834323651026 0.0 -0.9238795325112816
  outer loop
    vertex 6.504931298879002 9.309879312532264 0.6096611893810975
    vertex 6.490176692191716 9.223884312532265 0.6035496311837427
    vertex 6.490176692191716 9.309879312532264 0.6035496311837427
  endloop
endfacet
facet normal 0.3826834323651026 0.0 -0.9238795325112816
  outer loop
    vertex 6.490176692191716 9.223884312532265 0.6035496311837427
    vertex 6.504931298879002 9.309879312532264 0.6096611893810975
    vertex 6.504931298879002 9.223884312532265 0.6096611893810975
  endloop
endfacet
facet normal 0.6087614290087329 0.0 -0.793353340291226
  outer loop
    vertex 6.51760136687826 9.309879312532264 0.6193832744964574
    vertex 6.504931298879002 9.223884312532265 0.6096611893810975
    vertex 6.504931298879002 9.309879312532264 0.6096611893810975
  endloop
endfacet
facet normal 0.6087614290087329 0.0 -0.793353340291226
  outer loop
    vertex 6.504931298879002 9.223884312532265 0.6096611893810975
    vertex 6.51760136687826 9.309879312532264 0.6193832744964574
    vertex 6.51760136687826 9.223884312532265 0.6193832744964574
  endloop
endfacet
facet normal 0.7933533402912176 0.0 -0.6087614290087436
  outer loop
    vertex 6.51760136687826 9.309879312532264 0.6193832744964574
    vertex 6.527323451993623 9.223884312532265 0.6320533424957162
    vertex 6.51760136687826 9.223884312532265 0.6193832744964574
  endloop
endfacet
facet normal 0.7933533402912176 0.0 -0.6087614290087436
  outer loop
    vertex 6.527323451993623 9.223884312532265 0.6320533424957162
    vertex 6.51760136687826 9.309879312532264 0.6193832744964574
    vertex 6.527323451993623 9.309879312532264 0.6320533424957162
  endloop
endfacet
facet normal 0.9238795325112952 0.0 -0.38268343236506985
  outer loop
    vertex 6.527323451993623 9.309879312532264 0.6320533424957162
    vertex 6.533435010190976 9.223884312532265 0.6468079491830017
    vertex 6.527323451993623 9.223884312532265 0.6320533424957162
  endloop
endfacet
facet normal 0.9238795325112952 0.0 -0.38268343236506985
  outer loop
    vertex 6.533435010190976 9.223884312532265 0.6468079491830017
    vertex 6.527323451993623 9.309879312532264 0.6320533424957162
    vertex 6.533435010190976 9.309879312532264 0.6468079491830017
  endloop
endfacet
facet normal 0.9914448613738056 0.0 -0.13052619222008835
  outer loop
    vertex 6.533435010190976 9.309879312532264 0.6468079491830017
    vertex 6.535519548879004 9.223884312532265 0.6626415924957161
    vertex 6.533435010190976 9.223884312532265 0.6468079491830017
  endloop
endfacet
facet normal 0.9914448613738056 0.0 -0.13052619222008835
  outer loop
    vertex 6.535519548879004 9.223884312532265 0.6626415924957161
    vertex 6.533435010190976 9.309879312532264 0.6468079491830017
    vertex 6.535519548879004 9.309879312532264 0.6626415924957161
  endloop
endfacet
facet normal 0.9914448613738056 0.0 0.13052619222008835
  outer loop
    vertex 6.535519548879004 9.309879312532264 0.6626415924957161
    vertex 6.533435010190976 9.223884312532265 0.6784752358084303
    vertex 6.535519548879004 9.223884312532265 0.6626415924957161
  endloop
endfacet
facet normal 0.9914448613738056 0.0 0.13052619222008835
  outer loop
    vertex 6.533435010190976 9.223884312532265 0.6784752358084303
    vertex 6.535519548879004 9.309879312532264 0.6626415924957161
    vertex 6.533435010190976 9.309879312532264 0.6784752358084303
  endloop
endfacet
facet normal 0.9238795325112952 0.0 0.38268343236506985
  outer loop
    vertex 6.533435010190976 9.309879312532264 0.6784752358084303
    vertex 6.527323451993623 9.223884312532265 0.693229842495716
    vertex 6.533435010190976 9.223884312532265 0.6784752358084303
  endloop
endfacet
facet normal 0.9238795325112952 0.0 0.38268343236506985
  outer loop
    vertex 6.527323451993623 9.223884312532265 0.693229842495716
    vertex 6.533435010190976 9.309879312532264 0.6784752358084303
    vertex 6.527323451993623 9.309879312532264 0.693229842495716
  endloop
endfacet
facet normal 0.7933533402912492 0.0 0.6087614290087027
  outer loop
    vertex 6.527323451993623 9.309879312532264 0.693229842495716
    vertex 6.517601366878262 9.223884312532265 0.7058999104949748
    vertex 6.527323451993623 9.223884312532265 0.693229842495716
  endloop
endfacet
facet normal 0.7933533402912492 0.0 0.6087614290087027
  outer loop
    vertex 6.517601366878262 9.223884312532265 0.7058999104949748
    vertex 6.527323451993623 9.309879312532264 0.693229842495716
    vertex 6.517601366878262 9.309879312532264 0.7058999104949748
  endloop
endfacet
facet normal 0.0 1.0 0.0
  outer loop
    vertex 6.6511890508211025 9.309879312532265 0.6035496311837429
    vertex 6.682856337446531 9.309879312532265 0.6035496311837427
    vertex 6.667022694133816 9.309879312532265 0.6014650924957161
  endloop
endfacet
facet normal 0.0 1.0 0.0
  outer loop
    vertex 6.682856337446531 9.309879312532265 0.6035496311837427
    vertex 6.6511890508211025 9.309879312532265 0.6035496311837429
    vertex 6.6976109441338165 9.309879312532265 0.6096611893810973
  endloop
endfacet
facet normal 0.0 1.0 0.0
  outer loop
    vertex 6.6976109441338165 9.309879312532265 0.6096611893810973
    vertex 6.6511890508211025 9.309879312532265 0.6035496311837429
    vertex 6.636434444133816 9.309879312532265 0.6096611893810973
  endloop
endfacet
facet normal 0.0 1.0 0.0
  outer loop
    vertex 6.6976109441338165 9.309879312532265 0.6096611893810973
    vertex 6.636434444133816 9.309879312532265 0.6096611893810973
    vertex 6.623764376134558 9.309879312532265 0.6193832744964574
  endloop
endfacet
facet normal 0.0 1.0 0.0
  outer loop
    vertex 6.6976109441338165 9.309879312532265 0.6096611893810973
    vertex 6.623764376134558 9.309879312532265 0.6193832744964574
    vertex 6.710281012133075 9.309879312532265 0.6193832744964574
  endloop
endfacet
facet normal 0.0 1.0 0.0
  outer loop
    vertex 6.710281012133075 9.309879312532265 0.6193832744964574
    vertex 6.623764376134558 9.309879312532265 0.6193832744964574
    vertex 6.6140422910191985 9.309879312532265 0.6320533424957162
  endloop
endfacet
facet normal 0.0 1.0 0.0
  outer loop
    vertex 6.710281012133075 9.309879312532265 0.6193832744964574
    vertex 6.6140422910191985 9.309879312532265 0.6320533424957162
    vertex 6.720003097248435 9.309879312532265 0.6320533424957162
  endloop
endfacet
facet normal 0.0 1.0 0.0
  outer loop
    vertex 6.720003097248435 9.309879312532265 0.6320533424957162
    vertex 6.6140422910191985 9.309879312532265 0.6320533424957162
    vertex 6.607930732821843 9.309879312532265 0.6468079491830017
  endloop
endfacet
facet normal 0.0 1.0 0.0
  outer loop
    vertex 6.720003097248435 9.309879312532265 0.6320533424957162
    vertex 6.607930732821843 9.309879312532265 0.6468079491830017
    vertex 6.726114655445789 9.309879312532265 0.6468079491830017
  endloop
endfacet
facet normal 0.0 1.0 0.0
  outer loop
    vertex 6.726114655445789 9.309879312532265 0.6468079491830017
    vertex 6.607930732821843 9.309879312532265 0.6468079491830017
    vertex 6.605846194133816 9.309879312532265 0.6626415924957161
  endloop
endfacet
facet normal 0.0 1.0 0.0
  outer loop
    vertex 6.726114655445789 9.309879312532265 0.6468079491830017
    vertex 6.605846194133816 9.309879312532265 0.6626415924957161
    vertex 6.728199194133817 9.309879312532265 0.6626415924957161
  endloop
endfacet
facet normal 0.0 1.0 0.0
  outer loop
    vertex 6.728199194133817 9.309879312532265 0.6626415924957161
    vertex 6.605846194133816 9.309879312532265 0.6626415924957161
    vertex 6.607930732821843 9.309879312532265 0.6784752358084303
  endloop
endfacet
facet normal 0.0 1.0 0.0
  outer loop
    vertex 6.728199194133817 9.309879312532265 0.6626415924957161
    vertex 6.607930732821843 9.309879312532265 0.6784752358084303
    vertex 6.726114655445789 9.309879312532265 0.6784752358084303
  endloop
endfacet
facet normal 0.0 1.0 0.0
  outer loop
    vertex 6.726114655445789 9.309879312532265 0.6784752358084303
    vertex 6.607930732821843 9.309879312532265 0.6784752358084303
    vertex 6.6140422910191985 9.309879312532265 0.6932298424957164
  endloop
endfacet
facet normal 0.0 1.0 0.0
  outer loop
    vertex 6.726114655445789 9.309879312532265 0.6784752358084303
    vertex 6.6140422910191985 9.309879312532265 0.6932298424957164
    vertex 6.720003097248435 9.309879312532265 0.693229842495716
  endloop
endfacet
facet normal 0.0 1.0 0.0
  outer loop
    vertex 6.720003097248435 9.309879312532265 0.693229842495716
    vertex 6.6140422910191985 9.309879312532265 0.6932298424957164
    vertex 6.710281012133076 9.309879312532265 0.7058999104949748
  endloop
endfacet
facet normal 0.0 1.0 0.0
  outer loop
    vertex 6.710281012133076 9.309879312532265 0.7058999104949748
    vertex 6.6140422910191985 9.309879312532265 0.6932298424957164
    vertex 6.623764376134558 9.309879312532265 0.7058999104949748
  endloop
endfacet
facet normal 0.0 1.0 0.0
  outer loop
    vertex 6.710281012133076 9.309879312532265 0.7058999104949748
    vertex 6.623764376134558 9.309879312532265 0.7058999104949748
    vertex 6.636434444133817 9.309879312532265 0.7156219956103349
  endloop
endfacet
facet normal 0.0 1.0 0.0
  outer loop
    vertex 6.710281012133076 9.309879312532265 0.7058999104949748
    vertex 6.636434444133817 9.309879312532265 0.7156219956103349
    vertex 6.6976109441338165 9.309879312532265 0.7156219956103349
  endloop
endfacet
facet normal 0.0 1.0 0.0
  outer loop
    vertex 6.6976109441338165 9.309879312532265 0.7156219956103349
    vertex 6.636434444133817 9.309879312532265 0.7156219956103349
    vertex 6.6511890508211025 9.309879312532265 0.7217335538076894
  endloop
endfacet
facet normal 0.0 1.0 0.0
  outer loop
    vertex 6.6976109441338165 9.309879312532265 0.7156219956103349
    vertex 6.6511890508211025 9.309879312532265 0.7217335538076894
    vertex 6.682856337446531 9.309879312532265 0.7217335538076894
  endloop
endfacet
facet normal 0.0 1.0 0.0
  outer loop
    vertex 6.682856337446531 9.309879312532265 0.7217335538076894
    vertex 6.6511890508211025 9.309879312532265 0.7217335538076894
    vertex 6.667022694133816 9.309879312532265 0.723818092495716
  endloop
endfacet
facet normal -8.01591997619347e-07 0.9999188244391614 -0.012741449350962119
  outer loop
    vertex 6.4585094055662875 9.223884312532265 0.6035496311837429
    vertex 6.893018048879003 9.223006812532264 0.5336683911452289
    vertex 6.243018048879003 9.223006812532265 0.5336683911452287
  endloop
endfacet
facet normal -8.01591997619347e-07 0.9999188244391614 -0.012741449350962119
  outer loop
    vertex 6.893018048879003 9.223006812532264 0.5336683911452289
    vertex 6.4585094055662875 9.223884312532265 0.6035496311837429
    vertex 6.4743430488790015 9.223884312532265 0.6014650924957161
  endloop
endfacet
facet normal -0.0022839284196496295 0.9999821901800985 -0.005513890966207335
  outer loop
    vertex 6.443754798879002 9.223884312532265 0.6096611893810975
    vertex 6.4585094055662875 9.223884312532265 0.6035496311837429
    vertex 6.243018048879003 9.223006812532265 0.5336683911452287
  endloop
endfacet
facet normal -0.002927186038217613 0.9999884394390145 -0.0038147831160317705
  outer loop
    vertex 6.431084730879744 9.223884312532265 0.6193832744964574
    vertex 6.443754798879002 9.223884312532265 0.6096611893810975
    vertex 6.243018048879003 9.223006812532265 0.5336683911452287
  endloop
endfacet
facet normal -0.003706269172007879 0.9999908435195196 -0.00213926294414572
  outer loop
    vertex 6.243018048879003 9.223006812532265 0.5336683911452287
    vertex 6.4213626457643835 9.223884312532265 0.6320533424957162
    vertex 6.431084730879744 9.223884312532265 0.6193832744964574
  endloop
endfacet
facet normal -0.003706269172007879 0.9999908435195196 -0.00213926294414572
  outer loop
    vertex 6.4213626457643835 9.223884312532265 0.6320533424957162
    vertex 6.243018048879003 9.223006812532265 0.5336683911452287
    vertex 6.415251087567029 9.223884312532265 0.6468079491830017
  endloop
endfacet
facet normal -0.004689247517260841 0.9999888148550877 -0.0006173511474523507
  outer loop
    vertex 6.413166548879004 9.223884312532265 0.6626415924957161
    vertex 6.415251087567029 9.223884312532265 0.6468079491830017
    vertex 6.243018048879003 9.223006812532265 0.5336683911452287
  endloop
endfacet
facet normal -0.005728875790311608 0.999983305427223 0.0007542208061616341
  outer loop
    vertex 6.415251087567029 9.223884312532265 0.6784752358084303
    vertex 6.413166548879004 9.223884312532265 0.6626415924957161
    vertex 6.243018048879003 9.223006812532265 0.5336683911452287
  endloop
endfacet
facet normal -0.007816947287449735 0.9999642050753906 0.0032378855828176915
  outer loop
    vertex 6.4213626457643835 9.223884312532265 0.6932298424957164
    vertex 6.415251087567029 9.223884312532265 0.6784752358084303
    vertex 6.243018048879003 9.223006812532265 0.5336683911452287
  endloop
endfacet
facet normal -0.018013287268418183 0.9997306211975281 0.014635795905594136
  outer loop
    vertex 6.568018048879002 9.223006812532264 0.9336683911452288
    vertex 6.4213626457643835 9.223884312532265 0.6932298424957164
    vertex 6.243018048879003 9.223006812532265 0.5336683911452287
  endloop
endfacet
facet normal -0.02318010052761791 0.9995730666879189 0.017786716718911282
  outer loop
    vertex 6.568018048879002 9.223006812532264 0.9336683911452288
    vertex 6.431084730879744 9.223884312532265 0.7058999104949748
    vertex 6.4213626457643835 9.223884312532265 0.6932298424957164
  endloop
endfacet
facet normal -0.005487570065609953 0.9999593701959154 0.007151540544746727
  outer loop
    vertex 6.568018048879002 9.223006812532264 0.9336683911452288
    vertex 6.443754798879002 9.223884312532265 0.7156219956103349
    vertex 6.431084730879744 9.223884312532265 0.7058999104949748
  endloop
endfacet
facet normal -0.0021820007301715343 0.9999837443628649 0.005267815755888027
  outer loop
    vertex 6.568018048879002 9.223006812532264 0.9336683911452288
    vertex 6.4585094055662875 9.223884312532265 0.7217335538076894
    vertex 6.443754798879002 9.223884312532265 0.7156219956103349
  endloop
endfacet
facet normal -0.0005848786060017506 0.9999899605870469 0.004442594076984553
  outer loop
    vertex 6.568018048879002 9.223006812532264 0.9336683911452288
    vertex 6.4743430488790015 9.223884312532265 0.723818092495716
    vertex 6.4585094055662875 9.223884312532265 0.7217335538076894
  endloop
endfacet
facet normal 6.071373304295089e-20 0.9999912574248111 0.00418151574736264
  outer loop
    vertex 6.568018048879002 9.223006812532264 0.9336683911452288
    vertex 6.667022694133816 9.223884312532265 0.723818092495716
    vertex 6.4743430488790015 9.223884312532265 0.723818092495716
  endloop
endfacet
facet normal 0.0 0.9999162485055678 -0.012942023587977252
  outer loop
    vertex 6.667022694133816 9.223884312532265 0.6014650924957161
    vertex 6.893018048879003 9.223006812532264 0.5336683911452289
    vertex 6.4743430488790015 9.223884312532265 0.6014650924957161
  endloop
endfacet
facet normal 0.0 1.0 0.0
  outer loop
    vertex 6.490176692191716 9.223884312532265 0.6035496311837427
    vertex 6.667022694133816 9.223884312532265 0.6014650924957161
    vertex 6.4743430488790015 9.223884312532265 0.6014650924957161
  endloop
endfacet
facet normal 0.0 1.0 0.0
  outer loop
    vertex 6.6511890508211025 9.223884312532265 0.6035496311837429
    vertex 6.667022694133816 9.223884312532265 0.6014650924957161
    vertex 6.490176692191716 9.223884312532265 0.6035496311837427
  endloop
endfacet
facet normal 0.0 1.0 0.0
  outer loop
    vertex 6.504931298879002 9.223884312532265 0.6096611893810975
    vertex 6.6511890508211025 9.223884312532265 0.6035496311837429
    vertex 6.490176692191716 9.223884312532265 0.6035496311837427
  endloop
endfacet
facet normal 0.0 1.0 0.0
  outer loop
    vertex 6.504931298879002 9.223884312532265 0.6096611893810975
    vertex 6.636434444133816 9.223884312532265 0.6096611893810973
    vertex 6.6511890508211025 9.223884312532265 0.6035496311837429
  endloop
endfacet
facet normal 0.0 1.0 0.0
  outer loop
    vertex 6.51760136687826 9.223884312532265 0.6193832744964574
    vertex 6.636434444133816 9.223884312532265 0.6096611893810973
    vertex 6.504931298879002 9.223884312532265 0.6096611893810975
  endloop
endfacet
facet normal 0.0 1.0 0.0
  outer loop
    vertex 6.623764376134558 9.223884312532265 0.6193832744964574
    vertex 6.636434444133816 9.223884312532265 0.6096611893810973
    vertex 6.51760136687826 9.223884312532265 0.6193832744964574
  endloop
endfacet
facet normal 0.0 1.0 0.0
  outer loop
    vertex 6.527323451993623 9.223884312532265 0.6320533424957162
    vertex 6.623764376134558 9.223884312532265 0.6193832744964574
    vertex 6.51760136687826 9.223884312532265 0.6193832744964574
  endloop
endfacet
facet normal 0.0 1.0 0.0
  outer loop
    vertex 6.6140422910191985 9.223884312532265 0.6320533424957162
    vertex 6.623764376134558 9.223884312532265 0.6193832744964574
    vertex 6.527323451993623 9.223884312532265 0.6320533424957162
  endloop
endfacet
facet normal 0.0 1.0 0.0
  outer loop
    vertex 6.533435010190976 9.223884312532265 0.6468079491830017
    vertex 6.6140422910191985 9.223884312532265 0.6320533424957162
    vertex 6.527323451993623 9.223884312532265 0.6320533424957162
  endloop
endfacet
facet normal 0.0 1.0 0.0
  outer loop
    vertex 6.607930732821843 9.223884312532265 0.6468079491830017
    vertex 6.6140422910191985 9.223884312532265 0.6320533424957162
    vertex 6.533435010190976 9.223884312532265 0.6468079491830017
  endloop
endfacet
facet normal 0.0 1.0 0.0
  outer loop
    vertex 6.535519548879004 9.223884312532265 0.6626415924957161
    vertex 6.607930732821843 9.223884312532265 0.6468079491830017
    vertex 6.533435010190976 9.223884312532265 0.6468079491830017
  endloop
endfacet
facet normal 0.0 1.0 0.0
  outer loop
    vertex 6.607930732821843 9.223884312532265 0.6784752358084303
    vertex 6.605846194133816 9.223884312532265 0.6626415924957161
    vertex 6.533435010190976 9.223884312532265 0.6784752358084303
  endloop
endfacet
facet normal 0.0 1.0 0.0
  outer loop
    vertex 6.527323451993623 9.223884312532265 0.693229842495716
    vertex 6.607930732821843 9.223884312532265 0.6784752358084303
    vertex 6.533435010190976 9.223884312532265 0.6784752358084303
  endloop
endfacet
facet normal 0.0 1.0 0.0
  outer loop
    vertex 6.6140422910191985 9.223884312532265 0.6932298424957164
    vertex 6.607930732821843 9.223884312532265 0.6784752358084303
    vertex 6.527323451993623 9.223884312532265 0.693229842495716
  endloop
endfacet
facet normal 0.0 1.0 0.0
  outer loop
    vertex 6.517601366878262 9.223884312532265 0.7058999104949748
    vertex 6.6140422910191985 9.223884312532265 0.6932298424957164
    vertex 6.527323451993623 9.223884312532265 0.693229842495716
  endloop
endfacet
facet normal 0.0 1.0 0.0
  outer loop
    vertex 6.623764376134558 9.223884312532265 0.7058999104949748
    vertex 6.6140422910191985 9.223884312532265 0.6932298424957164
    vertex 6.517601366878262 9.223884312532265 0.7058999104949748
  endloop
endfacet
facet normal 0.0 1.0 0.0
  outer loop
    vertex 6.504931298879002 9.223884312532265 0.7156219956103349
    vertex 6.623764376134558 9.223884312532265 0.7058999104949748
    vertex 6.517601366878262 9.223884312532265 0.7058999104949748
  endloop
endfacet
facet normal 0.0 1.0 0.0
  outer loop
    vertex 6.636434444133817 9.223884312532265 0.7156219956103349
    vertex 6.623764376134558 9.223884312532265 0.7058999104949748
    vertex 6.504931298879002 9.223884312532265 0.7156219956103349
  endloop
endfacet
facet normal 0.0 1.0 0.0
  outer loop
    vertex 6.490176692191716 9.223884312532265 0.7217335538076894
    vertex 6.636434444133817 9.223884312532265 0.7156219956103349
    vertex 6.504931298879002 9.223884312532265 0.7156219956103349
  endloop
endfacet
facet normal 0.0 1.0 0.0
  outer loop
    vertex 6.6511890508211025 9.223884312532265 0.7217335538076894
    vertex 6.636434444133817 9.223884312532265 0.7156219956103349
    vertex 6.490176692191716 9.223884312532265 0.7217335538076894
  endloop
endfacet
facet normal 0.0 1.0 0.0
  outer loop
    vertex 6.4743430488790015 9.223884312532265 0.723818092495716
    vertex 6.6511890508211025 9.223884312532265 0.7217335538076894
    vertex 6.490176692191716 9.223884312532265 0.7217335538076894
  endloop
endfacet
facet normal 0.0 1.0 0.0
  outer loop
    vertex 6.667022694133816 9.223884312532265 0.723818092495716
    vertex 6.6511890508211025 9.223884312532265 0.7217335538076894
    vertex 6.4743430488790015 9.223884312532265 0.723818092495716
  endloop
endfacet
facet normal 0.0 1.0 0.0
  outer loop
    vertex 6.535519548879004 9.223884312532265 0.6626415924957161
    vertex 6.605846194133816 9.223884312532265 0.6626415924957161
    vertex 6.607930732821843 9.223884312532265 0.6468079491830017
  endloop
endfacet
facet normal 0.0 1.0 0.0
  outer loop
    vertex 6.605846194133816 9.223884312532265 0.6626415924957161
    vertex 6.535519548879004 9.223884312532265 0.6626415924957161
    vertex 6.533435010190976 9.223884312532265 0.6784752358084303
  endloop
endfacet
facet normal 0.02022541508742728 0.9996603844174055 0.016433149758534722
  outer loop
    vertex 6.568018048879002 9.223006812532264 0.9336683911452288
    vertex 6.893018048879003 9.223006812532264 0.5336683911452289
    vertex 6.720003097248435 9.223884312532265 0.693229842495716
  endloop
endfacet
facet normal 0.00820656006663663 0.9999605478946023 0.0033992684800299724
  outer loop
    vertex 6.720003097248435 9.223884312532265 0.693229842495716
    vertex 6.893018048879003 9.223006812532264 0.5336683911452289
    vertex 6.726114655445789 9.223884312532265 0.6784752358084303
  endloop
endfacet
facet normal 0.0059353961057914805 0.9999820800753955 0.0007814097214982578
  outer loop
    vertex 6.726114655445789 9.223884312532265 0.6784752358084303
    vertex 6.893018048879003 9.223006812532264 0.5336683911452289
    vertex 6.728199194133817 9.223884312532265 0.6626415924957161
  endloop
endfacet
facet normal 0.0048267153293818105 0.9999881494415495 -0.0006354491282566422
  outer loop
    vertex 6.728199194133817 9.223884312532265 0.6626415924957161
    vertex 6.893018048879003 9.223006812532264 0.5336683911452289
    vertex 6.726114655445789 9.223884312532265 0.6468079491830017
  endloop
endfacet
facet normal 0.004104889774239167 0.9999901293794826 -0.0017003010165363417
  outer loop
    vertex 6.726114655445789 9.223884312532265 0.6468079491830017
    vertex 6.893018048879003 9.223006812532264 0.5336683911452289
    vertex 6.720003097248435 9.223884312532265 0.6320533424957162
  endloop
endfacet
facet normal 0.0035310330724467372 0.9999900952751276 -0.0027094569719347374
  outer loop
    vertex 6.720003097248435 9.223884312532265 0.6320533424957162
    vertex 6.893018048879003 9.223006812532264 0.5336683911452289
    vertex 6.710281012133075 9.223884312532265 0.6193832744964574
  endloop
endfacet
facet normal 0.0029801691306913743 0.9999880171485771 -0.003883832026475011
  outer loop
    vertex 6.710281012133075 9.223884312532265 0.6193832744964574
    vertex 6.893018048879003 9.223006812532264 0.5336683911452289
    vertex 6.6976109441338165 9.223884312532265 0.6096611893810973
  endloop
endfacet
facet normal 0.0023160557644891356 0.9999816856004838 -0.005591453237841846
  outer loop
    vertex 6.6976109441338165 9.223884312532265 0.6096611893810973
    vertex 6.893018048879003 9.223006812532264 0.5336683911452289
    vertex 6.682856337446531 9.223884312532265 0.6035496311837427
  endloop
endfacet
facet normal 0.0011842218326380497 0.9999588424294397 -0.008995057855640774
  outer loop
    vertex 6.682856337446531 9.223884312532265 0.6035496311837427
    vertex 6.893018048879003 9.223006812532264 0.5336683911452289
    vertex 6.667022694133816 9.223884312532265 0.6014650924957161
  endloop
endfacet
facet normal 0.026976137343855025 0.9994217417885489 0.020699518215372213
  outer loop
    vertex 6.568018048879002 9.223006812532264 0.9336683911452288
    vertex 6.720003097248435 9.223884312532265 0.693229842495716
    vertex 6.710281012133076 9.223884312532265 0.7058999104949748
  endloop
endfacet
facet normal 0.005676766989307393 0.9999565202210933 0.007398106776172263
  outer loop
    vertex 6.568018048879002 9.223006812532264 0.9336683911452288
    vertex 6.710281012133076 9.223884312532265 0.7058999104949748
    vertex 6.6976109441338165 9.223884312532265 0.7156219956103349
  endloop
endfacet
facet normal 0.0022113061391384127 0.9999833047836345 0.005338565271667021
  outer loop
    vertex 6.568018048879002 9.223006812532264 0.9336683911452288
    vertex 6.6976109441338165 9.223884312532265 0.7156219956103349
    vertex 6.682856337446531 9.223884312532265 0.7217335538076894
  endloop
endfacet
facet normal 0.0005869636910553829 0.9999898888783241 0.0044584318703551505
  outer loop
    vertex 6.568018048879002 9.223006812532264 0.9336683911452288
    vertex 6.682856337446531 9.223884312532265 0.7217335538076894
    vertex 6.667022694133816 9.223884312532265 0.723818092495716
  endloop
endfacet
endsolid rail_models_v6
