solid wireHolder
facet normal 1.0 -6.052223327561631e-16 1.3442961873086433e-31
  outer loop
    vertex 1.9965652707927148 1.5016480133968408 -0.04079999999999964
    vertex 1.996565270792714 0.8635940133968386 0.5847999999999993
    vertex 1.996565270792714 0.8635940133968384 -0.04079999999999722
  endloop
endfacet
facet normal 1.0 -6.052223327561631e-16 1.3442961873086433e-31
  outer loop
    vertex 1.996565270792714 0.8635940133968386 0.5847999999999993
    vertex 1.9965652707927148 1.5016480133968408 -0.04079999999999964
    vertex 1.9965652707927148 1.5016480133968408 0.5847999999999978
  endloop
endfacet
facet normal 1.4442946587317836e-15 -1.0 4.693957640878443e-16
  outer loop
    vertex 1.4882652707927009 0.8635940133968381 0.5847999999999993
    vertex 1.996565270792714 0.8635940133968384 -0.04079999999999722
    vertex 1.996565270792714 0.8635940133968386 0.5847999999999993
  endloop
endfacet
facet normal 7.34843961673155e-16 1.0 -2.098668461236741e-15
  outer loop
    vertex 0.9799652707927082 1.501648013396842 -0.0407999999999999
    vertex 1.1142958732571981 1.501648013396842 0.026340899817010897
    vertex 1.9965652707927148 1.5016480133968408 -0.04079999999999964
  endloop
endfacet
facet normal 7.34843961673155e-16 1.0 -2.098668461236741e-15
  outer loop
    vertex 1.1142958732571981 1.501648013396842 0.026340899817010897
    vertex 0.9799652707927082 1.501648013396842 -0.0407999999999999
    vertex 1.4882652707927035 1.50164801339684 0.5847999999999971
  endloop
endfacet
facet normal 7.34843961673155e-16 1.0 -2.098668461236741e-15
  outer loop
    vertex 1.1142958732571981 1.501648013396842 0.026340899817010897
    vertex 1.4882652707927035 1.50164801339684 0.5847999999999971
    vertex 1.4880458732571964 1.50164801339684 0.48634089981701106
  endloop
endfacet
facet normal 7.34843961673155e-16 1.0 -2.098668461236741e-15
  outer loop
    vertex 1.9965652707927148 1.5016480133968408 -0.04079999999999964
    vertex 1.8617958732571964 1.5016480133968415 0.026340899817010953
    vertex 1.4882652707927035 1.50164801339684 0.5847999999999971
  endloop
endfacet
facet normal 7.34843961673155e-16 1.0 -2.098668461236741e-15
  outer loop
    vertex 1.8617958732571964 1.5016480133968415 0.026340899817010953
    vertex 1.9965652707927148 1.5016480133968408 -0.04079999999999964
    vertex 1.1142958732571981 1.501648013396842 0.026340899817010897
  endloop
endfacet
facet normal 7.34843961673155e-16 1.0 -2.098668461236741e-15
  outer loop
    vertex 1.4882652707927035 1.50164801339684 0.5847999999999971
    vertex 1.8617958732571964 1.5016480133968415 0.026340899817010953
    vertex 1.4880458732571964 1.50164801339684 0.48634089981701106
  endloop
endfacet
facet normal -2.2204460492503015e-16 1.5868948667196532e-15 1.0
  outer loop
    vertex 1.861795873257196 0.8635940133968404 0.02634089981701345
    vertex 1.1142958732571981 1.501648013396842 0.026340899817010897
    vertex 1.1142958732571977 0.8635940133968389 0.026340899817013257
  endloop
endfacet
facet normal -2.2204460492503015e-16 1.5868948667196532e-15 1.0
  outer loop
    vertex 1.1142958732571981 1.501648013396842 0.026340899817010897
    vertex 1.861795873257196 0.8635940133968404 0.02634089981701345
    vertex 1.8617958732571964 1.5016480133968415 0.026340899817010953
  endloop
endfacet
facet normal 2.2204460492503015e-16 -1.5868948667196532e-15 -1.0
  outer loop
    vertex 0.9799652707927082 1.501648013396842 -0.0407999999999999
    vertex 1.996565270792714 0.8635940133968384 -0.04079999999999722
    vertex 0.9799652707927077 0.8635940133968389 -0.04079999999999747
  endloop
endfacet
facet normal 2.2204460492503015e-16 -1.5868948667196532e-15 -1.0
  outer loop
    vertex 1.996565270792714 0.8635940133968384 -0.04079999999999722
    vertex 0.9799652707927082 1.501648013396842 -0.0407999999999999
    vertex 1.9965652707927148 1.5016480133968408 -0.04079999999999964
  endloop
endfacet
facet normal -7.34843961673155e-16 -1.0 2.098668461236741e-15
  outer loop
    vertex 1.996565270792714 0.8635940133968384 -0.04079999999999722
    vertex 1.861795873257196 0.8635940133968404 0.02634089981701345
    vertex 1.1142958732571977 0.8635940133968389 0.026340899817013257
  endloop
endfacet
facet normal -7.34843961673155e-16 -1.0 2.098668461236741e-15
  outer loop
    vertex 1.861795873257196 0.8635940133968404 0.02634089981701345
    vertex 1.996565270792714 0.8635940133968384 -0.04079999999999722
    vertex 1.4882652707927009 0.8635940133968381 0.5847999999999993
  endloop
endfacet
facet normal -7.34843961673155e-16 -1.0 2.098668461236741e-15
  outer loop
    vertex 1.861795873257196 0.8635940133968404 0.02634089981701345
    vertex 1.4882652707927009 0.8635940133968381 0.5847999999999993
    vertex 1.4880458732571937 0.8635940133968377 0.4863408998170132
  endloop
endfacet
facet normal -7.34843961673155e-16 -1.0 2.098668461236741e-15
  outer loop
    vertex 0.9799652707927077 0.8635940133968389 -0.04079999999999747
    vertex 1.1142958732571977 0.8635940133968389 0.026340899817013257
    vertex 1.4882652707927009 0.8635940133968381 0.5847999999999993
  endloop
endfacet
facet normal -7.34843961673155e-16 -1.0 2.098668461236741e-15
  outer loop
    vertex 1.1142958732571977 0.8635940133968389 0.026340899817013257
    vertex 0.9799652707927077 0.8635940133968389 -0.04079999999999747
    vertex 1.996565270792714 0.8635940133968384 -0.04079999999999722
  endloop
endfacet
facet normal -7.34843961673155e-16 -1.0 2.098668461236741e-15
  outer loop
    vertex 1.4882652707927009 0.8635940133968381 0.5847999999999993
    vertex 1.1142958732571977 0.8635940133968389 0.026340899817013257
    vertex 1.4880458732571937 0.8635940133968377 0.4863408998170132
  endloop
endfacet
facet normal -0.7761140001162652 -5.694383119990963e-16 -0.6305926250944663
  outer loop
    vertex 1.4880458732571964 1.50164801339684 0.48634089981701106
    vertex 1.861795873257196 0.8635940133968404 0.02634089981701345
    vertex 1.4880458732571937 0.8635940133968377 0.4863408998170132
  endloop
endfacet
facet normal -0.7761140001162652 -5.694383119990963e-16 -0.6305926250944663
  outer loop
    vertex 1.861795873257196 0.8635940133968404 0.02634089981701345
    vertex 1.4880458732571964 1.50164801339684 0.48634089981701106
    vertex 1.8617958732571964 1.5016480133968415 0.026340899817010953
  endloop
endfacet
facet normal -0.7761140001162675 1.4319300875082587e-15 0.6305926250944632
  outer loop
    vertex 1.4882652707927035 1.50164801339684 0.5847999999999971
    vertex 0.9799652707927077 0.8635940133968389 -0.04079999999999747
    vertex 1.4882652707927009 0.8635940133968381 0.5847999999999993
  endloop
endfacet
facet normal -0.7761140001162675 1.4319300875082587e-15 0.6305926250944632
  outer loop
    vertex 0.9799652707927077 0.8635940133968389 -0.04079999999999747
    vertex 1.4882652707927035 1.50164801339684 0.5847999999999971
    vertex 0.9799652707927082 1.501648013396842 -0.0407999999999999
  endloop
endfacet
facet normal 0.7761140001162671 -1.4319300875082593e-15 -0.6305926250944638
  outer loop
    vertex 1.1142958732571977 0.8635940133968389 0.026340899817013257
    vertex 1.4880458732571964 1.50164801339684 0.48634089981701106
    vertex 1.4880458732571937 0.8635940133968377 0.4863408998170132
  endloop
endfacet
facet normal 0.7761140001162671 -1.4319300875082593e-15 -0.6305926250944638
  outer loop
    vertex 1.4880458732571964 1.50164801339684 0.48634089981701106
    vertex 1.1142958732571977 0.8635940133968389 0.026340899817013257
    vertex 1.1142958732571981 1.501648013396842 0.026340899817010897
  endloop
endfacet
facet normal -6.279541994486056e-16 2.193930956241093e-15 1.0
  outer loop
    vertex 1.996565270792714 0.8635940133968386 0.5847999999999993
    vertex 1.4882652707927035 1.50164801339684 0.5847999999999971
    vertex 1.4882652707927009 0.8635940133968381 0.5847999999999993
  endloop
endfacet
facet normal -6.279541994486056e-16 2.193930956241093e-15 1.0
  outer loop
    vertex 1.4882652707927035 1.50164801339684 0.5847999999999971
    vertex 1.996565270792714 0.8635940133968386 0.5847999999999993
    vertex 1.9965652707927148 1.5016480133968408 0.5847999999999978
  endloop
endfacet
facet normal -2.310871453970863e-15 1.0 1.8388115596449698e-31
  outer loop
    vertex 1.9965652707927148 1.5016480133968408 0.5847999999999978
    vertex 1.9965652707927148 1.5016480133968408 -0.04079999999999964
    vertex 1.4882652707927035 1.50164801339684 0.5847999999999971
  endloop
endfacet
endsolid wireHolder
