solid rail_models_v1
facet normal 0.0 0.0 -1.0
  outer loop
    vertex 1.9616751650196274 -2.7915699999999997 -0.29857000000000006
    vertex 1.5 -3.8520039999999973 -0.29857000000000006
    vertex 1.5 -2.7915699999999997 -0.29857000000000006
  endloop
endfacet
facet normal 0.0 0.0 -1.0
  outer loop
    vertex 1.5 -3.8520039999999973 -0.29857000000000006
    vertex 1.9616751650196274 -2.7915699999999997 -0.29857000000000006
    vertex 1.9616751650196274 -3.8520039999999973 -0.29857000000000006
  endloop
endfacet
facet normal 1.0 0.0 0.0
  outer loop
    vertex 1.9616751650196274 -2.7915699999999997 -0.29857000000000006
    vertex 1.9616751650196274 -3.8520039999999973 0.32142999999999994
    vertex 1.9616751650196274 -3.8520039999999973 -0.29857000000000006
  endloop
endfacet
facet normal 1.0 0.0 0.0
  outer loop
    vertex 1.9616751650196274 -3.8520039999999973 0.32142999999999994
    vertex 1.9616751650196274 -2.7915699999999997 -0.29857000000000006
    vertex 1.9616751650196274 -2.7915699999999997 0.32142999999999994
  endloop
endfacet
facet normal -0.9961053913274822 0.0 0.08817056974026882
  outer loop
    vertex 2.450132417016765 -2.7915699999999997 0.9336952144373079
    vertex 2.4397747051561023 -3.8520039999999973 0.8166791550354513
    vertex 2.450132417016765 -3.8520039999999973 0.9336952144373079
  endloop
endfacet
facet normal -0.9961053913274822 0.0 0.08817056974026882
  outer loop
    vertex 2.4397747051561023 -3.8520039999999973 0.8166791550354513
    vertex 2.450132417016765 -2.7915699999999997 0.9336952144373079
    vertex 2.4397747051561023 -2.7915699999999997 0.8166791550354513
  endloop
endfacet
facet normal 0.0 -1.0 0.0
  outer loop
    vertex 2.5 -3.8520039999999973 0.32142999999999994
    vertex 2.241939010310205 -3.8520039999999973 0.5347522292828915
    vertex 1.9616751650196274 -3.8520039999999973 0.32142999999999994
  endloop
endfacet
facet normal 0.0 -1.0 0.0
  outer loop
    vertex 2.241939010310205 -3.8520039999999973 0.5347522292828915
    vertex 2.5 -3.8520039999999973 0.32142999999999994
    vertex 2.332005867715237 -3.8520039999999973 0.610171070099421
  endloop
endfacet
facet normal 0.0 -1.0 0.0
  outer loop
    vertex 2.332005867715237 -3.8520039999999973 0.610171070099421
    vertex 2.5 -3.8520039999999973 0.32142999999999994
    vertex 2.399483939012579 -3.8520039999999973 0.7063310942618461
  endloop
endfacet
facet normal 0.0 -1.0 0.0
  outer loop
    vertex 2.399483939012579 -3.8520039999999973 0.7063310942618461
    vertex 2.5 -3.8520039999999973 0.32142999999999994
    vertex 2.4397747051561023 -3.8520039999999973 0.8166791550354513
  endloop
endfacet
facet normal 0.0 -1.0 0.0
  outer loop
    vertex 2.4397747051561023 -3.8520039999999973 0.8166791550354513
    vertex 2.5 -3.8520039999999973 0.32142999999999994
    vertex 2.450132417016765 -3.8520039999999973 0.9336952144373079
  endloop
endfacet
facet normal 0.0 -1.0 0.0
  outer loop
    vertex 2.450132417016765 -3.8520039999999973 0.9336952144373079
    vertex 2.5 -3.8520039999999973 0.32142999999999994
    vertex 2.500000000000001 -3.8520039999999973 1.648892
  endloop
endfacet
facet normal 0.0 -1.0 0.0
  outer loop
    vertex 1.9616751650196274 -3.8520039999999973 0.32142999999999994
    vertex 2.241939010310205 -3.8520039999999973 0.5347522292828915
    vertex 2.1354212742871166 -3.8520039999999973 0.4852142411783768
  endloop
endfacet
facet normal 0.0 -1.0 0.0
  outer loop
    vertex 1.9616751650196274 -3.8520039999999973 0.32142999999999994
    vertex 2.1354212742871166 -3.8520039999999973 0.4852142411783768
    vertex 2.019711667327064 -3.8520039999999973 0.4649330378098035
  endloop
endfacet
facet normal 0.0 -1.0 0.0
  outer loop
    vertex 2.450132417016765 -3.8520039999999973 0.9336952144373079
    vertex 2.500000000000001 -3.8520039999999973 1.648892
    vertex 2.429851213648192 -3.8520039999999973 1.0494048213973608
  endloop
endfacet
facet normal 0.0 -1.0 0.0
  outer loop
    vertex 2.429851213648192 -3.8520039999999973 1.0494048213973608
    vertex 2.500000000000001 -3.8520039999999973 1.648892
    vertex 2.380313225543677 -3.8520039999999973 1.155922557420449
  endloop
endfacet
facet normal 0.0 -1.0 0.0
  outer loop
    vertex 2.380313225543677 -3.8520039999999973 1.155922557420449
    vertex 2.500000000000001 -3.8520039999999973 1.648892
    vertex 2.304894384727148 -3.8520039999999973 1.245989414825481
  endloop
endfacet
facet normal 0.0 -1.0 0.0
  outer loop
    vertex 2.304894384727148 -3.8520039999999973 1.245989414825481
    vertex 2.500000000000001 -3.8520039999999973 1.648892
    vertex 2.2087343605647227 -3.8520039999999973 1.3134674861228228
  endloop
endfacet
facet normal 0.0 -1.0 0.0
  outer loop
    vertex 2.2087343605647227 -3.8520039999999973 1.3134674861228228
    vertex 2.500000000000001 -3.8520039999999973 1.648892
    vertex 2.098386299791118 -3.8520039999999973 1.3537582522663463
  endloop
endfacet
facet normal 0.0 -1.0 0.0
  outer loop
    vertex 2.098386299791118 -3.8520039999999973 1.3537582522663463
    vertex 2.500000000000001 -3.8520039999999973 1.648892
    vertex 1.9813702403892608 -3.8520039999999973 1.3641159641270093
  endloop
endfacet
facet normal 0.0 -1.0 0.0
  outer loop
    vertex 1.9813702403892608 -3.8520039999999973 1.3641159641270093
    vertex 2.500000000000001 -3.8520039999999973 1.648892
    vertex 2.0580308651710095 -3.8520039999999973 1.417772896060042
  endloop
endfacet
facet normal 0.0 -1.0 0.0
  outer loop
    vertex 1.9813702403892608 -3.8520039999999973 1.3641159641270093
    vertex 2.0580308651710095 -3.8520039999999973 1.417772896060042
    vertex 2.0310287886560636 -3.8520039999999973 1.406047970199439
  endloop
endfacet
facet normal 0.0 -1.0 0.0
  outer loop
    vertex 1.9813702403892608 -3.8520039999999973 1.3641159641270093
    vertex 2.0310287886560636 -3.8520039999999973 1.406047970199439
    vertex 2.001912151471705 -3.8520039999999973 1.4017112131587415
  endloop
endfacet
facet normal 0.0 -1.0 0.0
  outer loop
    vertex 2.0580308651710095 -3.8520039999999973 1.417772896060042
    vertex 2.500000000000001 -3.8520039999999973 1.648892
    vertex 2.0810782341250897 -3.8520039999999973 1.4360869564195065
  endloop
endfacet
facet normal 0.0 -1.0 0.0
  outer loop
    vertex 2.0810782341250897 -3.8520039999999973 1.4360869564195065
    vertex 2.500000000000001 -3.8520039999999973 1.648892
    vertex 2.0986002554116627 -3.8520039999999973 1.4597420783297508
  endloop
endfacet
facet normal 0.0 -1.0 0.0
  outer loop
    vertex 2.0986002554116627 -3.8520039999999973 1.4597420783297508
    vertex 2.500000000000001 -3.8520039999999973 1.648892
    vertex 2.1094028322365572 -3.8520039999999973 1.487126204324529
  endloop
endfacet
facet normal 0.0 -1.0 0.0
  outer loop
    vertex 2.1094028322365572 -3.8520039999999973 1.487126204324529
    vertex 2.500000000000001 -3.8520039999999973 1.648892
    vertex 2.112749786841259 -3.8520039999999973 1.5163731514717047
  endloop
endfacet
facet normal 0.0 -1.0 0.0
  outer loop
    vertex 2.112749786841259 -3.8520039999999973 1.5163731514717047
    vertex 2.500000000000001 -3.8520039999999973 1.648892
    vertex 2.1084130298005612 -3.8520039999999973 1.5454897886560635
  endloop
endfacet
facet normal 0.0 -1.0 0.0
  outer loop
    vertex 2.1084130298005612 -3.8520039999999973 1.5454897886560635
    vertex 2.500000000000001 -3.8520039999999973 1.648892
    vertex 2.096688103939958 -3.8520039999999973 1.5724918651710094
  endloop
endfacet
facet normal 0.0 -1.0 0.0
  outer loop
    vertex 2.096688103939958 -3.8520039999999973 1.5724918651710094
    vertex 2.500000000000001 -3.8520039999999973 1.648892
    vertex 2.0783740435804936 -3.8520039999999973 1.59553923412509
  endloop
endfacet
facet normal 0.0 -1.0 0.0
  outer loop
    vertex 2.0783740435804936 -3.8520039999999973 1.59553923412509
    vertex 2.500000000000001 -3.8520039999999973 1.648892
    vertex 2.0547189216702493 -3.8520039999999973 1.6130612554116628
  endloop
endfacet
facet normal 0.0 -1.0 0.0
  outer loop
    vertex 2.0547189216702493 -3.8520039999999973 1.6130612554116628
    vertex 2.500000000000001 -3.8520039999999973 1.648892
    vertex 2.027334795675471 -3.8520039999999973 1.623863832236557
  endloop
endfacet
facet normal 0.0 -1.0 0.0
  outer loop
    vertex 2.027334795675471 -3.8520039999999973 1.623863832236557
    vertex 2.500000000000001 -3.8520039999999973 1.648892
    vertex 1.9980878485282954 -3.8520039999999973 1.6272107868412586
  endloop
endfacet
facet normal 0.0 -1.0 0.0
  outer loop
    vertex 1.9616751650196274 -3.8520039999999973 0.32142999999999994
    vertex 1.5 -3.8520039999999973 -0.29857000000000006
    vertex 1.9616751650196274 -3.8520039999999973 -0.29857000000000006
  endloop
endfacet
facet normal 0.0 -1.0 0.0
  outer loop
    vertex 1.5 -3.8520039999999973 -0.29857000000000006
    vertex 1.9616751650196274 -3.8520039999999973 0.32142999999999994
    vertex 1.696187522989177 -3.8520039999999973 0.583059587111332
  endloop
endfacet
facet normal 0.0 -1.0 0.0
  outer loop
    vertex 1.5 -3.8520039999999973 -0.29857000000000006
    vertex 1.696187522989177 -3.8520039999999973 0.583059587111332
    vertex 1.6207686821726477 -3.8520039999999973 0.6731264445163638
  endloop
endfacet
facet normal 0.0 -1.0 0.0
  outer loop
    vertex 1.5 -3.8520039999999973 -0.29857000000000006
    vertex 1.6207686821726477 -3.8520039999999973 0.6731264445163638
    vertex 1.5712306940681329 -3.8520039999999973 0.7796441805394521
  endloop
endfacet
facet normal 0.0 -1.0 0.0
  outer loop
    vertex 1.5 -3.8520039999999973 -0.29857000000000006
    vertex 1.5712306940681329 -3.8520039999999973 0.7796441805394521
    vertex 1.5509494906995596 -3.8520039999999973 0.895353787499505
  endloop
endfacet
facet normal 0.0 -1.0 0.0
  outer loop
    vertex 1.5 -3.8520039999999973 -0.29857000000000006
    vertex 1.5509494906995596 -3.8520039999999973 0.895353787499505
    vertex 1.5 -3.8520039999999973 1.648892
  endloop
endfacet
facet normal 0.0 -1.0 0.0
  outer loop
    vertex 1.696187522989177 -3.8520039999999973 0.583059587111332
    vertex 1.9616751650196274 -3.8520039999999973 0.32142999999999994
    vertex 1.7923475471516022 -3.8520039999999973 0.51558151581399
  endloop
endfacet
facet normal 0.0 -1.0 0.0
  outer loop
    vertex 1.7923475471516022 -3.8520039999999973 0.51558151581399
    vertex 1.9616751650196274 -3.8520039999999973 0.32142999999999994
    vertex 1.9026956079252073 -3.8520039999999973 0.47529074967046675
  endloop
endfacet
facet normal 0.0 -1.0 0.0
  outer loop
    vertex 1.9026956079252073 -3.8520039999999973 0.47529074967046675
    vertex 1.9616751650196274 -3.8520039999999973 0.32142999999999994
    vertex 2.019711667327064 -3.8520039999999973 0.4649330378098035
  endloop
endfacet
facet normal 0.0 -1.0 0.0
  outer loop
    vertex 1.5 -3.8520039999999973 1.648892
    vertex 1.5509494906995596 -3.8520039999999973 0.895353787499505
    vertex 1.5613072025602226 -3.8520039999999973 1.0123698469013613
  endloop
endfacet
facet normal 0.0 -1.0 0.0
  outer loop
    vertex 1.5 -3.8520039999999973 1.648892
    vertex 1.5613072025602226 -3.8520039999999973 1.0123698469013613
    vertex 1.601597968703746 -3.8520039999999973 1.1227179076749665
  endloop
endfacet
facet normal 0.0 -1.0 0.0
  outer loop
    vertex 1.5 -3.8520039999999973 1.648892
    vertex 1.601597968703746 -3.8520039999999973 1.1227179076749665
    vertex 1.6690760400010878 -3.8520039999999973 1.2188779318373917
  endloop
endfacet
facet normal 0.0 -1.0 0.0
  outer loop
    vertex 1.5 -3.8520039999999973 1.648892
    vertex 1.6690760400010878 -3.8520039999999973 1.2188779318373917
    vertex 1.7591428974061198 -3.8520039999999973 1.2942967726539214
  endloop
endfacet
facet normal 0.0 -1.0 0.0
  outer loop
    vertex 1.5 -3.8520039999999973 1.648892
    vertex 1.7591428974061198 -3.8520039999999973 1.2942967726539214
    vertex 1.8656606334292078 -3.8520039999999973 1.343834760758436
  endloop
endfacet
facet normal 0.0 -1.0 0.0
  outer loop
    vertex 1.5 -3.8520039999999973 1.648892
    vertex 1.8656606334292078 -3.8520039999999973 1.343834760758436
    vertex 1.9813702403892608 -3.8520039999999973 1.3641159641270093
  endloop
endfacet
facet normal 0.0 -1.0 0.0
  outer loop
    vertex 1.5 -3.8520039999999973 1.648892
    vertex 1.9813702403892608 -3.8520039999999973 1.3641159641270093
    vertex 1.9452810783297507 -3.8520039999999973 1.4158607445883373
  endloop
endfacet
facet normal 0.0 -1.0 0.0
  outer loop
    vertex 1.9452810783297507 -3.8520039999999973 1.4158607445883373
    vertex 1.9813702403892608 -3.8520039999999973 1.3641159641270093
    vertex 1.9726652043245287 -3.8520039999999973 1.405058167763443
  endloop
endfacet
facet normal 0.0 -1.0 0.0
  outer loop
    vertex 1.9726652043245287 -3.8520039999999973 1.405058167763443
    vertex 1.9813702403892608 -3.8520039999999973 1.3641159641270093
    vertex 2.001912151471705 -3.8520039999999973 1.4017112131587415
  endloop
endfacet
facet normal 0.0 -1.0 0.0
  outer loop
    vertex 1.5 -3.8520039999999973 1.648892
    vertex 1.9452810783297507 -3.8520039999999973 1.4158607445883373
    vertex 1.9216259564195064 -3.8520039999999973 1.43338276587491
  endloop
endfacet
facet normal 0.0 -1.0 0.0
  outer loop
    vertex 1.5 -3.8520039999999973 1.648892
    vertex 1.9216259564195064 -3.8520039999999973 1.43338276587491
    vertex 1.903311896060042 -3.8520039999999973 1.4564301348289908
  endloop
endfacet
facet normal 0.0 -1.0 0.0
  outer loop
    vertex 1.5 -3.8520039999999973 1.648892
    vertex 1.903311896060042 -3.8520039999999973 1.4564301348289908
    vertex 1.891586970199439 -3.8520039999999973 1.4834322113439367
  endloop
endfacet
facet normal 0.0 -1.0 0.0
  outer loop
    vertex 1.5 -3.8520039999999973 1.648892
    vertex 1.891586970199439 -3.8520039999999973 1.4834322113439367
    vertex 1.8872502131587414 -3.8520039999999973 1.5125488485282954
  endloop
endfacet
facet normal 0.0 -1.0 0.0
  outer loop
    vertex 1.5 -3.8520039999999973 1.648892
    vertex 1.8872502131587414 -3.8520039999999973 1.5125488485282954
    vertex 1.890597167763443 -3.8520039999999973 1.5417957956754713
  endloop
endfacet
facet normal 0.0 -1.0 0.0
  outer loop
    vertex 1.5 -3.8520039999999973 1.648892
    vertex 1.890597167763443 -3.8520039999999973 1.5417957956754713
    vertex 1.9013997445883373 -3.8520039999999973 1.5691799216702493
  endloop
endfacet
facet normal 0.0 -1.0 0.0
  outer loop
    vertex 1.5 -3.8520039999999973 1.648892
    vertex 1.9013997445883373 -3.8520039999999973 1.5691799216702493
    vertex 1.91892176587491 -3.8520039999999973 1.5928350435804937
  endloop
endfacet
facet normal 0.0 -1.0 0.0
  outer loop
    vertex 1.5 -3.8520039999999973 1.648892
    vertex 1.91892176587491 -3.8520039999999973 1.5928350435804937
    vertex 1.9419691348289907 -3.8520039999999973 1.6111491039399581
  endloop
endfacet
facet normal 0.0 -1.0 0.0
  outer loop
    vertex 1.5 -3.8520039999999973 1.648892
    vertex 1.9419691348289907 -3.8520039999999973 1.6111491039399581
    vertex 1.9689712113439366 -3.8520039999999973 1.622874029800561
  endloop
endfacet
facet normal 0.0 -1.0 0.0
  outer loop
    vertex 1.5 -3.8520039999999973 1.648892
    vertex 1.9689712113439366 -3.8520039999999973 1.622874029800561
    vertex 1.9980878485282954 -3.8520039999999973 1.6272107868412586
  endloop
endfacet
facet normal 0.0 -1.0 0.0
  outer loop
    vertex 1.5 -3.8520039999999973 1.648892
    vertex 1.9980878485282954 -3.8520039999999973 1.6272107868412586
    vertex 2.500000000000001 -3.8520039999999973 1.648892
  endloop
endfacet
facet normal -0.9393437005226716 0.0 0.342977276635601
  outer loop
    vertex 2.4397747051561023 -2.7915699999999997 0.8166791550354513
    vertex 2.399483939012579 -3.8520039999999973 0.7063310942618461
    vertex 2.4397747051561023 -3.8520039999999973 0.8166791550354513
  endloop
endfacet
facet normal -0.9393437005226716 0.0 0.342977276635601
  outer loop
    vertex 2.399483939012579 -3.8520039999999973 0.7063310942618461
    vertex 2.4397747051561023 -2.7915699999999997 0.8166791550354513
    vertex 2.399483939012579 -2.7915699999999997 0.7063310942618461
  endloop
endfacet
facet normal 0.9393437005226716 0.0 -0.342977276635601
  outer loop
    vertex 1.5613072025602226 -2.7915699999999997 1.0123698469013613
    vertex 1.601597968703746 -3.8520039999999973 1.1227179076749665
    vertex 1.5613072025602226 -3.8520039999999973 1.0123698469013613
  endloop
endfacet
facet normal 0.9393437005226716 0.0 -0.342977276635601
  outer loop
    vertex 1.601597968703746 -3.8520039999999973 1.1227179076749665
    vertex 1.5613072025602226 -2.7915699999999997 1.0123698469013613
    vertex 1.601597968703746 -2.7915699999999997 1.1227179076749665
  endloop
endfacet
facet normal 0.3429772766356002 0.0 0.9393437005226719
  outer loop
    vertex 1.9026956079252073 -3.8520039999999973 0.47529074967046675
    vertex 1.7923475471516022 -2.7915699999999997 0.51558151581399
    vertex 1.7923475471516022 -3.8520039999999973 0.51558151581399
  endloop
endfacet
facet normal 0.3429772766356002 0.0 0.9393437005226719
  outer loop
    vertex 1.7923475471516022 -2.7915699999999997 0.51558151581399
    vertex 1.9026956079252073 -3.8520039999999973 0.47529074967046675
    vertex 1.9026956079252073 -2.7915699999999997 0.47529074967046675
  endloop
endfacet
facet normal 0.17264481577410237 0.0 -0.9849841458553159
  outer loop
    vertex 1.9813702403892608 -2.7915699999999997 1.3641159641270093
    vertex 1.8656606334292078 -3.8520039999999973 1.343834760758436
    vertex 1.8656606334292078 -2.7915699999999997 1.343834760758436
  endloop
endfacet
facet normal 0.17264481577410237 0.0 -0.9849841458553159
  outer loop
    vertex 1.8656606334292078 -3.8520039999999973 1.343834760758436
    vertex 1.9813702403892608 -2.7915699999999997 1.3641159641270093
    vertex 1.9813702403892608 -3.8520039999999973 1.3641159641270093
  endloop
endfacet
facet normal 0.996105391327482 0.0 -0.08817056974027078
  outer loop
    vertex 1.5509494906995596 -2.7915699999999997 0.895353787499505
    vertex 1.5613072025602226 -3.8520039999999973 1.0123698469013613
    vertex 1.5509494906995596 -3.8520039999999973 0.895353787499505
  endloop
endfacet
facet normal 0.996105391327482 0.0 -0.08817056974027078
  outer loop
    vertex 1.5613072025602226 -3.8520039999999973 1.0123698469013613
    vertex 1.5509494906995596 -2.7915699999999997 0.895353787499505
    vertex 1.5613072025602226 -2.7915699999999997 1.0123698469013613
  endloop
endfacet
facet normal -0.6420068692197144 0.0 0.76669888474857
  outer loop
    vertex 2.332005867715237 -3.8520039999999973 0.610171070099421
    vertex 2.241939010310205 -2.7915699999999997 0.5347522292828915
    vertex 2.241939010310205 -3.8520039999999973 0.5347522292828915
  endloop
endfacet
facet normal -0.6420068692197144 0.0 0.76669888474857
  outer loop
    vertex 2.241939010310205 -2.7915699999999997 0.5347522292828915
    vertex 2.332005867715237 -3.8520039999999973 0.610171070099421
    vertex 2.332005867715237 -2.7915699999999997 0.610171070099421
  endloop
endfacet
facet normal -0.3429772766356016 -0.0 -0.9393437005226714
  outer loop
    vertex 2.2087343605647227 -2.7915699999999997 1.3134674861228228
    vertex 2.098386299791118 -3.8520039999999973 1.3537582522663463
    vertex 2.098386299791118 -2.7915699999999997 1.3537582522663463
  endloop
endfacet
facet normal -0.3429772766356016 -0.0 -0.9393437005226714
  outer loop
    vertex 2.098386299791118 -3.8520039999999973 1.3537582522663463
    vertex 2.2087343605647227 -2.7915699999999997 1.3134674861228228
    vertex 2.2087343605647227 -3.8520039999999973 1.3134674861228228
  endloop
endfacet
facet normal 0.0 0.0 -1.0
  outer loop
    vertex 2.5 -2.7915699999999997 0.32142999999999994
    vertex 1.9616751650196274 -3.8520039999999973 0.32142999999999994
    vertex 1.9616751650196274 -2.7915699999999997 0.32142999999999994
  endloop
endfacet
facet normal 0.0 0.0 -1.0
  outer loop
    vertex 1.9616751650196274 -3.8520039999999973 0.32142999999999994
    vertex 2.5 -2.7915699999999997 0.32142999999999994
    vertex 2.5 -3.8520039999999973 0.32142999999999994
  endloop
endfacet
facet normal -0.9067378586063747 -0.0 -0.42169474240251825
  outer loop
    vertex 2.380313225543677 -2.7915699999999997 1.155922557420449
    vertex 2.429851213648192 -3.8520039999999973 1.0494048213973608
    vertex 2.380313225543677 -3.8520039999999973 1.155922557420449
  endloop
endfacet
facet normal -0.9067378586063747 -0.0 -0.42169474240251825
  outer loop
    vertex 2.429851213648192 -3.8520039999999973 1.0494048213973608
    vertex 2.380313225543677 -2.7915699999999997 1.155922557420449
    vertex 2.429851213648192 -2.7915699999999997 1.0494048213973608
  endloop
endfacet
facet normal 0.5744106489249634 0.0 0.8185672888661032
  outer loop
    vertex 1.7923475471516022 -3.8520039999999973 0.51558151581399
    vertex 1.696187522989177 -2.7915699999999997 0.583059587111332
    vertex 1.696187522989177 -3.8520039999999973 0.583059587111332
  endloop
endfacet
facet normal 0.5744106489249634 0.0 0.8185672888661032
  outer loop
    vertex 1.696187522989177 -2.7915699999999997 0.583059587111332
    vertex 1.7923475471516022 -3.8520039999999973 0.51558151581399
    vertex 1.7923475471516022 -2.7915699999999997 0.51558151581399
  endloop
endfacet
facet normal -0.5744106489249622 -0.0 -0.8185672888661042
  outer loop
    vertex 2.304894384727148 -2.7915699999999997 1.245989414825481
    vertex 2.2087343605647227 -3.8520039999999973 1.3134674861228228
    vertex 2.2087343605647227 -2.7915699999999997 1.3134674861228228
  endloop
endfacet
facet normal -0.5744106489249622 -0.0 -0.8185672888661042
  outer loop
    vertex 2.2087343605647227 -3.8520039999999973 1.3134674861228228
    vertex 2.304894384727148 -2.7915699999999997 1.245989414825481
    vertex 2.304894384727148 -3.8520039999999973 1.245989414825481
  endloop
endfacet
facet normal -1.0 0.0 0.0
  outer loop
    vertex 1.5 -2.7915699999999997 1.648892
    vertex 1.5 -3.8520039999999973 -0.29857000000000006
    vertex 1.5 -3.8520039999999973 1.648892
  endloop
endfacet
facet normal -1.0 0.0 0.0
  outer loop
    vertex 1.5 -3.8520039999999973 -0.29857000000000006
    vertex 1.5 -2.7915699999999997 1.648892
    vertex 1.5 -2.7915699999999997 -0.29857000000000006
  endloop
endfacet
facet normal 1.0 0.0 -6.690801090352304e-16
  outer loop
    vertex 2.5 -2.7915699999999997 0.32142999999999994
    vertex 2.500000000000001 -3.8520039999999973 1.648892
    vertex 2.5 -3.8520039999999973 0.32142999999999994
  endloop
endfacet
facet normal 1.0 0.0 -6.690801090352304e-16
  outer loop
    vertex 2.500000000000001 -3.8520039999999973 1.648892
    vertex 2.5 -2.7915699999999997 0.32142999999999994
    vertex 2.500000000000001 -2.7915699999999997 1.648892
  endloop
endfacet
facet normal 0.6420068692197155 0.0 -0.766698884748569
  outer loop
    vertex 1.7591428974061198 -2.7915699999999997 1.2942967726539214
    vertex 1.6690760400010878 -3.8520039999999973 1.2188779318373917
    vertex 1.6690760400010878 -2.7915699999999997 1.2188779318373917
  endloop
endfacet
facet normal 0.6420068692197155 0.0 -0.766698884748569
  outer loop
    vertex 1.6690760400010878 -3.8520039999999973 1.2188779318373917
    vertex 1.7591428974061198 -2.7915699999999997 1.2942967726539214
    vertex 1.7591428974061198 -3.8520039999999973 1.2942967726539214
  endloop
endfacet
facet normal 0.0881705697402721 0.0 0.9961053913274819
  outer loop
    vertex 2.019711667327064 -3.8520039999999973 0.4649330378098035
    vertex 1.9026956079252073 -2.7915699999999997 0.47529074967046675
    vertex 1.9026956079252073 -3.8520039999999973 0.47529074967046675
  endloop
endfacet
facet normal 0.0881705697402721 0.0 0.9961053913274819
  outer loop
    vertex 1.9026956079252073 -2.7915699999999997 0.47529074967046675
    vertex 2.019711667327064 -3.8520039999999973 0.4649330378098035
    vertex 2.019711667327064 -2.7915699999999997 0.4649330378098035
  endloop
endfacet
facet normal -0.9172576101773133 0.0 -0.3982944596298122
  outer loop
    vertex 2.096688103939958 -2.7915699999999997 1.5724918651710094
    vertex 2.1084130298005612 -3.8520039999999973 1.5454897886560635
    vertex 2.096688103939958 -3.8520039999999973 1.5724918651710094
  endloop
endfacet
facet normal -0.9172576101773133 0.0 -0.3982944596298122
  outer loop
    vertex 2.1084130298005612 -3.8520039999999973 1.5454897886560635
    vertex 2.096688103939958 -2.7915699999999997 1.5724918651710094
    vertex 2.1084130298005612 -2.7915699999999997 1.5454897886560635
  endloop
endfacet
facet normal -0.7666988847485708 -0.0 -0.6420068692197133
  outer loop
    vertex 2.304894384727148 -2.7915699999999997 1.245989414825481
    vertex 2.380313225543677 -3.8520039999999973 1.155922557420449
    vertex 2.304894384727148 -3.8520039999999973 1.245989414825481
  endloop
endfacet
facet normal -0.7666988847485708 -0.0 -0.6420068692197133
  outer loop
    vertex 2.380313225543677 -3.8520039999999973 1.155922557420449
    vertex 2.304894384727148 -2.7915699999999997 1.245989414825481
    vertex 2.380313225543677 -2.7915699999999997 1.155922557420449
  endloop
endfacet
facet normal 0.9849841458553159 0.0 0.17264481577410237
  outer loop
    vertex 1.5712306940681329 -2.7915699999999997 0.7796441805394521
    vertex 1.5509494906995596 -3.8520039999999973 0.895353787499505
    vertex 1.5712306940681329 -3.8520039999999973 0.7796441805394521
  endloop
endfacet
facet normal 0.9849841458553159 0.0 0.17264481577410237
  outer loop
    vertex 1.5509494906995596 -3.8520039999999973 0.895353787499505
    vertex 1.5712306940681329 -2.7915699999999997 0.7796441805394521
    vertex 1.5509494906995596 -2.7915699999999997 0.895353787499505
  endloop
endfacet
facet normal -0.9849841458553159 -0.0 -0.17264481577410237
  outer loop
    vertex 2.429851213648192 -2.7915699999999997 1.0494048213973608
    vertex 2.450132417016765 -3.8520039999999973 0.9336952144373079
    vertex 2.429851213648192 -3.8520039999999973 1.0494048213973608
  endloop
endfacet
facet normal -0.9849841458553159 -0.0 -0.17264481577410237
  outer loop
    vertex 2.450132417016765 -3.8520039999999973 0.9336952144373079
    vertex 2.429851213648192 -2.7915699999999997 1.0494048213973608
    vertex 2.450132417016765 -2.7915699999999997 0.9336952144373079
  endloop
endfacet
facet normal -0.993515622043062 9.969815952228172e-33 0.11369568486265388
  outer loop
    vertex 2.112749786841259 -2.7915699999999997 1.5163731514717047
    vertex 2.1094028322365572 -3.8520039999999973 1.487126204324529
    vertex 2.112749786841259 -3.8520039999999973 1.5163731514717047
  endloop
endfacet
facet normal -0.993515622043062 9.969815952228172e-33 0.11369568486265388
  outer loop
    vertex 2.1094028322365572 -3.8520039999999973 1.487126204324529
    vertex 2.112749786841259 -2.7915699999999997 1.5163731514717047
    vertex 2.1094028322365572 -2.7915699999999997 1.487126204324529
  endloop
endfacet
facet normal 0.0 0.0 1.0
  outer loop
    vertex 2.500000000000001 -3.8520039999999973 1.648892
    vertex 1.5 -2.7915699999999997 1.648892
    vertex 1.5 -3.8520039999999973 1.648892
  endloop
endfacet
facet normal 0.0 0.0 1.0
  outer loop
    vertex 1.5 -2.7915699999999997 1.648892
    vertex 2.500000000000001 -3.8520039999999973 1.648892
    vertex 2.500000000000001 -2.7915699999999997 1.648892
  endloop
endfacet
facet normal 0.9067378586063738 0.0 0.42169474240252014
  outer loop
    vertex 1.6207686821726477 -2.7915699999999997 0.6731264445163638
    vertex 1.5712306940681329 -3.8520039999999973 0.7796441805394521
    vertex 1.6207686821726477 -3.8520039999999973 0.6731264445163638
  endloop
endfacet
facet normal 0.9067378586063738 0.0 0.42169474240252014
  outer loop
    vertex 1.5712306940681329 -3.8520039999999973 0.7796441805394521
    vertex 1.6207686821726477 -2.7915699999999997 0.6731264445163638
    vertex 1.5712306940681329 -2.7915699999999997 0.7796441805394521
  endloop
endfacet
facet normal 0.8185672888661042 0.0 -0.5744106489249622
  outer loop
    vertex 1.601597968703746 -2.7915699999999997 1.1227179076749665
    vertex 1.6690760400010878 -3.8520039999999973 1.2188779318373917
    vertex 1.601597968703746 -3.8520039999999973 1.1227179076749665
  endloop
endfacet
facet normal 0.8185672888661042 0.0 -0.5744106489249622
  outer loop
    vertex 1.6690760400010878 -3.8520039999999973 1.2188779318373917
    vertex 1.601597968703746 -2.7915699999999997 1.1227179076749665
    vertex 1.6690760400010878 -2.7915699999999997 1.2188779318373917
  endloop
endfacet
facet normal -0.8185672888661042 0.0 0.5744106489249622
  outer loop
    vertex 2.399483939012579 -2.7915699999999997 0.7063310942618461
    vertex 2.332005867715237 -3.8520039999999973 0.610171070099421
    vertex 2.399483939012579 -3.8520039999999973 0.7063310942618461
  endloop
endfacet
facet normal -0.8185672888661042 0.0 0.5744106489249622
  outer loop
    vertex 2.332005867715237 -3.8520039999999973 0.610171070099421
    vertex 2.399483939012579 -2.7915699999999997 0.7063310942618461
    vertex 2.332005867715237 -2.7915699999999997 0.610171070099421
  endloop
endfacet
facet normal -0.4216947424025179 0.0 0.9067378586063749
  outer loop
    vertex 2.241939010310205 -3.8520039999999973 0.5347522292828915
    vertex 2.1354212742871166 -2.7915699999999997 0.4852142411783768
    vertex 2.1354212742871166 -3.8520039999999973 0.4852142411783768
  endloop
endfacet
facet normal -0.4216947424025179 0.0 0.9067378586063749
  outer loop
    vertex 2.1354212742871166 -2.7915699999999997 0.4852142411783768
    vertex 2.241939010310205 -3.8520039999999973 0.5347522292828915
    vertex 2.241939010310205 -2.7915699999999997 0.5347522292828915
  endloop
endfacet
facet normal 0.39829445962979937 0.0 -0.9172576101773188
  outer loop
    vertex 1.9689712113439366 -2.7915699999999997 1.622874029800561
    vertex 1.9419691348289907 -3.8520039999999973 1.6111491039399581
    vertex 1.9419691348289907 -2.7915699999999997 1.6111491039399581
  endloop
endfacet
facet normal 0.39829445962979937 0.0 -0.9172576101773188
  outer loop
    vertex 1.9419691348289907 -3.8520039999999973 1.6111491039399581
    vertex 1.9689712113439366 -2.7915699999999997 1.622874029800561
    vertex 1.9689712113439366 -3.8520039999999973 1.622874029800561
  endloop
endfacet
facet normal 0.7666988847485701 0.0 0.6420068692197142
  outer loop
    vertex 1.696187522989177 -2.7915699999999997 0.583059587111332
    vertex 1.6207686821726477 -3.8520039999999973 0.6731264445163638
    vertex 1.696187522989177 -3.8520039999999973 0.583059587111332
  endloop
endfacet
facet normal 0.7666988847485701 0.0 0.6420068692197142
  outer loop
    vertex 1.6207686821726477 -3.8520039999999973 0.6731264445163638
    vertex 1.696187522989177 -2.7915699999999997 0.583059587111332
    vertex 1.6207686821726477 -2.7915699999999997 0.6731264445163638
  endloop
endfacet
facet normal -0.1726448157741027 0.0 0.9849841458553159
  outer loop
    vertex 2.1354212742871166 -3.8520039999999973 0.4852142411783768
    vertex 2.019711667327064 -2.7915699999999997 0.4649330378098035
    vertex 2.019711667327064 -3.8520039999999973 0.4649330378098035
  endloop
endfacet
facet normal -0.1726448157741027 0.0 0.9849841458553159
  outer loop
    vertex 2.019711667327064 -2.7915699999999997 0.4649330378098035
    vertex 2.1354212742871166 -3.8520039999999973 0.4852142411783768
    vertex 2.1354212742871166 -2.7915699999999997 0.4852142411783768
  endloop
endfacet
facet normal -0.08817056974027036 -0.0 -0.9961053913274821
  outer loop
    vertex 2.098386299791118 -2.7915699999999997 1.3537582522663463
    vertex 1.9813702403892608 -3.8520039999999973 1.3641159641270093
    vertex 1.9813702403892608 -2.7915699999999997 1.3641159641270093
  endloop
endfacet
facet normal -0.08817056974027036 -0.0 -0.9961053913274821
  outer loop
    vertex 1.9813702403892608 -3.8520039999999973 1.3641159641270093
    vertex 2.098386299791118 -2.7915699999999997 1.3537582522663463
    vertex 2.098386299791118 -3.8520039999999973 1.3537582522663463
  endloop
endfacet
facet normal 0.421694742402519 0.0 -0.9067378586063743
  outer loop
    vertex 1.8656606334292078 -2.7915699999999997 1.343834760758436
    vertex 1.7591428974061198 -3.8520039999999973 1.2942967726539214
    vertex 1.7591428974061198 -2.7915699999999997 1.2942967726539214
  endloop
endfacet
facet normal 0.421694742402519 0.0 -0.9067378586063743
  outer loop
    vertex 1.7591428974061198 -3.8520039999999973 1.2942967726539214
    vertex 1.8656606334292078 -2.7915699999999997 1.343834760758436
    vertex 1.8656606334292078 -3.8520039999999973 1.343834760758436
  endloop
endfacet
facet normal 0.6221266438033868 6.865286620036724e-32 -0.7829166233194529
  outer loop
    vertex 1.9419691348289907 -2.7915699999999997 1.6111491039399581
    vertex 1.91892176587491 -3.8520039999999973 1.5928350435804937
    vertex 1.91892176587491 -2.7915699999999997 1.5928350435804937
  endloop
endfacet
facet normal 0.6221266438033868 6.865286620036724e-32 -0.7829166233194529
  outer loop
    vertex 1.91892176587491 -3.8520039999999973 1.5928350435804937
    vertex 1.9419691348289907 -2.7915699999999997 1.6111491039399581
    vertex 1.9419691348289907 -3.8520039999999973 1.6111491039399581
  endloop
endfacet
facet normal 0.7829166233194529 6.865286620036723e-32 0.6221266438033868
  outer loop
    vertex 1.9216259564195064 -2.7915699999999997 1.43338276587491
    vertex 1.903311896060042 -3.8520039999999973 1.4564301348289908
    vertex 1.9216259564195064 -3.8520039999999973 1.43338276587491
  endloop
endfacet
facet normal 0.7829166233194529 6.865286620036723e-32 0.6221266438033868
  outer loop
    vertex 1.903311896060042 -3.8520039999999973 1.4564301348289908
    vertex 1.9216259564195064 -2.7915699999999997 1.43338276587491
    vertex 1.903311896060042 -2.7915699999999997 1.4564301348289908
  endloop
endfacet
facet normal 0.5952211624132576 7.046322392343364e-32 0.8035619253146646
  outer loop
    vertex 1.9452810783297507 -3.8520039999999973 1.4158607445883373
    vertex 1.9216259564195064 -2.7915699999999997 1.43338276587491
    vertex 1.9216259564195064 -3.8520039999999973 1.43338276587491
  endloop
endfacet
facet normal 0.5952211624132576 7.046322392343364e-32 0.8035619253146646
  outer loop
    vertex 1.9216259564195064 -2.7915699999999997 1.43338276587491
    vertex 1.9452810783297507 -3.8520039999999973 1.4158607445883373
    vertex 1.9452810783297507 -2.7915699999999997 1.4158607445883373
  endloop
endfacet
facet normal -0.7829166233194566 0.0 -0.6221266438033821
  outer loop
    vertex 2.0783740435804936 -2.7915699999999997 1.59553923412509
    vertex 2.096688103939958 -3.8520039999999973 1.5724918651710094
    vertex 2.0783740435804936 -3.8520039999999973 1.59553923412509
  endloop
endfacet
facet normal -0.7829166233194566 0.0 -0.6221266438033821
  outer loop
    vertex 2.096688103939958 -3.8520039999999973 1.5724918651710094
    vertex 2.0783740435804936 -2.7915699999999997 1.59553923412509
    vertex 2.096688103939958 -2.7915699999999997 1.5724918651710094
  endloop
endfacet
facet normal -0.8035619253146609 0.0 0.5952211624132625
  outer loop
    vertex 2.0986002554116627 -2.7915699999999997 1.4597420783297508
    vertex 2.0810782341250897 -3.8520039999999973 1.4360869564195065
    vertex 2.0986002554116627 -3.8520039999999973 1.4597420783297508
  endloop
endfacet
facet normal -0.8035619253146609 0.0 0.5952211624132625
  outer loop
    vertex 2.0810782341250897 -3.8520039999999973 1.4360869564195065
    vertex 2.0986002554116627 -2.7915699999999997 1.4597420783297508
    vertex 2.0810782341250897 -2.7915699999999997 1.4360869564195065
  endloop
endfacet
facet normal -0.9302357895646114 0.0 0.36696236293808654
  outer loop
    vertex 2.1094028322365572 -2.7915699999999997 1.487126204324529
    vertex 2.0986002554116627 -3.8520039999999973 1.4597420783297508
    vertex 2.1094028322365572 -3.8520039999999973 1.487126204324529
  endloop
endfacet
facet normal -0.9302357895646114 0.0 0.36696236293808654
  outer loop
    vertex 2.0986002554116627 -3.8520039999999973 1.4597420783297508
    vertex 2.1094028322365572 -2.7915699999999997 1.487126204324529
    vertex 2.0986002554116627 -2.7915699999999997 1.4597420783297508
  endloop
endfacet
facet normal -0.9890890067414712 1.7346366961062623e-31 -0.1473191662451634
  outer loop
    vertex 2.1084130298005612 -2.7915699999999997 1.5454897886560635
    vertex 2.112749786841259 -3.8520039999999973 1.5163731514717047
    vertex 2.1084130298005612 -3.8520039999999973 1.5454897886560635
  endloop
endfacet
facet normal -0.9890890067414712 1.7346366961062623e-31 -0.1473191662451634
  outer loop
    vertex 2.112749786841259 -3.8520039999999973 1.5163731514717047
    vertex 2.1084130298005612 -2.7915699999999997 1.5454897886560635
    vertex 2.112749786841259 -2.7915699999999997 1.5163731514717047
  endloop
endfacet
facet normal 0.1136956848626522 8.769542853008095e-20 0.9935156220430622
  outer loop
    vertex 2.001912151471705 -3.8520039999999973 1.4017112131587415
    vertex 1.9726652043245287 -2.7915699999999997 1.405058167763443
    vertex 1.9726652043245287 -3.8520039999999973 1.405058167763443
  endloop
endfacet
facet normal 0.1136956848626522 8.769542853008095e-20 0.9935156220430622
  outer loop
    vertex 1.9726652043245287 -2.7915699999999997 1.405058167763443
    vertex 2.001912151471705 -3.8520039999999973 1.4017112131587415
    vertex 2.001912151471705 -2.7915699999999997 1.4017112131587415
  endloop
endfacet
facet normal -0.11369568486265391 9.969815952228174e-33 -0.993515622043062
  outer loop
    vertex 2.027334795675471 -2.7915699999999997 1.623863832236557
    vertex 1.9980878485282954 -3.8520039999999973 1.6272107868412586
    vertex 1.9980878485282954 -2.7915699999999997 1.6272107868412586
  endloop
endfacet
facet normal -0.11369568486265391 9.969815952228174e-33 -0.993515622043062
  outer loop
    vertex 1.9980878485282954 -3.8520039999999973 1.6272107868412586
    vertex 2.027334795675471 -2.7915699999999997 1.623863832236557
    vertex 2.027334795675471 -3.8520039999999973 1.623863832236557
  endloop
endfacet
facet normal 0.9302357895646131 3.5875339639525485e-19 -0.36696236293808254
  outer loop
    vertex 1.890597167763443 -2.7915699999999997 1.5417957956754713
    vertex 1.9013997445883373 -3.8520039999999973 1.5691799216702493
    vertex 1.890597167763443 -3.8520039999999973 1.5417957956754713
  endloop
endfacet
facet normal 0.9302357895646131 3.5875339639525485e-19 -0.36696236293808254
  outer loop
    vertex 1.9013997445883373 -3.8520039999999973 1.5691799216702493
    vertex 1.890597167763443 -2.7915699999999997 1.5417957956754713
    vertex 1.9013997445883373 -2.7915699999999997 1.5691799216702493
  endloop
endfacet
facet normal 0.9890890067414712 0.0 0.1473191662451634
  outer loop
    vertex 1.891586970199439 -2.7915699999999997 1.4834322113439367
    vertex 1.8872502131587414 -3.8520039999999973 1.5125488485282954
    vertex 1.891586970199439 -3.8520039999999973 1.4834322113439367
  endloop
endfacet
facet normal 0.9890890067414712 0.0 0.1473191662451634
  outer loop
    vertex 1.8872502131587414 -3.8520039999999973 1.5125488485282954
    vertex 1.891586970199439 -2.7915699999999997 1.4834322113439367
    vertex 1.8872502131587414 -2.7915699999999997 1.5125488485282954
  endloop
endfacet
facet normal -0.6221266438033942 1.777597007330924e-31 0.782916623319447
  outer loop
    vertex 2.0810782341250897 -3.8520039999999973 1.4360869564195065
    vertex 2.0580308651710095 -2.7915699999999997 1.417772896060042
    vertex 2.0580308651710095 -3.8520039999999973 1.417772896060042
  endloop
endfacet
facet normal -0.6221266438033942 1.777597007330924e-31 0.782916623319447
  outer loop
    vertex 2.0580308651710095 -2.7915699999999997 1.417772896060042
    vertex 2.0810782341250897 -3.8520039999999973 1.4360869564195065
    vertex 2.0810782341250897 -2.7915699999999997 1.4360869564195065
  endloop
endfacet
facet normal 0.8035619253146645 -7.046322392343363e-32 -0.5952211624132576
  outer loop
    vertex 1.9013997445883373 -2.7915699999999997 1.5691799216702493
    vertex 1.91892176587491 -3.8520039999999973 1.5928350435804937
    vertex 1.9013997445883373 -3.8520039999999973 1.5691799216702493
  endloop
endfacet
facet normal 0.8035619253146645 -7.046322392343363e-32 -0.5952211624132576
  outer loop
    vertex 1.91892176587491 -3.8520039999999973 1.5928350435804937
    vertex 1.9013997445883373 -2.7915699999999997 1.5691799216702493
    vertex 1.91892176587491 -2.7915699999999997 1.5928350435804937
  endloop
endfacet
facet normal 0.9172576101773188 0.0 0.39829445962979937
  outer loop
    vertex 1.903311896060042 -2.7915699999999997 1.4564301348289908
    vertex 1.891586970199439 -3.8520039999999973 1.4834322113439367
    vertex 1.903311896060042 -3.8520039999999973 1.4564301348289908
  endloop
endfacet
facet normal 0.9172576101773188 0.0 0.39829445962979937
  outer loop
    vertex 1.891586970199439 -3.8520039999999973 1.4834322113439367
    vertex 1.903311896060042 -2.7915699999999997 1.4564301348289908
    vertex 1.891586970199439 -2.7915699999999997 1.4834322113439367
  endloop
endfacet
facet normal -0.1473191662451634 1.7346366961062623e-31 0.9890890067414712
  outer loop
    vertex 2.0310287886560636 -3.8520039999999973 1.406047970199439
    vertex 2.001912151471705 -2.7915699999999997 1.4017112131587415
    vertex 2.001912151471705 -3.8520039999999973 1.4017112131587415
  endloop
endfacet
facet normal -0.1473191662451634 1.7346366961062623e-31 0.9890890067414712
  outer loop
    vertex 2.001912151471705 -2.7915699999999997 1.4017112131587415
    vertex 2.0310287886560636 -3.8520039999999973 1.406047970199439
    vertex 2.0310287886560636 -2.7915699999999997 1.406047970199439
  endloop
endfacet
facet normal 0.14731916624516336 1.7346366961062628e-31 -0.9890890067414712
  outer loop
    vertex 1.9980878485282954 -2.7915699999999997 1.6272107868412586
    vertex 1.9689712113439366 -3.8520039999999973 1.622874029800561
    vertex 1.9689712113439366 -2.7915699999999997 1.622874029800561
  endloop
endfacet
facet normal 0.14731916624516336 1.7346366961062628e-31 -0.9890890067414712
  outer loop
    vertex 1.9689712113439366 -3.8520039999999973 1.622874029800561
    vertex 1.9980878485282954 -2.7915699999999997 1.6272107868412586
    vertex 1.9980878485282954 -3.8520039999999973 1.6272107868412586
  endloop
endfacet
facet normal -0.5952211624132576 -7.046322392343366e-32 -0.8035619253146646
  outer loop
    vertex 2.0783740435804936 -2.7915699999999997 1.59553923412509
    vertex 2.0547189216702493 -3.8520039999999973 1.6130612554116628
    vertex 2.0547189216702493 -2.7915699999999997 1.6130612554116628
  endloop
endfacet
facet normal -0.5952211624132576 -7.046322392343366e-32 -0.8035619253146646
  outer loop
    vertex 2.0547189216702493 -3.8520039999999973 1.6130612554116628
    vertex 2.0783740435804936 -2.7915699999999997 1.59553923412509
    vertex 2.0783740435804936 -3.8520039999999973 1.59553923412509
  endloop
endfacet
facet normal -0.36696236293808004 -3.587533963951588e-19 -0.9302357895646141
  outer loop
    vertex 2.0547189216702493 -2.7915699999999997 1.6130612554116628
    vertex 2.027334795675471 -3.8520039999999973 1.623863832236557
    vertex 2.027334795675471 -2.7915699999999997 1.623863832236557
  endloop
endfacet
facet normal -0.36696236293808004 -3.587533963951588e-19 -0.9302357895646141
  outer loop
    vertex 2.027334795675471 -3.8520039999999973 1.623863832236557
    vertex 2.0547189216702493 -2.7915699999999997 1.6130612554116628
    vertex 2.0547189216702493 -3.8520039999999973 1.6130612554116628
  endloop
endfacet
facet normal 0.993515622043062 8.769542853007162e-20 -0.11369568486265302
  outer loop
    vertex 1.8872502131587414 -2.7915699999999997 1.5125488485282954
    vertex 1.890597167763443 -3.8520039999999973 1.5417957956754713
    vertex 1.8872502131587414 -3.8520039999999973 1.5125488485282954
  endloop
endfacet
facet normal 0.993515622043062 8.769542853007162e-20 -0.11369568486265302
  outer loop
    vertex 1.890597167763443 -3.8520039999999973 1.5417957956754713
    vertex 1.8872502131587414 -2.7915699999999997 1.5125488485282954
    vertex 1.890597167763443 -2.7915699999999997 1.5417957956754713
  endloop
endfacet
facet normal -0.39829445962979937 0.0 0.9172576101773188
  outer loop
    vertex 2.0580308651710095 -3.8520039999999973 1.417772896060042
    vertex 2.0310287886560636 -2.7915699999999997 1.406047970199439
    vertex 2.0310287886560636 -3.8520039999999973 1.406047970199439
  endloop
endfacet
facet normal -0.39829445962979937 0.0 0.9172576101773188
  outer loop
    vertex 2.0310287886560636 -2.7915699999999997 1.406047970199439
    vertex 2.0580308651710095 -3.8520039999999973 1.417772896060042
    vertex 2.0580308651710095 -2.7915699999999997 1.417772896060042
  endloop
endfacet
facet normal 0.3669623629380826 3.5875339639525485e-19 0.9302357895646131
  outer loop
    vertex 1.9726652043245287 -3.8520039999999973 1.405058167763443
    vertex 1.9452810783297507 -2.7915699999999997 1.4158607445883373
    vertex 1.9452810783297507 -3.8520039999999973 1.4158607445883373
  endloop
endfacet
facet normal 0.3669623629380826 3.5875339639525485e-19 0.9302357895646131
  outer loop
    vertex 1.9452810783297507 -2.7915699999999997 1.4158607445883373
    vertex 1.9726652043245287 -3.8520039999999973 1.405058167763443
    vertex 1.9726652043245287 -2.7915699999999997 1.405058167763443
  endloop
endfacet
facet normal 0.0 1.0 0.0
  outer loop
    vertex 1.5 -2.7915699999999997 -0.29857000000000006
    vertex 1.5712306940681329 -2.7915699999999997 0.7796441805394521
    vertex 1.9616751650196274 -2.7915699999999997 -0.29857000000000006
  endloop
endfacet
facet normal 0.0 1.0 0.0
  outer loop
    vertex 1.5712306940681329 -2.7915699999999997 0.7796441805394521
    vertex 1.5 -2.7915699999999997 -0.29857000000000006
    vertex 1.5509494906995596 -2.7915699999999997 0.895353787499505
  endloop
endfacet
facet normal 0.0 1.0 0.0
  outer loop
    vertex 1.5509494906995596 -2.7915699999999997 0.895353787499505
    vertex 1.5 -2.7915699999999997 -0.29857000000000006
    vertex 1.5 -2.7915699999999997 1.648892
  endloop
endfacet
facet normal 0.0 1.0 0.0
  outer loop
    vertex 1.9616751650196274 -2.7915699999999997 -0.29857000000000006
    vertex 1.5712306940681329 -2.7915699999999997 0.7796441805394521
    vertex 1.6207686821726477 -2.7915699999999997 0.6731264445163638
  endloop
endfacet
facet normal 0.0 1.0 0.0
  outer loop
    vertex 1.9616751650196274 -2.7915699999999997 -0.29857000000000006
    vertex 1.6207686821726477 -2.7915699999999997 0.6731264445163638
    vertex 1.696187522989177 -2.7915699999999997 0.583059587111332
  endloop
endfacet
facet normal 0.0 1.0 0.0
  outer loop
    vertex 1.9616751650196274 -2.7915699999999997 -0.29857000000000006
    vertex 1.696187522989177 -2.7915699999999997 0.583059587111332
    vertex 1.9616751650196274 -2.7915699999999997 0.32142999999999994
  endloop
endfacet
facet normal 0.0 1.0 0.0
  outer loop
    vertex 1.9616751650196274 -2.7915699999999997 0.32142999999999994
    vertex 1.696187522989177 -2.7915699999999997 0.583059587111332
    vertex 1.7923475471516022 -2.7915699999999997 0.51558151581399
  endloop
endfacet
facet normal 0.0 1.0 0.0
  outer loop
    vertex 1.9616751650196274 -2.7915699999999997 0.32142999999999994
    vertex 1.7923475471516022 -2.7915699999999997 0.51558151581399
    vertex 1.9026956079252073 -2.7915699999999997 0.47529074967046675
  endloop
endfacet
facet normal 0.0 1.0 0.0
  outer loop
    vertex 1.9616751650196274 -2.7915699999999997 0.32142999999999994
    vertex 1.9026956079252073 -2.7915699999999997 0.47529074967046675
    vertex 2.5 -2.7915699999999997 0.32142999999999994
  endloop
endfacet
facet normal 0.0 1.0 0.0
  outer loop
    vertex 2.5 -2.7915699999999997 0.32142999999999994
    vertex 1.9026956079252073 -2.7915699999999997 0.47529074967046675
    vertex 2.019711667327064 -2.7915699999999997 0.4649330378098035
  endloop
endfacet
facet normal 0.0 1.0 0.0
  outer loop
    vertex 1.5509494906995596 -2.7915699999999997 0.895353787499505
    vertex 1.5 -2.7915699999999997 1.648892
    vertex 1.5613072025602226 -2.7915699999999997 1.0123698469013613
  endloop
endfacet
facet normal 0.0 1.0 0.0
  outer loop
    vertex 1.5613072025602226 -2.7915699999999997 1.0123698469013613
    vertex 1.5 -2.7915699999999997 1.648892
    vertex 1.601597968703746 -2.7915699999999997 1.1227179076749665
  endloop
endfacet
facet normal 0.0 1.0 0.0
  outer loop
    vertex 1.601597968703746 -2.7915699999999997 1.1227179076749665
    vertex 1.5 -2.7915699999999997 1.648892
    vertex 1.6690760400010878 -2.7915699999999997 1.2188779318373917
  endloop
endfacet
facet normal 0.0 1.0 0.0
  outer loop
    vertex 1.6690760400010878 -2.7915699999999997 1.2188779318373917
    vertex 1.5 -2.7915699999999997 1.648892
    vertex 1.7591428974061198 -2.7915699999999997 1.2942967726539214
  endloop
endfacet
facet normal 0.0 1.0 0.0
  outer loop
    vertex 1.7591428974061198 -2.7915699999999997 1.2942967726539214
    vertex 1.5 -2.7915699999999997 1.648892
    vertex 1.8656606334292078 -2.7915699999999997 1.343834760758436
  endloop
endfacet
facet normal 0.0 1.0 0.0
  outer loop
    vertex 1.8656606334292078 -2.7915699999999997 1.343834760758436
    vertex 1.5 -2.7915699999999997 1.648892
    vertex 1.9813702403892608 -2.7915699999999997 1.3641159641270093
  endloop
endfacet
facet normal 0.0 1.0 0.0
  outer loop
    vertex 1.9813702403892608 -2.7915699999999997 1.3641159641270093
    vertex 1.5 -2.7915699999999997 1.648892
    vertex 1.9452810783297507 -2.7915699999999997 1.4158607445883373
  endloop
endfacet
facet normal 0.0 1.0 0.0
  outer loop
    vertex 1.9813702403892608 -2.7915699999999997 1.3641159641270093
    vertex 1.9452810783297507 -2.7915699999999997 1.4158607445883373
    vertex 1.9726652043245287 -2.7915699999999997 1.405058167763443
  endloop
endfacet
facet normal 0.0 1.0 0.0
  outer loop
    vertex 1.9813702403892608 -2.7915699999999997 1.3641159641270093
    vertex 1.9726652043245287 -2.7915699999999997 1.405058167763443
    vertex 2.001912151471705 -2.7915699999999997 1.4017112131587415
  endloop
endfacet
facet normal 0.0 1.0 0.0
  outer loop
    vertex 1.9452810783297507 -2.7915699999999997 1.4158607445883373
    vertex 1.5 -2.7915699999999997 1.648892
    vertex 1.9216259564195064 -2.7915699999999997 1.43338276587491
  endloop
endfacet
facet normal 0.0 1.0 0.0
  outer loop
    vertex 1.9216259564195064 -2.7915699999999997 1.43338276587491
    vertex 1.5 -2.7915699999999997 1.648892
    vertex 1.903311896060042 -2.7915699999999997 1.4564301348289908
  endloop
endfacet
facet normal 0.0 1.0 0.0
  outer loop
    vertex 1.903311896060042 -2.7915699999999997 1.4564301348289908
    vertex 1.5 -2.7915699999999997 1.648892
    vertex 1.891586970199439 -2.7915699999999997 1.4834322113439367
  endloop
endfacet
facet normal 0.0 1.0 0.0
  outer loop
    vertex 1.891586970199439 -2.7915699999999997 1.4834322113439367
    vertex 1.5 -2.7915699999999997 1.648892
    vertex 1.8872502131587414 -2.7915699999999997 1.5125488485282954
  endloop
endfacet
facet normal 0.0 1.0 0.0
  outer loop
    vertex 1.8872502131587414 -2.7915699999999997 1.5125488485282954
    vertex 1.5 -2.7915699999999997 1.648892
    vertex 1.890597167763443 -2.7915699999999997 1.5417957956754713
  endloop
endfacet
facet normal 0.0 1.0 0.0
  outer loop
    vertex 1.890597167763443 -2.7915699999999997 1.5417957956754713
    vertex 1.5 -2.7915699999999997 1.648892
    vertex 1.9013997445883373 -2.7915699999999997 1.5691799216702493
  endloop
endfacet
facet normal 0.0 1.0 0.0
  outer loop
    vertex 1.9013997445883373 -2.7915699999999997 1.5691799216702493
    vertex 1.5 -2.7915699999999997 1.648892
    vertex 1.91892176587491 -2.7915699999999997 1.5928350435804937
  endloop
endfacet
facet normal 0.0 1.0 0.0
  outer loop
    vertex 1.91892176587491 -2.7915699999999997 1.5928350435804937
    vertex 1.5 -2.7915699999999997 1.648892
    vertex 1.9419691348289907 -2.7915699999999997 1.6111491039399581
  endloop
endfacet
facet normal 0.0 1.0 0.0
  outer loop
    vertex 1.9419691348289907 -2.7915699999999997 1.6111491039399581
    vertex 1.5 -2.7915699999999997 1.648892
    vertex 1.9689712113439366 -2.7915699999999997 1.622874029800561
  endloop
endfacet
facet normal 0.0 1.0 0.0
  outer loop
    vertex 1.9689712113439366 -2.7915699999999997 1.622874029800561
    vertex 1.5 -2.7915699999999997 1.648892
    vertex 1.9980878485282954 -2.7915699999999997 1.6272107868412586
  endloop
endfacet
facet normal 0.0 1.0 0.0
  outer loop
    vertex 2.5 -2.7915699999999997 0.32142999999999994
    vertex 2.450132417016765 -2.7915699999999997 0.9336952144373079
    vertex 2.500000000000001 -2.7915699999999997 1.648892
  endloop
endfacet
facet normal 0.0 1.0 0.0
  outer loop
    vertex 2.450132417016765 -2.7915699999999997 0.9336952144373079
    vertex 2.5 -2.7915699999999997 0.32142999999999994
    vertex 2.4397747051561023 -2.7915699999999997 0.8166791550354513
  endloop
endfacet
facet normal 0.0 1.0 0.0
  outer loop
    vertex 2.4397747051561023 -2.7915699999999997 0.8166791550354513
    vertex 2.5 -2.7915699999999997 0.32142999999999994
    vertex 2.399483939012579 -2.7915699999999997 0.7063310942618461
  endloop
endfacet
facet normal 0.0 1.0 0.0
  outer loop
    vertex 2.399483939012579 -2.7915699999999997 0.7063310942618461
    vertex 2.5 -2.7915699999999997 0.32142999999999994
    vertex 2.332005867715237 -2.7915699999999997 0.610171070099421
  endloop
endfacet
facet normal 0.0 1.0 0.0
  outer loop
    vertex 2.332005867715237 -2.7915699999999997 0.610171070099421
    vertex 2.5 -2.7915699999999997 0.32142999999999994
    vertex 2.241939010310205 -2.7915699999999997 0.5347522292828915
  endloop
endfacet
facet normal 0.0 1.0 0.0
  outer loop
    vertex 2.241939010310205 -2.7915699999999997 0.5347522292828915
    vertex 2.5 -2.7915699999999997 0.32142999999999994
    vertex 2.1354212742871166 -2.7915699999999997 0.4852142411783768
  endloop
endfacet
facet normal 0.0 1.0 0.0
  outer loop
    vertex 2.1354212742871166 -2.7915699999999997 0.4852142411783768
    vertex 2.5 -2.7915699999999997 0.32142999999999994
    vertex 2.019711667327064 -2.7915699999999997 0.4649330378098035
  endloop
endfacet
facet normal 0.0 1.0 0.0
  outer loop
    vertex 2.500000000000001 -2.7915699999999997 1.648892
    vertex 2.450132417016765 -2.7915699999999997 0.9336952144373079
    vertex 2.429851213648192 -2.7915699999999997 1.0494048213973608
  endloop
endfacet
facet normal 0.0 1.0 0.0
  outer loop
    vertex 2.500000000000001 -2.7915699999999997 1.648892
    vertex 2.429851213648192 -2.7915699999999997 1.0494048213973608
    vertex 2.380313225543677 -2.7915699999999997 1.155922557420449
  endloop
endfacet
facet normal 0.0 1.0 0.0
  outer loop
    vertex 2.500000000000001 -2.7915699999999997 1.648892
    vertex 2.380313225543677 -2.7915699999999997 1.155922557420449
    vertex 2.304894384727148 -2.7915699999999997 1.245989414825481
  endloop
endfacet
facet normal 0.0 1.0 0.0
  outer loop
    vertex 2.500000000000001 -2.7915699999999997 1.648892
    vertex 2.304894384727148 -2.7915699999999997 1.245989414825481
    vertex 2.2087343605647227 -2.7915699999999997 1.3134674861228228
  endloop
endfacet
facet normal 0.0 1.0 0.0
  outer loop
    vertex 2.500000000000001 -2.7915699999999997 1.648892
    vertex 2.2087343605647227 -2.7915699999999997 1.3134674861228228
    vertex 2.098386299791118 -2.7915699999999997 1.3537582522663463
  endloop
endfacet
facet normal 0.0 1.0 0.0
  outer loop
    vertex 2.500000000000001 -2.7915699999999997 1.648892
    vertex 2.098386299791118 -2.7915699999999997 1.3537582522663463
    vertex 1.9813702403892608 -2.7915699999999997 1.3641159641270093
  endloop
endfacet
facet normal 0.0 1.0 0.0
  outer loop
    vertex 2.500000000000001 -2.7915699999999997 1.648892
    vertex 1.9813702403892608 -2.7915699999999997 1.3641159641270093
    vertex 2.0580308651710095 -2.7915699999999997 1.417772896060042
  endloop
endfacet
facet normal 0.0 1.0 0.0
  outer loop
    vertex 2.0580308651710095 -2.7915699999999997 1.417772896060042
    vertex 1.9813702403892608 -2.7915699999999997 1.3641159641270093
    vertex 2.0310287886560636 -2.7915699999999997 1.406047970199439
  endloop
endfacet
facet normal 0.0 1.0 0.0
  outer loop
    vertex 2.0310287886560636 -2.7915699999999997 1.406047970199439
    vertex 1.9813702403892608 -2.7915699999999997 1.3641159641270093
    vertex 2.001912151471705 -2.7915699999999997 1.4017112131587415
  endloop
endfacet
facet normal 0.0 1.0 0.0
  outer loop
    vertex 2.500000000000001 -2.7915699999999997 1.648892
    vertex 2.0580308651710095 -2.7915699999999997 1.417772896060042
    vertex 2.0810782341250897 -2.7915699999999997 1.4360869564195065
  endloop
endfacet
facet normal 0.0 1.0 0.0
  outer loop
    vertex 2.500000000000001 -2.7915699999999997 1.648892
    vertex 2.0810782341250897 -2.7915699999999997 1.4360869564195065
    vertex 2.0986002554116627 -2.7915699999999997 1.4597420783297508
  endloop
endfacet
facet normal 0.0 1.0 0.0
  outer loop
    vertex 2.500000000000001 -2.7915699999999997 1.648892
    vertex 2.0986002554116627 -2.7915699999999997 1.4597420783297508
    vertex 2.1094028322365572 -2.7915699999999997 1.487126204324529
  endloop
endfacet
facet normal 0.0 1.0 0.0
  outer loop
    vertex 2.500000000000001 -2.7915699999999997 1.648892
    vertex 2.1094028322365572 -2.7915699999999997 1.487126204324529
    vertex 2.112749786841259 -2.7915699999999997 1.5163731514717047
  endloop
endfacet
facet normal 0.0 1.0 0.0
  outer loop
    vertex 2.500000000000001 -2.7915699999999997 1.648892
    vertex 2.112749786841259 -2.7915699999999997 1.5163731514717047
    vertex 2.1084130298005612 -2.7915699999999997 1.5454897886560635
  endloop
endfacet
facet normal 0.0 1.0 0.0
  outer loop
    vertex 2.500000000000001 -2.7915699999999997 1.648892
    vertex 2.1084130298005612 -2.7915699999999997 1.5454897886560635
    vertex 2.096688103939958 -2.7915699999999997 1.5724918651710094
  endloop
endfacet
facet normal 0.0 1.0 0.0
  outer loop
    vertex 2.500000000000001 -2.7915699999999997 1.648892
    vertex 2.096688103939958 -2.7915699999999997 1.5724918651710094
    vertex 2.0783740435804936 -2.7915699999999997 1.59553923412509
  endloop
endfacet
facet normal 0.0 1.0 0.0
  outer loop
    vertex 2.500000000000001 -2.7915699999999997 1.648892
    vertex 2.0783740435804936 -2.7915699999999997 1.59553923412509
    vertex 2.0547189216702493 -2.7915699999999997 1.6130612554116628
  endloop
endfacet
facet normal 0.0 1.0 0.0
  outer loop
    vertex 2.500000000000001 -2.7915699999999997 1.648892
    vertex 2.0547189216702493 -2.7915699999999997 1.6130612554116628
    vertex 2.027334795675471 -2.7915699999999997 1.623863832236557
  endloop
endfacet
facet normal 0.0 1.0 0.0
  outer loop
    vertex 2.500000000000001 -2.7915699999999997 1.648892
    vertex 2.027334795675471 -2.7915699999999997 1.623863832236557
    vertex 1.9980878485282954 -2.7915699999999997 1.6272107868412586
  endloop
endfacet
facet normal 0.0 1.0 0.0
  outer loop
    vertex 2.500000000000001 -2.7915699999999997 1.648892
    vertex 1.9980878485282954 -2.7915699999999997 1.6272107868412586
    vertex 1.5 -2.7915699999999997 1.648892
  endloop
endfacet
endsolid rail_models_v1
