solid rail_models_v1
facet normal 0.6420068692197127 -1.1391158543268437e-14 0.7666988847485712
  outer loop
    vertex 1.6679941322847625 -5.393508611213126 0.6101710700994216
    vertex 1.7580609896897967 -5.305758611213119 0.5347522292828919
    vertex 1.6679941322847602 -5.3057586112131245 0.6101710700994216
  endloop
endfacet
facet normal 0.6420068692197127 -1.1391158543268437e-14 0.7666988847485712
  outer loop
    vertex 1.7580609896897967 -5.305758611213119 0.5347522292828919
    vertex 1.6679941322847625 -5.393508611213126 0.6101710700994216
    vertex 1.7580609896897914 -5.393508611213127 0.5347522292828919
  endloop
endfacet
facet normal -0.64200686921974 -3.576172211986833e-14 -0.7666988847485484
  outer loop
    vertex 2.330923959998901 -5.305758611213118 1.2188779318373923
    vertex 2.2408571025938793 -5.393508611213131 1.2942967726539225
    vertex 2.2408571025938793 -5.305758611213122 1.2942967726539225
  endloop
endfacet
facet normal -0.64200686921974 -3.576172211986833e-14 -0.7666988847485484
  outer loop
    vertex 2.2408571025938793 -5.393508611213131 1.2942967726539225
    vertex 2.330923959998901 -5.305758611213118 1.2188779318373923
    vertex 2.330923959998911 -5.393508611213131 1.2188779318373923
  endloop
endfacet
facet normal -0.9067378586063816 -9.182380609120067e-15 0.42169474240250365
  outer loop
    vertex 2.428769305931861 -5.3057586112131245 0.7796441805394532
    vertex 2.379231317827349 -5.3935086112131225 0.6731264445163643
    vertex 2.428769305931861 -5.393508611213124 0.7796441805394532
  endloop
endfacet
facet normal -0.9067378586063816 -9.182380609120067e-15 0.42169474240250365
  outer loop
    vertex 2.379231317827349 -5.3935086112131225 0.6731264445163643
    vertex 2.428769305931861 -5.3057586112131245 0.7796441805394532
    vertex 2.3792313178273474 -5.305758611213118 0.6731264445163643
  endloop
endfacet
facet normal -0.3429772766355991 -5.1967721192349444e-15 0.9393437005226722
  outer loop
    vertex 2.2076524528483947 -5.393508611213129 0.5155815158139903
    vertex 2.0973043920747876 -5.305758611213121 0.47529074967046675
    vertex 2.0973043920747876 -5.393508611213125 0.47529074967046675
  endloop
endfacet
facet normal -0.3429772766355991 -5.1967721192349444e-15 0.9393437005226722
  outer loop
    vertex 2.0973043920747876 -5.305758611213121 0.47529074967046675
    vertex 2.2076524528483947 -5.393508611213129 0.5155815158139903
    vertex 2.207652452848392 -5.305758611213118 0.5155815158139903
  endloop
endfacet
facet normal 0.0 0.0 1.0
  outer loop
    vertex -1.021405182655144e-14 -7.105758611213121 1.800000000000001
    vertex 0.05999999999999206 -7.018008611213123 1.800000000000001
    vertex -3.9968028886505635e-15 -6.205758611213122 1.800000000000001
  endloop
endfacet
facet normal 0.0 0.0 1.0
  outer loop
    vertex 0.05999999999999206 -7.018008611213123 1.800000000000001
    vertex -1.021405182655144e-14 -7.105758611213121 1.800000000000001
    vertex 3.9999999999999916 -7.105758611213124 1.800000000000001
  endloop
endfacet
facet normal 0.0 0.0 1.0
  outer loop
    vertex 0.05999999999999206 -7.018008611213123 1.800000000000001
    vertex 3.9999999999999916 -7.105758611213124 1.800000000000001
    vertex 3.939999999999986 -7.018008611213121 1.800000000000001
  endloop
endfacet
facet normal 0.0 0.0 1.0
  outer loop
    vertex 0.060000000000004494 -6.205758611213124 1.800000000000001
    vertex -3.9968028886505635e-15 -6.205758611213122 1.800000000000001
    vertex 0.05999999999999206 -7.018008611213123 1.800000000000001
  endloop
endfacet
facet normal 0.9849841458553207 -2.492390447674839e-14 -0.17264481577407575
  outer loop
    vertex 1.5498675829832336 -5.305758611213119 0.9336952144373083
    vertex 1.5701487863518016 -5.393508611213122 1.049404821397362
    vertex 1.549867582983231 -5.393508611213124 0.9336952144373083
  endloop
endfacet
facet normal 0.9849841458553207 -2.492390447674839e-14 -0.17264481577407575
  outer loop
    vertex 1.5701487863518016 -5.393508611213122 1.049404821397362
    vertex 1.5498675829832336 -5.305758611213119 0.9336952144373083
    vertex 1.5701487863518033 -5.3057586112131245 1.049404821397362
  endloop
endfacet
facet normal 0.5744106489249764 5.78825930730786e-15 -0.8185672888660941
  outer loop
    vertex 1.791265639435275 -5.305758611213135 1.3134674861228233
    vertex 1.6951056152728543 -5.393508611213128 1.2459894148254815
    vertex 1.6951056152728499 -5.305758611213119 1.2459894148254815
  endloop
endfacet
facet normal 0.5744106489249764 5.78825930730786e-15 -0.8185672888660941
  outer loop
    vertex 1.6951056152728543 -5.393508611213128 1.2459894148254815
    vertex 1.791265639435275 -5.305758611213135 1.3134674861228233
    vertex 1.7912656394352724 -5.3935086112131225 1.3134674861228233
  endloop
endfacet
facet normal -0.08817056974027 -1.1137412566931617e-15 0.9961053913274822
  outer loop
    vertex 1.9999999999999978 -5.393508611213123 0.4666778220002012
    vertex 1.9802883326729295 -5.305758611213127 0.4649330378098037
    vertex 1.9802883326729286 -5.39350861121312 0.4649330378098037
  endloop
endfacet
facet normal -0.08817056974027 -1.1137412566931617e-15 0.9961053913274822
  outer loop
    vertex 1.9802883326729295 -5.305758611213127 0.4649330378098037
    vertex 1.9999999999999978 -5.393508611213123 0.4666778220002012
    vertex 2.0973043920747876 -5.305758611213121 0.47529074967046675
  endloop
endfacet
facet normal -0.08817056974027 -1.1137412566931617e-15 0.9961053913274822
  outer loop
    vertex 2.0973043920747876 -5.305758611213121 0.47529074967046675
    vertex 1.9999999999999978 -5.393508611213123 0.4666778220002012
    vertex 2.0973043920747876 -5.393508611213125 0.47529074967046675
  endloop
endfacet
facet normal -1.0 7.401486830834403e-15 -1.0011682681015612e-16
  outer loop
    vertex -3.9968028886505635e-15 -6.205758611213122 1.800000000000001
    vertex -1.021405182655144e-14 -7.105758611213121 0.32142999999999994
    vertex -1.021405182655144e-14 -7.105758611213121 1.800000000000001
  endloop
endfacet
facet normal -1.0 7.401486830834403e-15 -1.0011682681015612e-16
  outer loop
    vertex -1.021405182655144e-14 -7.105758611213121 0.32142999999999994
    vertex -3.9968028886505635e-15 -6.205758611213122 1.800000000000001
    vertex 3.1086244689504383e-15 -5.305758611213127 0.32142999999999994
  endloop
endfacet
facet normal -1.0 7.401486830834403e-15 -1.0011682681015612e-16
  outer loop
    vertex 3.1086244689504383e-15 -5.305758611213127 0.32142999999999994
    vertex -3.9968028886505635e-15 -6.205758611213122 1.800000000000001
    vertex 3.1086244689504383e-15 -5.305758611213127 1.800000000000001
  endloop
endfacet
facet normal -4.578239276804772e-16 1.0 2.147583896598479e-16
  outer loop
    vertex 0.05999999999999206 -7.018008611213123 1.800000000000001
    vertex 3.939999999999986 -7.018008611213121 0.42143000000000014
    vertex 0.05999999999999206 -7.018008611213123 0.42143000000000014
  endloop
endfacet
facet normal -4.578239276804772e-16 1.0 2.147583896598479e-16
  outer loop
    vertex 3.939999999999986 -7.018008611213121 0.42143000000000014
    vertex 0.05999999999999206 -7.018008611213123 1.800000000000001
    vertex 3.939999999999986 -7.018008611213121 1.800000000000001
  endloop
endfacet
facet normal 0.76669888474856 1.944691328139429e-14 -0.6420068692197263
  outer loop
    vertex 1.6196867744563206 -5.393508611213125 1.15592255742045
    vertex 1.6951056152728499 -5.305758611213119 1.2459894148254815
    vertex 1.6951056152728543 -5.393508611213128 1.2459894148254815
  endloop
endfacet
facet normal 0.76669888474856 1.944691328139429e-14 -0.6420068692197263
  outer loop
    vertex 1.6951056152728499 -5.305758611213119 1.2459894148254815
    vertex 1.6196867744563206 -5.393508611213125 1.15592255742045
    vertex 1.6196867744563206 -5.305758611213118 1.15592255742045
  endloop
endfacet
facet normal -8.881784197001235e-16 -1.0 8.009346144812227e-16
  outer loop
    vertex 3.9999999999999916 -7.105758611213124 1.800000000000001
    vertex -1.021405182655144e-14 -7.105758611213121 0.32142999999999994
    vertex 3.9999999999999916 -7.105758611213124 0.32142999999999994
  endloop
endfacet
facet normal -8.881784197001235e-16 -1.0 8.009346144812227e-16
  outer loop
    vertex -1.021405182655144e-14 -7.105758611213121 0.32142999999999994
    vertex 3.9999999999999916 -7.105758611213124 1.800000000000001
    vertex -1.021405182655144e-14 -7.105758611213121 1.800000000000001
  endloop
endfacet
facet normal 1.0 -3.82717693930496e-15 -2.2549630914283894e-15
  outer loop
    vertex 0.05999999999999828 -5.393508611213129 0.42143000000000014
    vertex 0.05999999999999206 -7.018008611213123 1.800000000000001
    vertex 0.05999999999999206 -7.018008611213123 0.42143000000000014
  endloop
endfacet
facet normal 1.0 -3.82717693930496e-15 -2.2549630914283894e-15
  outer loop
    vertex 0.05999999999999206 -7.018008611213123 1.800000000000001
    vertex 0.05999999999999828 -5.393508611213129 0.42143000000000014
    vertex 0.060000000000004494 -6.205758611213124 1.800000000000001
  endloop
endfacet
facet normal 1.0 -3.82717693930496e-15 -2.2549630914283894e-15
  outer loop
    vertex 0.060000000000004494 -6.205758611213124 1.800000000000001
    vertex 0.05999999999999828 -5.393508611213129 0.42143000000000014
    vertex 0.05999999999999828 -5.393508611213129 1.800000000000001
  endloop
endfacet
facet normal -0.5744106489249688 -2.9360885152410485e-15 0.8185672888660994
  outer loop
    vertex 2.2076524528483947 -5.393508611213129 0.5155815158139903
    vertex 2.303812477010818 -5.305758611213118 0.5830595871113322
    vertex 2.207652452848392 -5.305758611213118 0.5155815158139903
  endloop
endfacet
facet normal -0.5744106489249688 -2.9360885152410485e-15 0.8185672888660994
  outer loop
    vertex 2.303812477010818 -5.305758611213118 0.5830595871113322
    vertex 2.2076524528483947 -5.393508611213129 0.5155815158139903
    vertex 2.3038124770108164 -5.393508611213119 0.5830595871113322
  endloop
endfacet
facet normal 0.9067378586063628 -9.188484664438751e-15 -0.4216947424025438
  outer loop
    vertex 1.5701487863518016 -5.393508611213122 1.049404821397362
    vertex 1.6196867744563206 -5.305758611213118 1.15592255742045
    vertex 1.6196867744563206 -5.393508611213125 1.15592255742045
  endloop
endfacet
facet normal 0.9067378586063628 -9.188484664438751e-15 -0.4216947424025438
  outer loop
    vertex 1.6196867744563206 -5.305758611213118 1.15592255742045
    vertex 1.5701487863518016 -5.393508611213122 1.049404821397362
    vertex 1.5701487863518033 -5.3057586112131245 1.049404821397362
  endloop
endfacet
facet normal 0.08817056974027819 -3.704380629732992e-15 -0.9961053913274813
  outer loop
    vertex 1.9016137002088835 -5.305758611213125 1.3537582522663467
    vertex 2.018629759610732 -5.393508611213127 1.3641159641270104
    vertex 1.9016137002088764 -5.393508611213119 1.3537582522663467
  endloop
endfacet
facet normal 0.08817056974027819 -3.704380629732992e-15 -0.9961053913274813
  outer loop
    vertex 2.018629759610732 -5.393508611213127 1.3641159641270104
    vertex 1.9016137002088835 -5.305758611213125 1.3537582522663467
    vertex 2.0186297596107345 -5.305758611213122 1.3641159641270104
  endloop
endfacet
facet normal 0.9393437005226579 1.4270291378030072e-14 0.3429772766356383
  outer loop
    vertex 1.6005160609874207 -5.393508611213118 0.706331094261847
    vertex 1.560225294843891 -5.30575861121312 0.816679155035452
    vertex 1.5602252948438964 -5.3935086112131225 0.816679155035452
  endloop
endfacet
facet normal 0.9393437005226579 1.4270291378030072e-14 0.3429772766356383
  outer loop
    vertex 1.560225294843891 -5.30575861121312 0.816679155035452
    vertex 1.6005160609874207 -5.393508611213118 0.706331094261847
    vertex 1.6005160609874234 -5.305758611213126 0.706331094261847
  endloop
endfacet
facet normal 0.42169474240253346 -4.259395861909353e-15 0.9067378586063677
  outer loop
    vertex 1.8645787257128794 -5.393508611213124 0.48521424117837725
    vertex 1.7580609896897967 -5.305758611213119 0.5347522292828919
    vertex 1.7580609896897914 -5.393508611213127 0.5347522292828919
  endloop
endfacet
facet normal 0.42169474240253346 -4.259395861909353e-15 0.9067378586063677
  outer loop
    vertex 1.7580609896897967 -5.305758611213119 0.5347522292828919
    vertex 1.8645787257128794 -5.393508611213124 0.48521424117837725
    vertex 1.8645787257128759 -5.305758611213121 0.48521424117837725
  endloop
endfacet
facet normal 0.0 0.0 -1.0
  outer loop
    vertex 3.1086244689504383e-15 -5.305758611213127 0.32142999999999994
    vertex 2.260651861068261 -6.181817849541143 0.32142999999999994
    vertex 2.2575 -6.205758611213126 0.32142999999999994
  endloop
endfacet
facet normal 0.0 0.0 -1.0
  outer loop
    vertex 2.260651861068261 -6.181817849541143 0.32142999999999994
    vertex 3.1086244689504383e-15 -5.305758611213127 0.32142999999999994
    vertex 2.2698926501499392 -6.159508611213125 0.32142999999999994
  endloop
endfacet
facet normal 0.0 0.0 -1.0
  outer loop
    vertex 2.2698926501499392 -6.159508611213125 0.32142999999999994
    vertex 3.1086244689504383e-15 -5.305758611213127 0.32142999999999994
    vertex 2.284592622740244 -6.14035123395337 0.32142999999999994
  endloop
endfacet
facet normal 0.0 0.0 -1.0
  outer loop
    vertex 2.284592622740244 -6.14035123395337 0.32142999999999994
    vertex 3.1086244689504383e-15 -5.305758611213127 0.32142999999999994
    vertex 2.30375 -6.125651261363065 0.32142999999999994
  endloop
endfacet
facet normal 0.0 0.0 -1.0
  outer loop
    vertex 2.30375 -6.125651261363065 0.32142999999999994
    vertex 3.1086244689504383e-15 -5.305758611213127 0.32142999999999994
    vertex 3.9999999999999916 -5.305758611213127 0.32142999999999994
  endloop
endfacet
facet normal 0.0 0.0 -1.0
  outer loop
    vertex 2.284592622740244 -6.14035123395337 0.32142999999999994
    vertex 2.30375 -6.125651261363065 0.32142999999999994
    vertex 2.2981562057204368 -6.129943530678976 0.32142999999999994
  endloop
endfacet
facet normal 0.0 0.0 -1.0
  outer loop
    vertex 2.30375 -6.125651261363065 0.32142999999999994
    vertex 3.9999999999999916 -5.305758611213127 0.32142999999999994
    vertex 2.3260592383280168 -6.116410472281387 0.32142999999999994
  endloop
endfacet
facet normal 0.0 0.0 -1.0
  outer loop
    vertex 2.3260592383280168 -6.116410472281387 0.32142999999999994
    vertex 3.9999999999999916 -5.305758611213127 0.32142999999999994
    vertex 2.35 -6.1132586112131255 0.32142999999999994
  endloop
endfacet
facet normal 0.0 0.0 -1.0
  outer loop
    vertex 2.35 -6.1132586112131255 0.32142999999999994
    vertex 3.9999999999999916 -5.305758611213127 0.32142999999999994
    vertex 2.3739407616719834 -6.116410472281387 0.32142999999999994
  endloop
endfacet
facet normal 0.0 0.0 -1.0
  outer loop
    vertex 2.3739407616719834 -6.116410472281387 0.32142999999999994
    vertex 3.9999999999999916 -5.305758611213127 0.32142999999999994
    vertex 2.39625 -6.125651261363065 0.32142999999999994
  endloop
endfacet
facet normal 0.0 0.0 -1.0
  outer loop
    vertex 2.39625 -6.125651261363065 0.32142999999999994
    vertex 3.9999999999999916 -5.305758611213127 0.32142999999999994
    vertex 2.415407377259756 -6.14035123395337 0.32142999999999994
  endloop
endfacet
facet normal 0.0 0.0 -1.0
  outer loop
    vertex 2.415407377259756 -6.14035123395337 0.32142999999999994
    vertex 3.9999999999999916 -5.305758611213127 0.32142999999999994
    vertex 2.4301073498500605 -6.159508611213126 0.32142999999999994
  endloop
endfacet
facet normal 0.0 0.0 -1.0
  outer loop
    vertex 2.4301073498500605 -6.159508611213126 0.32142999999999994
    vertex 3.9999999999999916 -5.305758611213127 0.32142999999999994
    vertex 2.439348138931739 -6.181817849541143 0.32142999999999994
  endloop
endfacet
facet normal 0.0 0.0 -1.0
  outer loop
    vertex 2.439348138931739 -6.181817849541143 0.32142999999999994
    vertex 3.9999999999999916 -5.305758611213127 0.32142999999999994
    vertex 2.4425 -6.205758611213126 0.32142999999999994
  endloop
endfacet
facet normal 0.0 0.0 -1.0
  outer loop
    vertex 3.1086244689504383e-15 -5.305758611213127 0.32142999999999994
    vertex 3.9999999999999916 -7.105758611213124 0.32142999999999994
    vertex -1.021405182655144e-14 -7.105758611213121 0.32142999999999994
  endloop
endfacet
facet normal 0.0 0.0 -1.0
  outer loop
    vertex 3.9999999999999916 -7.105758611213124 0.32142999999999994
    vertex 3.1086244689504383e-15 -5.305758611213127 0.32142999999999994
    vertex 2.30375 -6.285865961063187 0.32142999999999994
  endloop
endfacet
facet normal 0.0 0.0 -1.0
  outer loop
    vertex 2.30375 -6.285865961063187 0.32142999999999994
    vertex 3.1086244689504383e-15 -5.305758611213127 0.32142999999999994
    vertex 2.284592622740244 -6.271165988472881 0.32142999999999994
  endloop
endfacet
facet normal 0.0 0.0 -1.0
  outer loop
    vertex 2.284592622740244 -6.271165988472881 0.32142999999999994
    vertex 3.1086244689504383e-15 -5.305758611213127 0.32142999999999994
    vertex 2.2698926501499392 -6.2520086112131255 0.32142999999999994
  endloop
endfacet
facet normal 0.0 0.0 -1.0
  outer loop
    vertex 2.2698926501499392 -6.2520086112131255 0.32142999999999994
    vertex 3.1086244689504383e-15 -5.305758611213127 0.32142999999999994
    vertex 2.260651861068261 -6.229699372885109 0.32142999999999994
  endloop
endfacet
facet normal 0.0 0.0 -1.0
  outer loop
    vertex 2.260651861068261 -6.229699372885109 0.32142999999999994
    vertex 3.1086244689504383e-15 -5.305758611213127 0.32142999999999994
    vertex 2.2575 -6.205758611213126 0.32142999999999994
  endloop
endfacet
facet normal 0.0 0.0 -1.0
  outer loop
    vertex 3.9999999999999916 -7.105758611213124 0.32142999999999994
    vertex 2.30375 -6.285865961063187 0.32142999999999994
    vertex 2.3260592383280168 -6.295106750144865 0.32142999999999994
  endloop
endfacet
facet normal 0.0 0.0 -1.0
  outer loop
    vertex 3.9999999999999916 -7.105758611213124 0.32142999999999994
    vertex 2.3260592383280168 -6.295106750144865 0.32142999999999994
    vertex 2.35 -6.298258611213126 0.32142999999999994
  endloop
endfacet
facet normal 0.0 0.0 -1.0
  outer loop
    vertex 3.9999999999999916 -7.105758611213124 0.32142999999999994
    vertex 2.35 -6.298258611213126 0.32142999999999994
    vertex 2.3739407616719834 -6.295106750144865 0.32142999999999994
  endloop
endfacet
facet normal 0.0 0.0 -1.0
  outer loop
    vertex 3.9999999999999916 -7.105758611213124 0.32142999999999994
    vertex 2.3739407616719834 -6.295106750144865 0.32142999999999994
    vertex 2.39625 -6.285865961063187 0.32142999999999994
  endloop
endfacet
facet normal 0.0 0.0 -1.0
  outer loop
    vertex 3.9999999999999916 -7.105758611213124 0.32142999999999994
    vertex 2.39625 -6.285865961063187 0.32142999999999994
    vertex 2.415407377259756 -6.271165988472881 0.32142999999999994
  endloop
endfacet
facet normal 0.0 0.0 -1.0
  outer loop
    vertex 3.9999999999999916 -7.105758611213124 0.32142999999999994
    vertex 2.415407377259756 -6.271165988472881 0.32142999999999994
    vertex 2.4301073498500605 -6.252008611213126 0.32142999999999994
  endloop
endfacet
facet normal 0.0 0.0 -1.0
  outer loop
    vertex 3.9999999999999916 -7.105758611213124 0.32142999999999994
    vertex 2.4301073498500605 -6.252008611213126 0.32142999999999994
    vertex 2.4320155768978173 -6.247401743594345 0.32142999999999994
  endloop
endfacet
facet normal 0.0 0.0 -1.0
  outer loop
    vertex 3.9999999999999916 -7.105758611213124 0.32142999999999994
    vertex 2.4320155768978173 -6.247401743594345 0.32142999999999994
    vertex 2.439348138931739 -6.229699372885109 0.32142999999999994
  endloop
endfacet
facet normal 0.0 0.0 -1.0
  outer loop
    vertex 3.9999999999999916 -7.105758611213124 0.32142999999999994
    vertex 2.439348138931739 -6.229699372885109 0.32142999999999994
    vertex 2.4425 -6.205758611213126 0.32142999999999994
  endloop
endfacet
facet normal 0.0 0.0 -1.0
  outer loop
    vertex 3.9999999999999916 -7.105758611213124 0.32142999999999994
    vertex 2.4425 -6.205758611213126 0.32142999999999994
    vertex 3.9999999999999916 -5.305758611213127 0.32142999999999994
  endloop
endfacet
facet normal -0.9849841458553154 1.494722937492765e-14 0.1726448157741064
  outer loop
    vertex 2.4490505093004336 -5.393508611213118 0.8953537874995059
    vertex 2.428769305931861 -5.3057586112131245 0.7796441805394532
    vertex 2.428769305931861 -5.393508611213124 0.7796441805394532
  endloop
endfacet
facet normal -0.9849841458553154 1.494722937492765e-14 0.1726448157741064
  outer loop
    vertex 2.428769305931861 -5.3057586112131245 0.7796441805394532
    vertex 2.4490505093004336 -5.393508611213118 0.8953537874995059
    vertex 2.449050509300436 -5.305758611213126 0.8953537874995059
  endloop
endfacet
facet normal 0.3429772766355979 -1.9092454833600994e-14 -0.9393437005226727
  outer loop
    vertex 1.791265639435275 -5.305758611213135 1.3134674861228233
    vertex 1.9016137002088764 -5.393508611213119 1.3537582522663467
    vertex 1.7912656394352724 -5.3935086112131225 1.3134674861228233
  endloop
endfacet
facet normal 0.3429772766355979 -1.9092454833600994e-14 -0.9393437005226727
  outer loop
    vertex 1.9016137002088764 -5.393508611213119 1.3537582522663467
    vertex 1.791265639435275 -5.305758611213135 1.3134674861228233
    vertex 1.9016137002088835 -5.305758611213125 1.3537582522663467
  endloop
endfacet
facet normal -0.9393437005226666 1.9004372567255437e-14 -0.342977276635615
  outer loop
    vertex 2.3984020312962473 -5.393508611213125 1.1227179076749672
    vertex 2.4386927974397743 -5.305758611213123 1.0123698469013622
    vertex 2.4386927974397734 -5.393508611213126 1.0123698469013622
  endloop
endfacet
facet normal -0.9393437005226666 1.9004372567255437e-14 -0.342977276635615
  outer loop
    vertex 2.4386927974397743 -5.305758611213123 1.0123698469013622
    vertex 2.3984020312962473 -5.393508611213125 1.1227179076749672
    vertex 2.39840203129625 -5.305758611213127 1.1227179076749672
  endloop
endfacet
facet normal 0.9961053913274833 1.5126427390974416e-14 0.08817056974025773
  outer loop
    vertex 1.5602252948438964 -5.3935086112131225 0.816679155035452
    vertex 1.5498675829832336 -5.305758611213119 0.9336952144373083
    vertex 1.549867582983231 -5.393508611213124 0.9336952144373083
  endloop
endfacet
facet normal 0.9961053913274833 1.5126427390974416e-14 0.08817056974025773
  outer loop
    vertex 1.5498675829832336 -5.305758611213119 0.9336952144373083
    vertex 1.5602252948438964 -5.3935086112131225 0.816679155035452
    vertex 1.560225294843891 -5.30575861121312 0.816679155035452
  endloop
endfacet
facet normal 0.17264481577410648 2.6179149851370333e-15 0.9849841458553154
  outer loop
    vertex 1.8645787257128794 -5.393508611213124 0.48521424117837725
    vertex 1.9802883326729295 -5.305758611213127 0.4649330378098037
    vertex 1.8645787257128759 -5.305758611213121 0.48521424117837725
  endloop
endfacet
facet normal 0.17264481577410648 2.6179149851370333e-15 0.9849841458553154
  outer loop
    vertex 1.9802883326729295 -5.305758611213127 0.4649330378098037
    vertex 1.8645787257128794 -5.393508611213124 0.48521424117837725
    vertex 1.9802883326729286 -5.39350861121312 0.4649330378098037
  endloop
endfacet
facet normal -0.17264481577410207 8.734452241654526e-15 -0.984984145855316
  outer loop
    vertex 2.0186297596107345 -5.305758611213122 1.3641159641270104
    vertex 2.1343393665707833 -5.393508611213121 1.343834760758437
    vertex 2.018629759610732 -5.393508611213127 1.3641159641270104
  endloop
endfacet
facet normal -0.17264481577410207 8.734452241654526e-15 -0.984984145855316
  outer loop
    vertex 2.1343393665707833 -5.393508611213121 1.343834760758437
    vertex 2.0186297596107345 -5.305758611213122 1.3641159641270104
    vertex 2.1343393665707895 -5.305758611213123 1.343834760758437
  endloop
endfacet
facet normal 0.8185672888661145 -2.0511191106219926e-15 0.5744106489249473
  outer loop
    vertex 1.6679941322847602 -5.3057586112131245 0.6101710700994216
    vertex 1.6005160609874207 -5.393508611213118 0.706331094261847
    vertex 1.6679941322847625 -5.393508611213126 0.6101710700994216
  endloop
endfacet
facet normal 0.8185672888661145 -2.0511191106219926e-15 0.5744106489249473
  outer loop
    vertex 1.6005160609874207 -5.393508611213118 0.706331094261847
    vertex 1.6679941322847602 -5.3057586112131245 0.6101710700994216
    vertex 1.6005160609874234 -5.305758611213126 0.706331094261847
  endloop
endfacet
facet normal -0.7666988847485633 -5.30587071109561e-19 0.642006869219722
  outer loop
    vertex 2.3792313178273474 -5.305758611213118 0.6731264445163643
    vertex 2.3038124770108164 -5.393508611213119 0.5830595871113322
    vertex 2.379231317827349 -5.3935086112131225 0.6731264445163643
  endloop
endfacet
facet normal -0.7666988847485633 -5.30587071109561e-19 0.642006869219722
  outer loop
    vertex 2.3038124770108164 -5.393508611213119 0.5830595871113322
    vertex 2.3792313178273474 -5.305758611213118 0.6731264445163643
    vertex 2.303812477010818 -5.305758611213118 0.5830595871113322
  endloop
endfacet
facet normal 0.0 0.0 1.0
  outer loop
    vertex 0.060000000000004494 -6.205758611213124 1.800000000000001
    vertex 3.1086244689504383e-15 -5.305758611213127 1.800000000000001
    vertex -3.9968028886505635e-15 -6.205758611213122 1.800000000000001
  endloop
endfacet
facet normal 0.0 0.0 1.0
  outer loop
    vertex 3.1086244689504383e-15 -5.305758611213127 1.800000000000001
    vertex 0.060000000000004494 -6.205758611213124 1.800000000000001
    vertex 0.05999999999999828 -5.393508611213129 1.800000000000001
  endloop
endfacet
facet normal 0.0 0.0 1.0
  outer loop
    vertex 0.05999999999999828 -5.393508611213129 1.800000000000001
    vertex 1.999999999999996 -5.305758611213123 1.800000000000001
    vertex 3.1086244689504383e-15 -5.305758611213127 1.800000000000001
  endloop
endfacet
facet normal 0.0 0.0 1.0
  outer loop
    vertex 1.999999999999996 -5.305758611213123 1.800000000000001
    vertex 0.05999999999999828 -5.393508611213129 1.800000000000001
    vertex 1.9999999999999978 -5.393508611213123 1.800000000000001
  endloop
endfacet
facet normal -0.9961053913274835 2.0167647099138076e-14 -0.08817056974025397
  outer loop
    vertex 2.4386927974397743 -5.305758611213123 1.0123698469013622
    vertex 2.4490505093004336 -5.393508611213118 0.8953537874995059
    vertex 2.4386927974397734 -5.393508611213126 1.0123698469013622
  endloop
endfacet
facet normal -0.9961053913274835 2.0167647099138076e-14 -0.08817056974025397
  outer loop
    vertex 2.4490505093004336 -5.393508611213118 0.8953537874995059
    vertex 2.4386927974397743 -5.305758611213123 1.0123698469013622
    vertex 2.449050509300436 -5.305758611213126 0.8953537874995059
  endloop
endfacet
facet normal -0.421694742402503 1.4934948279307337e-14 -0.9067378586063818
  outer loop
    vertex 2.1343393665707895 -5.305758611213123 1.343834760758437
    vertex 2.2408571025938793 -5.393508611213131 1.2942967726539225
    vertex 2.1343393665707833 -5.393508611213121 1.343834760758437
  endloop
endfacet
facet normal -0.421694742402503 1.4934948279307337e-14 -0.9067378586063818
  outer loop
    vertex 2.2408571025938793 -5.393508611213131 1.2942967726539225
    vertex 2.1343393665707895 -5.305758611213123 1.343834760758437
    vertex 2.2408571025938793 -5.305758611213122 1.2942967726539225
  endloop
endfacet
facet normal -0.8185672888661005 -3.3092311846397777e-14 -0.5744106489249673
  outer loop
    vertex 2.330923959998901 -5.305758611213118 1.2188779318373923
    vertex 2.3984020312962473 -5.393508611213125 1.1227179076749672
    vertex 2.330923959998911 -5.393508611213131 1.2188779318373923
  endloop
endfacet
facet normal -0.8185672888661005 -3.3092311846397777e-14 -0.5744106489249673
  outer loop
    vertex 2.3984020312962473 -5.393508611213125 1.1227179076749672
    vertex 2.330923959998901 -5.305758611213118 1.2188779318373923
    vertex 2.39840203129625 -5.305758611213127 1.1227179076749672
  endloop
endfacet
facet normal -0.14731916624517594 2.2394820351407887e-15 -0.9890890067414693
  outer loop
    vertex 2.0019121514716987 -5.3057586112131245 1.6272107868412595
    vertex 2.0310287886560565 -5.393508611213119 1.6228740298005615
    vertex 2.001912151471696 -5.393508611213121 1.6272107868412595
  endloop
endfacet
facet normal -0.14731916624517594 2.2394820351407887e-15 -0.9890890067414693
  outer loop
    vertex 2.0310287886560565 -5.393508611213119 1.6228740298005615
    vertex 2.0019121514716987 -5.3057586112131245 1.6272107868412595
    vertex 2.0310287886560565 -5.305758611213119 1.6228740298005615
  endloop
endfacet
facet normal -0.3982944596297646 4.029501147067582e-15 -0.9172576101773339
  outer loop
    vertex 2.058030865171005 -5.305758611213126 1.611149103939959
    vertex 2.0310287886560565 -5.393508611213119 1.6228740298005615
    vertex 2.0310287886560565 -5.305758611213119 1.6228740298005615
  endloop
endfacet
facet normal -0.3982944596297646 4.029501147067582e-15 -0.9172576101773339
  outer loop
    vertex 2.0310287886560565 -5.393508611213119 1.6228740298005615
    vertex 2.058030865171005 -5.305758611213126 1.611149103939959
    vertex 2.0580308651710033 -5.3935086112131225 1.611149103939959
  endloop
endfacet
facet normal -0.6221266438034042 9.447770370215805e-15 -0.782916623319439
  outer loop
    vertex 2.058030865171005 -5.305758611213126 1.611149103939959
    vertex 2.081078234125083 -5.393508611213128 1.5928350435804948
    vertex 2.0580308651710033 -5.3935086112131225 1.611149103939959
  endloop
endfacet
facet normal -0.6221266438034042 9.447770370215805e-15 -0.782916623319439
  outer loop
    vertex 2.081078234125083 -5.393508611213128 1.5928350435804948
    vertex 2.058030865171005 -5.305758611213126 1.611149103939959
    vertex 2.081078234125084 -5.3057586112131245 1.5928350435804948
  endloop
endfacet
facet normal -0.8035619253146394 2.8468972178704384e-14 -0.5952211624132917
  outer loop
    vertex 2.081078234125084 -5.3057586112131245 1.5928350435804948
    vertex 2.098600255411655 -5.3935086112131225 1.5691799216702504
    vertex 2.081078234125083 -5.393508611213128 1.5928350435804948
  endloop
endfacet
facet normal -0.8035619253146394 2.8468972178704384e-14 -0.5952211624132917
  outer loop
    vertex 2.098600255411655 -5.3935086112131225 1.5691799216702504
    vertex 2.081078234125084 -5.3057586112131245 1.5928350435804948
    vertex 2.0986002554116605 -5.305758611213129 1.5691799216702504
  endloop
endfacet
facet normal -0.9302357895646135 2.824643844740526e-14 -0.3669623629380814
  outer loop
    vertex 2.0986002554116605 -5.305758611213129 1.5691799216702504
    vertex 2.1094028322365523 -5.393508611213118 1.5417957956754718
    vertex 2.098600255411655 -5.3935086112131225 1.5691799216702504
  endloop
endfacet
facet normal -0.9302357895646135 2.824643844740526e-14 -0.3669623629380814
  outer loop
    vertex 2.1094028322365523 -5.393508611213118 1.5417957956754718
    vertex 2.0986002554116605 -5.305758611213129 1.5691799216702504
    vertex 2.1094028322365523 -5.305758611213123 1.5417957956754718
  endloop
endfacet
facet normal -0.9935156220430653 -1.0054072025493103e-14 -0.11369568486262496
  outer loop
    vertex 2.1094028322365523 -5.393508611213118 1.5417957956754718
    vertex 2.112749786841252 -5.305758611213123 1.5125488485282963
    vertex 2.112749786841254 -5.39350861121313 1.5125488485282963
  endloop
endfacet
facet normal -0.9935156220430653 -1.0054072025493103e-14 -0.11369568486262496
  outer loop
    vertex 2.112749786841252 -5.305758611213123 1.5125488485282963
    vertex 2.1094028322365523 -5.393508611213118 1.5417957956754718
    vertex 2.1094028322365523 -5.305758611213123 1.5417957956754718
  endloop
endfacet
facet normal -0.9890890067414777 -1.0011363481258666e-14 0.1473191662451191
  outer loop
    vertex 2.112749786841252 -5.305758611213123 1.5125488485282963
    vertex 2.108413029800557 -5.393508611213118 1.4834322113439375
    vertex 2.112749786841254 -5.39350861121313 1.5125488485282963
  endloop
endfacet
facet normal -0.9890890067414777 -1.0011363481258666e-14 0.1473191662451191
  outer loop
    vertex 2.108413029800557 -5.393508611213118 1.4834322113439375
    vertex 2.112749786841252 -5.305758611213123 1.5125488485282963
    vertex 2.108413029800557 -5.305758611213129 1.4834322113439375
  endloop
endfacet
facet normal -0.9172576101772969 4.635675351811683e-15 0.39829445962985033
  outer loop
    vertex 2.108413029800557 -5.393508611213118 1.4834322113439375
    vertex 2.0966881039399525 -5.305758611213122 1.4564301348289916
    vertex 2.0966881039399516 -5.393508611213122 1.4564301348289916
  endloop
endfacet
facet normal -0.9172576101772969 4.635675351811683e-15 0.39829445962985033
  outer loop
    vertex 2.0966881039399525 -5.305758611213122 1.4564301348289916
    vertex 2.108413029800557 -5.393508611213118 1.4834322113439375
    vertex 2.108413029800557 -5.305758611213129 1.4834322113439375
  endloop
endfacet
facet normal -0.782916623319508 2.7733975611110253e-14 0.6221266438033174
  outer loop
    vertex 2.0966881039399525 -5.305758611213122 1.4564301348289916
    vertex 2.0783740435804883 -5.393508611213122 1.433382765874911
    vertex 2.0966881039399516 -5.393508611213122 1.4564301348289916
  endloop
endfacet
facet normal -0.782916623319508 2.7733975611110253e-14 0.6221266438033174
  outer loop
    vertex 2.0783740435804883 -5.393508611213122 1.433382765874911
    vertex 2.0966881039399525 -5.305758611213122 1.4564301348289916
    vertex 2.0783740435804936 -5.3057586112131245 1.433382765874911
  endloop
endfacet
facet normal -0.5952211624132048 4.217305079621624e-14 0.8035619253147036
  outer loop
    vertex 2.0783740435804883 -5.393508611213122 1.433382765874911
    vertex 2.0547189216702466 -5.305758611213121 1.415860744588338
    vertex 2.0547189216702395 -5.393508611213125 1.415860744588338
  endloop
endfacet
facet normal -0.5952211624132048 4.217305079621624e-14 0.8035619253147036
  outer loop
    vertex 2.0547189216702466 -5.305758611213121 1.415860744588338
    vertex 2.0783740435804883 -5.393508611213122 1.433382765874911
    vertex 2.0783740435804936 -5.3057586112131245 1.433382765874911
  endloop
endfacet
facet normal -0.3669623629380917 3.715065172701211e-15 0.9302357895646096
  outer loop
    vertex 2.027334795675468 -5.393508611213127 1.4050581677634435
    vertex 2.0547189216702466 -5.305758611213121 1.415860744588338
    vertex 2.0273347956754626 -5.305758611213119 1.4050581677634435
  endloop
endfacet
facet normal -0.3669623629380917 3.715065172701211e-15 0.9302357895646096
  outer loop
    vertex 2.0547189216702466 -5.305758611213121 1.415860744588338
    vertex 2.027334795675468 -5.393508611213127 1.4050581677634435
    vertex 2.0547189216702395 -5.393508611213125 1.415860744588338
  endloop
endfacet
facet normal -0.11369568486264871 -5.707101088711742e-15 0.9935156220430624
  outer loop
    vertex 1.9980878485282934 -5.393508611213123 1.401711213158742
    vertex 2.0273347956754626 -5.305758611213119 1.4050581677634435
    vertex 1.9980878485282862 -5.305758611213117 1.401711213158742
  endloop
endfacet
facet normal -0.11369568486264871 -5.707101088711742e-15 0.9935156220430624
  outer loop
    vertex 2.0273347956754626 -5.305758611213119 1.4050581677634435
    vertex 1.9980878485282934 -5.393508611213123 1.401711213158742
    vertex 1.9999999999999978 -5.393508611213123 1.4019300354563624
  endloop
endfacet
facet normal -0.11369568486264871 -5.707101088711742e-15 0.9935156220430624
  outer loop
    vertex 2.0273347956754626 -5.305758611213119 1.4050581677634435
    vertex 1.9999999999999978 -5.393508611213123 1.4019300354563624
    vertex 2.027334795675468 -5.393508611213127 1.4050581677634435
  endloop
endfacet
facet normal 0.14731916624518474 8.202946460987022e-15 0.9890890067414679
  outer loop
    vertex 1.9689712113439337 -5.393508611213123 1.40604797019944
    vertex 1.9980878485282862 -5.305758611213117 1.401711213158742
    vertex 1.968971211343931 -5.305758611213121 1.40604797019944
  endloop
endfacet
facet normal 0.14731916624518474 8.202946460987022e-15 0.9890890067414679
  outer loop
    vertex 1.9980878485282862 -5.305758611213117 1.401711213158742
    vertex 1.9689712113439337 -5.393508611213123 1.40604797019944
    vertex 1.9980878485282934 -5.393508611213123 1.401711213158742
  endloop
endfacet
facet normal 0.3982944596298364 6.0495837582181195e-15 0.9172576101773029
  outer loop
    vertex 1.9689712113439337 -5.393508611213123 1.40604797019944
    vertex 1.9419691348289905 -5.3057586112131245 1.4177728960600424
    vertex 1.9419691348289905 -5.393508611213124 1.4177728960600424
  endloop
endfacet
facet normal 0.3982944596298364 6.0495837582181195e-15 0.9172576101773029
  outer loop
    vertex 1.9419691348289905 -5.3057586112131245 1.4177728960600424
    vertex 1.9689712113439337 -5.393508611213123 1.40604797019944
    vertex 1.968971211343931 -5.305758611213121 1.40604797019944
  endloop
endfacet
facet normal 0.6221266438033639 3.1508742127538167e-15 0.782916623319471
  outer loop
    vertex 1.918921765874908 -5.393508611213125 1.4360869564195076
    vertex 1.9419691348289905 -5.3057586112131245 1.4177728960600424
    vertex 1.9189217658749071 -5.305758611213118 1.4360869564195076
  endloop
endfacet
facet normal 0.6221266438033639 3.1508742127538167e-15 0.782916623319471
  outer loop
    vertex 1.9419691348289905 -5.3057586112131245 1.4177728960600424
    vertex 1.918921765874908 -5.393508611213125 1.4360869564195076
    vertex 1.9419691348289905 -5.393508611213124 1.4177728960600424
  endloop
endfacet
facet normal 0.8035619253146105 2.033156877099158e-14 0.5952211624133308
  outer loop
    vertex 1.9189217658749071 -5.305758611213118 1.4360869564195076
    vertex 1.9013997445883333 -5.393508611213124 1.459742078329752
    vertex 1.918921765874908 -5.393508611213125 1.4360869564195076
  endloop
endfacet
facet normal 0.8035619253146105 2.033156877099158e-14 0.5952211624133308
  outer loop
    vertex 1.9013997445883333 -5.393508611213124 1.459742078329752
    vertex 1.9189217658749071 -5.305758611213118 1.4360869564195076
    vertex 1.9013997445883297 -5.3057586112131165 1.459742078329752
  endloop
endfacet
facet normal 0.9302357895646302 2.8241656606334736e-14 0.3669623629380396
  outer loop
    vertex 1.9013997445883297 -5.3057586112131165 1.459742078329752
    vertex 1.8905971677634397 -5.393508611213124 1.4871262043245297
    vertex 1.9013997445883333 -5.393508611213124 1.459742078329752
  endloop
endfacet
facet normal 0.9302357895646302 2.8241656606334736e-14 0.3669623629380396
  outer loop
    vertex 1.8905971677634397 -5.393508611213124 1.4871262043245297
    vertex 1.9013997445883297 -5.3057586112131165 1.459742078329752
    vertex 1.890597167763438 -5.305758611213121 1.4871262043245297
  endloop
endfacet
facet normal 0.9935156220430618 2.011321350194324e-14 0.11369568486265472
  outer loop
    vertex 1.890597167763438 -5.305758611213121 1.4871262043245297
    vertex 1.887250213158738 -5.393508611213123 1.5163731514717051
    vertex 1.8905971677634397 -5.393508611213124 1.4871262043245297
  endloop
endfacet
facet normal 0.9935156220430618 2.011321350194324e-14 0.11369568486265472
  outer loop
    vertex 1.887250213158738 -5.393508611213123 1.5163731514717051
    vertex 1.890597167763438 -5.305758611213121 1.4871262043245297
    vertex 1.8872502131587363 -5.30575861121312 1.5163731514717051
  endloop
endfacet
facet normal 0.9890890067414777 3.0032235437198724e-14 -0.14731916624511912
  outer loop
    vertex 1.887250213158738 -5.393508611213123 1.5163731514717051
    vertex 1.8915869701994317 -5.305758611213125 1.545489788656064
    vertex 1.8915869701994352 -5.393508611213127 1.545489788656064
  endloop
endfacet
facet normal 0.9890890067414777 3.0032235437198724e-14 -0.14731916624511912
  outer loop
    vertex 1.8915869701994317 -5.305758611213125 1.545489788656064
    vertex 1.887250213158738 -5.393508611213123 1.5163731514717051
    vertex 1.8872502131587363 -5.30575861121312 1.5163731514717051
  endloop
endfacet
facet normal 0.9172576101772693 1.8577655230011867e-14 -0.39829445962991367
  outer loop
    vertex 1.8915869701994317 -5.305758611213125 1.545489788656064
    vertex 1.9033118960600404 -5.3935086112131225 1.5724918651710098
    vertex 1.8915869701994352 -5.393508611213127 1.545489788656064
  endloop
endfacet
facet normal 0.9172576101772693 1.8577655230011867e-14 -0.39829445962991367
  outer loop
    vertex 1.9033118960600404 -5.3935086112131225 1.5724918651710098
    vertex 1.8915869701994317 -5.305758611213125 1.545489788656064
    vertex 1.9033118960600404 -5.305758611213118 1.5724918651710098
  endloop
endfacet
facet normal 0.7829166233195154 -2.377150710105135e-14 -0.6221266438033082
  outer loop
    vertex 1.9033118960600404 -5.3935086112131225 1.5724918651710098
    vertex 1.9216259564195037 -5.305758611213119 1.5955392341250905
    vertex 1.9216259564194984 -5.393508611213124 1.5955392341250905
  endloop
endfacet
facet normal 0.7829166233195154 -2.377150710105135e-14 -0.6221266438033082
  outer loop
    vertex 1.9216259564195037 -5.305758611213119 1.5955392341250905
    vertex 1.9033118960600404 -5.3935086112131225 1.5724918651710098
    vertex 1.9033118960600404 -5.305758611213118 1.5724918651710098
  endloop
endfacet
facet normal 0.5952211624131469 -3.012048299688012e-14 -0.8035619253147465
  outer loop
    vertex 1.9216259564195037 -5.305758611213119 1.5955392341250905
    vertex 1.9452810783297507 -5.393508611213126 1.6130612554116635
    vertex 1.9216259564194984 -5.393508611213124 1.5955392341250905
  endloop
endfacet
facet normal 0.5952211624131469 -3.012048299688012e-14 -0.8035619253147465
  outer loop
    vertex 1.9452810783297507 -5.393508611213126 1.6130612554116635
    vertex 1.9216259564195037 -5.305758611213119 1.5955392341250905
    vertex 1.9452810783297543 -5.3057586112131245 1.6130612554116635
  endloop
endfacet
facet normal 0.3669623629381431 -1.486153500470129e-14 -0.9302357895645891
  outer loop
    vertex 1.9452810783297543 -5.3057586112131245 1.6130612554116635
    vertex 1.972665204324524 -5.393508611213118 1.623863832236558
    vertex 1.9452810783297507 -5.393508611213126 1.6130612554116635
  endloop
endfacet
facet normal 0.3669623629381431 -1.486153500470129e-14 -0.9302357895645891
  outer loop
    vertex 1.972665204324524 -5.393508611213118 1.623863832236558
    vertex 1.9452810783297543 -5.3057586112131245 1.6130612554116635
    vertex 1.9726652043245276 -5.305758611213118 1.623863832236558
  endloop
endfacet
facet normal 0.11369568486266514 -2.1173529734955857e-15 -0.9935156220430605
  outer loop
    vertex 1.9726652043245276 -5.305758611213118 1.623863832236558
    vertex 1.9999999999999978 -5.393508611213123 1.62699196454364
    vertex 1.972665204324524 -5.393508611213118 1.623863832236558
  endloop
endfacet
facet normal 0.11369568486266514 -2.1173529734955857e-15 -0.9935156220430605
  outer loop
    vertex 1.9999999999999978 -5.393508611213123 1.62699196454364
    vertex 1.9726652043245276 -5.305758611213118 1.623863832236558
    vertex 2.0019121514716987 -5.3057586112131245 1.6272107868412595
  endloop
endfacet
facet normal 0.11369568486266514 -2.1173529734955857e-15 -0.9935156220430605
  outer loop
    vertex 1.9999999999999978 -5.393508611213123 1.62699196454364
    vertex 2.0019121514716987 -5.3057586112131245 1.6272107868412595
    vertex 2.001912151471696 -5.393508611213121 1.6272107868412595
  endloop
endfacet
facet normal 0.0 0.0 1.0
  outer loop
    vertex 3.939999999999986 -7.018008611213121 0.42143000000000014
    vertex 0.05999999999999828 -5.393508611213129 0.42143000000000014
    vertex 0.05999999999999206 -7.018008611213123 0.42143000000000014
  endloop
endfacet
facet normal 0.0 0.0 1.0
  outer loop
    vertex 0.05999999999999828 -5.393508611213129 0.42143000000000014
    vertex 3.939999999999986 -7.018008611213121 0.42143000000000014
    vertex 1.9999999999999978 -5.393508611213123 0.42143000000000014
  endloop
endfacet
facet normal 0.0 0.0 1.0
  outer loop
    vertex 1.9999999999999978 -5.393508611213123 0.42143000000000014
    vertex 3.939999999999986 -7.018008611213121 0.42143000000000014
    vertex 3.939999999999986 -6.205758611213126 0.42143000000000014
  endloop
endfacet
facet normal 0.0 0.0 1.0
  outer loop
    vertex 1.9999999999999978 -5.393508611213123 0.42143000000000014
    vertex 3.939999999999986 -6.205758611213126 0.42143000000000014
    vertex 3.939999999999988 -5.393508611213119 0.42143000000000014
  endloop
endfacet
facet normal 0.0 0.0 -1.0
  outer loop
    vertex 2.260651861068261 -6.181817849541143 -0.29857000000000006
    vertex 2.260651861068261 -6.229699372885109 -0.29857000000000006
    vertex 2.2575 -6.205758611213126 -0.29857000000000006
  endloop
endfacet
facet normal 0.0 0.0 -1.0
  outer loop
    vertex 2.260651861068261 -6.229699372885109 -0.29857000000000006
    vertex 2.260651861068261 -6.181817849541143 -0.29857000000000006
    vertex 2.2698926501499392 -6.159508611213125 -0.29857000000000006
  endloop
endfacet
facet normal 0.0 0.0 -1.0
  outer loop
    vertex 2.260651861068261 -6.229699372885109 -0.29857000000000006
    vertex 2.2698926501499392 -6.159508611213125 -0.29857000000000006
    vertex 2.2698926501499392 -6.2520086112131255 -0.29857000000000006
  endloop
endfacet
facet normal 0.0 0.0 -1.0
  outer loop
    vertex 2.2698926501499392 -6.2520086112131255 -0.29857000000000006
    vertex 2.2698926501499392 -6.159508611213125 -0.29857000000000006
    vertex 2.284592622740244 -6.14035123395337 -0.29857000000000006
  endloop
endfacet
facet normal 0.0 0.0 -1.0
  outer loop
    vertex 2.2698926501499392 -6.2520086112131255 -0.29857000000000006
    vertex 2.284592622740244 -6.14035123395337 -0.29857000000000006
    vertex 2.284592622740244 -6.271165988472881 -0.29857000000000006
  endloop
endfacet
facet normal 0.0 0.0 -1.0
  outer loop
    vertex 2.284592622740244 -6.271165988472881 -0.29857000000000006
    vertex 2.284592622740244 -6.14035123395337 -0.29857000000000006
    vertex 2.2981562057204368 -6.129943530678976 -0.29857000000000006
  endloop
endfacet
facet normal 0.0 0.0 -1.0
  outer loop
    vertex 2.284592622740244 -6.271165988472881 -0.29857000000000006
    vertex 2.2981562057204368 -6.129943530678976 -0.29857000000000006
    vertex 2.30375 -6.285865961063187 -0.29857000000000006
  endloop
endfacet
facet normal 0.0 0.0 -1.0
  outer loop
    vertex 2.30375 -6.285865961063187 -0.29857000000000006
    vertex 2.2981562057204368 -6.129943530678976 -0.29857000000000006
    vertex 2.30375 -6.125651261363065 -0.29857000000000006
  endloop
endfacet
facet normal 0.0 0.0 -1.0
  outer loop
    vertex 2.30375 -6.285865961063187 -0.29857000000000006
    vertex 2.30375 -6.125651261363065 -0.29857000000000006
    vertex 2.3260592383280168 -6.116410472281387 -0.29857000000000006
  endloop
endfacet
facet normal 0.0 0.0 -1.0
  outer loop
    vertex 2.30375 -6.285865961063187 -0.29857000000000006
    vertex 2.3260592383280168 -6.116410472281387 -0.29857000000000006
    vertex 2.3260592383280168 -6.295106750144865 -0.29857000000000006
  endloop
endfacet
facet normal 0.0 0.0 -1.0
  outer loop
    vertex 2.3260592383280168 -6.295106750144865 -0.29857000000000006
    vertex 2.3260592383280168 -6.116410472281387 -0.29857000000000006
    vertex 2.35 -6.1132586112131255 -0.29857000000000006
  endloop
endfacet
facet normal 0.0 0.0 -1.0
  outer loop
    vertex 2.3260592383280168 -6.295106750144865 -0.29857000000000006
    vertex 2.35 -6.1132586112131255 -0.29857000000000006
    vertex 2.35 -6.298258611213126 -0.29857000000000006
  endloop
endfacet
facet normal 0.0 0.0 -1.0
  outer loop
    vertex 2.35 -6.298258611213126 -0.29857000000000006
    vertex 2.35 -6.1132586112131255 -0.29857000000000006
    vertex 2.3739407616719834 -6.116410472281387 -0.29857000000000006
  endloop
endfacet
facet normal 0.0 0.0 -1.0
  outer loop
    vertex 2.35 -6.298258611213126 -0.29857000000000006
    vertex 2.3739407616719834 -6.116410472281387 -0.29857000000000006
    vertex 2.3739407616719834 -6.295106750144865 -0.29857000000000006
  endloop
endfacet
facet normal 0.0 0.0 -1.0
  outer loop
    vertex 2.3739407616719834 -6.295106750144865 -0.29857000000000006
    vertex 2.3739407616719834 -6.116410472281387 -0.29857000000000006
    vertex 2.39625 -6.125651261363065 -0.29857000000000006
  endloop
endfacet
facet normal 0.0 0.0 -1.0
  outer loop
    vertex 2.3739407616719834 -6.295106750144865 -0.29857000000000006
    vertex 2.39625 -6.125651261363065 -0.29857000000000006
    vertex 2.39625 -6.285865961063187 -0.29857000000000006
  endloop
endfacet
facet normal 0.0 0.0 -1.0
  outer loop
    vertex 2.39625 -6.285865961063187 -0.29857000000000006
    vertex 2.39625 -6.125651261363065 -0.29857000000000006
    vertex 2.415407377259756 -6.14035123395337 -0.29857000000000006
  endloop
endfacet
facet normal 0.0 0.0 -1.0
  outer loop
    vertex 2.39625 -6.285865961063187 -0.29857000000000006
    vertex 2.415407377259756 -6.14035123395337 -0.29857000000000006
    vertex 2.415407377259756 -6.271165988472881 -0.29857000000000006
  endloop
endfacet
facet normal 0.0 0.0 -1.0
  outer loop
    vertex 2.415407377259756 -6.271165988472881 -0.29857000000000006
    vertex 2.415407377259756 -6.14035123395337 -0.29857000000000006
    vertex 2.4301073498500605 -6.159508611213126 -0.29857000000000006
  endloop
endfacet
facet normal 0.0 0.0 -1.0
  outer loop
    vertex 2.415407377259756 -6.271165988472881 -0.29857000000000006
    vertex 2.4301073498500605 -6.159508611213126 -0.29857000000000006
    vertex 2.4301073498500605 -6.252008611213126 -0.29857000000000006
  endloop
endfacet
facet normal 0.0 0.0 -1.0
  outer loop
    vertex 2.4301073498500605 -6.252008611213126 -0.29857000000000006
    vertex 2.4301073498500605 -6.159508611213126 -0.29857000000000006
    vertex 2.439348138931739 -6.181817849541143 -0.29857000000000006
  endloop
endfacet
facet normal 0.0 0.0 -1.0
  outer loop
    vertex 2.4301073498500605 -6.252008611213126 -0.29857000000000006
    vertex 2.439348138931739 -6.181817849541143 -0.29857000000000006
    vertex 2.4320155768978173 -6.247401743594345 -0.29857000000000006
  endloop
endfacet
facet normal 0.0 0.0 -1.0
  outer loop
    vertex 2.4320155768978173 -6.247401743594345 -0.29857000000000006
    vertex 2.439348138931739 -6.181817849541143 -0.29857000000000006
    vertex 2.439348138931739 -6.229699372885109 -0.29857000000000006
  endloop
endfacet
facet normal 0.0 0.0 -1.0
  outer loop
    vertex 2.439348138931739 -6.229699372885109 -0.29857000000000006
    vertex 2.439348138931739 -6.181817849541143 -0.29857000000000006
    vertex 2.4425 -6.205758611213126 -0.29857000000000006
  endloop
endfacet
facet normal -0.9914448613738109 0.1305261922200473 0.0
  outer loop
    vertex 2.260651861068261 -6.181817849541143 0.32142999999999994
    vertex 2.2575 -6.205758611213126 -0.29857000000000006
    vertex 2.2575 -6.205758611213126 0.32142999999999994
  endloop
endfacet
facet normal -0.9914448613738109 0.1305261922200473 0.0
  outer loop
    vertex 2.2575 -6.205758611213126 -0.29857000000000006
    vertex 2.260651861068261 -6.181817849541143 0.32142999999999994
    vertex 2.260651861068261 -6.181817849541143 -0.29857000000000006
  endloop
endfacet
facet normal 0.38268343236509444 0.9238795325112849 0.0
  outer loop
    vertex 2.3739407616719834 -6.116410472281387 0.32142999999999994
    vertex 2.39625 -6.125651261363065 -0.29857000000000006
    vertex 2.3739407616719834 -6.116410472281387 -0.29857000000000006
  endloop
endfacet
facet normal 0.38268343236509444 0.9238795325112849 0.0
  outer loop
    vertex 2.39625 -6.125651261363065 -0.29857000000000006
    vertex 2.3739407616719834 -6.116410472281387 0.32142999999999994
    vertex 2.39625 -6.125651261363065 0.32142999999999994
  endloop
endfacet
facet normal 0.38268343236509444 -0.9238795325112849 0.0
  outer loop
    vertex 2.39625 -6.285865961063187 0.32142999999999994
    vertex 2.3739407616719834 -6.295106750144865 -0.29857000000000006
    vertex 2.39625 -6.285865961063187 -0.29857000000000006
  endloop
endfacet
facet normal 0.38268343236509444 -0.9238795325112849 0.0
  outer loop
    vertex 2.3739407616719834 -6.295106750144865 -0.29857000000000006
    vertex 2.39625 -6.285865961063187 0.32142999999999994
    vertex 2.3739407616719834 -6.295106750144865 0.32142999999999994
  endloop
endfacet
facet normal 0.9238795325112699 -0.3826834323651309 0.0
  outer loop
    vertex 2.4320155768978173 -6.247401743594345 -0.29857000000000006
    vertex 2.4301073498500605 -6.252008611213126 0.32142999999999994
    vertex 2.4301073498500605 -6.252008611213126 -0.29857000000000006
  endloop
endfacet
facet normal 0.9238795325112699 -0.3826834323651309 0.0
  outer loop
    vertex 2.4301073498500605 -6.252008611213126 0.32142999999999994
    vertex 2.4320155768978173 -6.247401743594345 -0.29857000000000006
    vertex 2.4320155768978173 -6.247401743594345 0.32142999999999994
  endloop
endfacet
facet normal 0.6087614290087315 -0.7933533402912268 0.0
  outer loop
    vertex 2.415407377259756 -6.271165988472881 0.32142999999999994
    vertex 2.39625 -6.285865961063187 -0.29857000000000006
    vertex 2.415407377259756 -6.271165988472881 -0.29857000000000006
  endloop
endfacet
facet normal 0.6087614290087315 -0.7933533402912268 0.0
  outer loop
    vertex 2.39625 -6.285865961063187 -0.29857000000000006
    vertex 2.415407377259756 -6.271165988472881 0.32142999999999994
    vertex 2.39625 -6.285865961063187 0.32142999999999994
  endloop
endfacet
facet normal 0.13052619222004497 0.9914448613738114 0.0
  outer loop
    vertex 2.35 -6.1132586112131255 0.32142999999999994
    vertex 2.3739407616719834 -6.116410472281387 -0.29857000000000006
    vertex 2.35 -6.1132586112131255 -0.29857000000000006
  endloop
endfacet
facet normal 0.13052619222004497 0.9914448613738114 0.0
  outer loop
    vertex 2.3739407616719834 -6.116410472281387 -0.29857000000000006
    vertex 2.35 -6.1132586112131255 0.32142999999999994
    vertex 2.3739407616719834 -6.116410472281387 0.32142999999999994
  endloop
endfacet
facet normal 0.9238795325112849 0.38268343236509444 0.0
  outer loop
    vertex 2.4301073498500605 -6.159508611213126 -0.29857000000000006
    vertex 2.439348138931739 -6.181817849541143 0.32142999999999994
    vertex 2.439348138931739 -6.181817849541143 -0.29857000000000006
  endloop
endfacet
facet normal 0.9238795325112849 0.38268343236509444 0.0
  outer loop
    vertex 2.439348138931739 -6.181817849541143 0.32142999999999994
    vertex 2.4301073498500605 -6.159508611213126 -0.29857000000000006
    vertex 2.4301073498500605 -6.159508611213126 0.32142999999999994
  endloop
endfacet
facet normal -0.38268343236509444 0.9238795325112849 0.0
  outer loop
    vertex 2.30375 -6.125651261363065 0.32142999999999994
    vertex 2.3260592383280168 -6.116410472281387 -0.29857000000000006
    vertex 2.30375 -6.125651261363065 -0.29857000000000006
  endloop
endfacet
facet normal -0.38268343236509444 0.9238795325112849 0.0
  outer loop
    vertex 2.3260592383280168 -6.116410472281387 -0.29857000000000006
    vertex 2.30375 -6.125651261363065 0.32142999999999994
    vertex 2.3260592383280168 -6.116410472281387 0.32142999999999994
  endloop
endfacet
facet normal 0.9238795325112956 -0.38268343236506874 0.0
  outer loop
    vertex 2.439348138931739 -6.229699372885109 -0.29857000000000006
    vertex 2.4320155768978173 -6.247401743594345 0.32142999999999994
    vertex 2.4320155768978173 -6.247401743594345 -0.29857000000000006
  endloop
endfacet
facet normal 0.9238795325112956 -0.38268343236506874 0.0
  outer loop
    vertex 2.4320155768978173 -6.247401743594345 0.32142999999999994
    vertex 2.439348138931739 -6.229699372885109 -0.29857000000000006
    vertex 2.439348138931739 -6.229699372885109 0.32142999999999994
  endloop
endfacet
facet normal -0.9914448613738109 -0.1305261922200473 0.0
  outer loop
    vertex 2.2575 -6.205758611213126 0.32142999999999994
    vertex 2.260651861068261 -6.229699372885109 -0.29857000000000006
    vertex 2.260651861068261 -6.229699372885109 0.32142999999999994
  endloop
endfacet
facet normal -0.9914448613738109 -0.1305261922200473 0.0
  outer loop
    vertex 2.260651861068261 -6.229699372885109 -0.29857000000000006
    vertex 2.2575 -6.205758611213126 0.32142999999999994
    vertex 2.2575 -6.205758611213126 -0.29857000000000006
  endloop
endfacet
facet normal -0.13052619222004497 0.9914448613738114 0.0
  outer loop
    vertex 2.3260592383280168 -6.116410472281387 0.32142999999999994
    vertex 2.35 -6.1132586112131255 -0.29857000000000006
    vertex 2.3260592383280168 -6.116410472281387 -0.29857000000000006
  endloop
endfacet
facet normal -0.13052619222004497 0.9914448613738114 0.0
  outer loop
    vertex 2.35 -6.1132586112131255 -0.29857000000000006
    vertex 2.3260592383280168 -6.116410472281387 0.32142999999999994
    vertex 2.35 -6.1132586112131255 0.32142999999999994
  endloop
endfacet
facet normal -0.38268343236509444 -0.9238795325112849 0.0
  outer loop
    vertex 2.3260592383280168 -6.295106750144865 0.32142999999999994
    vertex 2.30375 -6.285865961063187 -0.29857000000000006
    vertex 2.3260592383280168 -6.295106750144865 -0.29857000000000006
  endloop
endfacet
facet normal -0.38268343236509444 -0.9238795325112849 0.0
  outer loop
    vertex 2.30375 -6.285865961063187 -0.29857000000000006
    vertex 2.3260592383280168 -6.295106750144865 0.32142999999999994
    vertex 2.30375 -6.285865961063187 0.32142999999999994
  endloop
endfacet
facet normal -0.6087614290087303 0.7933533402912277 0.0
  outer loop
    vertex 2.284592622740244 -6.14035123395337 0.32142999999999994
    vertex 2.2981562057204368 -6.129943530678976 -0.29857000000000006
    vertex 2.284592622740244 -6.14035123395337 -0.29857000000000006
  endloop
endfacet
facet normal -0.6087614290087303 0.7933533402912277 0.0
  outer loop
    vertex 2.2981562057204368 -6.129943530678976 -0.29857000000000006
    vertex 2.284592622740244 -6.14035123395337 0.32142999999999994
    vertex 2.2981562057204368 -6.129943530678976 0.32142999999999994
  endloop
endfacet
facet normal 0.13052619222004497 -0.9914448613738114 0.0
  outer loop
    vertex 2.3739407616719834 -6.295106750144865 0.32142999999999994
    vertex 2.35 -6.298258611213126 -0.29857000000000006
    vertex 2.3739407616719834 -6.295106750144865 -0.29857000000000006
  endloop
endfacet
facet normal 0.13052619222004497 -0.9914448613738114 0.0
  outer loop
    vertex 2.35 -6.298258611213126 -0.29857000000000006
    vertex 2.3739407616719834 -6.295106750144865 0.32142999999999994
    vertex 2.35 -6.298258611213126 0.32142999999999994
  endloop
endfacet
facet normal -0.9238795325112849 -0.38268343236509444 0.0
  outer loop
    vertex 2.260651861068261 -6.229699372885109 0.32142999999999994
    vertex 2.2698926501499392 -6.2520086112131255 -0.29857000000000006
    vertex 2.2698926501499392 -6.2520086112131255 0.32142999999999994
  endloop
endfacet
facet normal -0.9238795325112849 -0.38268343236509444 0.0
  outer loop
    vertex 2.2698926501499392 -6.2520086112131255 -0.29857000000000006
    vertex 2.260651861068261 -6.229699372885109 0.32142999999999994
    vertex 2.260651861068261 -6.229699372885109 -0.29857000000000006
  endloop
endfacet
facet normal -0.7933533402912221 0.6087614290087376 0.0
  outer loop
    vertex 2.284592622740244 -6.14035123395337 0.32142999999999994
    vertex 2.2698926501499392 -6.159508611213125 -0.29857000000000006
    vertex 2.2698926501499392 -6.159508611213125 0.32142999999999994
  endloop
endfacet
facet normal -0.7933533402912221 0.6087614290087376 0.0
  outer loop
    vertex 2.2698926501499392 -6.159508611213125 -0.29857000000000006
    vertex 2.284592622740244 -6.14035123395337 0.32142999999999994
    vertex 2.284592622740244 -6.14035123395337 -0.29857000000000006
  endloop
endfacet
facet normal 0.6087614290087315 0.7933533402912268 0.0
  outer loop
    vertex 2.39625 -6.125651261363065 0.32142999999999994
    vertex 2.415407377259756 -6.14035123395337 -0.29857000000000006
    vertex 2.39625 -6.125651261363065 -0.29857000000000006
  endloop
endfacet
facet normal 0.6087614290087315 0.7933533402912268 0.0
  outer loop
    vertex 2.415407377259756 -6.14035123395337 -0.29857000000000006
    vertex 2.39625 -6.125651261363065 0.32142999999999994
    vertex 2.415407377259756 -6.14035123395337 0.32142999999999994
  endloop
endfacet
facet normal 0.9914448613738109 0.1305261922200473 0.0
  outer loop
    vertex 2.439348138931739 -6.181817849541143 -0.29857000000000006
    vertex 2.4425 -6.205758611213126 0.32142999999999994
    vertex 2.4425 -6.205758611213126 -0.29857000000000006
  endloop
endfacet
facet normal 0.9914448613738109 0.1305261922200473 0.0
  outer loop
    vertex 2.4425 -6.205758611213126 0.32142999999999994
    vertex 2.439348138931739 -6.181817849541143 -0.29857000000000006
    vertex 2.439348138931739 -6.181817849541143 0.32142999999999994
  endloop
endfacet
facet normal 0.7933533402912447 0.6087614290087084 0.0
  outer loop
    vertex 2.415407377259756 -6.14035123395337 -0.29857000000000006
    vertex 2.4301073498500605 -6.159508611213126 0.32142999999999994
    vertex 2.4301073498500605 -6.159508611213126 -0.29857000000000006
  endloop
endfacet
facet normal 0.7933533402912447 0.6087614290087084 0.0
  outer loop
    vertex 2.4301073498500605 -6.159508611213126 0.32142999999999994
    vertex 2.415407377259756 -6.14035123395337 -0.29857000000000006
    vertex 2.415407377259756 -6.14035123395337 0.32142999999999994
  endloop
endfacet
facet normal -0.7933533402912357 -0.6087614290087199 0.0
  outer loop
    vertex 2.2698926501499392 -6.2520086112131255 0.32142999999999994
    vertex 2.284592622740244 -6.271165988472881 -0.29857000000000006
    vertex 2.284592622740244 -6.271165988472881 0.32142999999999994
  endloop
endfacet
facet normal -0.7933533402912357 -0.6087614290087199 0.0
  outer loop
    vertex 2.284592622740244 -6.271165988472881 -0.29857000000000006
    vertex 2.2698926501499392 -6.2520086112131255 0.32142999999999994
    vertex 2.2698926501499392 -6.2520086112131255 -0.29857000000000006
  endloop
endfacet
facet normal -0.6087614290087341 0.793353340291225 0.0
  outer loop
    vertex 2.2981562057204368 -6.129943530678976 0.32142999999999994
    vertex 2.30375 -6.125651261363065 -0.29857000000000006
    vertex 2.2981562057204368 -6.129943530678976 -0.29857000000000006
  endloop
endfacet
facet normal -0.6087614290087341 0.793353340291225 0.0
  outer loop
    vertex 2.30375 -6.125651261363065 -0.29857000000000006
    vertex 2.2981562057204368 -6.129943530678976 0.32142999999999994
    vertex 2.30375 -6.125651261363065 0.32142999999999994
  endloop
endfacet
facet normal -0.9238795325112903 0.3826834323650816 0.0
  outer loop
    vertex 2.2698926501499392 -6.159508611213125 0.32142999999999994
    vertex 2.260651861068261 -6.181817849541143 -0.29857000000000006
    vertex 2.260651861068261 -6.181817849541143 0.32142999999999994
  endloop
endfacet
facet normal -0.9238795325112903 0.3826834323650816 0.0
  outer loop
    vertex 2.260651861068261 -6.181817849541143 -0.29857000000000006
    vertex 2.2698926501499392 -6.159508611213125 0.32142999999999994
    vertex 2.2698926501499392 -6.159508611213125 -0.29857000000000006
  endloop
endfacet
facet normal 0.7933533402912312 -0.6087614290087261 0.0
  outer loop
    vertex 2.4301073498500605 -6.252008611213126 -0.29857000000000006
    vertex 2.415407377259756 -6.271165988472881 0.32142999999999994
    vertex 2.415407377259756 -6.271165988472881 -0.29857000000000006
  endloop
endfacet
facet normal 0.7933533402912312 -0.6087614290087261 0.0
  outer loop
    vertex 2.415407377259756 -6.271165988472881 0.32142999999999994
    vertex 2.4301073498500605 -6.252008611213126 -0.29857000000000006
    vertex 2.4301073498500605 -6.252008611213126 0.32142999999999994
  endloop
endfacet
facet normal -0.13052619222004497 -0.9914448613738114 0.0
  outer loop
    vertex 2.35 -6.298258611213126 0.32142999999999994
    vertex 2.3260592383280168 -6.295106750144865 -0.29857000000000006
    vertex 2.35 -6.298258611213126 -0.29857000000000006
  endloop
endfacet
facet normal -0.13052619222004497 -0.9914448613738114 0.0
  outer loop
    vertex 2.3260592383280168 -6.295106750144865 -0.29857000000000006
    vertex 2.35 -6.298258611213126 0.32142999999999994
    vertex 2.3260592383280168 -6.295106750144865 0.32142999999999994
  endloop
endfacet
facet normal 0.9914448613738109 -0.1305261922200473 0.0
  outer loop
    vertex 2.4425 -6.205758611213126 -0.29857000000000006
    vertex 2.439348138931739 -6.229699372885109 0.32142999999999994
    vertex 2.439348138931739 -6.229699372885109 -0.29857000000000006
  endloop
endfacet
facet normal 0.9914448613738109 -0.1305261922200473 0.0
  outer loop
    vertex 2.439348138931739 -6.229699372885109 0.32142999999999994
    vertex 2.4425 -6.205758611213126 -0.29857000000000006
    vertex 2.4425 -6.205758611213126 0.32142999999999994
  endloop
endfacet
facet normal -0.6087614290087315 -0.7933533402912268 0.0
  outer loop
    vertex 2.30375 -6.285865961063187 0.32142999999999994
    vertex 2.284592622740244 -6.271165988472881 -0.29857000000000006
    vertex 2.30375 -6.285865961063187 -0.29857000000000006
  endloop
endfacet
facet normal -0.6087614290087315 -0.7933533402912268 0.0
  outer loop
    vertex 2.284592622740244 -6.271165988472881 -0.29857000000000006
    vertex 2.30375 -6.285865961063187 0.32142999999999994
    vertex 2.284592622740244 -6.271165988472881 0.32142999999999994
  endloop
endfacet
facet normal 0.0 0.0 1.0
  outer loop
    vertex 3.9999999999999916 -6.205758611213124 1.800000000000001
    vertex 3.939999999999988 -5.393508611213119 1.800000000000001
    vertex 3.9399999999999933 -6.205758611213129 1.800000000000001
  endloop
endfacet
facet normal 2.0260338167542575e-15 -1.0 1.2366573775439455e-16
  outer loop
    vertex 1.9999999999999978 -5.393508611213123 0.42143000000000014
    vertex 1.9802883326729286 -5.39350861121312 0.4649330378098037
    vertex 0.05999999999999828 -5.393508611213129 0.42143000000000014
  endloop
endfacet
facet normal 2.0260338167542575e-15 -1.0 1.2366573775439455e-16
  outer loop
    vertex 1.9802883326729286 -5.39350861121312 0.4649330378098037
    vertex 1.9999999999999978 -5.393508611213123 0.42143000000000014
    vertex 1.9999999999999978 -5.393508611213123 0.4666778220002012
  endloop
endfacet
facet normal 2.0260338167542575e-15 -1.0 1.2366573775439455e-16
  outer loop
    vertex 3.939999999999988 -5.393508611213119 0.42143000000000014
    vertex 2.2076524528483947 -5.393508611213129 0.5155815158139903
    vertex 1.9999999999999978 -5.393508611213123 0.42143000000000014
  endloop
endfacet
facet normal 2.0260338167542575e-15 -1.0 1.2366573775439455e-16
  outer loop
    vertex 2.2076524528483947 -5.393508611213129 0.5155815158139903
    vertex 3.939999999999988 -5.393508611213119 0.42143000000000014
    vertex 2.3038124770108164 -5.393508611213119 0.5830595871113322
  endloop
endfacet
facet normal 2.0260338167542575e-15 -1.0 1.2366573775439455e-16
  outer loop
    vertex 2.3038124770108164 -5.393508611213119 0.5830595871113322
    vertex 3.939999999999988 -5.393508611213119 0.42143000000000014
    vertex 3.939999999999988 -5.393508611213119 1.800000000000001
  endloop
endfacet
facet normal 2.0260338167542575e-15 -1.0 1.2366573775439455e-16
  outer loop
    vertex 1.9999999999999978 -5.393508611213123 0.42143000000000014
    vertex 2.2076524528483947 -5.393508611213129 0.5155815158139903
    vertex 2.0973043920747876 -5.393508611213125 0.47529074967046675
  endloop
endfacet
facet normal 2.0260338167542575e-15 -1.0 1.2366573775439455e-16
  outer loop
    vertex 1.9999999999999978 -5.393508611213123 0.42143000000000014
    vertex 2.0973043920747876 -5.393508611213125 0.47529074967046675
    vertex 1.9999999999999978 -5.393508611213123 0.4666778220002012
  endloop
endfacet
facet normal 2.0260338167542575e-15 -1.0 1.2366573775439455e-16
  outer loop
    vertex 2.3038124770108164 -5.393508611213119 0.5830595871113322
    vertex 3.939999999999988 -5.393508611213119 1.800000000000001
    vertex 2.379231317827349 -5.3935086112131225 0.6731264445163643
  endloop
endfacet
facet normal 2.0260338167542575e-15 -1.0 1.2366573775439455e-16
  outer loop
    vertex 2.379231317827349 -5.3935086112131225 0.6731264445163643
    vertex 3.939999999999988 -5.393508611213119 1.800000000000001
    vertex 2.428769305931861 -5.393508611213124 0.7796441805394532
  endloop
endfacet
facet normal 2.0260338167542575e-15 -1.0 1.2366573775439455e-16
  outer loop
    vertex 2.428769305931861 -5.393508611213124 0.7796441805394532
    vertex 3.939999999999988 -5.393508611213119 1.800000000000001
    vertex 2.4490505093004336 -5.393508611213118 0.8953537874995059
  endloop
endfacet
facet normal 2.0260338167542575e-15 -1.0 1.2366573775439455e-16
  outer loop
    vertex 2.4490505093004336 -5.393508611213118 0.8953537874995059
    vertex 3.939999999999988 -5.393508611213119 1.800000000000001
    vertex 2.4386927974397734 -5.393508611213126 1.0123698469013622
  endloop
endfacet
facet normal 2.0260338167542575e-15 -1.0 1.2366573775439455e-16
  outer loop
    vertex 2.4386927974397734 -5.393508611213126 1.0123698469013622
    vertex 3.939999999999988 -5.393508611213119 1.800000000000001
    vertex 2.3984020312962473 -5.393508611213125 1.1227179076749672
  endloop
endfacet
facet normal 2.0260338167542575e-15 -1.0 1.2366573775439455e-16
  outer loop
    vertex 2.3984020312962473 -5.393508611213125 1.1227179076749672
    vertex 3.939999999999988 -5.393508611213119 1.800000000000001
    vertex 2.330923959998911 -5.393508611213131 1.2188779318373923
  endloop
endfacet
facet normal 2.0260338167542575e-15 -1.0 1.2366573775439455e-16
  outer loop
    vertex 2.330923959998911 -5.393508611213131 1.2188779318373923
    vertex 3.939999999999988 -5.393508611213119 1.800000000000001
    vertex 2.2408571025938793 -5.393508611213131 1.2942967726539225
  endloop
endfacet
facet normal 2.0260338167542575e-15 -1.0 1.2366573775439455e-16
  outer loop
    vertex 2.2408571025938793 -5.393508611213131 1.2942967726539225
    vertex 3.939999999999988 -5.393508611213119 1.800000000000001
    vertex 2.1343393665707833 -5.393508611213121 1.343834760758437
  endloop
endfacet
facet normal 2.0260338167542575e-15 -1.0 1.2366573775439455e-16
  outer loop
    vertex 2.1343393665707833 -5.393508611213121 1.343834760758437
    vertex 3.939999999999988 -5.393508611213119 1.800000000000001
    vertex 2.018629759610732 -5.393508611213127 1.3641159641270104
  endloop
endfacet
facet normal 2.0260338167542575e-15 -1.0 1.2366573775439455e-16
  outer loop
    vertex 2.018629759610732 -5.393508611213127 1.3641159641270104
    vertex 3.939999999999988 -5.393508611213119 1.800000000000001
    vertex 2.027334795675468 -5.393508611213127 1.4050581677634435
  endloop
endfacet
facet normal 2.0260338167542575e-15 -1.0 1.2366573775439455e-16
  outer loop
    vertex 2.018629759610732 -5.393508611213127 1.3641159641270104
    vertex 2.027334795675468 -5.393508611213127 1.4050581677634435
    vertex 1.9980878485282934 -5.393508611213123 1.401711213158742
  endloop
endfacet
facet normal 2.0260338167542575e-15 -1.0 1.2366573775439455e-16
  outer loop
    vertex 1.9980878485282934 -5.393508611213123 1.401711213158742
    vertex 2.027334795675468 -5.393508611213127 1.4050581677634435
    vertex 1.9999999999999978 -5.393508611213123 1.4019300354563624
  endloop
endfacet
facet normal 2.0260338167542575e-15 -1.0 1.2366573775439455e-16
  outer loop
    vertex 2.027334795675468 -5.393508611213127 1.4050581677634435
    vertex 3.939999999999988 -5.393508611213119 1.800000000000001
    vertex 2.0547189216702395 -5.393508611213125 1.415860744588338
  endloop
endfacet
facet normal 2.0260338167542575e-15 -1.0 1.2366573775439455e-16
  outer loop
    vertex 2.0547189216702395 -5.393508611213125 1.415860744588338
    vertex 3.939999999999988 -5.393508611213119 1.800000000000001
    vertex 2.0783740435804883 -5.393508611213122 1.433382765874911
  endloop
endfacet
facet normal 2.0260338167542575e-15 -1.0 1.2366573775439455e-16
  outer loop
    vertex 2.0783740435804883 -5.393508611213122 1.433382765874911
    vertex 3.939999999999988 -5.393508611213119 1.800000000000001
    vertex 2.0966881039399516 -5.393508611213122 1.4564301348289916
  endloop
endfacet
facet normal 2.0260338167542575e-15 -1.0 1.2366573775439455e-16
  outer loop
    vertex 2.0966881039399516 -5.393508611213122 1.4564301348289916
    vertex 3.939999999999988 -5.393508611213119 1.800000000000001
    vertex 2.108413029800557 -5.393508611213118 1.4834322113439375
  endloop
endfacet
facet normal 2.0260338167542575e-15 -1.0 1.2366573775439455e-16
  outer loop
    vertex 2.108413029800557 -5.393508611213118 1.4834322113439375
    vertex 3.939999999999988 -5.393508611213119 1.800000000000001
    vertex 2.112749786841254 -5.39350861121313 1.5125488485282963
  endloop
endfacet
facet normal 2.0260338167542575e-15 -1.0 1.2366573775439455e-16
  outer loop
    vertex 2.112749786841254 -5.39350861121313 1.5125488485282963
    vertex 3.939999999999988 -5.393508611213119 1.800000000000001
    vertex 2.1094028322365523 -5.393508611213118 1.5417957956754718
  endloop
endfacet
facet normal 2.0260338167542575e-15 -1.0 1.2366573775439455e-16
  outer loop
    vertex 2.1094028322365523 -5.393508611213118 1.5417957956754718
    vertex 3.939999999999988 -5.393508611213119 1.800000000000001
    vertex 2.098600255411655 -5.3935086112131225 1.5691799216702504
  endloop
endfacet
facet normal 2.0260338167542575e-15 -1.0 1.2366573775439455e-16
  outer loop
    vertex 2.098600255411655 -5.3935086112131225 1.5691799216702504
    vertex 3.939999999999988 -5.393508611213119 1.800000000000001
    vertex 2.081078234125083 -5.393508611213128 1.5928350435804948
  endloop
endfacet
facet normal 2.0260338167542575e-15 -1.0 1.2366573775439455e-16
  outer loop
    vertex 2.081078234125083 -5.393508611213128 1.5928350435804948
    vertex 3.939999999999988 -5.393508611213119 1.800000000000001
    vertex 2.0580308651710033 -5.3935086112131225 1.611149103939959
  endloop
endfacet
facet normal 2.0260338167542575e-15 -1.0 1.2366573775439455e-16
  outer loop
    vertex 2.0580308651710033 -5.3935086112131225 1.611149103939959
    vertex 3.939999999999988 -5.393508611213119 1.800000000000001
    vertex 2.0310287886560565 -5.393508611213119 1.6228740298005615
  endloop
endfacet
facet normal 2.0260338167542575e-15 -1.0 1.2366573775439455e-16
  outer loop
    vertex 2.0310287886560565 -5.393508611213119 1.6228740298005615
    vertex 3.939999999999988 -5.393508611213119 1.800000000000001
    vertex 2.001912151471696 -5.393508611213121 1.6272107868412595
  endloop
endfacet
facet normal 2.0260338167542575e-15 -1.0 1.2366573775439455e-16
  outer loop
    vertex 0.05999999999999828 -5.393508611213129 0.42143000000000014
    vertex 1.7580609896897914 -5.393508611213127 0.5347522292828919
    vertex 0.05999999999999828 -5.393508611213129 1.800000000000001
  endloop
endfacet
facet normal 2.0260338167542575e-15 -1.0 1.2366573775439455e-16
  outer loop
    vertex 1.7580609896897914 -5.393508611213127 0.5347522292828919
    vertex 0.05999999999999828 -5.393508611213129 0.42143000000000014
    vertex 1.8645787257128794 -5.393508611213124 0.48521424117837725
  endloop
endfacet
facet normal 2.0260338167542575e-15 -1.0 1.2366573775439455e-16
  outer loop
    vertex 1.8645787257128794 -5.393508611213124 0.48521424117837725
    vertex 0.05999999999999828 -5.393508611213129 0.42143000000000014
    vertex 1.9802883326729286 -5.39350861121312 0.4649330378098037
  endloop
endfacet
facet normal 2.0260338167542575e-15 -1.0 1.2366573775439455e-16
  outer loop
    vertex 0.05999999999999828 -5.393508611213129 1.800000000000001
    vertex 1.7580609896897914 -5.393508611213127 0.5347522292828919
    vertex 1.6679941322847625 -5.393508611213126 0.6101710700994216
  endloop
endfacet
facet normal 2.0260338167542575e-15 -1.0 1.2366573775439455e-16
  outer loop
    vertex 0.05999999999999828 -5.393508611213129 1.800000000000001
    vertex 1.6679941322847625 -5.393508611213126 0.6101710700994216
    vertex 1.6005160609874207 -5.393508611213118 0.706331094261847
  endloop
endfacet
facet normal 2.0260338167542575e-15 -1.0 1.2366573775439455e-16
  outer loop
    vertex 0.05999999999999828 -5.393508611213129 1.800000000000001
    vertex 1.6005160609874207 -5.393508611213118 0.706331094261847
    vertex 1.5602252948438964 -5.3935086112131225 0.816679155035452
  endloop
endfacet
facet normal 2.0260338167542575e-15 -1.0 1.2366573775439455e-16
  outer loop
    vertex 0.05999999999999828 -5.393508611213129 1.800000000000001
    vertex 1.5602252948438964 -5.3935086112131225 0.816679155035452
    vertex 1.549867582983231 -5.393508611213124 0.9336952144373083
  endloop
endfacet
facet normal 2.0260338167542575e-15 -1.0 1.2366573775439455e-16
  outer loop
    vertex 0.05999999999999828 -5.393508611213129 1.800000000000001
    vertex 1.549867582983231 -5.393508611213124 0.9336952144373083
    vertex 1.5701487863518016 -5.393508611213122 1.049404821397362
  endloop
endfacet
facet normal 2.0260338167542575e-15 -1.0 1.2366573775439455e-16
  outer loop
    vertex 0.05999999999999828 -5.393508611213129 1.800000000000001
    vertex 1.5701487863518016 -5.393508611213122 1.049404821397362
    vertex 1.6196867744563206 -5.393508611213125 1.15592255742045
  endloop
endfacet
facet normal 2.0260338167542575e-15 -1.0 1.2366573775439455e-16
  outer loop
    vertex 0.05999999999999828 -5.393508611213129 1.800000000000001
    vertex 1.6196867744563206 -5.393508611213125 1.15592255742045
    vertex 1.6951056152728543 -5.393508611213128 1.2459894148254815
  endloop
endfacet
facet normal 2.0260338167542575e-15 -1.0 1.2366573775439455e-16
  outer loop
    vertex 0.05999999999999828 -5.393508611213129 1.800000000000001
    vertex 1.6951056152728543 -5.393508611213128 1.2459894148254815
    vertex 1.7912656394352724 -5.3935086112131225 1.3134674861228233
  endloop
endfacet
facet normal 2.0260338167542575e-15 -1.0 1.2366573775439455e-16
  outer loop
    vertex 0.05999999999999828 -5.393508611213129 1.800000000000001
    vertex 1.7912656394352724 -5.3935086112131225 1.3134674861228233
    vertex 1.9016137002088764 -5.393508611213119 1.3537582522663467
  endloop
endfacet
facet normal 2.0260338167542575e-15 -1.0 1.2366573775439455e-16
  outer loop
    vertex 0.05999999999999828 -5.393508611213129 1.800000000000001
    vertex 1.9016137002088764 -5.393508611213119 1.3537582522663467
    vertex 2.018629759610732 -5.393508611213127 1.3641159641270104
  endloop
endfacet
facet normal 2.0260338167542575e-15 -1.0 1.2366573775439455e-16
  outer loop
    vertex 0.05999999999999828 -5.393508611213129 1.800000000000001
    vertex 2.018629759610732 -5.393508611213127 1.3641159641270104
    vertex 1.9689712113439337 -5.393508611213123 1.40604797019944
  endloop
endfacet
facet normal 2.0260338167542575e-15 -1.0 1.2366573775439455e-16
  outer loop
    vertex 1.9689712113439337 -5.393508611213123 1.40604797019944
    vertex 2.018629759610732 -5.393508611213127 1.3641159641270104
    vertex 1.9980878485282934 -5.393508611213123 1.401711213158742
  endloop
endfacet
facet normal 2.0260338167542575e-15 -1.0 1.2366573775439455e-16
  outer loop
    vertex 0.05999999999999828 -5.393508611213129 1.800000000000001
    vertex 1.9689712113439337 -5.393508611213123 1.40604797019944
    vertex 1.9419691348289905 -5.393508611213124 1.4177728960600424
  endloop
endfacet
facet normal 2.0260338167542575e-15 -1.0 1.2366573775439455e-16
  outer loop
    vertex 0.05999999999999828 -5.393508611213129 1.800000000000001
    vertex 1.9419691348289905 -5.393508611213124 1.4177728960600424
    vertex 1.918921765874908 -5.393508611213125 1.4360869564195076
  endloop
endfacet
facet normal 2.0260338167542575e-15 -1.0 1.2366573775439455e-16
  outer loop
    vertex 0.05999999999999828 -5.393508611213129 1.800000000000001
    vertex 1.918921765874908 -5.393508611213125 1.4360869564195076
    vertex 1.9013997445883333 -5.393508611213124 1.459742078329752
  endloop
endfacet
facet normal 2.0260338167542575e-15 -1.0 1.2366573775439455e-16
  outer loop
    vertex 0.05999999999999828 -5.393508611213129 1.800000000000001
    vertex 1.9013997445883333 -5.393508611213124 1.459742078329752
    vertex 1.8905971677634397 -5.393508611213124 1.4871262043245297
  endloop
endfacet
facet normal 2.0260338167542575e-15 -1.0 1.2366573775439455e-16
  outer loop
    vertex 0.05999999999999828 -5.393508611213129 1.800000000000001
    vertex 1.8905971677634397 -5.393508611213124 1.4871262043245297
    vertex 1.887250213158738 -5.393508611213123 1.5163731514717051
  endloop
endfacet
facet normal 2.0260338167542575e-15 -1.0 1.2366573775439455e-16
  outer loop
    vertex 0.05999999999999828 -5.393508611213129 1.800000000000001
    vertex 1.887250213158738 -5.393508611213123 1.5163731514717051
    vertex 1.8915869701994352 -5.393508611213127 1.545489788656064
  endloop
endfacet
facet normal 2.0260338167542575e-15 -1.0 1.2366573775439455e-16
  outer loop
    vertex 0.05999999999999828 -5.393508611213129 1.800000000000001
    vertex 1.8915869701994352 -5.393508611213127 1.545489788656064
    vertex 1.9033118960600404 -5.3935086112131225 1.5724918651710098
  endloop
endfacet
facet normal 2.0260338167542575e-15 -1.0 1.2366573775439455e-16
  outer loop
    vertex 0.05999999999999828 -5.393508611213129 1.800000000000001
    vertex 1.9033118960600404 -5.3935086112131225 1.5724918651710098
    vertex 1.9216259564194984 -5.393508611213124 1.5955392341250905
  endloop
endfacet
facet normal 2.0260338167542575e-15 -1.0 1.2366573775439455e-16
  outer loop
    vertex 0.05999999999999828 -5.393508611213129 1.800000000000001
    vertex 1.9216259564194984 -5.393508611213124 1.5955392341250905
    vertex 1.9452810783297507 -5.393508611213126 1.6130612554116635
  endloop
endfacet
facet normal 2.0260338167542575e-15 -1.0 1.2366573775439455e-16
  outer loop
    vertex 0.05999999999999828 -5.393508611213129 1.800000000000001
    vertex 1.9452810783297507 -5.393508611213126 1.6130612554116635
    vertex 1.972665204324524 -5.393508611213118 1.623863832236558
  endloop
endfacet
facet normal 2.0260338167542575e-15 -1.0 1.2366573775439455e-16
  outer loop
    vertex 0.05999999999999828 -5.393508611213129 1.800000000000001
    vertex 1.972665204324524 -5.393508611213118 1.623863832236558
    vertex 1.9999999999999978 -5.393508611213123 1.62699196454364
  endloop
endfacet
facet normal 2.0260338167542575e-15 -1.0 1.2366573775439455e-16
  outer loop
    vertex 0.05999999999999828 -5.393508611213129 1.800000000000001
    vertex 1.9999999999999978 -5.393508611213123 1.62699196454364
    vertex 2.001912151471696 -5.393508611213121 1.6272107868412595
  endloop
endfacet
facet normal 2.0260338167542575e-15 -1.0 1.2366573775439455e-16
  outer loop
    vertex 0.05999999999999828 -5.393508611213129 1.800000000000001
    vertex 2.001912151471696 -5.393508611213121 1.6272107868412595
    vertex 3.939999999999988 -5.393508611213119 1.800000000000001
  endloop
endfacet
facet normal 2.0260338167542575e-15 -1.0 1.2366573775439455e-16
  outer loop
    vertex 0.05999999999999828 -5.393508611213129 1.800000000000001
    vertex 3.939999999999988 -5.393508611213119 1.800000000000001
    vertex 1.9999999999999978 -5.393508611213123 1.800000000000001
  endloop
endfacet
facet normal -1.0 4.373916502062816e-15 2.577100675918166e-15
  outer loop
    vertex 3.9399999999999933 -6.205758611213129 1.800000000000001
    vertex 3.939999999999986 -7.018008611213121 0.42143000000000014
    vertex 3.939999999999986 -7.018008611213121 1.800000000000001
  endloop
endfacet
facet normal -1.0 4.373916502062816e-15 2.577100675918166e-15
  outer loop
    vertex 3.939999999999986 -7.018008611213121 0.42143000000000014
    vertex 3.9399999999999933 -6.205758611213129 1.800000000000001
    vertex 3.939999999999986 -6.205758611213126 0.42143000000000014
  endloop
endfacet
facet normal -1.0 -2.186958251031382e-15 2.577100675918158e-15
  outer loop
    vertex 3.939999999999988 -5.393508611213119 1.800000000000001
    vertex 3.939999999999986 -6.205758611213126 0.42143000000000014
    vertex 3.9399999999999933 -6.205758611213129 1.800000000000001
  endloop
endfacet
facet normal -1.0 -2.186958251031382e-15 2.577100675918158e-15
  outer loop
    vertex 3.939999999999986 -6.205758611213126 0.42143000000000014
    vertex 3.939999999999988 -5.393508611213119 1.800000000000001
    vertex 3.939999999999988 -5.393508611213119 0.42143000000000014
  endloop
endfacet
facet normal 0.0 0.0 1.0
  outer loop
    vertex 3.9999999999999916 -6.205758611213124 1.800000000000001
    vertex 3.9399999999999933 -6.205758611213129 1.800000000000001
    vertex 3.9999999999999916 -7.105758611213124 1.800000000000001
  endloop
endfacet
facet normal 0.0 0.0 1.0
  outer loop
    vertex 3.9999999999999916 -7.105758611213124 1.800000000000001
    vertex 3.9399999999999933 -6.205758611213129 1.800000000000001
    vertex 3.939999999999986 -7.018008611213121 1.800000000000001
  endloop
endfacet
facet normal 0.0 0.0 -1.0
  outer loop
    vertex 2.260651861068261 -6.181817849541143 0.32142999999999994
    vertex 2.260651861068261 -6.229699372885109 0.32142999999999994
    vertex 2.2575 -6.205758611213126 0.32142999999999994
  endloop
endfacet
facet normal 0.0 0.0 -1.0
  outer loop
    vertex 2.260651861068261 -6.229699372885109 0.32142999999999994
    vertex 2.260651861068261 -6.181817849541143 0.32142999999999994
    vertex 2.4320155768978173 -6.247401743594345 0.32142999999999994
  endloop
endfacet
facet normal 0.0 0.0 -1.0
  outer loop
    vertex 2.260651861068261 -6.229699372885109 0.32142999999999994
    vertex 2.4320155768978173 -6.247401743594345 0.32142999999999994
    vertex 2.2698926501499392 -6.2520086112131255 0.32142999999999994
  endloop
endfacet
facet normal 0.0 0.0 -1.0
  outer loop
    vertex 2.2698926501499392 -6.2520086112131255 0.32142999999999994
    vertex 2.4320155768978173 -6.247401743594345 0.32142999999999994
    vertex 2.284592622740244 -6.271165988472881 0.32142999999999994
  endloop
endfacet
facet normal 0.0 0.0 -1.0
  outer loop
    vertex 2.284592622740244 -6.271165988472881 0.32142999999999994
    vertex 2.4320155768978173 -6.247401743594345 0.32142999999999994
    vertex 2.30375 -6.285865961063187 0.32142999999999994
  endloop
endfacet
facet normal 0.0 0.0 -1.0
  outer loop
    vertex 2.30375 -6.285865961063187 0.32142999999999994
    vertex 2.4320155768978173 -6.247401743594345 0.32142999999999994
    vertex 2.3260592383280168 -6.295106750144865 0.32142999999999994
  endloop
endfacet
facet normal 0.0 0.0 -1.0
  outer loop
    vertex 2.3260592383280168 -6.295106750144865 0.32142999999999994
    vertex 2.4320155768978173 -6.247401743594345 0.32142999999999994
    vertex 2.35 -6.298258611213126 0.32142999999999994
  endloop
endfacet
facet normal 0.0 0.0 -1.0
  outer loop
    vertex 2.35 -6.298258611213126 0.32142999999999994
    vertex 2.4320155768978173 -6.247401743594345 0.32142999999999994
    vertex 2.3739407616719834 -6.295106750144865 0.32142999999999994
  endloop
endfacet
facet normal 0.0 0.0 -1.0
  outer loop
    vertex 2.3739407616719834 -6.295106750144865 0.32142999999999994
    vertex 2.4320155768978173 -6.247401743594345 0.32142999999999994
    vertex 2.39625 -6.285865961063187 0.32142999999999994
  endloop
endfacet
facet normal 0.0 0.0 -1.0
  outer loop
    vertex 2.39625 -6.285865961063187 0.32142999999999994
    vertex 2.4320155768978173 -6.247401743594345 0.32142999999999994
    vertex 2.415407377259756 -6.271165988472881 0.32142999999999994
  endloop
endfacet
facet normal 0.0 0.0 -1.0
  outer loop
    vertex 2.415407377259756 -6.271165988472881 0.32142999999999994
    vertex 2.4320155768978173 -6.247401743594345 0.32142999999999994
    vertex 2.4301073498500605 -6.252008611213126 0.32142999999999994
  endloop
endfacet
facet normal 0.0 0.0 -1.0
  outer loop
    vertex 2.2698926501499392 -6.159508611213125 0.32142999999999994
    vertex 2.4320155768978173 -6.247401743594345 0.32142999999999994
    vertex 2.260651861068261 -6.181817849541143 0.32142999999999994
  endloop
endfacet
facet normal 0.0 0.0 -1.0
  outer loop
    vertex 2.4320155768978173 -6.247401743594345 0.32142999999999994
    vertex 2.2698926501499392 -6.159508611213125 0.32142999999999994
    vertex 2.284592622740244 -6.14035123395337 0.32142999999999994
  endloop
endfacet
facet normal 0.0 0.0 -1.0
  outer loop
    vertex 2.4320155768978173 -6.247401743594345 0.32142999999999994
    vertex 2.284592622740244 -6.14035123395337 0.32142999999999994
    vertex 2.2981562057204368 -6.129943530678976 0.32142999999999994
  endloop
endfacet
facet normal 0.0 0.0 -1.0
  outer loop
    vertex 2.4320155768978173 -6.247401743594345 0.32142999999999994
    vertex 2.2981562057204368 -6.129943530678976 0.32142999999999994
    vertex 2.30375 -6.125651261363065 0.32142999999999994
  endloop
endfacet
facet normal 0.0 0.0 -1.0
  outer loop
    vertex 2.4320155768978173 -6.247401743594345 0.32142999999999994
    vertex 2.30375 -6.125651261363065 0.32142999999999994
    vertex 2.3260592383280168 -6.116410472281387 0.32142999999999994
  endloop
endfacet
facet normal 0.0 0.0 -1.0
  outer loop
    vertex 2.4320155768978173 -6.247401743594345 0.32142999999999994
    vertex 2.3260592383280168 -6.116410472281387 0.32142999999999994
    vertex 2.35 -6.1132586112131255 0.32142999999999994
  endloop
endfacet
facet normal 0.0 0.0 -1.0
  outer loop
    vertex 2.4320155768978173 -6.247401743594345 0.32142999999999994
    vertex 2.35 -6.1132586112131255 0.32142999999999994
    vertex 2.3739407616719834 -6.116410472281387 0.32142999999999994
  endloop
endfacet
facet normal 0.0 0.0 -1.0
  outer loop
    vertex 2.4320155768978173 -6.247401743594345 0.32142999999999994
    vertex 2.3739407616719834 -6.116410472281387 0.32142999999999994
    vertex 2.39625 -6.125651261363065 0.32142999999999994
  endloop
endfacet
facet normal 0.0 0.0 -1.0
  outer loop
    vertex 2.4320155768978173 -6.247401743594345 0.32142999999999994
    vertex 2.39625 -6.125651261363065 0.32142999999999994
    vertex 2.415407377259756 -6.14035123395337 0.32142999999999994
  endloop
endfacet
facet normal 0.0 0.0 -1.0
  outer loop
    vertex 2.4320155768978173 -6.247401743594345 0.32142999999999994
    vertex 2.415407377259756 -6.14035123395337 0.32142999999999994
    vertex 2.4301073498500605 -6.159508611213126 0.32142999999999994
  endloop
endfacet
facet normal 0.0 0.0 -1.0
  outer loop
    vertex 2.4320155768978173 -6.247401743594345 0.32142999999999994
    vertex 2.4301073498500605 -6.159508611213126 0.32142999999999994
    vertex 2.439348138931739 -6.181817849541143 0.32142999999999994
  endloop
endfacet
facet normal 0.0 0.0 -1.0
  outer loop
    vertex 2.4320155768978173 -6.247401743594345 0.32142999999999994
    vertex 2.439348138931739 -6.181817849541143 0.32142999999999994
    vertex 2.439348138931739 -6.229699372885109 0.32142999999999994
  endloop
endfacet
facet normal 0.0 0.0 -1.0
  outer loop
    vertex 2.439348138931739 -6.229699372885109 0.32142999999999994
    vertex 2.439348138931739 -6.181817849541143 0.32142999999999994
    vertex 2.4425 -6.205758611213126 0.32142999999999994
  endloop
endfacet
endsolid rail_models_v1
