solid rail_models_v2
facet normal 0.8660254037844397 -0.49999999999999817 0.0
  outer loop
    vertex 5.170219836351866 -6.290283553792213 0.42143
    vertex 5.146127572844274 -6.3320125782567 0.464458
    vertex 5.146127572844274 -6.3320125782567 0.42143
  endloop
endfacet
facet normal 0.8660254037844397 -0.49999999999999817 0.0
  outer loop
    vertex 5.146127572844274 -6.3320125782567 0.464458
    vertex 5.170219836351866 -6.290283553792213 0.42143
    vertex 5.170219836351866 -6.290283553792213 0.464458
  endloop
endfacet
facet normal 1.8432855414773166e-14 1.0 0.0
  outer loop
    vertex 4.975599736492412 -6.036649701590471 0.464458
    vertex 5.023784263507596 -6.036649701590472 0.42143
    vertex 4.975599736492412 -6.036649701590471 0.42143
  endloop
endfacet
facet normal 1.8432855414773166e-14 1.0 0.0
  outer loop
    vertex 5.023784263507596 -6.036649701590472 0.42143
    vertex 4.975599736492412 -6.036649701590471 0.464458
    vertex 5.023784263507596 -6.036649701590472 0.464458
  endloop
endfacet
facet normal -0.49999999999996847 0.866025403784457 0.0
  outer loop
    vertex 4.8873280329564315 -6.073213038368848 0.464458
    vertex 4.929057057420921 -6.049120774861256 0.42143
    vertex 4.8873280329564315 -6.073213038368848 0.42143
  endloop
endfacet
facet normal -0.49999999999996847 0.866025403784457 0.0
  outer loop
    vertex 4.929057057420921 -6.049120774861256 0.42143
    vertex 4.8873280329564315 -6.073213038368848 0.464458
    vertex 4.929057057420921 -6.049120774861256 0.464458
  endloop
endfacet
facet normal 0.8660254037844444 0.4999999999999902 0.0
  outer loop
    vertex 5.146127572844278 -6.107284644169558 0.42143
    vertex 5.17021983635187 -6.149013668634046 0.464458
    vertex 5.17021983635187 -6.149013668634046 0.42143
  endloop
endfacet
facet normal 0.8660254037844444 0.4999999999999902 0.0
  outer loop
    vertex 5.17021983635187 -6.149013668634046 0.464458
    vertex 5.146127572844278 -6.107284644169558 0.42143
    vertex 5.146127572844278 -6.107284644169558 0.464458
  endloop
endfacet
facet normal -0.2588190451024936 0.9659258262890756 0.0
  outer loop
    vertex 4.929057057420921 -6.049120774861256 0.464458
    vertex 4.975599736492412 -6.036649701590471 0.42143
    vertex 4.929057057420921 -6.049120774861256 0.42143
  endloop
endfacet
facet normal -0.2588190451024936 0.9659258262890756 0.0
  outer loop
    vertex 4.975599736492412 -6.036649701590471 0.42143
    vertex 4.929057057420921 -6.049120774861256 0.464458
    vertex 4.975599736492412 -6.036649701590471 0.464458
  endloop
endfacet
facet normal -0.9659258262890605 0.25881904510254977 0.0
  outer loop
    vertex 4.829164163648134 -6.149013668634039 0.464458
    vertex 4.8166930903773455 -6.195556347705529 0.42143
    vertex 4.8166930903773455 -6.195556347705529 0.464458
  endloop
endfacet
facet normal -0.9659258262890605 0.25881904510254977 0.0
  outer loop
    vertex 4.8166930903773455 -6.195556347705529 0.42143
    vertex 4.829164163648134 -6.149013668634039 0.464458
    vertex 4.829164163648134 -6.149013668634039 0.42143
  endloop
endfacet
facet normal 0.2588190451024936 -0.9659258262890756 0.0
  outer loop
    vertex 5.07032694257908 -6.390176447564995 0.464458
    vertex 5.023784263507589 -6.402647520835781 0.42143
    vertex 5.07032694257908 -6.390176447564995 0.42143
  endloop
endfacet
facet normal 0.2588190451024936 -0.9659258262890756 0.0
  outer loop
    vertex 5.023784263507589 -6.402647520835781 0.42143
    vertex 5.07032694257908 -6.390176447564995 0.464458
    vertex 5.023784263507589 -6.402647520835781 0.464458
  endloop
endfacet
facet normal 0.49999999999996847 -0.866025403784457 0.0
  outer loop
    vertex 5.1120559670435695 -6.366084184057404 0.464458
    vertex 5.07032694257908 -6.390176447564995 0.42143
    vertex 5.1120559670435695 -6.366084184057404 0.42143
  endloop
endfacet
facet normal 0.49999999999996847 -0.866025403784457 0.0
  outer loop
    vertex 5.07032694257908 -6.390176447564995 0.42143
    vertex 5.1120559670435695 -6.366084184057404 0.464458
    vertex 5.07032694257908 -6.390176447564995 0.464458
  endloop
endfacet
facet normal 0.258819045102528 0.9659258262890663 0.0
  outer loop
    vertex 5.023784263507596 -6.036649701590472 0.464458
    vertex 5.070326942579087 -6.049120774861259 0.42143
    vertex 5.023784263507596 -6.036649701590472 0.42143
  endloop
endfacet
facet normal 0.258819045102528 0.9659258262890663 0.0
  outer loop
    vertex 5.070326942579087 -6.049120774861259 0.42143
    vertex 5.023784263507596 -6.036649701590472 0.464458
    vertex 5.070326942579087 -6.049120774861259 0.464458
  endloop
endfacet
facet normal -1.8432855414772484e-14 -1.0 0.0
  outer loop
    vertex 5.023784263507589 -6.402647520835781 0.464458
    vertex 4.975599736492403 -6.40264752083578 0.42143
    vertex 5.023784263507589 -6.402647520835781 0.42143
  endloop
endfacet
facet normal -1.8432855414772484e-14 -1.0 0.0
  outer loop
    vertex 4.975599736492403 -6.40264752083578 0.42143
    vertex 5.023784263507589 -6.402647520835781 0.464458
    vertex 4.975599736492403 -6.40264752083578 0.464458
  endloop
endfacet
facet normal 0.9659258262890605 -0.25881904510254977 0.0
  outer loop
    vertex 5.1826909096226546 -6.243740874720722 0.42143
    vertex 5.170219836351866 -6.290283553792213 0.464458
    vertex 5.170219836351866 -6.290283553792213 0.42143
  endloop
endfacet
facet normal 0.9659258262890605 -0.25881904510254977 0.0
  outer loop
    vertex 5.170219836351866 -6.290283553792213 0.464458
    vertex 5.1826909096226546 -6.243740874720722 0.42143
    vertex 5.1826909096226546 -6.243740874720722 0.464458
  endloop
endfacet
facet normal -0.7071067811865382 0.7071067811865568 0.0
  outer loop
    vertex 4.853256427155727 -6.107284644169551 0.464458
    vertex 4.8873280329564315 -6.073213038368848 0.42143
    vertex 4.853256427155727 -6.107284644169551 0.42143
  endloop
endfacet
facet normal -0.7071067811865382 0.7071067811865568 0.0
  outer loop
    vertex 4.8873280329564315 -6.073213038368848 0.42143
    vertex 4.853256427155727 -6.107284644169551 0.464458
    vertex 4.8873280329564315 -6.073213038368848 0.464458
  endloop
endfacet
facet normal 0.7071067811865382 -0.7071067811865568 0.0
  outer loop
    vertex 5.146127572844274 -6.3320125782567 0.464458
    vertex 5.1120559670435695 -6.366084184057404 0.42143
    vertex 5.146127572844274 -6.3320125782567 0.42143
  endloop
endfacet
facet normal 0.7071067811865382 -0.7071067811865568 0.0
  outer loop
    vertex 5.1120559670435695 -6.366084184057404 0.42143
    vertex 5.146127572844274 -6.3320125782567 0.464458
    vertex 5.1120559670435695 -6.366084184057404 0.464458
  endloop
endfacet
facet normal -0.8660254037844317 0.500000000000012 0.0
  outer loop
    vertex 4.853256427155727 -6.107284644169551 0.464458
    vertex 4.829164163648134 -6.149013668634039 0.42143
    vertex 4.829164163648134 -6.149013668634039 0.464458
  endloop
endfacet
facet normal -0.8660254037844317 0.500000000000012 0.0
  outer loop
    vertex 4.829164163648134 -6.149013668634039 0.42143
    vertex 4.853256427155727 -6.107284644169551 0.464458
    vertex 4.853256427155727 -6.107284644169551 0.42143
  endloop
endfacet
facet normal -0.8660254037844524 -0.49999999999997646 0.0
  outer loop
    vertex 4.829164163648131 -6.2902835537922055 0.464458
    vertex 4.853256427155722 -6.332012578256694 0.42143
    vertex 4.853256427155722 -6.332012578256694 0.464458
  endloop
endfacet
facet normal -0.8660254037844524 -0.49999999999997646 0.0
  outer loop
    vertex 4.853256427155722 -6.332012578256694 0.42143
    vertex 4.829164163648131 -6.2902835537922055 0.464458
    vertex 4.829164163648131 -6.2902835537922055 0.42143
  endloop
endfacet
facet normal 0.5000000000000259 0.8660254037844237 0.0
  outer loop
    vertex 5.070326942579087 -6.049120774861259 0.464458
    vertex 5.112055967043575 -6.073213038368853 0.42143
    vertex 5.070326942579087 -6.049120774861259 0.42143
  endloop
endfacet
facet normal 0.5000000000000259 0.8660254037844237 0.0
  outer loop
    vertex 5.112055967043575 -6.073213038368853 0.42143
    vertex 5.070326942579087 -6.049120774861259 0.464458
    vertex 5.112055967043575 -6.073213038368853 0.464458
  endloop
endfacet
facet normal 0.0 0.0 1.0
  outer loop
    vertex 4.829164163648131 -6.2902835537922055 0.464458
    vertex 4.8166930903773455 -6.195556347705529 0.464458
    vertex 4.816693090377345 -6.243740874720714 0.464458
  endloop
endfacet
facet normal 0.0 0.0 1.0
  outer loop
    vertex 4.8166930903773455 -6.195556347705529 0.464458
    vertex 4.829164163648131 -6.2902835537922055 0.464458
    vertex 4.829164163648134 -6.149013668634039 0.464458
  endloop
endfacet
facet normal 0.0 0.0 1.0
  outer loop
    vertex 4.829164163648134 -6.149013668634039 0.464458
    vertex 4.829164163648131 -6.2902835537922055 0.464458
    vertex 4.853256427155722 -6.332012578256694 0.464458
  endloop
endfacet
facet normal 0.0 0.0 1.0
  outer loop
    vertex 4.829164163648134 -6.149013668634039 0.464458
    vertex 4.853256427155722 -6.332012578256694 0.464458
    vertex 4.853256427155727 -6.107284644169551 0.464458
  endloop
endfacet
facet normal 0.0 0.0 1.0
  outer loop
    vertex 4.853256427155727 -6.107284644169551 0.464458
    vertex 4.853256427155722 -6.332012578256694 0.464458
    vertex 4.887328032956425 -6.3660841840573985 0.464458
  endloop
endfacet
facet normal 0.0 0.0 1.0
  outer loop
    vertex 4.853256427155727 -6.107284644169551 0.464458
    vertex 4.887328032956425 -6.3660841840573985 0.464458
    vertex 4.8873280329564315 -6.073213038368848 0.464458
  endloop
endfacet
facet normal 0.0 0.0 1.0
  outer loop
    vertex 4.8873280329564315 -6.073213038368848 0.464458
    vertex 4.887328032956425 -6.3660841840573985 0.464458
    vertex 4.929057057420913 -6.3901764475649925 0.464458
  endloop
endfacet
facet normal 0.0 0.0 1.0
  outer loop
    vertex 4.8873280329564315 -6.073213038368848 0.464458
    vertex 4.929057057420913 -6.3901764475649925 0.464458
    vertex 4.929057057420921 -6.049120774861256 0.464458
  endloop
endfacet
facet normal 0.0 0.0 1.0
  outer loop
    vertex 4.929057057420921 -6.049120774861256 0.464458
    vertex 4.929057057420913 -6.3901764475649925 0.464458
    vertex 4.975599736492403 -6.40264752083578 0.464458
  endloop
endfacet
facet normal 0.0 0.0 1.0
  outer loop
    vertex 4.929057057420921 -6.049120774861256 0.464458
    vertex 4.975599736492403 -6.40264752083578 0.464458
    vertex 4.975599736492412 -6.036649701590471 0.464458
  endloop
endfacet
facet normal 0.0 0.0 1.0
  outer loop
    vertex 4.975599736492412 -6.036649701590471 0.464458
    vertex 4.975599736492403 -6.40264752083578 0.464458
    vertex 5.023784263507589 -6.402647520835781 0.464458
  endloop
endfacet
facet normal 0.0 0.0 1.0
  outer loop
    vertex 4.975599736492412 -6.036649701590471 0.464458
    vertex 5.023784263507589 -6.402647520835781 0.464458
    vertex 5.023784263507596 -6.036649701590472 0.464458
  endloop
endfacet
facet normal 0.0 0.0 1.0
  outer loop
    vertex 5.023784263507596 -6.036649701590472 0.464458
    vertex 5.023784263507589 -6.402647520835781 0.464458
    vertex 5.07032694257908 -6.390176447564995 0.464458
  endloop
endfacet
facet normal 0.0 0.0 1.0
  outer loop
    vertex 5.023784263507596 -6.036649701590472 0.464458
    vertex 5.07032694257908 -6.390176447564995 0.464458
    vertex 5.070326942579087 -6.049120774861259 0.464458
  endloop
endfacet
facet normal 0.0 0.0 1.0
  outer loop
    vertex 5.070326942579087 -6.049120774861259 0.464458
    vertex 5.07032694257908 -6.390176447564995 0.464458
    vertex 5.1120559670435695 -6.366084184057404 0.464458
  endloop
endfacet
facet normal 0.0 0.0 1.0
  outer loop
    vertex 5.070326942579087 -6.049120774861259 0.464458
    vertex 5.1120559670435695 -6.366084184057404 0.464458
    vertex 5.112055967043575 -6.073213038368853 0.464458
  endloop
endfacet
facet normal 0.0 0.0 1.0
  outer loop
    vertex 5.112055967043575 -6.073213038368853 0.464458
    vertex 5.1120559670435695 -6.366084184057404 0.464458
    vertex 5.146127572844274 -6.3320125782567 0.464458
  endloop
endfacet
facet normal 0.0 0.0 1.0
  outer loop
    vertex 5.112055967043575 -6.073213038368853 0.464458
    vertex 5.146127572844274 -6.3320125782567 0.464458
    vertex 5.146127572844278 -6.107284644169558 0.464458
  endloop
endfacet
facet normal 0.0 0.0 1.0
  outer loop
    vertex 5.146127572844278 -6.107284644169558 0.464458
    vertex 5.146127572844274 -6.3320125782567 0.464458
    vertex 5.170219836351866 -6.290283553792213 0.464458
  endloop
endfacet
facet normal 0.0 0.0 1.0
  outer loop
    vertex 5.146127572844278 -6.107284644169558 0.464458
    vertex 5.170219836351866 -6.290283553792213 0.464458
    vertex 5.17021983635187 -6.149013668634046 0.464458
  endloop
endfacet
facet normal 0.0 0.0 1.0
  outer loop
    vertex 5.17021983635187 -6.149013668634046 0.464458
    vertex 5.170219836351866 -6.290283553792213 0.464458
    vertex 5.1826909096226546 -6.243740874720722 0.464458
  endloop
endfacet
facet normal 0.0 0.0 1.0
  outer loop
    vertex 5.17021983635187 -6.149013668634046 0.464458
    vertex 5.1826909096226546 -6.243740874720722 0.464458
    vertex 5.182690909622656 -6.195556347705537 0.464458
  endloop
endfacet
facet normal -0.9659258262890711 -0.25881904510251075 0.0
  outer loop
    vertex 4.816693090377345 -6.243740874720714 0.464458
    vertex 4.829164163648131 -6.2902835537922055 0.42143
    vertex 4.829164163648131 -6.2902835537922055 0.464458
  endloop
endfacet
facet normal -0.9659258262890711 -0.25881904510251075 0.0
  outer loop
    vertex 4.829164163648131 -6.2902835537922055 0.42143
    vertex 4.816693090377345 -6.243740874720714 0.464458
    vertex 4.816693090377345 -6.243740874720714 0.42143
  endloop
endfacet
facet normal 0.9659258262890711 0.25881904510251075 0.0
  outer loop
    vertex 5.17021983635187 -6.149013668634046 0.42143
    vertex 5.182690909622656 -6.195556347705537 0.464458
    vertex 5.182690909622656 -6.195556347705537 0.42143
  endloop
endfacet
facet normal 0.9659258262890711 0.25881904510251075 0.0
  outer loop
    vertex 5.182690909622656 -6.195556347705537 0.464458
    vertex 5.17021983635187 -6.149013668634046 0.42143
    vertex 5.17021983635187 -6.149013668634046 0.464458
  endloop
endfacet
facet normal -1.0 1.8432855414772822e-14 0.0
  outer loop
    vertex 4.8166930903773455 -6.195556347705529 0.464458
    vertex 4.816693090377345 -6.243740874720714 0.42143
    vertex 4.816693090377345 -6.243740874720714 0.464458
  endloop
endfacet
facet normal -1.0 1.8432855414772822e-14 0.0
  outer loop
    vertex 4.816693090377345 -6.243740874720714 0.42143
    vertex 4.8166930903773455 -6.195556347705529 0.464458
    vertex 4.8166930903773455 -6.195556347705529 0.42143
  endloop
endfacet
facet normal -0.25881904510253256 -0.9659258262890651 0.0
  outer loop
    vertex 4.975599736492403 -6.40264752083578 0.464458
    vertex 4.929057057420913 -6.3901764475649925 0.42143
    vertex 4.975599736492403 -6.40264752083578 0.42143
  endloop
endfacet
facet normal -0.25881904510253256 -0.9659258262890651 0.0
  outer loop
    vertex 4.929057057420913 -6.3901764475649925 0.42143
    vertex 4.975599736492403 -6.40264752083578 0.464458
    vertex 4.929057057420913 -6.3901764475649925 0.464458
  endloop
endfacet
facet normal -0.5000000000000259 -0.8660254037844237 0.0
  outer loop
    vertex 4.929057057420913 -6.3901764475649925 0.464458
    vertex 4.887328032956425 -6.3660841840573985 0.42143
    vertex 4.929057057420913 -6.3901764475649925 0.42143
  endloop
endfacet
facet normal -0.5000000000000259 -0.8660254037844237 0.0
  outer loop
    vertex 4.887328032956425 -6.3660841840573985 0.42143
    vertex 4.929057057420913 -6.3901764475649925 0.464458
    vertex 4.887328032956425 -6.3660841840573985 0.464458
  endloop
endfacet
facet normal 0.707106781186566 0.7071067811865291 0.0
  outer loop
    vertex 5.112055967043575 -6.073213038368853 0.42143
    vertex 5.146127572844278 -6.107284644169558 0.464458
    vertex 5.146127572844278 -6.107284644169558 0.42143
  endloop
endfacet
facet normal 0.707106781186566 0.7071067811865291 0.0
  outer loop
    vertex 5.146127572844278 -6.107284644169558 0.464458
    vertex 5.112055967043575 -6.073213038368853 0.42143
    vertex 5.112055967043575 -6.073213038368853 0.464458
  endloop
endfacet
facet normal 1.0 -3.6865710829545644e-14 0.0
  outer loop
    vertex 5.182690909622656 -6.195556347705537 0.42143
    vertex 5.1826909096226546 -6.243740874720722 0.464458
    vertex 5.1826909096226546 -6.243740874720722 0.42143
  endloop
endfacet
facet normal 1.0 -3.6865710829545644e-14 0.0
  outer loop
    vertex 5.1826909096226546 -6.243740874720722 0.464458
    vertex 5.182690909622656 -6.195556347705537 0.42143
    vertex 5.182690909622656 -6.195556347705537 0.464458
  endloop
endfacet
facet normal -0.707106781186566 -0.7071067811865291 0.0
  outer loop
    vertex 4.853256427155722 -6.332012578256694 0.464458
    vertex 4.887328032956425 -6.3660841840573985 0.42143
    vertex 4.887328032956425 -6.3660841840573985 0.464458
  endloop
endfacet
facet normal -0.707106781186566 -0.7071067811865291 0.0
  outer loop
    vertex 4.887328032956425 -6.3660841840573985 0.42143
    vertex 4.853256427155722 -6.332012578256694 0.464458
    vertex 4.853256427155722 -6.332012578256694 0.42143
  endloop
endfacet
facet normal 0.9238795325112871 -0.3826834323650889 0.0
  outer loop
    vertex 5.0614134051416855 -6.2506812731071575 -0.20469200000000026
    vertex 5.059982234855868 -6.254136423821244 0.4214299999999998
    vertex 5.059982234855868 -6.254136423821244 -0.20469200000000026
  endloop
endfacet
facet normal 0.9238795325112871 -0.3826834323650889 0.0
  outer loop
    vertex 5.059982234855868 -6.254136423821244 0.4214299999999998
    vertex 5.0614134051416855 -6.2506812731071575 -0.20469200000000026
    vertex 5.0614134051416855 -6.2506812731071575 0.4214299999999998
  endloop
endfacet
facet normal 0.7933533402912444 -0.6087614290087089 0.0
  outer loop
    vertex 5.059982234855868 -6.254136423821244 -0.20469200000000026
    vertex 5.04895725541314 -6.26850445676606 0.4214299999999998
    vertex 5.04895725541314 -6.26850445676606 -0.20469200000000026
  endloop
endfacet
facet normal 0.7933533402912444 -0.6087614290087089 0.0
  outer loop
    vertex 5.04895725541314 -6.26850445676606 0.4214299999999998
    vertex 5.059982234855868 -6.254136423821244 -0.20469200000000026
    vertex 5.059982234855868 -6.254136423821244 0.4214299999999998
  endloop
endfacet
facet normal 0.7933533402912625 0.6087614290086851 0.0
  outer loop
    vertex 5.04895725541314 -6.170393390876426 -0.20469200000000026
    vertex 5.059982234855868 -6.184761423821243 0.4214299999999998
    vertex 5.059982234855868 -6.184761423821243 -0.20469200000000026
  endloop
endfacet
facet normal 0.7933533402912625 0.6087614290086851 0.0
  outer loop
    vertex 5.059982234855868 -6.184761423821243 0.4214299999999998
    vertex 5.04895725541314 -6.170393390876426 -0.20469200000000026
    vertex 5.04895725541314 -6.170393390876426 0.4214299999999998
  endloop
endfacet
facet normal -0.7933533402912387 -0.608761429008716 0.0
  outer loop
    vertex 4.939821210080777 -6.254136423821243 0.4214299999999998
    vertex 4.950846189523506 -6.26850445676606 -0.20469200000000026
    vertex 4.950846189523506 -6.26850445676606 0.4214299999999998
  endloop
endfacet
facet normal -0.7933533402912387 -0.608761429008716 0.0
  outer loop
    vertex 4.950846189523506 -6.26850445676606 -0.20469200000000026
    vertex 4.939821210080777 -6.254136423821243 0.4214299999999998
    vertex 4.939821210080777 -6.254136423821243 -0.20469200000000026
  endloop
endfacet
facet normal -0.7933533402912387 0.608761429008716 0.0
  outer loop
    vertex 4.950846189523506 -6.170393390876426 0.4214299999999998
    vertex 4.939821210080777 -6.184761423821243 -0.20469200000000026
    vertex 4.939821210080777 -6.184761423821243 0.4214299999999998
  endloop
endfacet
facet normal -0.7933533402912387 0.608761429008716 0.0
  outer loop
    vertex 4.939821210080777 -6.184761423821243 -0.20469200000000026
    vertex 4.950846189523506 -6.170393390876426 0.4214299999999998
    vertex 4.950846189523506 -6.170393390876426 -0.20469200000000026
  endloop
endfacet
facet normal -0.38268343236511543 -0.9238795325112763 0.0
  outer loop
    vertex 4.981946151214335 -6.2864600280200476 0.4214299999999998
    vertex 4.9652142224683224 -6.279529436208788 -0.20469200000000026
    vertex 4.981946151214335 -6.2864600280200476 -0.20469200000000026
  endloop
endfacet
facet normal -0.38268343236511543 -0.9238795325112763 0.0
  outer loop
    vertex 4.9652142224683224 -6.279529436208788 -0.20469200000000026
    vertex 4.981946151214335 -6.2864600280200476 0.4214299999999998
    vertex 4.9652142224683224 -6.279529436208788 0.4214299999999998
  endloop
endfacet
facet normal 0.9238795325112823 -0.38268343236510044 0.0
  outer loop
    vertex 5.066912826667127 -6.23740449507523 -0.20469200000000026
    vertex 5.0614134051416855 -6.2506812731071575 0.4214299999999998
    vertex 5.0614134051416855 -6.2506812731071575 -0.20469200000000026
  endloop
endfacet
facet normal 0.9238795325112823 -0.38268343236510044 0.0
  outer loop
    vertex 5.0614134051416855 -6.2506812731071575 0.4214299999999998
    vertex 5.066912826667127 -6.23740449507523 -0.20469200000000026
    vertex 5.066912826667127 -6.23740449507523 0.4214299999999998
  endloop
endfacet
facet normal 0.608761429008716 0.7933533402912387 0.0
  outer loop
    vertex 5.034589222468323 -6.1593684114336975 0.4214299999999998
    vertex 5.04895725541314 -6.170393390876426 -0.20469200000000026
    vertex 5.034589222468323 -6.1593684114336975 -0.20469200000000026
  endloop
endfacet
facet normal 0.608761429008716 0.7933533402912387 0.0
  outer loop
    vertex 5.04895725541314 -6.170393390876426 -0.20469200000000026
    vertex 5.034589222468323 -6.1593684114336975 0.4214299999999998
    vertex 5.04895725541314 -6.170393390876426 0.4214299999999998
  endloop
endfacet
facet normal -0.38268343236511543 0.9238795325112763 0.0
  outer loop
    vertex 4.9652142224683224 -6.1593684114336975 0.4214299999999998
    vertex 4.981946151214335 -6.152437819622438 -0.20469200000000026
    vertex 4.9652142224683224 -6.1593684114336975 -0.20469200000000026
  endloop
endfacet
facet normal -0.38268343236511543 0.9238795325112763 0.0
  outer loop
    vertex 4.981946151214335 -6.152437819622438 -0.20469200000000026
    vertex 4.9652142224683224 -6.1593684114336975 0.4214299999999998
    vertex 4.981946151214335 -6.152437819622438 0.4214299999999998
  endloop
endfacet
facet normal -0.13052619222004255 -0.9914448613738116 0.0
  outer loop
    vertex 4.999901722468323 -6.288823923821243 0.4214299999999998
    vertex 4.981946151214335 -6.2864600280200476 -0.20469200000000026
    vertex 4.999901722468323 -6.288823923821243 -0.20469200000000026
  endloop
endfacet
facet normal -0.13052619222004255 -0.9914448613738116 0.0
  outer loop
    vertex 4.981946151214335 -6.2864600280200476 -0.20469200000000026
    vertex 4.999901722468323 -6.288823923821243 0.4214299999999998
    vertex 4.981946151214335 -6.2864600280200476 0.4214299999999998
  endloop
endfacet
facet normal 0.9914448613738116 0.13052619222004255 0.0
  outer loop
    vertex 5.066912826667127 -6.2014933525672555 -0.20469200000000026
    vertex 5.069276722468323 -6.219448923821243 0.4214299999999998
    vertex 5.069276722468323 -6.219448923821243 -0.20469200000000026
  endloop
endfacet
facet normal 0.9914448613738116 0.13052619222004255 0.0
  outer loop
    vertex 5.069276722468323 -6.219448923821243 0.4214299999999998
    vertex 5.066912826667127 -6.2014933525672555 -0.20469200000000026
    vertex 5.066912826667127 -6.2014933525672555 0.4214299999999998
  endloop
endfacet
facet normal 0.9238795325112763 0.38268343236511543 0.0
  outer loop
    vertex 5.059982234855868 -6.184761423821243 -0.20469200000000026
    vertex 5.066912826667127 -6.2014933525672555 0.4214299999999998
    vertex 5.066912826667127 -6.2014933525672555 -0.20469200000000026
  endloop
endfacet
facet normal 0.9238795325112763 0.38268343236511543 0.0
  outer loop
    vertex 5.066912826667127 -6.2014933525672555 0.4214299999999998
    vertex 5.059982234855868 -6.184761423821243 -0.20469200000000026
    vertex 5.059982234855868 -6.184761423821243 0.4214299999999998
  endloop
endfacet
facet normal -0.6087614290086836 0.7933533402912636 0.0
  outer loop
    vertex 4.950846189523506 -6.170393390876426 0.4214299999999998
    vertex 4.961018876758651 -6.162587613420631 -0.20469200000000026
    vertex 4.950846189523506 -6.170393390876426 -0.20469200000000026
  endloop
endfacet
facet normal -0.6087614290086836 0.7933533402912636 0.0
  outer loop
    vertex 4.961018876758651 -6.162587613420631 -0.20469200000000026
    vertex 4.950846189523506 -6.170393390876426 0.4214299999999998
    vertex 4.961018876758651 -6.162587613420631 0.4214299999999998
  endloop
endfacet
facet normal -0.9914448613738107 -0.13052619222004888 0.0
  outer loop
    vertex 4.930526722468323 -6.219448923821243 0.4214299999999998
    vertex 4.932890618269519 -6.23740449507523 -0.20469200000000026
    vertex 4.932890618269519 -6.23740449507523 0.4214299999999998
  endloop
endfacet
facet normal -0.9914448613738107 -0.13052619222004888 0.0
  outer loop
    vertex 4.932890618269519 -6.23740449507523 -0.20469200000000026
    vertex 4.930526722468323 -6.219448923821243 0.4214299999999998
    vertex 4.930526722468323 -6.219448923821243 -0.20469200000000026
  endloop
endfacet
facet normal 0.608761429008716 -0.7933533402912387 0.0
  outer loop
    vertex 5.04895725541314 -6.26850445676606 0.4214299999999998
    vertex 5.034589222468323 -6.279529436208788 -0.20469200000000026
    vertex 5.04895725541314 -6.26850445676606 -0.20469200000000026
  endloop
endfacet
facet normal 0.608761429008716 -0.7933533402912387 0.0
  outer loop
    vertex 5.034589222468323 -6.279529436208788 -0.20469200000000026
    vertex 5.04895725541314 -6.26850445676606 0.4214299999999998
    vertex 5.034589222468323 -6.279529436208788 0.4214299999999998
  endloop
endfacet
facet normal 0.13052619222004255 -0.9914448613738116 0.0
  outer loop
    vertex 5.017857293722311 -6.2864600280200476 0.4214299999999998
    vertex 4.999901722468323 -6.288823923821243 -0.20469200000000026
    vertex 5.017857293722311 -6.2864600280200476 -0.20469200000000026
  endloop
endfacet
facet normal 0.13052619222004255 -0.9914448613738116 0.0
  outer loop
    vertex 4.999901722468323 -6.288823923821243 -0.20469200000000026
    vertex 5.017857293722311 -6.2864600280200476 0.4214299999999998
    vertex 4.999901722468323 -6.288823923821243 0.4214299999999998
  endloop
endfacet
facet normal -0.9238795325112935 -0.3826834323650735 0.0
  outer loop
    vertex 4.932890618269519 -6.23740449507523 0.4214299999999998
    vertex 4.939821210080777 -6.254136423821243 -0.20469200000000026
    vertex 4.939821210080777 -6.254136423821243 0.4214299999999998
  endloop
endfacet
facet normal -0.9238795325112935 -0.3826834323650735 0.0
  outer loop
    vertex 4.939821210080777 -6.254136423821243 -0.20469200000000026
    vertex 4.932890618269519 -6.23740449507523 0.4214299999999998
    vertex 4.932890618269519 -6.23740449507523 -0.20469200000000026
  endloop
endfacet
facet normal 0.13052619222004255 0.9914448613738116 0.0
  outer loop
    vertex 4.999901722468323 -6.1500739238212425 0.4214299999999998
    vertex 5.017857293722311 -6.152437819622438 -0.20469200000000026
    vertex 4.999901722468323 -6.1500739238212425 -0.20469200000000026
  endloop
endfacet
facet normal 0.13052619222004255 0.9914448613738116 0.0
  outer loop
    vertex 5.017857293722311 -6.152437819622438 -0.20469200000000026
    vertex 4.999901722468323 -6.1500739238212425 0.4214299999999998
    vertex 5.017857293722311 -6.152437819622438 0.4214299999999998
  endloop
endfacet
facet normal 0.9914448613738107 -0.1305261922200489 0.0
  outer loop
    vertex 5.069276722468323 -6.219448923821243 -0.20469200000000026
    vertex 5.066912826667127 -6.23740449507523 0.4214299999999998
    vertex 5.066912826667127 -6.23740449507523 -0.20469200000000026
  endloop
endfacet
facet normal 0.9914448613738107 -0.1305261922200489 0.0
  outer loop
    vertex 5.066912826667127 -6.23740449507523 0.4214299999999998
    vertex 5.069276722468323 -6.219448923821243 -0.20469200000000026
    vertex 5.069276722468323 -6.219448923821243 0.4214299999999998
  endloop
endfacet
facet normal -0.13052619222004255 0.9914448613738116 0.0
  outer loop
    vertex 4.981946151214335 -6.152437819622438 0.4214299999999998
    vertex 4.999901722468323 -6.1500739238212425 -0.20469200000000026
    vertex 4.981946151214335 -6.152437819622438 -0.20469200000000026
  endloop
endfacet
facet normal -0.13052619222004255 0.9914448613738116 0.0
  outer loop
    vertex 4.999901722468323 -6.1500739238212425 -0.20469200000000026
    vertex 4.981946151214335 -6.152437819622438 0.4214299999999998
    vertex 4.999901722468323 -6.1500739238212425 0.4214299999999998
  endloop
endfacet
facet normal 0.38268343236511543 -0.9238795325112763 0.0
  outer loop
    vertex 5.034589222468323 -6.279529436208788 0.4214299999999998
    vertex 5.017857293722311 -6.2864600280200476 -0.20469200000000026
    vertex 5.034589222468323 -6.279529436208788 -0.20469200000000026
  endloop
endfacet
facet normal 0.38268343236511543 -0.9238795325112763 0.0
  outer loop
    vertex 5.017857293722311 -6.2864600280200476 -0.20469200000000026
    vertex 5.034589222468323 -6.279529436208788 0.4214299999999998
    vertex 5.017857293722311 -6.2864600280200476 0.4214299999999998
  endloop
endfacet
facet normal -0.6087614290087948 0.7933533402911782 0.0
  outer loop
    vertex 4.961018876758651 -6.162587613420631 0.4214299999999998
    vertex 4.9652142224683224 -6.1593684114336975 -0.20469200000000026
    vertex 4.961018876758651 -6.162587613420631 -0.20469200000000026
  endloop
endfacet
facet normal -0.6087614290087948 0.7933533402911782 0.0
  outer loop
    vertex 4.9652142224683224 -6.1593684114336975 -0.20469200000000026
    vertex 4.961018876758651 -6.162587613420631 0.4214299999999998
    vertex 4.9652142224683224 -6.1593684114336975 0.4214299999999998
  endloop
endfacet
facet normal 0.3826834323651154 0.9238795325112761 0.0
  outer loop
    vertex 5.017857293722311 -6.152437819622438 0.4214299999999998
    vertex 5.034589222468323 -6.1593684114336975 -0.20469200000000026
    vertex 5.017857293722311 -6.152437819622438 -0.20469200000000026
  endloop
endfacet
facet normal 0.3826834323651154 0.9238795325112761 0.0
  outer loop
    vertex 5.034589222468323 -6.1593684114336975 -0.20469200000000026
    vertex 5.017857293722311 -6.152437819622438 0.4214299999999998
    vertex 5.034589222468323 -6.1593684114336975 0.4214299999999998
  endloop
endfacet
facet normal -0.608761429008716 -0.7933533402912387 0.0
  outer loop
    vertex 4.9652142224683224 -6.279529436208788 0.4214299999999998
    vertex 4.950846189523506 -6.26850445676606 -0.20469200000000026
    vertex 4.9652142224683224 -6.279529436208788 -0.20469200000000026
  endloop
endfacet
facet normal -0.608761429008716 -0.7933533402912387 0.0
  outer loop
    vertex 4.950846189523506 -6.26850445676606 -0.20469200000000026
    vertex 4.9652142224683224 -6.279529436208788 0.4214299999999998
    vertex 4.950846189523506 -6.26850445676606 0.4214299999999998
  endloop
endfacet
facet normal -0.9914448613738116 0.13052619222004255 0.0
  outer loop
    vertex 4.932890618269519 -6.2014933525672555 0.4214299999999998
    vertex 4.930526722468323 -6.219448923821243 -0.20469200000000026
    vertex 4.930526722468323 -6.219448923821243 0.4214299999999998
  endloop
endfacet
facet normal -0.9914448613738116 0.13052619222004255 0.0
  outer loop
    vertex 4.930526722468323 -6.219448923821243 -0.20469200000000026
    vertex 4.932890618269519 -6.2014933525672555 0.4214299999999998
    vertex 4.932890618269519 -6.2014933525672555 -0.20469200000000026
  endloop
endfacet
facet normal -0.9238795325112935 0.3826834323650735 0.0
  outer loop
    vertex 4.939821210080777 -6.184761423821243 0.4214299999999998
    vertex 4.932890618269519 -6.2014933525672555 -0.20469200000000026
    vertex 4.932890618269519 -6.2014933525672555 0.4214299999999998
  endloop
endfacet
facet normal -0.9238795325112935 0.3826834323650735 0.0
  outer loop
    vertex 4.932890618269519 -6.2014933525672555 -0.20469200000000026
    vertex 4.939821210080777 -6.184761423821243 0.4214299999999998
    vertex 4.939821210080777 -6.184761423821243 -0.20469200000000026
  endloop
endfacet
facet normal 0.0 0.0 -1.0
  outer loop
    vertex 4.932890618269519 -6.2014933525672555 -0.20469200000000026
    vertex 4.932890618269519 -6.23740449507523 -0.20469200000000026
    vertex 4.930526722468323 -6.219448923821243 -0.20469200000000026
  endloop
endfacet
facet normal 0.0 0.0 -1.0
  outer loop
    vertex 4.932890618269519 -6.23740449507523 -0.20469200000000026
    vertex 4.932890618269519 -6.2014933525672555 -0.20469200000000026
    vertex 4.939821210080777 -6.184761423821243 -0.20469200000000026
  endloop
endfacet
facet normal 0.0 0.0 -1.0
  outer loop
    vertex 4.932890618269519 -6.23740449507523 -0.20469200000000026
    vertex 4.939821210080777 -6.184761423821243 -0.20469200000000026
    vertex 4.939821210080777 -6.254136423821243 -0.20469200000000026
  endloop
endfacet
facet normal 0.0 0.0 -1.0
  outer loop
    vertex 4.939821210080777 -6.254136423821243 -0.20469200000000026
    vertex 4.939821210080777 -6.184761423821243 -0.20469200000000026
    vertex 4.950846189523506 -6.170393390876426 -0.20469200000000026
  endloop
endfacet
facet normal 0.0 0.0 -1.0
  outer loop
    vertex 4.939821210080777 -6.254136423821243 -0.20469200000000026
    vertex 4.950846189523506 -6.170393390876426 -0.20469200000000026
    vertex 4.950846189523506 -6.26850445676606 -0.20469200000000026
  endloop
endfacet
facet normal 0.0 0.0 -1.0
  outer loop
    vertex 4.950846189523506 -6.26850445676606 -0.20469200000000026
    vertex 4.950846189523506 -6.170393390876426 -0.20469200000000026
    vertex 4.961018876758651 -6.162587613420631 -0.20469200000000026
  endloop
endfacet
facet normal 0.0 0.0 -1.0
  outer loop
    vertex 4.950846189523506 -6.26850445676606 -0.20469200000000026
    vertex 4.961018876758651 -6.162587613420631 -0.20469200000000026
    vertex 4.9652142224683224 -6.279529436208788 -0.20469200000000026
  endloop
endfacet
facet normal 0.0 0.0 -1.0
  outer loop
    vertex 4.9652142224683224 -6.279529436208788 -0.20469200000000026
    vertex 4.961018876758651 -6.162587613420631 -0.20469200000000026
    vertex 4.9652142224683224 -6.1593684114336975 -0.20469200000000026
  endloop
endfacet
facet normal 0.0 0.0 -1.0
  outer loop
    vertex 4.9652142224683224 -6.279529436208788 -0.20469200000000026
    vertex 4.9652142224683224 -6.1593684114336975 -0.20469200000000026
    vertex 4.981946151214335 -6.152437819622438 -0.20469200000000026
  endloop
endfacet
facet normal 0.0 0.0 -1.0
  outer loop
    vertex 4.9652142224683224 -6.279529436208788 -0.20469200000000026
    vertex 4.981946151214335 -6.152437819622438 -0.20469200000000026
    vertex 4.981946151214335 -6.2864600280200476 -0.20469200000000026
  endloop
endfacet
facet normal 0.0 0.0 -1.0
  outer loop
    vertex 4.981946151214335 -6.2864600280200476 -0.20469200000000026
    vertex 4.981946151214335 -6.152437819622438 -0.20469200000000026
    vertex 4.999901722468323 -6.1500739238212425 -0.20469200000000026
  endloop
endfacet
facet normal 0.0 0.0 -1.0
  outer loop
    vertex 4.981946151214335 -6.2864600280200476 -0.20469200000000026
    vertex 4.999901722468323 -6.1500739238212425 -0.20469200000000026
    vertex 4.999901722468323 -6.288823923821243 -0.20469200000000026
  endloop
endfacet
facet normal 0.0 0.0 -1.0
  outer loop
    vertex 4.999901722468323 -6.288823923821243 -0.20469200000000026
    vertex 4.999901722468323 -6.1500739238212425 -0.20469200000000026
    vertex 5.017857293722311 -6.152437819622438 -0.20469200000000026
  endloop
endfacet
facet normal 0.0 0.0 -1.0
  outer loop
    vertex 4.999901722468323 -6.288823923821243 -0.20469200000000026
    vertex 5.017857293722311 -6.152437819622438 -0.20469200000000026
    vertex 5.017857293722311 -6.2864600280200476 -0.20469200000000026
  endloop
endfacet
facet normal 0.0 0.0 -1.0
  outer loop
    vertex 5.017857293722311 -6.2864600280200476 -0.20469200000000026
    vertex 5.017857293722311 -6.152437819622438 -0.20469200000000026
    vertex 5.034589222468323 -6.1593684114336975 -0.20469200000000026
  endloop
endfacet
facet normal 0.0 0.0 -1.0
  outer loop
    vertex 5.017857293722311 -6.2864600280200476 -0.20469200000000026
    vertex 5.034589222468323 -6.1593684114336975 -0.20469200000000026
    vertex 5.034589222468323 -6.279529436208788 -0.20469200000000026
  endloop
endfacet
facet normal 0.0 0.0 -1.0
  outer loop
    vertex 5.034589222468323 -6.279529436208788 -0.20469200000000026
    vertex 5.034589222468323 -6.1593684114336975 -0.20469200000000026
    vertex 5.04895725541314 -6.170393390876426 -0.20469200000000026
  endloop
endfacet
facet normal 0.0 0.0 -1.0
  outer loop
    vertex 5.034589222468323 -6.279529436208788 -0.20469200000000026
    vertex 5.04895725541314 -6.170393390876426 -0.20469200000000026
    vertex 5.04895725541314 -6.26850445676606 -0.20469200000000026
  endloop
endfacet
facet normal 0.0 0.0 -1.0
  outer loop
    vertex 5.04895725541314 -6.26850445676606 -0.20469200000000026
    vertex 5.04895725541314 -6.170393390876426 -0.20469200000000026
    vertex 5.059982234855868 -6.184761423821243 -0.20469200000000026
  endloop
endfacet
facet normal 0.0 0.0 -1.0
  outer loop
    vertex 5.04895725541314 -6.26850445676606 -0.20469200000000026
    vertex 5.059982234855868 -6.184761423821243 -0.20469200000000026
    vertex 5.059982234855868 -6.254136423821244 -0.20469200000000026
  endloop
endfacet
facet normal 0.0 0.0 -1.0
  outer loop
    vertex 5.059982234855868 -6.254136423821244 -0.20469200000000026
    vertex 5.059982234855868 -6.184761423821243 -0.20469200000000026
    vertex 5.066912826667127 -6.2014933525672555 -0.20469200000000026
  endloop
endfacet
facet normal 0.0 0.0 -1.0
  outer loop
    vertex 5.059982234855868 -6.254136423821244 -0.20469200000000026
    vertex 5.066912826667127 -6.2014933525672555 -0.20469200000000026
    vertex 5.0614134051416855 -6.2506812731071575 -0.20469200000000026
  endloop
endfacet
facet normal 0.0 0.0 -1.0
  outer loop
    vertex 5.0614134051416855 -6.2506812731071575 -0.20469200000000026
    vertex 5.066912826667127 -6.2014933525672555 -0.20469200000000026
    vertex 5.066912826667127 -6.23740449507523 -0.20469200000000026
  endloop
endfacet
facet normal 0.0 0.0 -1.0
  outer loop
    vertex 5.066912826667127 -6.23740449507523 -0.20469200000000026
    vertex 5.066912826667127 -6.2014933525672555 -0.20469200000000026
    vertex 5.069276722468323 -6.219448923821243 -0.20469200000000026
  endloop
endfacet
facet normal 0.0 0.0 -1.0
  outer loop
    vertex 4.932890618269519 -6.2014933525672555 0.4214299999999998
    vertex 4.932890618269519 -6.23740449507523 0.4214299999999998
    vertex 4.930526722468323 -6.219448923821243 0.4214299999999998
  endloop
endfacet
facet normal 0.0 0.0 -1.0
  outer loop
    vertex 4.932890618269519 -6.23740449507523 0.4214299999999998
    vertex 4.932890618269519 -6.2014933525672555 0.4214299999999998
    vertex 4.939821210080777 -6.184761423821243 0.4214299999999998
  endloop
endfacet
facet normal 0.0 0.0 -1.0
  outer loop
    vertex 4.932890618269519 -6.23740449507523 0.4214299999999998
    vertex 4.939821210080777 -6.184761423821243 0.4214299999999998
    vertex 4.939821210080777 -6.254136423821243 0.4214299999999998
  endloop
endfacet
facet normal 0.0 0.0 -1.0
  outer loop
    vertex 4.939821210080777 -6.254136423821243 0.4214299999999998
    vertex 4.939821210080777 -6.184761423821243 0.4214299999999998
    vertex 4.950846189523506 -6.170393390876426 0.4214299999999998
  endloop
endfacet
facet normal 0.0 0.0 -1.0
  outer loop
    vertex 4.939821210080777 -6.254136423821243 0.4214299999999998
    vertex 4.950846189523506 -6.170393390876426 0.4214299999999998
    vertex 4.950846189523506 -6.26850445676606 0.4214299999999998
  endloop
endfacet
facet normal 0.0 0.0 -1.0
  outer loop
    vertex 4.950846189523506 -6.26850445676606 0.4214299999999998
    vertex 4.950846189523506 -6.170393390876426 0.4214299999999998
    vertex 4.961018876758651 -6.162587613420631 0.4214299999999998
  endloop
endfacet
facet normal 0.0 0.0 -1.0
  outer loop
    vertex 4.950846189523506 -6.26850445676606 0.4214299999999998
    vertex 4.961018876758651 -6.162587613420631 0.4214299999999998
    vertex 4.9652142224683224 -6.279529436208788 0.4214299999999998
  endloop
endfacet
facet normal 0.0 0.0 -1.0
  outer loop
    vertex 4.9652142224683224 -6.279529436208788 0.4214299999999998
    vertex 4.961018876758651 -6.162587613420631 0.4214299999999998
    vertex 4.9652142224683224 -6.1593684114336975 0.4214299999999998
  endloop
endfacet
facet normal 0.0 0.0 -1.0
  outer loop
    vertex 4.9652142224683224 -6.279529436208788 0.4214299999999998
    vertex 4.9652142224683224 -6.1593684114336975 0.4214299999999998
    vertex 4.981946151214335 -6.152437819622438 0.4214299999999998
  endloop
endfacet
facet normal 0.0 0.0 -1.0
  outer loop
    vertex 4.9652142224683224 -6.279529436208788 0.4214299999999998
    vertex 4.981946151214335 -6.152437819622438 0.4214299999999998
    vertex 4.981946151214335 -6.2864600280200476 0.4214299999999998
  endloop
endfacet
facet normal 0.0 0.0 -1.0
  outer loop
    vertex 4.981946151214335 -6.2864600280200476 0.4214299999999998
    vertex 4.981946151214335 -6.152437819622438 0.4214299999999998
    vertex 4.999901722468323 -6.1500739238212425 0.4214299999999998
  endloop
endfacet
facet normal 0.0 0.0 -1.0
  outer loop
    vertex 4.981946151214335 -6.2864600280200476 0.4214299999999998
    vertex 4.999901722468323 -6.1500739238212425 0.4214299999999998
    vertex 4.999901722468323 -6.288823923821243 0.4214299999999998
  endloop
endfacet
facet normal 0.0 0.0 -1.0
  outer loop
    vertex 4.999901722468323 -6.288823923821243 0.4214299999999998
    vertex 4.999901722468323 -6.1500739238212425 0.4214299999999998
    vertex 5.017857293722311 -6.152437819622438 0.4214299999999998
  endloop
endfacet
facet normal 0.0 0.0 -1.0
  outer loop
    vertex 4.999901722468323 -6.288823923821243 0.4214299999999998
    vertex 5.017857293722311 -6.152437819622438 0.4214299999999998
    vertex 5.017857293722311 -6.2864600280200476 0.4214299999999998
  endloop
endfacet
facet normal 0.0 0.0 -1.0
  outer loop
    vertex 5.017857293722311 -6.2864600280200476 0.4214299999999998
    vertex 5.017857293722311 -6.152437819622438 0.4214299999999998
    vertex 5.034589222468323 -6.1593684114336975 0.4214299999999998
  endloop
endfacet
facet normal 0.0 0.0 -1.0
  outer loop
    vertex 5.017857293722311 -6.2864600280200476 0.4214299999999998
    vertex 5.034589222468323 -6.1593684114336975 0.4214299999999998
    vertex 5.034589222468323 -6.279529436208788 0.4214299999999998
  endloop
endfacet
facet normal 0.0 0.0 -1.0
  outer loop
    vertex 5.034589222468323 -6.279529436208788 0.4214299999999998
    vertex 5.034589222468323 -6.1593684114336975 0.4214299999999998
    vertex 5.04895725541314 -6.170393390876426 0.4214299999999998
  endloop
endfacet
facet normal 0.0 0.0 -1.0
  outer loop
    vertex 5.034589222468323 -6.279529436208788 0.4214299999999998
    vertex 5.04895725541314 -6.170393390876426 0.4214299999999998
    vertex 5.04895725541314 -6.26850445676606 0.4214299999999998
  endloop
endfacet
facet normal 0.0 0.0 -1.0
  outer loop
    vertex 5.04895725541314 -6.26850445676606 0.4214299999999998
    vertex 5.04895725541314 -6.170393390876426 0.4214299999999998
    vertex 5.059982234855868 -6.184761423821243 0.4214299999999998
  endloop
endfacet
facet normal 0.0 0.0 -1.0
  outer loop
    vertex 5.04895725541314 -6.26850445676606 0.4214299999999998
    vertex 5.059982234855868 -6.184761423821243 0.4214299999999998
    vertex 5.059982234855868 -6.254136423821244 0.4214299999999998
  endloop
endfacet
facet normal 0.0 0.0 -1.0
  outer loop
    vertex 5.059982234855868 -6.254136423821244 0.4214299999999998
    vertex 5.059982234855868 -6.184761423821243 0.4214299999999998
    vertex 5.066912826667127 -6.2014933525672555 0.4214299999999998
  endloop
endfacet
facet normal 0.0 0.0 -1.0
  outer loop
    vertex 5.059982234855868 -6.254136423821244 0.4214299999999998
    vertex 5.066912826667127 -6.2014933525672555 0.4214299999999998
    vertex 5.0614134051416855 -6.2506812731071575 0.4214299999999998
  endloop
endfacet
facet normal 0.0 0.0 -1.0
  outer loop
    vertex 5.0614134051416855 -6.2506812731071575 0.4214299999999998
    vertex 5.066912826667127 -6.2014933525672555 0.4214299999999998
    vertex 5.066912826667127 -6.23740449507523 0.4214299999999998
  endloop
endfacet
facet normal 0.0 0.0 -1.0
  outer loop
    vertex 5.066912826667127 -6.23740449507523 0.4214299999999998
    vertex 5.066912826667127 -6.2014933525672555 0.4214299999999998
    vertex 5.069276722468323 -6.219448923821243 0.4214299999999998
  endloop
endfacet
facet normal 0.0 0.0 -1.0
  outer loop
    vertex 4.929057057420921 -6.049120774861256 0.42143
    vertex 4.932890618269519 -6.2014933525672555 0.4214299999999998
    vertex 4.930526722468323 -6.219448923821243 0.4214299999999998
  endloop
endfacet
facet normal 0.0 0.0 -1.0
  outer loop
    vertex 4.932890618269519 -6.2014933525672555 0.4214299999999998
    vertex 4.929057057420921 -6.049120774861256 0.42143
    vertex 4.975599736492412 -6.036649701590471 0.42143
  endloop
endfacet
facet normal 0.0 0.0 -1.0
  outer loop
    vertex 4.932890618269519 -6.2014933525672555 0.4214299999999998
    vertex 4.975599736492412 -6.036649701590471 0.42143
    vertex 4.939821210080777 -6.184761423821243 0.4214299999999998
  endloop
endfacet
facet normal 0.0 0.0 -1.0
  outer loop
    vertex 4.939821210080777 -6.184761423821243 0.4214299999999998
    vertex 4.975599736492412 -6.036649701590471 0.42143
    vertex 4.950846189523506 -6.170393390876426 0.4214299999999998
  endloop
endfacet
facet normal 0.0 0.0 -1.0
  outer loop
    vertex 4.950846189523506 -6.170393390876426 0.4214299999999998
    vertex 4.975599736492412 -6.036649701590471 0.42143
    vertex 4.961018876758651 -6.162587613420631 0.4214299999999998
  endloop
endfacet
facet normal 0.0 0.0 -1.0
  outer loop
    vertex 4.961018876758651 -6.162587613420631 0.4214299999999998
    vertex 4.975599736492412 -6.036649701590471 0.42143
    vertex 4.9652142224683224 -6.1593684114336975 0.4214299999999998
  endloop
endfacet
facet normal 0.0 0.0 -1.0
  outer loop
    vertex 4.9652142224683224 -6.1593684114336975 0.4214299999999998
    vertex 4.975599736492412 -6.036649701590471 0.42143
    vertex 4.981946151214335 -6.152437819622438 0.4214299999999998
  endloop
endfacet
facet normal 0.0 0.0 -1.0
  outer loop
    vertex 4.981946151214335 -6.152437819622438 0.4214299999999998
    vertex 4.975599736492412 -6.036649701590471 0.42143
    vertex 5.023784263507596 -6.036649701590472 0.42143
  endloop
endfacet
facet normal 0.0 0.0 -1.0
  outer loop
    vertex 4.981946151214335 -6.152437819622438 0.4214299999999998
    vertex 5.023784263507596 -6.036649701590472 0.42143
    vertex 4.999901722468323 -6.1500739238212425 0.4214299999999998
  endloop
endfacet
facet normal 0.0 0.0 -1.0
  outer loop
    vertex 4.999901722468323 -6.1500739238212425 0.4214299999999998
    vertex 5.023784263507596 -6.036649701590472 0.42143
    vertex 5.017857293722311 -6.152437819622438 0.4214299999999998
  endloop
endfacet
facet normal 0.0 0.0 -1.0
  outer loop
    vertex 5.017857293722311 -6.152437819622438 0.4214299999999998
    vertex 5.023784263507596 -6.036649701590472 0.42143
    vertex 5.034589222468323 -6.1593684114336975 0.4214299999999998
  endloop
endfacet
facet normal 0.0 0.0 -1.0
  outer loop
    vertex 5.034589222468323 -6.1593684114336975 0.4214299999999998
    vertex 5.023784263507596 -6.036649701590472 0.42143
    vertex 5.070326942579087 -6.049120774861259 0.42143
  endloop
endfacet
facet normal 0.0 0.0 -1.0
  outer loop
    vertex 5.034589222468323 -6.1593684114336975 0.4214299999999998
    vertex 5.070326942579087 -6.049120774861259 0.42143
    vertex 5.04895725541314 -6.170393390876426 0.4214299999999998
  endloop
endfacet
facet normal 0.0 0.0 -1.0
  outer loop
    vertex 5.04895725541314 -6.170393390876426 0.4214299999999998
    vertex 5.070326942579087 -6.049120774861259 0.42143
    vertex 5.059982234855868 -6.184761423821243 0.4214299999999998
  endloop
endfacet
facet normal 0.0 0.0 -1.0
  outer loop
    vertex 5.059982234855868 -6.184761423821243 0.4214299999999998
    vertex 5.070326942579087 -6.049120774861259 0.42143
    vertex 5.066912826667127 -6.2014933525672555 0.4214299999999998
  endloop
endfacet
facet normal 0.0 0.0 -1.0
  outer loop
    vertex 5.066912826667127 -6.2014933525672555 0.4214299999999998
    vertex 5.070326942579087 -6.049120774861259 0.42143
    vertex 5.069276722468323 -6.219448923821243 0.4214299999999998
  endloop
endfacet
facet normal 0.0 0.0 -1.0
  outer loop
    vertex 5.069276722468323 -6.219448923821243 0.4214299999999998
    vertex 5.070326942579087 -6.049120774861259 0.42143
    vertex 5.07032694257908 -6.390176447564995 0.42143
  endloop
endfacet
facet normal 0.0 0.0 -1.0
  outer loop
    vertex 5.07032694257908 -6.390176447564995 0.42143
    vertex 5.070326942579087 -6.049120774861259 0.42143
    vertex 5.1120559670435695 -6.366084184057404 0.42143
  endloop
endfacet
facet normal 0.0 0.0 -1.0
  outer loop
    vertex 5.1120559670435695 -6.366084184057404 0.42143
    vertex 5.070326942579087 -6.049120774861259 0.42143
    vertex 5.112055967043575 -6.073213038368853 0.42143
  endloop
endfacet
facet normal 0.0 0.0 -1.0
  outer loop
    vertex 5.1120559670435695 -6.366084184057404 0.42143
    vertex 5.112055967043575 -6.073213038368853 0.42143
    vertex 5.146127572844274 -6.3320125782567 0.42143
  endloop
endfacet
facet normal 0.0 0.0 -1.0
  outer loop
    vertex 5.146127572844274 -6.3320125782567 0.42143
    vertex 5.112055967043575 -6.073213038368853 0.42143
    vertex 5.146127572844278 -6.107284644169558 0.42143
  endloop
endfacet
facet normal 0.0 0.0 -1.0
  outer loop
    vertex 5.146127572844274 -6.3320125782567 0.42143
    vertex 5.146127572844278 -6.107284644169558 0.42143
    vertex 5.170219836351866 -6.290283553792213 0.42143
  endloop
endfacet
facet normal 0.0 0.0 -1.0
  outer loop
    vertex 5.170219836351866 -6.290283553792213 0.42143
    vertex 5.146127572844278 -6.107284644169558 0.42143
    vertex 5.17021983635187 -6.149013668634046 0.42143
  endloop
endfacet
facet normal 0.0 0.0 -1.0
  outer loop
    vertex 5.170219836351866 -6.290283553792213 0.42143
    vertex 5.17021983635187 -6.149013668634046 0.42143
    vertex 5.1826909096226546 -6.243740874720722 0.42143
  endloop
endfacet
facet normal 0.0 0.0 -1.0
  outer loop
    vertex 5.1826909096226546 -6.243740874720722 0.42143
    vertex 5.17021983635187 -6.149013668634046 0.42143
    vertex 5.182690909622656 -6.195556347705537 0.42143
  endloop
endfacet
facet normal 0.0 0.0 -1.0
  outer loop
    vertex 4.8166930903773455 -6.195556347705529 0.42143
    vertex 4.829164163648131 -6.2902835537922055 0.42143
    vertex 4.816693090377345 -6.243740874720714 0.42143
  endloop
endfacet
facet normal 0.0 0.0 -1.0
  outer loop
    vertex 4.829164163648131 -6.2902835537922055 0.42143
    vertex 4.8166930903773455 -6.195556347705529 0.42143
    vertex 4.829164163648134 -6.149013668634039 0.42143
  endloop
endfacet
facet normal 0.0 0.0 -1.0
  outer loop
    vertex 4.829164163648131 -6.2902835537922055 0.42143
    vertex 4.829164163648134 -6.149013668634039 0.42143
    vertex 4.853256427155722 -6.332012578256694 0.42143
  endloop
endfacet
facet normal 0.0 0.0 -1.0
  outer loop
    vertex 4.853256427155722 -6.332012578256694 0.42143
    vertex 4.829164163648134 -6.149013668634039 0.42143
    vertex 4.853256427155727 -6.107284644169551 0.42143
  endloop
endfacet
facet normal 0.0 0.0 -1.0
  outer loop
    vertex 4.853256427155722 -6.332012578256694 0.42143
    vertex 4.853256427155727 -6.107284644169551 0.42143
    vertex 4.887328032956425 -6.3660841840573985 0.42143
  endloop
endfacet
facet normal 0.0 0.0 -1.0
  outer loop
    vertex 4.887328032956425 -6.3660841840573985 0.42143
    vertex 4.853256427155727 -6.107284644169551 0.42143
    vertex 4.8873280329564315 -6.073213038368848 0.42143
  endloop
endfacet
facet normal 0.0 0.0 -1.0
  outer loop
    vertex 4.887328032956425 -6.3660841840573985 0.42143
    vertex 4.8873280329564315 -6.073213038368848 0.42143
    vertex 4.929057057420913 -6.3901764475649925 0.42143
  endloop
endfacet
facet normal 0.0 0.0 -1.0
  outer loop
    vertex 4.929057057420913 -6.3901764475649925 0.42143
    vertex 4.8873280329564315 -6.073213038368848 0.42143
    vertex 4.929057057420921 -6.049120774861256 0.42143
  endloop
endfacet
facet normal 0.0 0.0 -1.0
  outer loop
    vertex 4.929057057420913 -6.3901764475649925 0.42143
    vertex 4.929057057420921 -6.049120774861256 0.42143
    vertex 4.930526722468323 -6.219448923821243 0.4214299999999998
  endloop
endfacet
facet normal 0.0 0.0 -1.0
  outer loop
    vertex 4.929057057420913 -6.3901764475649925 0.42143
    vertex 4.930526722468323 -6.219448923821243 0.4214299999999998
    vertex 4.932890618269519 -6.23740449507523 0.4214299999999998
  endloop
endfacet
facet normal 0.0 0.0 -1.0
  outer loop
    vertex 4.929057057420913 -6.3901764475649925 0.42143
    vertex 4.932890618269519 -6.23740449507523 0.4214299999999998
    vertex 4.975599736492403 -6.40264752083578 0.42143
  endloop
endfacet
facet normal 0.0 0.0 -1.0
  outer loop
    vertex 4.975599736492403 -6.40264752083578 0.42143
    vertex 4.932890618269519 -6.23740449507523 0.4214299999999998
    vertex 4.939821210080777 -6.254136423821243 0.4214299999999998
  endloop
endfacet
facet normal 0.0 0.0 -1.0
  outer loop
    vertex 4.975599736492403 -6.40264752083578 0.42143
    vertex 4.939821210080777 -6.254136423821243 0.4214299999999998
    vertex 4.950846189523506 -6.26850445676606 0.4214299999999998
  endloop
endfacet
facet normal 0.0 0.0 -1.0
  outer loop
    vertex 4.975599736492403 -6.40264752083578 0.42143
    vertex 4.950846189523506 -6.26850445676606 0.4214299999999998
    vertex 4.9652142224683224 -6.279529436208788 0.4214299999999998
  endloop
endfacet
facet normal 0.0 0.0 -1.0
  outer loop
    vertex 4.975599736492403 -6.40264752083578 0.42143
    vertex 4.9652142224683224 -6.279529436208788 0.4214299999999998
    vertex 4.981946151214335 -6.2864600280200476 0.4214299999999998
  endloop
endfacet
facet normal 0.0 0.0 -1.0
  outer loop
    vertex 4.975599736492403 -6.40264752083578 0.42143
    vertex 4.981946151214335 -6.2864600280200476 0.4214299999999998
    vertex 5.023784263507589 -6.402647520835781 0.42143
  endloop
endfacet
facet normal 0.0 0.0 -1.0
  outer loop
    vertex 5.023784263507589 -6.402647520835781 0.42143
    vertex 4.981946151214335 -6.2864600280200476 0.4214299999999998
    vertex 4.999901722468323 -6.288823923821243 0.4214299999999998
  endloop
endfacet
facet normal 0.0 0.0 -1.0
  outer loop
    vertex 5.023784263507589 -6.402647520835781 0.42143
    vertex 4.999901722468323 -6.288823923821243 0.4214299999999998
    vertex 5.017857293722311 -6.2864600280200476 0.4214299999999998
  endloop
endfacet
facet normal 0.0 0.0 -1.0
  outer loop
    vertex 5.023784263507589 -6.402647520835781 0.42143
    vertex 5.017857293722311 -6.2864600280200476 0.4214299999999998
    vertex 5.034589222468323 -6.279529436208788 0.4214299999999998
  endloop
endfacet
facet normal 0.0 0.0 -1.0
  outer loop
    vertex 5.023784263507589 -6.402647520835781 0.42143
    vertex 5.034589222468323 -6.279529436208788 0.4214299999999998
    vertex 5.07032694257908 -6.390176447564995 0.42143
  endloop
endfacet
facet normal 0.0 0.0 -1.0
  outer loop
    vertex 5.07032694257908 -6.390176447564995 0.42143
    vertex 5.034589222468323 -6.279529436208788 0.4214299999999998
    vertex 5.04895725541314 -6.26850445676606 0.4214299999999998
  endloop
endfacet
facet normal 0.0 0.0 -1.0
  outer loop
    vertex 5.07032694257908 -6.390176447564995 0.42143
    vertex 5.04895725541314 -6.26850445676606 0.4214299999999998
    vertex 5.059982234855868 -6.254136423821244 0.4214299999999998
  endloop
endfacet
facet normal 0.0 0.0 -1.0
  outer loop
    vertex 5.07032694257908 -6.390176447564995 0.42143
    vertex 5.059982234855868 -6.254136423821244 0.4214299999999998
    vertex 5.0614134051416855 -6.2506812731071575 0.4214299999999998
  endloop
endfacet
facet normal 0.0 0.0 -1.0
  outer loop
    vertex 5.07032694257908 -6.390176447564995 0.42143
    vertex 5.0614134051416855 -6.2506812731071575 0.4214299999999998
    vertex 5.066912826667127 -6.23740449507523 0.4214299999999998
  endloop
endfacet
facet normal 0.0 0.0 -1.0
  outer loop
    vertex 5.07032694257908 -6.390176447564995 0.42143
    vertex 5.066912826667127 -6.23740449507523 0.4214299999999998
    vertex 5.069276722468323 -6.219448923821243 0.4214299999999998
  endloop
endfacet
endsolid rail_models_v2
