solid rail_models_v1
facet normal 0.8660254037844397 -0.49999999999999817 0.0
  outer loop
    vertex 5.170219836351866 -6.290283553792213 0.42143
    vertex 5.146127572844274 -6.3320125782567 0.435714
    vertex 5.146127572844274 -6.3320125782567 0.42143
  endloop
endfacet
facet normal 0.8660254037844397 -0.49999999999999817 0.0
  outer loop
    vertex 5.146127572844274 -6.3320125782567 0.435714
    vertex 5.170219836351866 -6.290283553792213 0.42143
    vertex 5.170219836351866 -6.290283553792213 0.435714
  endloop
endfacet
facet normal 1.8432855414773166e-14 1.0 0.0
  outer loop
    vertex 4.975599736492412 -6.036649701590471 0.435714
    vertex 5.023784263507596 -6.036649701590472 0.42143
    vertex 4.975599736492412 -6.036649701590471 0.42143
  endloop
endfacet
facet normal 1.8432855414773166e-14 1.0 0.0
  outer loop
    vertex 5.023784263507596 -6.036649701590472 0.42143
    vertex 4.975599736492412 -6.036649701590471 0.435714
    vertex 5.023784263507596 -6.036649701590472 0.435714
  endloop
endfacet
facet normal -0.49999999999996836 0.8660254037844568 0.0
  outer loop
    vertex 4.8873280329564315 -6.073213038368848 0.435714
    vertex 4.929057057420921 -6.049120774861256 0.42143
    vertex 4.8873280329564315 -6.073213038368848 0.42143
  endloop
endfacet
facet normal -0.49999999999996836 0.8660254037844568 0.0
  outer loop
    vertex 4.929057057420921 -6.049120774861256 0.42143
    vertex 4.8873280329564315 -6.073213038368848 0.435714
    vertex 4.929057057420921 -6.049120774861256 0.435714
  endloop
endfacet
facet normal 0.8660254037844444 0.4999999999999902 0.0
  outer loop
    vertex 5.146127572844278 -6.107284644169558 0.42143
    vertex 5.17021983635187 -6.149013668634046 0.435714
    vertex 5.17021983635187 -6.149013668634046 0.42143
  endloop
endfacet
facet normal 0.8660254037844444 0.4999999999999902 0.0
  outer loop
    vertex 5.17021983635187 -6.149013668634046 0.435714
    vertex 5.146127572844278 -6.107284644169558 0.42143
    vertex 5.146127572844278 -6.107284644169558 0.435714
  endloop
endfacet
facet normal -0.2588190451024936 0.9659258262890756 0.0
  outer loop
    vertex 4.929057057420921 -6.049120774861256 0.435714
    vertex 4.975599736492412 -6.036649701590471 0.42143
    vertex 4.929057057420921 -6.049120774861256 0.42143
  endloop
endfacet
facet normal -0.2588190451024936 0.9659258262890756 0.0
  outer loop
    vertex 4.975599736492412 -6.036649701590471 0.42143
    vertex 4.929057057420921 -6.049120774861256 0.435714
    vertex 4.975599736492412 -6.036649701590471 0.435714
  endloop
endfacet
facet normal -0.9659258262890605 0.25881904510254977 0.0
  outer loop
    vertex 4.829164163648134 -6.149013668634039 0.435714
    vertex 4.8166930903773455 -6.195556347705529 0.42143
    vertex 4.8166930903773455 -6.195556347705529 0.435714
  endloop
endfacet
facet normal -0.9659258262890605 0.25881904510254977 0.0
  outer loop
    vertex 4.8166930903773455 -6.195556347705529 0.42143
    vertex 4.829164163648134 -6.149013668634039 0.435714
    vertex 4.829164163648134 -6.149013668634039 0.42143
  endloop
endfacet
facet normal 0.2588190451024936 -0.9659258262890756 0.0
  outer loop
    vertex 5.07032694257908 -6.390176447564995 0.435714
    vertex 5.023784263507589 -6.402647520835781 0.42143
    vertex 5.07032694257908 -6.390176447564995 0.42143
  endloop
endfacet
facet normal 0.2588190451024936 -0.9659258262890756 0.0
  outer loop
    vertex 5.023784263507589 -6.402647520835781 0.42143
    vertex 5.07032694257908 -6.390176447564995 0.435714
    vertex 5.023784263507589 -6.402647520835781 0.435714
  endloop
endfacet
facet normal 0.49999999999996836 -0.8660254037844568 0.0
  outer loop
    vertex 5.1120559670435695 -6.366084184057404 0.435714
    vertex 5.07032694257908 -6.390176447564995 0.42143
    vertex 5.1120559670435695 -6.366084184057404 0.42143
  endloop
endfacet
facet normal 0.49999999999996836 -0.8660254037844568 0.0
  outer loop
    vertex 5.07032694257908 -6.390176447564995 0.42143
    vertex 5.1120559670435695 -6.366084184057404 0.435714
    vertex 5.07032694257908 -6.390176447564995 0.435714
  endloop
endfacet
facet normal 0.258819045102528 0.9659258262890663 0.0
  outer loop
    vertex 5.023784263507596 -6.036649701590472 0.435714
    vertex 5.070326942579087 -6.049120774861259 0.42143
    vertex 5.023784263507596 -6.036649701590472 0.42143
  endloop
endfacet
facet normal 0.258819045102528 0.9659258262890663 0.0
  outer loop
    vertex 5.070326942579087 -6.049120774861259 0.42143
    vertex 5.023784263507596 -6.036649701590472 0.435714
    vertex 5.070326942579087 -6.049120774861259 0.435714
  endloop
endfacet
facet normal -1.8432855414772484e-14 -1.0 0.0
  outer loop
    vertex 5.023784263507589 -6.402647520835781 0.435714
    vertex 4.975599736492403 -6.40264752083578 0.42143
    vertex 5.023784263507589 -6.402647520835781 0.42143
  endloop
endfacet
facet normal -1.8432855414772484e-14 -1.0 0.0
  outer loop
    vertex 4.975599736492403 -6.40264752083578 0.42143
    vertex 5.023784263507589 -6.402647520835781 0.435714
    vertex 4.975599736492403 -6.40264752083578 0.435714
  endloop
endfacet
facet normal 0.9659258262890605 -0.25881904510254977 0.0
  outer loop
    vertex 5.1826909096226546 -6.243740874720722 0.42143
    vertex 5.170219836351866 -6.290283553792213 0.435714
    vertex 5.170219836351866 -6.290283553792213 0.42143
  endloop
endfacet
facet normal 0.9659258262890605 -0.25881904510254977 0.0
  outer loop
    vertex 5.170219836351866 -6.290283553792213 0.435714
    vertex 5.1826909096226546 -6.243740874720722 0.42143
    vertex 5.1826909096226546 -6.243740874720722 0.435714
  endloop
endfacet
facet normal -0.7071067811865382 0.7071067811865568 0.0
  outer loop
    vertex 4.853256427155727 -6.107284644169551 0.435714
    vertex 4.8873280329564315 -6.073213038368848 0.42143
    vertex 4.853256427155727 -6.107284644169551 0.42143
  endloop
endfacet
facet normal -0.7071067811865382 0.7071067811865568 0.0
  outer loop
    vertex 4.8873280329564315 -6.073213038368848 0.42143
    vertex 4.853256427155727 -6.107284644169551 0.435714
    vertex 4.8873280329564315 -6.073213038368848 0.435714
  endloop
endfacet
facet normal 0.7071067811865382 -0.7071067811865568 0.0
  outer loop
    vertex 5.146127572844274 -6.3320125782567 0.435714
    vertex 5.1120559670435695 -6.366084184057404 0.42143
    vertex 5.146127572844274 -6.3320125782567 0.42143
  endloop
endfacet
facet normal 0.7071067811865382 -0.7071067811865568 0.0
  outer loop
    vertex 5.1120559670435695 -6.366084184057404 0.42143
    vertex 5.146127572844274 -6.3320125782567 0.435714
    vertex 5.1120559670435695 -6.366084184057404 0.435714
  endloop
endfacet
facet normal -0.8660254037844317 0.500000000000012 0.0
  outer loop
    vertex 4.853256427155727 -6.107284644169551 0.435714
    vertex 4.829164163648134 -6.149013668634039 0.42143
    vertex 4.829164163648134 -6.149013668634039 0.435714
  endloop
endfacet
facet normal -0.8660254037844317 0.500000000000012 0.0
  outer loop
    vertex 4.829164163648134 -6.149013668634039 0.42143
    vertex 4.853256427155727 -6.107284644169551 0.435714
    vertex 4.853256427155727 -6.107284644169551 0.42143
  endloop
endfacet
facet normal -0.8660254037844524 -0.49999999999997646 0.0
  outer loop
    vertex 4.829164163648131 -6.2902835537922055 0.435714
    vertex 4.853256427155722 -6.332012578256694 0.42143
    vertex 4.853256427155722 -6.332012578256694 0.435714
  endloop
endfacet
facet normal -0.8660254037844524 -0.49999999999997646 0.0
  outer loop
    vertex 4.853256427155722 -6.332012578256694 0.42143
    vertex 4.829164163648131 -6.2902835537922055 0.435714
    vertex 4.829164163648131 -6.2902835537922055 0.42143
  endloop
endfacet
facet normal 0.5000000000000259 0.8660254037844237 0.0
  outer loop
    vertex 5.070326942579087 -6.049120774861259 0.435714
    vertex 5.112055967043575 -6.073213038368853 0.42143
    vertex 5.070326942579087 -6.049120774861259 0.42143
  endloop
endfacet
facet normal 0.5000000000000259 0.8660254037844237 0.0
  outer loop
    vertex 5.112055967043575 -6.073213038368853 0.42143
    vertex 5.070326942579087 -6.049120774861259 0.435714
    vertex 5.112055967043575 -6.073213038368853 0.435714
  endloop
endfacet
facet normal 0.0 0.0 1.0
  outer loop
    vertex 4.829164163648131 -6.2902835537922055 0.435714
    vertex 4.8166930903773455 -6.195556347705529 0.435714
    vertex 4.816693090377345 -6.243740874720714 0.435714
  endloop
endfacet
facet normal 0.0 0.0 1.0
  outer loop
    vertex 4.8166930903773455 -6.195556347705529 0.435714
    vertex 4.829164163648131 -6.2902835537922055 0.435714
    vertex 4.829164163648134 -6.149013668634039 0.435714
  endloop
endfacet
facet normal 0.0 0.0 1.0
  outer loop
    vertex 4.829164163648134 -6.149013668634039 0.435714
    vertex 4.829164163648131 -6.2902835537922055 0.435714
    vertex 4.853256427155722 -6.332012578256694 0.435714
  endloop
endfacet
facet normal 0.0 0.0 1.0
  outer loop
    vertex 4.829164163648134 -6.149013668634039 0.435714
    vertex 4.853256427155722 -6.332012578256694 0.435714
    vertex 4.853256427155727 -6.107284644169551 0.435714
  endloop
endfacet
facet normal 0.0 0.0 1.0
  outer loop
    vertex 4.853256427155727 -6.107284644169551 0.435714
    vertex 4.853256427155722 -6.332012578256694 0.435714
    vertex 4.887328032956425 -6.3660841840573985 0.435714
  endloop
endfacet
facet normal 0.0 0.0 1.0
  outer loop
    vertex 4.853256427155727 -6.107284644169551 0.435714
    vertex 4.887328032956425 -6.3660841840573985 0.435714
    vertex 4.8873280329564315 -6.073213038368848 0.435714
  endloop
endfacet
facet normal 0.0 0.0 1.0
  outer loop
    vertex 4.8873280329564315 -6.073213038368848 0.435714
    vertex 4.887328032956425 -6.3660841840573985 0.435714
    vertex 4.929057057420913 -6.3901764475649925 0.435714
  endloop
endfacet
facet normal 0.0 0.0 1.0
  outer loop
    vertex 4.8873280329564315 -6.073213038368848 0.435714
    vertex 4.929057057420913 -6.3901764475649925 0.435714
    vertex 4.929057057420921 -6.049120774861256 0.435714
  endloop
endfacet
facet normal 0.0 0.0 1.0
  outer loop
    vertex 4.929057057420921 -6.049120774861256 0.435714
    vertex 4.929057057420913 -6.3901764475649925 0.435714
    vertex 4.975599736492403 -6.40264752083578 0.435714
  endloop
endfacet
facet normal 0.0 0.0 1.0
  outer loop
    vertex 4.929057057420921 -6.049120774861256 0.435714
    vertex 4.975599736492403 -6.40264752083578 0.435714
    vertex 4.975599736492412 -6.036649701590471 0.435714
  endloop
endfacet
facet normal 0.0 0.0 1.0
  outer loop
    vertex 4.975599736492412 -6.036649701590471 0.435714
    vertex 4.975599736492403 -6.40264752083578 0.435714
    vertex 5.023784263507589 -6.402647520835781 0.435714
  endloop
endfacet
facet normal 0.0 0.0 1.0
  outer loop
    vertex 4.975599736492412 -6.036649701590471 0.435714
    vertex 5.023784263507589 -6.402647520835781 0.435714
    vertex 5.023784263507596 -6.036649701590472 0.435714
  endloop
endfacet
facet normal 0.0 0.0 1.0
  outer loop
    vertex 5.023784263507596 -6.036649701590472 0.435714
    vertex 5.023784263507589 -6.402647520835781 0.435714
    vertex 5.07032694257908 -6.390176447564995 0.435714
  endloop
endfacet
facet normal 0.0 0.0 1.0
  outer loop
    vertex 5.023784263507596 -6.036649701590472 0.435714
    vertex 5.07032694257908 -6.390176447564995 0.435714
    vertex 5.070326942579087 -6.049120774861259 0.435714
  endloop
endfacet
facet normal 0.0 0.0 1.0
  outer loop
    vertex 5.070326942579087 -6.049120774861259 0.435714
    vertex 5.07032694257908 -6.390176447564995 0.435714
    vertex 5.1120559670435695 -6.366084184057404 0.435714
  endloop
endfacet
facet normal 0.0 0.0 1.0
  outer loop
    vertex 5.070326942579087 -6.049120774861259 0.435714
    vertex 5.1120559670435695 -6.366084184057404 0.435714
    vertex 5.112055967043575 -6.073213038368853 0.435714
  endloop
endfacet
facet normal 0.0 0.0 1.0
  outer loop
    vertex 5.112055967043575 -6.073213038368853 0.435714
    vertex 5.1120559670435695 -6.366084184057404 0.435714
    vertex 5.146127572844274 -6.3320125782567 0.435714
  endloop
endfacet
facet normal 0.0 0.0 1.0
  outer loop
    vertex 5.112055967043575 -6.073213038368853 0.435714
    vertex 5.146127572844274 -6.3320125782567 0.435714
    vertex 5.146127572844278 -6.107284644169558 0.435714
  endloop
endfacet
facet normal 0.0 0.0 1.0
  outer loop
    vertex 5.146127572844278 -6.107284644169558 0.435714
    vertex 5.146127572844274 -6.3320125782567 0.435714
    vertex 5.170219836351866 -6.290283553792213 0.435714
  endloop
endfacet
facet normal 0.0 0.0 1.0
  outer loop
    vertex 5.146127572844278 -6.107284644169558 0.435714
    vertex 5.170219836351866 -6.290283553792213 0.435714
    vertex 5.17021983635187 -6.149013668634046 0.435714
  endloop
endfacet
facet normal 0.0 0.0 1.0
  outer loop
    vertex 5.17021983635187 -6.149013668634046 0.435714
    vertex 5.170219836351866 -6.290283553792213 0.435714
    vertex 5.1826909096226546 -6.243740874720722 0.435714
  endloop
endfacet
facet normal 0.0 0.0 1.0
  outer loop
    vertex 5.17021983635187 -6.149013668634046 0.435714
    vertex 5.1826909096226546 -6.243740874720722 0.435714
    vertex 5.182690909622656 -6.195556347705537 0.435714
  endloop
endfacet
facet normal -0.9659258262890711 -0.25881904510251075 0.0
  outer loop
    vertex 4.816693090377345 -6.243740874720714 0.435714
    vertex 4.829164163648131 -6.2902835537922055 0.42143
    vertex 4.829164163648131 -6.2902835537922055 0.435714
  endloop
endfacet
facet normal -0.9659258262890711 -0.25881904510251075 0.0
  outer loop
    vertex 4.829164163648131 -6.2902835537922055 0.42143
    vertex 4.816693090377345 -6.243740874720714 0.435714
    vertex 4.816693090377345 -6.243740874720714 0.42143
  endloop
endfacet
facet normal 0.9659258262890711 0.25881904510251075 0.0
  outer loop
    vertex 5.17021983635187 -6.149013668634046 0.42143
    vertex 5.182690909622656 -6.195556347705537 0.435714
    vertex 5.182690909622656 -6.195556347705537 0.42143
  endloop
endfacet
facet normal 0.9659258262890711 0.25881904510251075 0.0
  outer loop
    vertex 5.182690909622656 -6.195556347705537 0.435714
    vertex 5.17021983635187 -6.149013668634046 0.42143
    vertex 5.17021983635187 -6.149013668634046 0.435714
  endloop
endfacet
facet normal -1.0 1.8432855414772822e-14 0.0
  outer loop
    vertex 4.8166930903773455 -6.195556347705529 0.435714
    vertex 4.816693090377345 -6.243740874720714 0.42143
    vertex 4.816693090377345 -6.243740874720714 0.435714
  endloop
endfacet
facet normal -1.0 1.8432855414772822e-14 0.0
  outer loop
    vertex 4.816693090377345 -6.243740874720714 0.42143
    vertex 4.8166930903773455 -6.195556347705529 0.435714
    vertex 4.8166930903773455 -6.195556347705529 0.42143
  endloop
endfacet
facet normal -0.25881904510253256 -0.9659258262890651 0.0
  outer loop
    vertex 4.975599736492403 -6.40264752083578 0.435714
    vertex 4.929057057420913 -6.3901764475649925 0.42143
    vertex 4.975599736492403 -6.40264752083578 0.42143
  endloop
endfacet
facet normal -0.25881904510253256 -0.9659258262890651 0.0
  outer loop
    vertex 4.929057057420913 -6.3901764475649925 0.42143
    vertex 4.975599736492403 -6.40264752083578 0.435714
    vertex 4.929057057420913 -6.3901764475649925 0.435714
  endloop
endfacet
facet normal -0.5000000000000259 -0.8660254037844237 0.0
  outer loop
    vertex 4.929057057420913 -6.3901764475649925 0.435714
    vertex 4.887328032956425 -6.3660841840573985 0.42143
    vertex 4.929057057420913 -6.3901764475649925 0.42143
  endloop
endfacet
facet normal -0.5000000000000259 -0.8660254037844237 0.0
  outer loop
    vertex 4.887328032956425 -6.3660841840573985 0.42143
    vertex 4.929057057420913 -6.3901764475649925 0.435714
    vertex 4.887328032956425 -6.3660841840573985 0.435714
  endloop
endfacet
facet normal 0.707106781186566 0.7071067811865291 0.0
  outer loop
    vertex 5.112055967043575 -6.073213038368853 0.42143
    vertex 5.146127572844278 -6.107284644169558 0.435714
    vertex 5.146127572844278 -6.107284644169558 0.42143
  endloop
endfacet
facet normal 0.707106781186566 0.7071067811865291 0.0
  outer loop
    vertex 5.146127572844278 -6.107284644169558 0.435714
    vertex 5.112055967043575 -6.073213038368853 0.42143
    vertex 5.112055967043575 -6.073213038368853 0.435714
  endloop
endfacet
facet normal 1.0 -3.6865710829545644e-14 0.0
  outer loop
    vertex 5.182690909622656 -6.195556347705537 0.42143
    vertex 5.1826909096226546 -6.243740874720722 0.435714
    vertex 5.1826909096226546 -6.243740874720722 0.42143
  endloop
endfacet
facet normal 1.0 -3.6865710829545644e-14 0.0
  outer loop
    vertex 5.1826909096226546 -6.243740874720722 0.435714
    vertex 5.182690909622656 -6.195556347705537 0.42143
    vertex 5.182690909622656 -6.195556347705537 0.435714
  endloop
endfacet
facet normal -0.707106781186566 -0.7071067811865291 0.0
  outer loop
    vertex 4.853256427155722 -6.332012578256694 0.435714
    vertex 4.887328032956425 -6.3660841840573985 0.42143
    vertex 4.887328032956425 -6.3660841840573985 0.435714
  endloop
endfacet
facet normal -0.707106781186566 -0.7071067811865291 0.0
  outer loop
    vertex 4.887328032956425 -6.3660841840573985 0.42143
    vertex 4.853256427155722 -6.332012578256694 0.435714
    vertex 4.853256427155722 -6.332012578256694 0.42143
  endloop
endfacet
facet normal 0.9238795325112698 -0.38268343236513086 0.0
  outer loop
    vertex 5.081707576897816 -6.261291743594345 -0.20469200000000004
    vertex 5.0797993498500595 -6.265898611213126 0.42143
    vertex 5.0797993498500595 -6.265898611213126 -0.20469200000000004
  endloop
endfacet
facet normal 0.9238795325112698 -0.38268343236513086 0.0
  outer loop
    vertex 5.0797993498500595 -6.265898611213126 0.42143
    vertex 5.081707576897816 -6.261291743594345 -0.20469200000000004
    vertex 5.081707576897816 -6.261291743594345 0.42143
  endloop
endfacet
facet normal 0.7933533402912312 -0.6087614290087261 0.0
  outer loop
    vertex 5.0797993498500595 -6.265898611213126 -0.20469200000000004
    vertex 5.065099377259756 -6.285055988472881 0.42143
    vertex 5.065099377259756 -6.285055988472881 -0.20469200000000004
  endloop
endfacet
facet normal 0.7933533402912312 -0.6087614290087261 0.0
  outer loop
    vertex 5.065099377259756 -6.285055988472881 0.42143
    vertex 5.0797993498500595 -6.265898611213126 -0.20469200000000004
    vertex 5.0797993498500595 -6.265898611213126 0.42143
  endloop
endfacet
facet normal 0.7933533402912446 0.6087614290087082 0.0
  outer loop
    vertex 5.065099377259756 -6.15424123395337 -0.20469200000000004
    vertex 5.0797993498500595 -6.173398611213126 0.42143
    vertex 5.0797993498500595 -6.173398611213126 -0.20469200000000004
  endloop
endfacet
facet normal 0.7933533402912446 0.6087614290087082 0.0
  outer loop
    vertex 5.0797993498500595 -6.173398611213126 0.42143
    vertex 5.065099377259756 -6.15424123395337 -0.20469200000000004
    vertex 5.065099377259756 -6.15424123395337 0.42143
  endloop
endfacet
facet normal -0.7933533402912358 -0.60876142900872 -0.0
  outer loop
    vertex 4.919584650149939 -6.265898611213125 0.42143
    vertex 4.934284622740243 -6.285055988472881 -0.20469200000000004
    vertex 4.934284622740243 -6.285055988472881 0.42143
  endloop
endfacet
facet normal -0.7933533402912358 -0.60876142900872 -0.0
  outer loop
    vertex 4.934284622740243 -6.285055988472881 -0.20469200000000004
    vertex 4.919584650149939 -6.265898611213125 0.42143
    vertex 4.919584650149939 -6.265898611213125 -0.20469200000000004
  endloop
endfacet
facet normal -0.7933533402912222 0.6087614290087378 0.0
  outer loop
    vertex 4.934284622740243 -6.15424123395337 0.42143
    vertex 4.919584650149939 -6.173398611213125 -0.20469200000000004
    vertex 4.919584650149939 -6.173398611213125 0.42143
  endloop
endfacet
facet normal -0.7933533402912222 0.6087614290087378 0.0
  outer loop
    vertex 4.919584650149939 -6.173398611213125 -0.20469200000000004
    vertex 4.934284622740243 -6.15424123395337 0.42143
    vertex 4.934284622740243 -6.15424123395337 -0.20469200000000004
  endloop
endfacet
facet normal -0.38268343236509444 -0.9238795325112849 -0.0
  outer loop
    vertex 4.975751238328016 -6.308996750144865 0.42143
    vertex 4.953441999999999 -6.299755961063187 -0.20469200000000004
    vertex 4.975751238328016 -6.308996750144865 -0.20469200000000004
  endloop
endfacet
facet normal -0.38268343236509444 -0.9238795325112849 -0.0
  outer loop
    vertex 4.953441999999999 -6.299755961063187 -0.20469200000000004
    vertex 4.975751238328016 -6.308996750144865 0.42143
    vertex 4.953441999999999 -6.299755961063187 0.42143
  endloop
endfacet
facet normal 0.9238795325112956 -0.38268343236506863 0.0
  outer loop
    vertex 5.089040138931738 -6.243589372885109 -0.20469200000000004
    vertex 5.081707576897816 -6.261291743594345 0.42143
    vertex 5.081707576897816 -6.261291743594345 -0.20469200000000004
  endloop
endfacet
facet normal 0.9238795325112956 -0.38268343236506863 0.0
  outer loop
    vertex 5.081707576897816 -6.261291743594345 0.42143
    vertex 5.089040138931738 -6.243589372885109 -0.20469200000000004
    vertex 5.089040138931738 -6.243589372885109 0.42143
  endloop
endfacet
facet normal 0.6087614290087314 0.7933533402912268 0.0
  outer loop
    vertex 5.045942 -6.139541261363065 0.42143
    vertex 5.065099377259756 -6.15424123395337 -0.20469200000000004
    vertex 5.045942 -6.139541261363065 -0.20469200000000004
  endloop
endfacet
facet normal 0.6087614290087314 0.7933533402912268 0.0
  outer loop
    vertex 5.065099377259756 -6.15424123395337 -0.20469200000000004
    vertex 5.045942 -6.139541261363065 0.42143
    vertex 5.065099377259756 -6.15424123395337 0.42143
  endloop
endfacet
facet normal -0.38268343236509444 0.9238795325112849 0.0
  outer loop
    vertex 4.953441999999999 -6.139541261363065 0.42143
    vertex 4.975751238328016 -6.1303004722813865 -0.20469200000000004
    vertex 4.953441999999999 -6.139541261363065 -0.20469200000000004
  endloop
endfacet
facet normal -0.38268343236509444 0.9238795325112849 0.0
  outer loop
    vertex 4.975751238328016 -6.1303004722813865 -0.20469200000000004
    vertex 4.953441999999999 -6.139541261363065 0.42143
    vertex 4.975751238328016 -6.1303004722813865 0.42143
  endloop
endfacet
facet normal -0.13052619222004494 -0.9914448613738114 -0.0
  outer loop
    vertex 4.999692 -6.312148611213126 0.42143
    vertex 4.975751238328016 -6.308996750144865 -0.20469200000000004
    vertex 4.999692 -6.312148611213126 -0.20469200000000004
  endloop
endfacet
facet normal -0.13052619222004494 -0.9914448613738114 -0.0
  outer loop
    vertex 4.975751238328016 -6.308996750144865 -0.20469200000000004
    vertex 4.999692 -6.312148611213126 0.42143
    vertex 4.975751238328016 -6.308996750144865 0.42143
  endloop
endfacet
facet normal 0.9914448613738109 0.1305261922200473 0.0
  outer loop
    vertex 5.089040138931738 -6.195707849541143 -0.20469200000000004
    vertex 5.092191999999999 -6.219648611213126 0.42143
    vertex 5.092191999999999 -6.219648611213126 -0.20469200000000004
  endloop
endfacet
facet normal 0.9914448613738109 0.1305261922200473 0.0
  outer loop
    vertex 5.092191999999999 -6.219648611213126 0.42143
    vertex 5.089040138931738 -6.195707849541143 -0.20469200000000004
    vertex 5.089040138931738 -6.195707849541143 0.42143
  endloop
endfacet
facet normal -0.0 -0.0 -1.0
  outer loop
    vertex 4.91034386106826 -6.195707849541143 0.42143
    vertex 4.91034386106826 -6.243589372885109 0.42143
    vertex 4.907191999999999 -6.219648611213126 0.42143
  endloop
endfacet
facet normal -0.0 -0.0 -1.0
  outer loop
    vertex 4.91034386106826 -6.243589372885109 0.42143
    vertex 4.91034386106826 -6.195707849541143 0.42143
    vertex 4.919584650149939 -6.173398611213125 0.42143
  endloop
endfacet
facet normal -0.0 -0.0 -1.0
  outer loop
    vertex 4.91034386106826 -6.243589372885109 0.42143
    vertex 4.919584650149939 -6.173398611213125 0.42143
    vertex 4.919584650149939 -6.265898611213125 0.42143
  endloop
endfacet
facet normal -0.0 -0.0 -1.0
  outer loop
    vertex 4.919584650149939 -6.265898611213125 0.42143
    vertex 4.919584650149939 -6.173398611213125 0.42143
    vertex 4.934284622740243 -6.15424123395337 0.42143
  endloop
endfacet
facet normal -0.0 -0.0 -1.0
  outer loop
    vertex 4.919584650149939 -6.265898611213125 0.42143
    vertex 4.934284622740243 -6.15424123395337 0.42143
    vertex 4.934284622740243 -6.285055988472881 0.42143
  endloop
endfacet
facet normal -0.0 -0.0 -1.0
  outer loop
    vertex 4.934284622740243 -6.285055988472881 0.42143
    vertex 4.934284622740243 -6.15424123395337 0.42143
    vertex 4.947848205720437 -6.143833530678976 0.42143
  endloop
endfacet
facet normal -0.0 -0.0 -1.0
  outer loop
    vertex 4.934284622740243 -6.285055988472881 0.42143
    vertex 4.947848205720437 -6.143833530678976 0.42143
    vertex 4.953441999999999 -6.299755961063187 0.42143
  endloop
endfacet
facet normal -0.0 -0.0 -1.0
  outer loop
    vertex 4.953441999999999 -6.299755961063187 0.42143
    vertex 4.947848205720437 -6.143833530678976 0.42143
    vertex 4.953441999999999 -6.139541261363065 0.42143
  endloop
endfacet
facet normal -0.0 -0.0 -1.0
  outer loop
    vertex 4.953441999999999 -6.299755961063187 0.42143
    vertex 4.953441999999999 -6.139541261363065 0.42143
    vertex 4.975751238328016 -6.1303004722813865 0.42143
  endloop
endfacet
facet normal -0.0 -0.0 -1.0
  outer loop
    vertex 4.953441999999999 -6.299755961063187 0.42143
    vertex 4.975751238328016 -6.1303004722813865 0.42143
    vertex 4.975751238328016 -6.308996750144865 0.42143
  endloop
endfacet
facet normal -0.0 -0.0 -1.0
  outer loop
    vertex 4.975751238328016 -6.308996750144865 0.42143
    vertex 4.975751238328016 -6.1303004722813865 0.42143
    vertex 4.999692 -6.1271486112131255 0.42143
  endloop
endfacet
facet normal -0.0 -0.0 -1.0
  outer loop
    vertex 4.975751238328016 -6.308996750144865 0.42143
    vertex 4.999692 -6.1271486112131255 0.42143
    vertex 4.999692 -6.312148611213126 0.42143
  endloop
endfacet
facet normal -0.0 -0.0 -1.0
  outer loop
    vertex 4.999692 -6.312148611213126 0.42143
    vertex 4.999692 -6.1271486112131255 0.42143
    vertex 5.023632761671983 -6.1303004722813865 0.42143
  endloop
endfacet
facet normal -0.0 -0.0 -1.0
  outer loop
    vertex 4.999692 -6.312148611213126 0.42143
    vertex 5.023632761671983 -6.1303004722813865 0.42143
    vertex 5.023632761671983 -6.308996750144865 0.42143
  endloop
endfacet
facet normal -0.0 -0.0 -1.0
  outer loop
    vertex 5.023632761671983 -6.308996750144865 0.42143
    vertex 5.023632761671983 -6.1303004722813865 0.42143
    vertex 5.045942 -6.139541261363065 0.42143
  endloop
endfacet
facet normal -0.0 -0.0 -1.0
  outer loop
    vertex 5.023632761671983 -6.308996750144865 0.42143
    vertex 5.045942 -6.139541261363065 0.42143
    vertex 5.045942 -6.299755961063187 0.42143
  endloop
endfacet
facet normal -0.0 -0.0 -1.0
  outer loop
    vertex 5.045942 -6.299755961063187 0.42143
    vertex 5.045942 -6.139541261363065 0.42143
    vertex 5.065099377259756 -6.15424123395337 0.42143
  endloop
endfacet
facet normal -0.0 -0.0 -1.0
  outer loop
    vertex 5.045942 -6.299755961063187 0.42143
    vertex 5.065099377259756 -6.15424123395337 0.42143
    vertex 5.065099377259756 -6.285055988472881 0.42143
  endloop
endfacet
facet normal -0.0 -0.0 -1.0
  outer loop
    vertex 5.065099377259756 -6.285055988472881 0.42143
    vertex 5.065099377259756 -6.15424123395337 0.42143
    vertex 5.0797993498500595 -6.173398611213126 0.42143
  endloop
endfacet
facet normal -0.0 -0.0 -1.0
  outer loop
    vertex 5.065099377259756 -6.285055988472881 0.42143
    vertex 5.0797993498500595 -6.173398611213126 0.42143
    vertex 5.0797993498500595 -6.265898611213126 0.42143
  endloop
endfacet
facet normal -0.0 -0.0 -1.0
  outer loop
    vertex 5.0797993498500595 -6.265898611213126 0.42143
    vertex 5.0797993498500595 -6.173398611213126 0.42143
    vertex 5.089040138931738 -6.195707849541143 0.42143
  endloop
endfacet
facet normal -0.0 -0.0 -1.0
  outer loop
    vertex 5.0797993498500595 -6.265898611213126 0.42143
    vertex 5.089040138931738 -6.195707849541143 0.42143
    vertex 5.081707576897816 -6.261291743594345 0.42143
  endloop
endfacet
facet normal -0.0 -0.0 -1.0
  outer loop
    vertex 5.081707576897816 -6.261291743594345 0.42143
    vertex 5.089040138931738 -6.195707849541143 0.42143
    vertex 5.089040138931738 -6.243589372885109 0.42143
  endloop
endfacet
facet normal -0.0 -0.0 -1.0
  outer loop
    vertex 5.089040138931738 -6.243589372885109 0.42143
    vertex 5.089040138931738 -6.195707849541143 0.42143
    vertex 5.092191999999999 -6.219648611213126 0.42143
  endloop
endfacet
facet normal 0.9238795325112849 0.38268343236509444 0.0
  outer loop
    vertex 5.0797993498500595 -6.173398611213126 -0.20469200000000004
    vertex 5.089040138931738 -6.195707849541143 0.42143
    vertex 5.089040138931738 -6.195707849541143 -0.20469200000000004
  endloop
endfacet
facet normal 0.9238795325112849 0.38268343236509444 0.0
  outer loop
    vertex 5.089040138931738 -6.195707849541143 0.42143
    vertex 5.0797993498500595 -6.173398611213126 -0.20469200000000004
    vertex 5.0797993498500595 -6.173398611213126 0.42143
  endloop
endfacet
facet normal -0.6087614290087303 0.7933533402912277 0.0
  outer loop
    vertex 4.934284622740243 -6.15424123395337 0.42143
    vertex 4.947848205720437 -6.143833530678976 -0.20469200000000004
    vertex 4.934284622740243 -6.15424123395337 -0.20469200000000004
  endloop
endfacet
facet normal -0.6087614290087303 0.7933533402912277 0.0
  outer loop
    vertex 4.947848205720437 -6.143833530678976 -0.20469200000000004
    vertex 4.934284622740243 -6.15424123395337 0.42143
    vertex 4.947848205720437 -6.143833530678976 0.42143
  endloop
endfacet
facet normal -0.9914448613738109 -0.1305261922200473 -0.0
  outer loop
    vertex 4.907191999999999 -6.219648611213126 0.42143
    vertex 4.91034386106826 -6.243589372885109 -0.20469200000000004
    vertex 4.91034386106826 -6.243589372885109 0.42143
  endloop
endfacet
facet normal -0.9914448613738109 -0.1305261922200473 -0.0
  outer loop
    vertex 4.91034386106826 -6.243589372885109 -0.20469200000000004
    vertex 4.907191999999999 -6.219648611213126 0.42143
    vertex 4.907191999999999 -6.219648611213126 -0.20469200000000004
  endloop
endfacet
facet normal 0.6087614290087314 -0.7933533402912268 0.0
  outer loop
    vertex 5.065099377259756 -6.285055988472881 0.42143
    vertex 5.045942 -6.299755961063187 -0.20469200000000004
    vertex 5.065099377259756 -6.285055988472881 -0.20469200000000004
  endloop
endfacet
facet normal 0.6087614290087314 -0.7933533402912268 0.0
  outer loop
    vertex 5.045942 -6.299755961063187 -0.20469200000000004
    vertex 5.065099377259756 -6.285055988472881 0.42143
    vertex 5.045942 -6.299755961063187 0.42143
  endloop
endfacet
facet normal 0.13052619222004494 -0.9914448613738114 0.0
  outer loop
    vertex 5.023632761671983 -6.308996750144865 0.42143
    vertex 4.999692 -6.312148611213126 -0.20469200000000004
    vertex 5.023632761671983 -6.308996750144865 -0.20469200000000004
  endloop
endfacet
facet normal 0.13052619222004494 -0.9914448613738114 0.0
  outer loop
    vertex 4.999692 -6.312148611213126 -0.20469200000000004
    vertex 5.023632761671983 -6.308996750144865 0.42143
    vertex 4.999692 -6.312148611213126 0.42143
  endloop
endfacet
facet normal -0.9238795325112849 -0.38268343236509444 -0.0
  outer loop
    vertex 4.91034386106826 -6.243589372885109 0.42143
    vertex 4.919584650149939 -6.265898611213125 -0.20469200000000004
    vertex 4.919584650149939 -6.265898611213125 0.42143
  endloop
endfacet
facet normal -0.9238795325112849 -0.38268343236509444 -0.0
  outer loop
    vertex 4.919584650149939 -6.265898611213125 -0.20469200000000004
    vertex 4.91034386106826 -6.243589372885109 0.42143
    vertex 4.91034386106826 -6.243589372885109 -0.20469200000000004
  endloop
endfacet
facet normal 0.13052619222004494 0.9914448613738114 0.0
  outer loop
    vertex 4.999692 -6.1271486112131255 0.42143
    vertex 5.023632761671983 -6.1303004722813865 -0.20469200000000004
    vertex 4.999692 -6.1271486112131255 -0.20469200000000004
  endloop
endfacet
facet normal 0.13052619222004494 0.9914448613738114 0.0
  outer loop
    vertex 5.023632761671983 -6.1303004722813865 -0.20469200000000004
    vertex 4.999692 -6.1271486112131255 0.42143
    vertex 5.023632761671983 -6.1303004722813865 0.42143
  endloop
endfacet
facet normal 0.9914448613738109 -0.1305261922200473 0.0
  outer loop
    vertex 5.092191999999999 -6.219648611213126 -0.20469200000000004
    vertex 5.089040138931738 -6.243589372885109 0.42143
    vertex 5.089040138931738 -6.243589372885109 -0.20469200000000004
  endloop
endfacet
facet normal 0.9914448613738109 -0.1305261922200473 0.0
  outer loop
    vertex 5.089040138931738 -6.243589372885109 0.42143
    vertex 5.092191999999999 -6.219648611213126 -0.20469200000000004
    vertex 5.092191999999999 -6.219648611213126 0.42143
  endloop
endfacet
facet normal -0.13052619222004494 0.9914448613738114 0.0
  outer loop
    vertex 4.975751238328016 -6.1303004722813865 0.42143
    vertex 4.999692 -6.1271486112131255 -0.20469200000000004
    vertex 4.975751238328016 -6.1303004722813865 -0.20469200000000004
  endloop
endfacet
facet normal -0.13052619222004494 0.9914448613738114 0.0
  outer loop
    vertex 4.999692 -6.1271486112131255 -0.20469200000000004
    vertex 4.975751238328016 -6.1303004722813865 0.42143
    vertex 4.999692 -6.1271486112131255 0.42143
  endloop
endfacet
facet normal 0.38268343236509444 -0.9238795325112849 0.0
  outer loop
    vertex 5.045942 -6.299755961063187 0.42143
    vertex 5.023632761671983 -6.308996750144865 -0.20469200000000004
    vertex 5.045942 -6.299755961063187 -0.20469200000000004
  endloop
endfacet
facet normal 0.38268343236509444 -0.9238795325112849 0.0
  outer loop
    vertex 5.023632761671983 -6.308996750144865 -0.20469200000000004
    vertex 5.045942 -6.299755961063187 0.42143
    vertex 5.023632761671983 -6.308996750144865 0.42143
  endloop
endfacet
facet normal -0.6087614290087341 0.793353340291225 0.0
  outer loop
    vertex 4.947848205720437 -6.143833530678976 0.42143
    vertex 4.953441999999999 -6.139541261363065 -0.20469200000000004
    vertex 4.947848205720437 -6.143833530678976 -0.20469200000000004
  endloop
endfacet
facet normal -0.6087614290087341 0.793353340291225 0.0
  outer loop
    vertex 4.953441999999999 -6.139541261363065 -0.20469200000000004
    vertex 4.947848205720437 -6.143833530678976 0.42143
    vertex 4.953441999999999 -6.139541261363065 0.42143
  endloop
endfacet
facet normal 0.38268343236509444 0.9238795325112849 0.0
  outer loop
    vertex 5.023632761671983 -6.1303004722813865 0.42143
    vertex 5.045942 -6.139541261363065 -0.20469200000000004
    vertex 5.023632761671983 -6.1303004722813865 -0.20469200000000004
  endloop
endfacet
facet normal 0.38268343236509444 0.9238795325112849 0.0
  outer loop
    vertex 5.045942 -6.139541261363065 -0.20469200000000004
    vertex 5.023632761671983 -6.1303004722813865 0.42143
    vertex 5.045942 -6.139541261363065 0.42143
  endloop
endfacet
facet normal -0.6087614290087314 -0.7933533402912268 -0.0
  outer loop
    vertex 4.953441999999999 -6.299755961063187 0.42143
    vertex 4.934284622740243 -6.285055988472881 -0.20469200000000004
    vertex 4.953441999999999 -6.299755961063187 -0.20469200000000004
  endloop
endfacet
facet normal -0.6087614290087314 -0.7933533402912268 -0.0
  outer loop
    vertex 4.934284622740243 -6.285055988472881 -0.20469200000000004
    vertex 4.953441999999999 -6.299755961063187 0.42143
    vertex 4.934284622740243 -6.285055988472881 0.42143
  endloop
endfacet
facet normal -0.9914448613738109 0.1305261922200473 0.0
  outer loop
    vertex 4.91034386106826 -6.195707849541143 0.42143
    vertex 4.907191999999999 -6.219648611213126 -0.20469200000000004
    vertex 4.907191999999999 -6.219648611213126 0.42143
  endloop
endfacet
facet normal -0.9914448613738109 0.1305261922200473 0.0
  outer loop
    vertex 4.907191999999999 -6.219648611213126 -0.20469200000000004
    vertex 4.91034386106826 -6.195707849541143 0.42143
    vertex 4.91034386106826 -6.195707849541143 -0.20469200000000004
  endloop
endfacet
facet normal -0.9238795325112903 0.3826834323650815 0.0
  outer loop
    vertex 4.919584650149939 -6.173398611213125 0.42143
    vertex 4.91034386106826 -6.195707849541143 -0.20469200000000004
    vertex 4.91034386106826 -6.195707849541143 0.42143
  endloop
endfacet
facet normal -0.9238795325112903 0.3826834323650815 0.0
  outer loop
    vertex 4.91034386106826 -6.195707849541143 -0.20469200000000004
    vertex 4.919584650149939 -6.173398611213125 0.42143
    vertex 4.919584650149939 -6.173398611213125 -0.20469200000000004
  endloop
endfacet
facet normal 0.0 0.0 -1.0
  outer loop
    vertex 4.91034386106826 -6.195707849541143 -0.20469200000000004
    vertex 4.91034386106826 -6.243589372885109 -0.20469200000000004
    vertex 4.907191999999999 -6.219648611213126 -0.20469200000000004
  endloop
endfacet
facet normal 0.0 0.0 -1.0
  outer loop
    vertex 4.91034386106826 -6.243589372885109 -0.20469200000000004
    vertex 4.91034386106826 -6.195707849541143 -0.20469200000000004
    vertex 4.919584650149939 -6.173398611213125 -0.20469200000000004
  endloop
endfacet
facet normal 0.0 0.0 -1.0
  outer loop
    vertex 4.91034386106826 -6.243589372885109 -0.20469200000000004
    vertex 4.919584650149939 -6.173398611213125 -0.20469200000000004
    vertex 4.919584650149939 -6.265898611213125 -0.20469200000000004
  endloop
endfacet
facet normal 0.0 0.0 -1.0
  outer loop
    vertex 4.919584650149939 -6.265898611213125 -0.20469200000000004
    vertex 4.919584650149939 -6.173398611213125 -0.20469200000000004
    vertex 4.934284622740243 -6.15424123395337 -0.20469200000000004
  endloop
endfacet
facet normal 0.0 0.0 -1.0
  outer loop
    vertex 4.919584650149939 -6.265898611213125 -0.20469200000000004
    vertex 4.934284622740243 -6.15424123395337 -0.20469200000000004
    vertex 4.934284622740243 -6.285055988472881 -0.20469200000000004
  endloop
endfacet
facet normal 0.0 0.0 -1.0
  outer loop
    vertex 4.934284622740243 -6.285055988472881 -0.20469200000000004
    vertex 4.934284622740243 -6.15424123395337 -0.20469200000000004
    vertex 4.947848205720437 -6.143833530678976 -0.20469200000000004
  endloop
endfacet
facet normal 0.0 0.0 -1.0
  outer loop
    vertex 4.934284622740243 -6.285055988472881 -0.20469200000000004
    vertex 4.947848205720437 -6.143833530678976 -0.20469200000000004
    vertex 4.953441999999999 -6.299755961063187 -0.20469200000000004
  endloop
endfacet
facet normal 0.0 0.0 -1.0
  outer loop
    vertex 4.953441999999999 -6.299755961063187 -0.20469200000000004
    vertex 4.947848205720437 -6.143833530678976 -0.20469200000000004
    vertex 4.953441999999999 -6.139541261363065 -0.20469200000000004
  endloop
endfacet
facet normal 0.0 0.0 -1.0
  outer loop
    vertex 4.953441999999999 -6.299755961063187 -0.20469200000000004
    vertex 4.953441999999999 -6.139541261363065 -0.20469200000000004
    vertex 4.975751238328016 -6.1303004722813865 -0.20469200000000004
  endloop
endfacet
facet normal 0.0 0.0 -1.0
  outer loop
    vertex 4.953441999999999 -6.299755961063187 -0.20469200000000004
    vertex 4.975751238328016 -6.1303004722813865 -0.20469200000000004
    vertex 4.975751238328016 -6.308996750144865 -0.20469200000000004
  endloop
endfacet
facet normal 0.0 0.0 -1.0
  outer loop
    vertex 4.975751238328016 -6.308996750144865 -0.20469200000000004
    vertex 4.975751238328016 -6.1303004722813865 -0.20469200000000004
    vertex 4.999692 -6.1271486112131255 -0.20469200000000004
  endloop
endfacet
facet normal 0.0 0.0 -1.0
  outer loop
    vertex 4.975751238328016 -6.308996750144865 -0.20469200000000004
    vertex 4.999692 -6.1271486112131255 -0.20469200000000004
    vertex 4.999692 -6.312148611213126 -0.20469200000000004
  endloop
endfacet
facet normal 0.0 0.0 -1.0
  outer loop
    vertex 4.999692 -6.312148611213126 -0.20469200000000004
    vertex 4.999692 -6.1271486112131255 -0.20469200000000004
    vertex 5.023632761671983 -6.1303004722813865 -0.20469200000000004
  endloop
endfacet
facet normal 0.0 0.0 -1.0
  outer loop
    vertex 4.999692 -6.312148611213126 -0.20469200000000004
    vertex 5.023632761671983 -6.1303004722813865 -0.20469200000000004
    vertex 5.023632761671983 -6.308996750144865 -0.20469200000000004
  endloop
endfacet
facet normal 0.0 0.0 -1.0
  outer loop
    vertex 5.023632761671983 -6.308996750144865 -0.20469200000000004
    vertex 5.023632761671983 -6.1303004722813865 -0.20469200000000004
    vertex 5.045942 -6.139541261363065 -0.20469200000000004
  endloop
endfacet
facet normal 0.0 0.0 -1.0
  outer loop
    vertex 5.023632761671983 -6.308996750144865 -0.20469200000000004
    vertex 5.045942 -6.139541261363065 -0.20469200000000004
    vertex 5.045942 -6.299755961063187 -0.20469200000000004
  endloop
endfacet
facet normal 0.0 0.0 -1.0
  outer loop
    vertex 5.045942 -6.299755961063187 -0.20469200000000004
    vertex 5.045942 -6.139541261363065 -0.20469200000000004
    vertex 5.065099377259756 -6.15424123395337 -0.20469200000000004
  endloop
endfacet
facet normal 0.0 0.0 -1.0
  outer loop
    vertex 5.045942 -6.299755961063187 -0.20469200000000004
    vertex 5.065099377259756 -6.15424123395337 -0.20469200000000004
    vertex 5.065099377259756 -6.285055988472881 -0.20469200000000004
  endloop
endfacet
facet normal 0.0 0.0 -1.0
  outer loop
    vertex 5.065099377259756 -6.285055988472881 -0.20469200000000004
    vertex 5.065099377259756 -6.15424123395337 -0.20469200000000004
    vertex 5.0797993498500595 -6.173398611213126 -0.20469200000000004
  endloop
endfacet
facet normal 0.0 0.0 -1.0
  outer loop
    vertex 5.065099377259756 -6.285055988472881 -0.20469200000000004
    vertex 5.0797993498500595 -6.173398611213126 -0.20469200000000004
    vertex 5.0797993498500595 -6.265898611213126 -0.20469200000000004
  endloop
endfacet
facet normal 0.0 0.0 -1.0
  outer loop
    vertex 5.0797993498500595 -6.265898611213126 -0.20469200000000004
    vertex 5.0797993498500595 -6.173398611213126 -0.20469200000000004
    vertex 5.089040138931738 -6.195707849541143 -0.20469200000000004
  endloop
endfacet
facet normal 0.0 0.0 -1.0
  outer loop
    vertex 5.0797993498500595 -6.265898611213126 -0.20469200000000004
    vertex 5.089040138931738 -6.195707849541143 -0.20469200000000004
    vertex 5.081707576897816 -6.261291743594345 -0.20469200000000004
  endloop
endfacet
facet normal 0.0 0.0 -1.0
  outer loop
    vertex 5.081707576897816 -6.261291743594345 -0.20469200000000004
    vertex 5.089040138931738 -6.195707849541143 -0.20469200000000004
    vertex 5.089040138931738 -6.243589372885109 -0.20469200000000004
  endloop
endfacet
facet normal 0.0 0.0 -1.0
  outer loop
    vertex 5.089040138931738 -6.243589372885109 -0.20469200000000004
    vertex 5.089040138931738 -6.195707849541143 -0.20469200000000004
    vertex 5.092191999999999 -6.219648611213126 -0.20469200000000004
  endloop
endfacet
facet normal 0.0 0.0 -1.0
  outer loop
    vertex 4.929057057420921 -6.049120774861256 0.42143
    vertex 4.907191999999999 -6.219648611213126 0.42143
    vertex 4.8873280329564315 -6.073213038368848 0.42143
  endloop
endfacet
facet normal 0.0 0.0 -1.0
  outer loop
    vertex 4.907191999999999 -6.219648611213126 0.42143
    vertex 4.929057057420921 -6.049120774861256 0.42143
    vertex 4.91034386106826 -6.195707849541143 0.42143
  endloop
endfacet
facet normal 0.0 0.0 -1.0
  outer loop
    vertex 4.91034386106826 -6.195707849541143 0.42143
    vertex 4.929057057420921 -6.049120774861256 0.42143
    vertex 4.919584650149939 -6.173398611213125 0.42143
  endloop
endfacet
facet normal 0.0 0.0 -1.0
  outer loop
    vertex 4.919584650149939 -6.173398611213125 0.42143
    vertex 4.929057057420921 -6.049120774861256 0.42143
    vertex 4.934284622740243 -6.15424123395337 0.42143
  endloop
endfacet
facet normal 0.0 0.0 -1.0
  outer loop
    vertex 4.934284622740243 -6.15424123395337 0.42143
    vertex 4.929057057420921 -6.049120774861256 0.42143
    vertex 4.975599736492412 -6.036649701590471 0.42143
  endloop
endfacet
facet normal 0.0 0.0 -1.0
  outer loop
    vertex 4.934284622740243 -6.15424123395337 0.42143
    vertex 4.975599736492412 -6.036649701590471 0.42143
    vertex 4.947848205720437 -6.143833530678976 0.42143
  endloop
endfacet
facet normal 0.0 0.0 -1.0
  outer loop
    vertex 4.947848205720437 -6.143833530678976 0.42143
    vertex 4.975599736492412 -6.036649701590471 0.42143
    vertex 4.953441999999999 -6.139541261363065 0.42143
  endloop
endfacet
facet normal 0.0 0.0 -1.0
  outer loop
    vertex 4.953441999999999 -6.139541261363065 0.42143
    vertex 4.975599736492412 -6.036649701590471 0.42143
    vertex 4.975751238328016 -6.1303004722813865 0.42143
  endloop
endfacet
facet normal 0.0 0.0 -1.0
  outer loop
    vertex 4.975751238328016 -6.1303004722813865 0.42143
    vertex 4.975599736492412 -6.036649701590471 0.42143
    vertex 5.023784263507596 -6.036649701590472 0.42143
  endloop
endfacet
facet normal 0.0 0.0 -1.0
  outer loop
    vertex 4.975751238328016 -6.1303004722813865 0.42143
    vertex 5.023784263507596 -6.036649701590472 0.42143
    vertex 4.999692 -6.1271486112131255 0.42143
  endloop
endfacet
facet normal 0.0 0.0 -1.0
  outer loop
    vertex 4.999692 -6.1271486112131255 0.42143
    vertex 5.023784263507596 -6.036649701590472 0.42143
    vertex 5.023632761671983 -6.1303004722813865 0.42143
  endloop
endfacet
facet normal 0.0 0.0 -1.0
  outer loop
    vertex 5.023632761671983 -6.1303004722813865 0.42143
    vertex 5.023784263507596 -6.036649701590472 0.42143
    vertex 5.045942 -6.139541261363065 0.42143
  endloop
endfacet
facet normal 0.0 0.0 -1.0
  outer loop
    vertex 5.045942 -6.139541261363065 0.42143
    vertex 5.023784263507596 -6.036649701590472 0.42143
    vertex 5.070326942579087 -6.049120774861259 0.42143
  endloop
endfacet
facet normal 0.0 0.0 -1.0
  outer loop
    vertex 5.045942 -6.139541261363065 0.42143
    vertex 5.070326942579087 -6.049120774861259 0.42143
    vertex 5.065099377259756 -6.15424123395337 0.42143
  endloop
endfacet
facet normal 0.0 0.0 -1.0
  outer loop
    vertex 5.065099377259756 -6.15424123395337 0.42143
    vertex 5.070326942579087 -6.049120774861259 0.42143
    vertex 5.0797993498500595 -6.173398611213126 0.42143
  endloop
endfacet
facet normal 0.0 0.0 -1.0
  outer loop
    vertex 5.0797993498500595 -6.173398611213126 0.42143
    vertex 5.070326942579087 -6.049120774861259 0.42143
    vertex 5.112055967043575 -6.073213038368853 0.42143
  endloop
endfacet
facet normal 0.0 0.0 -1.0
  outer loop
    vertex 5.0797993498500595 -6.173398611213126 0.42143
    vertex 5.112055967043575 -6.073213038368853 0.42143
    vertex 5.089040138931738 -6.195707849541143 0.42143
  endloop
endfacet
facet normal 0.0 0.0 -1.0
  outer loop
    vertex 5.089040138931738 -6.195707849541143 0.42143
    vertex 5.112055967043575 -6.073213038368853 0.42143
    vertex 5.092191999999999 -6.219648611213126 0.42143
  endloop
endfacet
facet normal 0.0 0.0 -1.0
  outer loop
    vertex 5.092191999999999 -6.219648611213126 0.42143
    vertex 5.112055967043575 -6.073213038368853 0.42143
    vertex 5.1120559670435695 -6.366084184057404 0.42143
  endloop
endfacet
facet normal 0.0 0.0 -1.0
  outer loop
    vertex 5.1120559670435695 -6.366084184057404 0.42143
    vertex 5.112055967043575 -6.073213038368853 0.42143
    vertex 5.146127572844274 -6.3320125782567 0.42143
  endloop
endfacet
facet normal 0.0 0.0 -1.0
  outer loop
    vertex 5.146127572844274 -6.3320125782567 0.42143
    vertex 5.112055967043575 -6.073213038368853 0.42143
    vertex 5.146127572844278 -6.107284644169558 0.42143
  endloop
endfacet
facet normal 0.0 0.0 -1.0
  outer loop
    vertex 5.146127572844274 -6.3320125782567 0.42143
    vertex 5.146127572844278 -6.107284644169558 0.42143
    vertex 5.170219836351866 -6.290283553792213 0.42143
  endloop
endfacet
facet normal 0.0 0.0 -1.0
  outer loop
    vertex 5.170219836351866 -6.290283553792213 0.42143
    vertex 5.146127572844278 -6.107284644169558 0.42143
    vertex 5.17021983635187 -6.149013668634046 0.42143
  endloop
endfacet
facet normal 0.0 0.0 -1.0
  outer loop
    vertex 5.170219836351866 -6.290283553792213 0.42143
    vertex 5.17021983635187 -6.149013668634046 0.42143
    vertex 5.1826909096226546 -6.243740874720722 0.42143
  endloop
endfacet
facet normal 0.0 0.0 -1.0
  outer loop
    vertex 5.1826909096226546 -6.243740874720722 0.42143
    vertex 5.17021983635187 -6.149013668634046 0.42143
    vertex 5.182690909622656 -6.195556347705537 0.42143
  endloop
endfacet
facet normal 0.0 0.0 -1.0
  outer loop
    vertex 4.8166930903773455 -6.195556347705529 0.42143
    vertex 4.829164163648131 -6.2902835537922055 0.42143
    vertex 4.816693090377345 -6.243740874720714 0.42143
  endloop
endfacet
facet normal 0.0 0.0 -1.0
  outer loop
    vertex 4.829164163648131 -6.2902835537922055 0.42143
    vertex 4.8166930903773455 -6.195556347705529 0.42143
    vertex 4.829164163648134 -6.149013668634039 0.42143
  endloop
endfacet
facet normal 0.0 0.0 -1.0
  outer loop
    vertex 4.829164163648131 -6.2902835537922055 0.42143
    vertex 4.829164163648134 -6.149013668634039 0.42143
    vertex 4.853256427155722 -6.332012578256694 0.42143
  endloop
endfacet
facet normal 0.0 0.0 -1.0
  outer loop
    vertex 4.853256427155722 -6.332012578256694 0.42143
    vertex 4.829164163648134 -6.149013668634039 0.42143
    vertex 4.853256427155727 -6.107284644169551 0.42143
  endloop
endfacet
facet normal 0.0 0.0 -1.0
  outer loop
    vertex 4.853256427155722 -6.332012578256694 0.42143
    vertex 4.853256427155727 -6.107284644169551 0.42143
    vertex 4.887328032956425 -6.3660841840573985 0.42143
  endloop
endfacet
facet normal 0.0 0.0 -1.0
  outer loop
    vertex 4.887328032956425 -6.3660841840573985 0.42143
    vertex 4.853256427155727 -6.107284644169551 0.42143
    vertex 4.8873280329564315 -6.073213038368848 0.42143
  endloop
endfacet
facet normal 0.0 0.0 -1.0
  outer loop
    vertex 4.887328032956425 -6.3660841840573985 0.42143
    vertex 4.8873280329564315 -6.073213038368848 0.42143
    vertex 4.929057057420913 -6.3901764475649925 0.42143
  endloop
endfacet
facet normal 0.0 0.0 -1.0
  outer loop
    vertex 4.929057057420913 -6.3901764475649925 0.42143
    vertex 4.8873280329564315 -6.073213038368848 0.42143
    vertex 4.907191999999999 -6.219648611213126 0.42143
  endloop
endfacet
facet normal 0.0 0.0 -1.0
  outer loop
    vertex 4.929057057420913 -6.3901764475649925 0.42143
    vertex 4.907191999999999 -6.219648611213126 0.42143
    vertex 4.91034386106826 -6.243589372885109 0.42143
  endloop
endfacet
facet normal 0.0 0.0 -1.0
  outer loop
    vertex 4.929057057420913 -6.3901764475649925 0.42143
    vertex 4.91034386106826 -6.243589372885109 0.42143
    vertex 4.919584650149939 -6.265898611213125 0.42143
  endloop
endfacet
facet normal 0.0 0.0 -1.0
  outer loop
    vertex 4.929057057420913 -6.3901764475649925 0.42143
    vertex 4.919584650149939 -6.265898611213125 0.42143
    vertex 4.934284622740243 -6.285055988472881 0.42143
  endloop
endfacet
facet normal 0.0 0.0 -1.0
  outer loop
    vertex 4.929057057420913 -6.3901764475649925 0.42143
    vertex 4.934284622740243 -6.285055988472881 0.42143
    vertex 4.975599736492403 -6.40264752083578 0.42143
  endloop
endfacet
facet normal 0.0 0.0 -1.0
  outer loop
    vertex 4.975599736492403 -6.40264752083578 0.42143
    vertex 4.934284622740243 -6.285055988472881 0.42143
    vertex 4.953441999999999 -6.299755961063187 0.42143
  endloop
endfacet
facet normal 0.0 0.0 -1.0
  outer loop
    vertex 4.975599736492403 -6.40264752083578 0.42143
    vertex 4.953441999999999 -6.299755961063187 0.42143
    vertex 4.975751238328016 -6.308996750144865 0.42143
  endloop
endfacet
facet normal 0.0 0.0 -1.0
  outer loop
    vertex 4.975599736492403 -6.40264752083578 0.42143
    vertex 4.975751238328016 -6.308996750144865 0.42143
    vertex 5.023784263507589 -6.402647520835781 0.42143
  endloop
endfacet
facet normal 0.0 0.0 -1.0
  outer loop
    vertex 5.023784263507589 -6.402647520835781 0.42143
    vertex 4.975751238328016 -6.308996750144865 0.42143
    vertex 4.999692 -6.312148611213126 0.42143
  endloop
endfacet
facet normal 0.0 0.0 -1.0
  outer loop
    vertex 5.023784263507589 -6.402647520835781 0.42143
    vertex 4.999692 -6.312148611213126 0.42143
    vertex 5.023632761671983 -6.308996750144865 0.42143
  endloop
endfacet
facet normal 0.0 0.0 -1.0
  outer loop
    vertex 5.023784263507589 -6.402647520835781 0.42143
    vertex 5.023632761671983 -6.308996750144865 0.42143
    vertex 5.045942 -6.299755961063187 0.42143
  endloop
endfacet
facet normal 0.0 0.0 -1.0
  outer loop
    vertex 5.023784263507589 -6.402647520835781 0.42143
    vertex 5.045942 -6.299755961063187 0.42143
    vertex 5.07032694257908 -6.390176447564995 0.42143
  endloop
endfacet
facet normal 0.0 0.0 -1.0
  outer loop
    vertex 5.07032694257908 -6.390176447564995 0.42143
    vertex 5.045942 -6.299755961063187 0.42143
    vertex 5.065099377259756 -6.285055988472881 0.42143
  endloop
endfacet
facet normal 0.0 0.0 -1.0
  outer loop
    vertex 5.07032694257908 -6.390176447564995 0.42143
    vertex 5.065099377259756 -6.285055988472881 0.42143
    vertex 5.0797993498500595 -6.265898611213126 0.42143
  endloop
endfacet
facet normal 0.0 0.0 -1.0
  outer loop
    vertex 5.07032694257908 -6.390176447564995 0.42143
    vertex 5.0797993498500595 -6.265898611213126 0.42143
    vertex 5.1120559670435695 -6.366084184057404 0.42143
  endloop
endfacet
facet normal 0.0 0.0 -1.0
  outer loop
    vertex 5.1120559670435695 -6.366084184057404 0.42143
    vertex 5.0797993498500595 -6.265898611213126 0.42143
    vertex 5.081707576897816 -6.261291743594345 0.42143
  endloop
endfacet
facet normal 0.0 0.0 -1.0
  outer loop
    vertex 5.1120559670435695 -6.366084184057404 0.42143
    vertex 5.081707576897816 -6.261291743594345 0.42143
    vertex 5.089040138931738 -6.243589372885109 0.42143
  endloop
endfacet
facet normal 0.0 0.0 -1.0
  outer loop
    vertex 5.1120559670435695 -6.366084184057404 0.42143
    vertex 5.089040138931738 -6.243589372885109 0.42143
    vertex 5.092191999999999 -6.219648611213126 0.42143
  endloop
endfacet
endsolid rail_models_v1
