<?xml version="1.0" encoding="UTF-8" standalone="no"?>
<!DOCTYPE svg PUBLIC "-//W3C//DTD SVG 1.1//EN" "http://www.w3.org/Graphics/SVG/1.1/DTD/svg11.dtd">
<svg width="100%" height="100%" viewBox="0 0 5100 3300" version="1.1" xmlns="http://www.w3.org/2000/svg" xmlns:xlink="http://www.w3.org/1999/xlink" xml:space="preserve" style="fill-rule:evenodd;clip-rule:evenodd;stroke-linecap:round;stroke-linejoin:round;stroke-miterlimit:1.5;">
    <path d="M1737.45,2220.82L2106.82,2720.19L1746.17,3225.8L1153.91,3038.91L1148.52,2417.79M1148.22,2410.5L790.357,2914.04L197.691,2728.42L191.226,2107.4L779.896,1909.21L780.802,1908.25L781.869,1906.79L197.265,1722.32L191.875,1101.2L780.808,904.225L1150.18,1403.6L1147.83,1406.9L1151.67,1408.16L1150.18,789.243L1740.45,596.308L2106.76,1097.78L1742.87,1600.63L1740.55,1603.8L2325.97,1406.7L2329.5,1411.46L2683.13,905.36L3277.34,1086.26L3278.36,1088.25L3274.27,1079.78L2912.13,575.24L3280.19,75L3869.8,270.376L3866.16,887.866L3866.2,887.855L3867,888.931L4220.31,380.331L4815.01,559.607L4828.24,1180.47L4241.71,1384.9L4241.6,1385.24L4834.94,1568.99L4843.49,2189.93L4255.44,2389.95L3885.29,1895.07L3895.14,2509.47L3307.55,2710.83L2934.43,2214.35L3288.94,1709.7L3287.45,1709.24L3287.42,1707.66L2701.78,1909.99L2696.25,1905.23L2336.43,2411.53L1737.45,2220.82" style="fill:none;stroke:black;stroke-width:16.67px;"/>
    <g transform="matrix(1,0,0,1,-246.806,133.702)">
        <circle cx="1569.5" cy="1771.7" r="133.702" style="fill:none;stroke:black;stroke-width:16.67px;"/>
    </g>
</svg>
