solid wireHolder
facet normal 1.0 -6.960056826695875e-16 1.3442961873086433e-31
  outer loop
    vertex 1.9302652707927148 1.5016480133968408 2.220446049250313e-16
    vertex 1.9302652707927144 0.8635940133968386 0.5439999999999994
    vertex 1.9302652707927144 0.8635940133968384 2.3314683517128287e-15
  endloop
endfacet
facet normal 1.0 -6.960056826695875e-16 1.3442961873086433e-31
  outer loop
    vertex 1.9302652707927144 0.8635940133968386 0.5439999999999994
    vertex 1.9302652707927148 1.5016480133968408 2.220446049250313e-16
    vertex 1.9302652707927148 1.5016480133968408 0.543999999999998
  endloop
endfacet
facet normal 1.2559083988972032e-15 -1.0 4.0817022964160377e-16
  outer loop
    vertex 1.4882652707927029 0.8635940133968381 0.5439999999999994
    vertex 1.9302652707927144 0.8635940133968384 2.3314683517128287e-15
    vertex 1.9302652707927144 0.8635940133968386 0.5439999999999994
  endloop
endfacet
facet normal 6.389947492810044e-16 1.0 -1.824929096727601e-15
  outer loop
    vertex 1.0462652707927091 1.501648013396842 0.0
    vertex 1.1630744903270482 1.501648013396842 0.05838339114522678
    vertex 1.9302652707927148 1.5016480133968408 2.220446049250313e-16
  endloop
endfacet
facet normal 6.389947492810044e-16 1.0 -1.824929096727601e-15
  outer loop
    vertex 1.1630744903270482 1.501648013396842 0.05838339114522678
    vertex 1.0462652707927091 1.501648013396842 0.0
    vertex 1.488265270792705 1.50164801339684 0.5439999999999975
  endloop
endfacet
facet normal 6.389947492810044e-16 1.0 -1.824929096727601e-15
  outer loop
    vertex 1.1630744903270482 1.501648013396842 0.05838339114522678
    vertex 1.488265270792705 1.50164801339684 0.5439999999999975
    vertex 1.4880744903270466 1.50164801339684 0.4583833911452269
  endloop
endfacet
facet normal 6.389947492810044e-16 1.0 -1.824929096727601e-15
  outer loop
    vertex 1.9302652707927148 1.5016480133968408 2.220446049250313e-16
    vertex 1.8130744903270468 1.5016480133968415 0.05838339114522684
    vertex 1.488265270792705 1.50164801339684 0.5439999999999975
  endloop
endfacet
facet normal 6.389947492810044e-16 1.0 -1.824929096727601e-15
  outer loop
    vertex 1.8130744903270468 1.5016480133968415 0.05838339114522684
    vertex 1.9302652707927148 1.5016480133968408 2.220446049250313e-16
    vertex 1.1630744903270482 1.501648013396842 0.05838339114522678
  endloop
endfacet
facet normal 6.389947492810044e-16 1.0 -1.824929096727601e-15
  outer loop
    vertex 1.488265270792705 1.50164801339684 0.5439999999999975
    vertex 1.8130744903270468 1.5016480133968415 0.05838339114522684
    vertex 1.4880744903270466 1.50164801339684 0.4583833911452269
  endloop
endfacet
facet normal -2.2204460492503015e-16 1.824929096727601e-15 1.0
  outer loop
    vertex 1.8130744903270464 0.8635940133968404 0.058383391145229
    vertex 1.1630744903270482 1.501648013396842 0.05838339114522678
    vertex 1.1630744903270478 0.8635940133968389 0.058383391145228836
  endloop
endfacet
facet normal -2.2204460492503015e-16 1.824929096727601e-15 1.0
  outer loop
    vertex 1.1630744903270482 1.501648013396842 0.05838339114522678
    vertex 1.8130744903270464 0.8635940133968404 0.058383391145229
    vertex 1.8130744903270468 1.5016480133968415 0.05838339114522684
  endloop
endfacet
facet normal 2.2204460492503015e-16 -1.824929096727601e-15 -1.0
  outer loop
    vertex 1.0462652707927091 1.501648013396842 0.0
    vertex 1.9302652707927144 0.8635940133968384 2.3314683517128287e-15
    vertex 1.0462652707927087 0.8635940133968389 2.1094237467877974e-15
  endloop
endfacet
facet normal 2.2204460492503015e-16 -1.824929096727601e-15 -1.0
  outer loop
    vertex 1.9302652707927144 0.8635940133968384 2.3314683517128287e-15
    vertex 1.0462652707927091 1.501648013396842 0.0
    vertex 1.9302652707927148 1.5016480133968408 2.220446049250313e-16
  endloop
endfacet
facet normal -6.389947492810044e-16 -1.0 1.824929096727601e-15
  outer loop
    vertex 1.9302652707927144 0.8635940133968384 2.3314683517128287e-15
    vertex 1.8130744903270464 0.8635940133968404 0.058383391145229
    vertex 1.1630744903270478 0.8635940133968389 0.058383391145228836
  endloop
endfacet
facet normal -6.389947492810044e-16 -1.0 1.824929096727601e-15
  outer loop
    vertex 1.8130744903270464 0.8635940133968404 0.058383391145229
    vertex 1.9302652707927144 0.8635940133968384 2.3314683517128287e-15
    vertex 1.4882652707927029 0.8635940133968381 0.5439999999999994
  endloop
endfacet
facet normal -6.389947492810044e-16 -1.0 1.824929096727601e-15
  outer loop
    vertex 1.8130744903270464 0.8635940133968404 0.058383391145229
    vertex 1.4882652707927029 0.8635940133968381 0.5439999999999994
    vertex 1.4880744903270444 0.8635940133968377 0.45838339114522875
  endloop
endfacet
facet normal -6.389947492810044e-16 -1.0 1.824929096727601e-15
  outer loop
    vertex 1.0462652707927087 0.8635940133968389 2.1094237467877974e-15
    vertex 1.1630744903270478 0.8635940133968389 0.058383391145228836
    vertex 1.4882652707927029 0.8635940133968381 0.5439999999999994
  endloop
endfacet
facet normal -6.389947492810044e-16 -1.0 1.824929096727601e-15
  outer loop
    vertex 1.1630744903270478 0.8635940133968389 0.058383391145228836
    vertex 1.0462652707927087 0.8635940133968389 2.1094237467877974e-15
    vertex 1.9302652707927144 0.8635940133968384 2.3314683517128287e-15
  endloop
endfacet
facet normal -6.389947492810044e-16 -1.0 1.824929096727601e-15
  outer loop
    vertex 1.4882652707927029 0.8635940133968381 0.5439999999999994
    vertex 1.1630744903270478 0.8635940133968389 0.058383391145228836
    vertex 1.4880744903270444 0.8635940133968377 0.45838339114522875
  endloop
endfacet
facet normal -0.7761140001162652 -6.548540587989608e-16 -0.6305926250944663
  outer loop
    vertex 1.4880744903270466 1.50164801339684 0.4583833911452269
    vertex 1.8130744903270464 0.8635940133968404 0.058383391145229
    vertex 1.4880744903270444 0.8635940133968377 0.45838339114522875
  endloop
endfacet
facet normal -0.7761140001162652 -6.548540587989608e-16 -0.6305926250944663
  outer loop
    vertex 1.8130744903270464 0.8635940133968404 0.058383391145229
    vertex 1.4880744903270466 1.50164801339684 0.4583833911452269
    vertex 1.8130744903270468 1.5016480133968415 0.05838339114522684
  endloop
endfacet
facet normal -0.7761140001162676 1.646719600634498e-15 0.6305926250944633
  outer loop
    vertex 1.488265270792705 1.50164801339684 0.5439999999999975
    vertex 1.0462652707927087 0.8635940133968389 2.1094237467877974e-15
    vertex 1.4882652707927029 0.8635940133968381 0.5439999999999994
  endloop
endfacet
facet normal -0.7761140001162676 1.646719600634498e-15 0.6305926250944633
  outer loop
    vertex 1.0462652707927087 0.8635940133968389 2.1094237467877974e-15
    vertex 1.488265270792705 1.50164801339684 0.5439999999999975
    vertex 1.0462652707927091 1.501648013396842 0.0
  endloop
endfacet
facet normal 0.7761140001162671 -1.6467196006344981e-15 -0.6305926250944638
  outer loop
    vertex 1.1630744903270478 0.8635940133968389 0.058383391145228836
    vertex 1.4880744903270466 1.50164801339684 0.4583833911452269
    vertex 1.4880744903270444 0.8635940133968377 0.45838339114522875
  endloop
endfacet
facet normal 0.7761140001162671 -1.6467196006344981e-15 -0.6305926250944638
  outer loop
    vertex 1.4880744903270466 1.50164801339684 0.4583833911452269
    vertex 1.1630744903270478 0.8635940133968389 0.058383391145228836
    vertex 1.1630744903270482 1.501648013396842 0.05838339114522678
  endloop
endfacet
facet normal -6.279541994486056e-16 2.523020599677257e-15 1.0
  outer loop
    vertex 1.9302652707927144 0.8635940133968386 0.5439999999999994
    vertex 1.488265270792705 1.50164801339684 0.5439999999999975
    vertex 1.4882652707927029 0.8635940133968381 0.5439999999999994
  endloop
endfacet
facet normal -6.279541994486056e-16 2.523020599677257e-15 1.0
  outer loop
    vertex 1.488265270792705 1.50164801339684 0.5439999999999975
    vertex 1.9302652707927144 0.8635940133968386 0.5439999999999994
    vertex 1.9302652707927148 1.5016480133968408 0.543999999999998
  endloop
endfacet
facet normal -2.0094534382355332e-15 1.0 1.5989665736043217e-31
  outer loop
    vertex 1.9302652707927148 1.5016480133968408 0.543999999999998
    vertex 1.9302652707927148 1.5016480133968408 2.220446049250313e-16
    vertex 1.488265270792705 1.50164801339684 0.5439999999999975
  endloop
endfacet
endsolid wireHolder
